<?xml version="1.0" encoding="utf-8"?>
<!-- Generator: Adobe Illustrator 24.0.1, SVG Export Plug-In . SVG Version: 6.00 Build 0)  -->
<svg version="1.1" id="Layer_1" xmlns="http://www.w3.org/2000/svg" xmlns:xlink="http://www.w3.org/1999/xlink" x="0px" y="0px"
	 viewBox="0 0 100 100" style="enable-background:new 0 0 100 100;" xml:space="preserve">
<style type="text/css">
	.st0{fill:#853795;}
	.st1{fill:none;}
	.st2{fill-rule:evenodd;clip-rule:evenodd;}
	.st3{fill:#D3D3D3;}
	.st4{fill:#FCB651;}
	.st5{fill:#46B978;}
	.st6{fill:#F36C21;}
	.st7{fill:#1F572B;}
	.st8{fill:#2F2F85;}
</style>
<g>
	<circle class="st0" cx="50" cy="50" r="50"/>
	<g>
		<g>
			<g>
				<g>
					<g>
						<path class="st1" d="M100.6,60.1c0.3-1.7,0.5-3.3,0.8-5l0.3-5H90.3l-0.2,4c-0.2,1.3-0.4,2.6-0.6,3.9L100.6,60.1z"/>
					</g>
					<g>
						<path class="st2" d="M93.3,50.8l-0.2,3.5c-0.1,1.2-0.3,2.3-0.5,3.5l1.8,0.3c0.2-1.2,0.4-2.4,0.5-3.6l0.2-3.7H93.3z"/>
						<path class="st2" d="M95.9,58.3l1.8,0.3c0.2-1.3,0.4-2.6,0.6-3.9l0.2-3.9h-1.9l-0.2,3.8C96.3,55.8,96.1,57.1,95.9,58.3z"/>
					</g>
				</g>
			</g>
			<g>
				<g>
					<g>
						<path class="st1" d="M97.6,69.7c0.6-1.6,1.2-3.2,1.7-4.8c0.4-1.6,0.9-3.3,1.2-4.9l-11-2.2c-0.3,1.3-0.7,2.6-1,3.8
							c-0.4,1.3-0.9,2.5-1.3,3.7L97.6,69.7z"/>
					</g>
					<g>
						<path class="st2" d="M92.3,59.2l-0.9,3.4c-0.3,1.1-0.8,2.2-1.2,3.3l1.7,0.7c0.4-1.2,0.9-2.3,1.2-3.4l0.9-3.5L92.3,59.2z"/>
						<path class="st2" d="M93.4,67.1l1.7,0.7c0.4-1.2,0.9-2.5,1.3-3.7l1-3.8l-1.8-0.4l-0.9,3.7C94.3,64.8,93.8,65.9,93.4,67.1z"/>
					</g>
				</g>
			</g>
			<g>
				<g>
					<g>
						<path class="st1" d="M92.9,78.7c0.9-1.4,1.8-2.9,2.6-4.3c0.7-1.5,1.5-3,2.2-4.6l-10.4-4.3c-0.5,1.2-1.1,2.4-1.7,3.6
							c-0.7,1.1-1.4,2.3-2,3.4L92.9,78.7z"/>
					</g>
					<g>
						<path class="st2" d="M89.7,67.3l-1.5,3.2c-0.6,1-1.2,2-1.8,3l1.6,1c0.6-1,1.3-2.1,1.9-3.1l1.6-3.3L89.7,67.3z"/>
						<path class="st2" d="M89.2,75.3l1.6,1c0.7-1.1,1.4-2.2,2-3.4l1.7-3.5l-1.7-0.7L91.2,72C90.5,73.1,89.9,74.2,89.2,75.3z"/>
					</g>
				</g>
			</g>
			<g>
				<g>
					<g>
						<path class="st1" d="M86.5,86.5c1.1-1.2,2.3-2.5,3.4-3.7c1-1.3,2-2.7,3-4.1l-9.3-6.3c-0.8,1.1-1.6,2.1-2.4,3.2l-2.7,2.9
							L86.5,86.5z"/>
					</g>
					<g>
						<polygon class="st2" points="85.6,74.7 83.5,77.5 81.1,80.1 82.5,81.4 84.9,78.7 87.1,75.7 						"/>
						<polygon class="st2" points="83.5,82.4 84.9,83.7 87.5,80.8 89.9,77.7 88.3,76.6 86.1,79.6 						"/>
					</g>
				</g>
			</g>
			<g>
				<g>
					<g>
						<path class="st1" d="M78.7,92.9c1.4-1,2.7-2,4.1-3c1.3-1.1,2.5-2.3,3.8-3.4l-8-8l-2.9,2.7c-1.1,0.8-2.1,1.6-3.2,2.4L78.7,92.9
							z"/>
					</g>
					<g>
						<polygon class="st2" points="80.1,81.1 77.5,83.5 74.6,85.6 75.7,87.1 78.6,84.9 81.4,82.5 						"/>
						<path class="st2" d="M76.6,88.4l1.1,1.5l3.2-2.4c1-0.9,1.9-1.8,2.9-2.6l-1.3-1.3c-0.9,0.8-1.9,1.7-2.8,2.5L76.6,88.4z"/>
					</g>
				</g>
			</g>
			<g>
				<g>
					<g>
						<path class="st1" d="M69.7,97.6c1.6-0.7,3.1-1.4,4.6-2.2c1.5-0.8,2.9-1.7,4.3-2.6l-6.3-9.3c-1.1,0.7-2.2,1.4-3.4,2
							c-1.2,0.5-2.4,1.2-3.6,1.7L69.7,97.6z"/>
					</g>
					<g>
						<path class="st2" d="M73.4,86.4c-1,0.6-2,1.2-3,1.8l-3.2,1.5l0.7,1.7l3.3-1.6c1.1-0.6,2.1-1.3,3.1-1.9L73.4,86.4z"/>
						<path class="st2" d="M68.6,92.8l0.7,1.7l3.5-1.7c1.2-0.6,2.3-1.3,3.4-2l-1-1.6c-1.1,0.6-2.1,1.3-3.2,1.9L68.6,92.8z"/>
					</g>
				</g>
			</g>
			<g>
				<g>
					<g>
						<path class="st1" d="M60.1,100.6c1.6-0.3,3.3-0.8,4.9-1.2c1.6-0.5,3.2-1.1,4.8-1.7l-4.3-10.4c-1.2,0.4-2.5,0.9-3.7,1.3
							c-1.3,0.3-2.5,0.7-3.8,1L60.1,100.6z"/>
					</g>
					<g>
						<path class="st2" d="M65.9,90.3c-1.1,0.4-2.2,0.8-3.3,1.2l-3.4,0.9l0.4,1.8l3.5-0.9c1.2-0.4,2.3-0.8,3.5-1.2L65.9,90.3z"/>
						<path class="st2" d="M59.9,95.6l0.4,1.8l3.8-1c1.3-0.4,2.5-0.9,3.7-1.3l-0.7-1.7c-1.2,0.4-2.4,0.9-3.6,1.3L59.9,95.6z"/>
					</g>
				</g>
			</g>
			<g>
				<g>
					<g>
						<path class="st1" d="M50,101.6l5-0.2c1.7-0.2,3.3-0.5,5-0.7l-2.2-11c-1.3,0.2-2.6,0.4-3.9,0.6l-4,0.2v11.1H50z"/>
					</g>
					<g>
						<path class="st2" d="M57.7,92.6c-1.2,0.2-2.3,0.4-3.5,0.5l-3.5,0.2v1.9l3.7-0.2c1.2-0.1,2.4-0.4,3.6-0.5L57.7,92.6z"/>
						<path class="st2" d="M50.8,96.6v1.9l3.9-0.2c1.3-0.2,2.6-0.4,3.9-0.6l-0.3-1.8c-1.2,0.2-2.5,0.4-3.7,0.5L50.8,96.6z"/>
					</g>
				</g>
			</g>
			<g>
				<g>
					<g>
						<path class="st1" d="M39.9,100.6c1.7,0.3,3.3,0.5,5,0.8l5,0.3V90.3l-4-0.2c-1.3-0.2-2.6-0.4-3.9-0.6L39.9,100.6z"/>
					</g>
					<g>
						<path class="st2" d="M49.2,93.3l-3.5-0.2c-1.2-0.1-2.3-0.3-3.5-0.5l-0.3,1.8c1.2,0.2,2.4,0.4,3.6,0.5l3.7,0.2V93.3z"/>
						<path class="st2" d="M41.7,95.9l-0.3,1.8c1.3,0.2,2.6,0.4,3.9,0.6l3.9,0.2v-1.9l-3.8-0.2C44.2,96.3,42.9,96.1,41.7,95.9z"/>
					</g>
				</g>
			</g>
			<g>
				<g>
					<g>
						<path class="st1" d="M30.3,97.6c1.6,0.6,3.2,1.2,4.8,1.7c1.6,0.4,3.3,0.9,4.9,1.2l2.2-11c-1.3-0.3-2.6-0.7-3.8-1
							c-1.3-0.4-2.5-0.9-3.7-1.3L30.3,97.6z"/>
					</g>
					<g>
						<path class="st2" d="M40.8,92.3l-3.4-0.9c-1.1-0.3-2.2-0.8-3.3-1.2L33.4,92c1.2,0.4,2.3,0.9,3.4,1.2l3.5,0.9L40.8,92.3z"/>
						<path class="st2" d="M32.9,93.4l-0.7,1.7c1.2,0.4,2.5,0.9,3.7,1.3l3.8,1l0.4-1.8l-3.7-0.9C35.2,94.3,34.1,93.8,32.9,93.4z"/>
					</g>
				</g>
			</g>
			<g>
				<g>
					<g>
						<path class="st1" d="M21.3,92.9c1.4,0.9,2.9,1.8,4.3,2.6c1.5,0.7,3,1.5,4.6,2.2l4.3-10.4c-1.2-0.5-2.4-1.1-3.6-1.7
							c-1.1-0.7-2.3-1.4-3.4-2L21.3,92.9z"/>
					</g>
					<g>
						<path class="st2" d="M32.7,89.7l-3.2-1.5c-1-0.6-2-1.2-3-1.8l-1,1.6c1,0.6,2.1,1.3,3.1,1.9l3.3,1.6L32.7,89.7z"/>
						<path class="st2" d="M24.7,89.2l-1,1.6c1.1,0.7,2.2,1.4,3.4,2l3.5,1.7l0.7-1.7L28,91.2C26.9,90.5,25.8,89.9,24.7,89.2z"/>
					</g>
				</g>
			</g>
			<g>
				<g>
					<g>
						<path class="st1" d="M13.5,86.5c1.2,1.1,2.5,2.3,3.7,3.4c1.3,1,2.7,2,4.1,3l6.3-9.3c-1.1-0.8-2.1-1.6-3.2-2.4l-2.9-2.7
							L13.5,86.5z"/>
					</g>
					<g>
						<polygon class="st2" points="25.3,85.6 22.5,83.5 19.9,81.1 18.6,82.5 21.3,84.9 24.3,87.1 						"/>
						<polygon class="st2" points="17.6,83.5 16.3,84.9 19.2,87.5 22.3,89.9 23.4,88.3 20.4,86.1 						"/>
					</g>
				</g>
			</g>
			<g>
				<g>
					<g>
						<path class="st1" d="M7.1,78.7c1,1.4,2,2.7,3,4.1c1.1,1.3,2.3,2.5,3.4,3.8l8-8l-2.7-2.9c-0.8-1.1-1.6-2.1-2.4-3.2L7.1,78.7z"
							/>
					</g>
					<g>
						<polygon class="st2" points="18.9,80.1 16.5,77.5 14.4,74.6 12.9,75.7 15.1,78.6 17.5,81.4 						"/>
						<path class="st2" d="M11.6,76.6l-1.5,1.1l2.4,3.2c0.9,1,1.8,1.9,2.6,2.9l1.3-1.3c-0.8-0.9-1.7-1.9-2.5-2.8L11.6,76.6z"/>
					</g>
				</g>
			</g>
			<g>
				<g>
					<g>
						<path class="st1" d="M2.4,69.7c0.7,1.6,1.4,3.1,2.2,4.6s1.7,2.9,2.6,4.3l9.3-6.3c-0.7-1.1-1.4-2.2-2-3.4
							c-0.5-1.2-1.2-2.4-1.7-3.6L2.4,69.7z"/>
					</g>
					<g>
						<path class="st2" d="M13.6,73.4c-0.6-1-1.2-2-1.8-3l-1.5-3.2L8.6,68l1.6,3.3c0.6,1.1,1.3,2.1,1.9,3.1L13.6,73.4z"/>
						<path class="st2" d="M7.2,68.6l-1.7,0.7l1.7,3.5c0.6,1.2,1.3,2.3,2,3.4l1.6-1c-0.6-1.1-1.3-2.1-1.9-3.2L7.2,68.6z"/>
					</g>
				</g>
			</g>
			<g>
				<g>
					<g>
						<path class="st1" d="M-0.6,60.1c0.3,1.6,0.8,3.3,1.2,4.9c0.5,1.6,1.1,3.2,1.7,4.8l10.4-4.3c-0.4-1.2-0.9-2.5-1.3-3.7
							c-0.3-1.3-0.7-2.5-1-3.8L-0.6,60.1z"/>
					</g>
					<g>
						<path class="st2" d="M9.7,65.9c-0.4-1.1-0.8-2.2-1.2-3.3l-0.9-3.4l-1.8,0.4l0.9,3.5c0.4,1.2,0.8,2.3,1.2,3.5L9.7,65.9z"/>
						<path class="st2" d="M4.4,59.9l-1.8,0.4l1,3.8c0.4,1.3,0.9,2.5,1.3,3.7l1.7-0.7c-0.4-1.2-0.9-2.4-1.3-3.6L4.4,59.9z"/>
					</g>
				</g>
			</g>
			<g>
				<g>
					<g>
						<path class="st1" d="M-1.6,50l0.2,5c0.2,1.7,0.5,3.3,0.7,5l11-2.2c-0.2-1.3-0.4-2.6-0.6-3.9l-0.2-4H-1.6V50z"/>
					</g>
					<g>
						<path class="st2" d="M7.4,57.7c-0.2-1.2-0.4-2.3-0.5-3.5l-0.2-3.5H4.8L5,54.4c0.1,1.2,0.4,2.4,0.5,3.6L7.4,57.7z"/>
						<path class="st2" d="M3.4,50.8H1.5l0.2,3.9c0.2,1.3,0.4,2.6,0.6,3.9l1.8-0.3c-0.2-1.2-0.4-2.5-0.5-3.7L3.4,50.8z"/>
					</g>
				</g>
			</g>
			<g>
				<g>
					<g>
						<path class="st1" d="M-0.6,39.9c-0.3,1.7-0.5,3.3-0.8,5l-0.3,5H9.7l0.2-4c0.2-1.3,0.4-2.6,0.6-3.9L-0.6,39.9z"/>
					</g>
					<g>
						<path class="st2" d="M6.7,49.2l0.2-3.5c0.1-1.2,0.3-2.3,0.5-3.5l-1.8-0.3c-0.2,1.2-0.4,2.4-0.5,3.6l-0.2,3.7H6.7z"/>
						<path class="st2" d="M4.1,41.7l-1.8-0.3c-0.2,1.3-0.4,2.6-0.6,3.9l-0.2,3.9h1.9l0.2-3.8C3.7,44.2,3.9,42.9,4.1,41.7z"/>
					</g>
				</g>
			</g>
			<g>
				<g>
					<g>
						<path class="st1" d="M2.4,30.3c-0.6,1.6-1.2,3.2-1.7,4.8c-0.4,1.6-0.9,3.3-1.2,4.9l11,2.2c0.3-1.3,0.7-2.6,1-3.8
							c0.4-1.3,0.9-2.5,1.3-3.7L2.4,30.3z"/>
					</g>
					<g>
						<path class="st2" d="M7.7,40.8l0.9-3.4c0.3-1.1,0.8-2.2,1.2-3.3L8,33.4c-0.4,1.2-0.9,2.3-1.2,3.4l-0.9,3.5L7.7,40.8z"/>
						<path class="st2" d="M6.6,32.9l-1.7-0.7c-0.4,1.2-0.9,2.5-1.3,3.7l-1,3.8l1.8,0.4l0.9-3.7C5.7,35.2,6.2,34.1,6.6,32.9z"/>
					</g>
				</g>
			</g>
			<g>
				<g>
					<g>
						<path class="st1" d="M7.1,21.3c-0.9,1.4-1.8,2.9-2.6,4.3c-0.7,1.5-1.5,3-2.2,4.6l10.4,4.3c0.5-1.2,1.1-2.4,1.7-3.6
							c0.7-1.1,1.4-2.3,2-3.4L7.1,21.3z"/>
					</g>
					<g>
						<path class="st2" d="M10.3,32.7l1.5-3.2c0.6-1,1.2-2,1.8-3l-1.6-1c-0.6,1-1.3,2.1-1.9,3.1L8.6,32L10.3,32.7z"/>
						<path class="st2" d="M10.8,24.7l-1.6-1c-0.7,1.1-1.4,2.2-2,3.4l-1.7,3.5l1.7,0.7L8.8,28C9.5,26.9,10.1,25.8,10.8,24.7z"/>
					</g>
				</g>
			</g>
			<g>
				<g>
					<g>
						<path class="st1" d="M13.5,13.5c-1.1,1.2-2.3,2.5-3.4,3.7c-1,1.3-2,2.7-3,4.1l9.3,6.3c0.8-1.1,1.6-2.1,2.4-3.2l2.7-2.9
							L13.5,13.5z"/>
					</g>
					<g>
						<polygon class="st2" points="14.4,25.3 16.5,22.5 18.9,19.9 17.5,18.6 15.1,21.3 12.9,24.3 						"/>
						<polygon class="st2" points="16.5,17.6 15.1,16.3 12.5,19.2 10.1,22.3 11.7,23.4 13.9,20.4 						"/>
					</g>
				</g>
			</g>
			<g>
				<g>
					<g>
						<path class="st1" d="M21.3,7.1c-1.4,1-2.7,2-4.1,3c-1.3,1.1-2.5,2.3-3.8,3.4l8,8l2.9-2.7c1.1-0.8,2.1-1.6,3.2-2.4L21.3,7.1z"
							/>
					</g>
					<g>
						<polygon class="st2" points="19.9,18.9 22.5,16.5 25.4,14.4 24.3,12.9 21.4,15.1 18.6,17.5 						"/>
						<path class="st2" d="M23.4,11.6l-1.1-1.5l-3.2,2.4c-1,0.9-1.9,1.8-2.9,2.6l1.3,1.3c0.9-0.8,1.9-1.7,2.8-2.5L23.4,11.6z"/>
					</g>
				</g>
			</g>
			<g>
				<g>
					<g>
						<path class="st1" d="M30.3,2.4c-1.6,0.7-3.1,1.4-4.6,2.2s-2.9,1.7-4.3,2.6l6.3,9.3c1.1-0.7,2.2-1.4,3.4-2
							c1.2-0.5,2.4-1.2,3.6-1.7L30.3,2.4z"/>
					</g>
					<g>
						<path class="st2" d="M26.6,13.6c1-0.6,2-1.2,3-1.8l3.2-1.5L32,8.6l-3.3,1.6c-1.1,0.6-2.1,1.3-3.1,1.9L26.6,13.6z"/>
						<path class="st2" d="M31.4,7.2l-0.7-1.7l-3.5,1.7c-1.2,0.6-2.3,1.3-3.4,2l1,1.6c1.1-0.6,2.1-1.3,3.2-1.9L31.4,7.2z"/>
					</g>
				</g>
			</g>
			<g>
				<g>
					<g>
						<path class="st1" d="M39.9-0.6c-1.6,0.3-3.3,0.8-4.9,1.2c-1.6,0.5-3.2,1.1-4.8,1.7l4.3,10.4c1.2-0.4,2.5-0.9,3.7-1.3
							c1.3-0.3,2.5-0.7,3.8-1L39.9-0.6z"/>
					</g>
					<g>
						<path class="st2" d="M34.1,9.7c1.1-0.4,2.2-0.8,3.3-1.2l3.4-0.9l-0.4-1.8l-3.5,0.9c-1.2,0.4-2.3,0.8-3.5,1.2L34.1,9.7z"/>
						<path class="st2" d="M40.1,4.4l-0.4-1.8l-3.8,1c-1.3,0.4-2.5,0.9-3.7,1.3l0.7,1.7c1.2-0.4,2.4-0.9,3.6-1.3L40.1,4.4z"/>
					</g>
				</g>
			</g>
			<g>
				<g>
					<g>
						<path class="st1" d="M50-1.6l-5,0.2c-1.7,0.2-3.3,0.5-5,0.7l2.2,11c1.3-0.2,2.6-0.4,3.9-0.6l4-0.2V-1.6H50z"/>
					</g>
					<g>
						<path class="st2" d="M42.3,7.4c1.2-0.2,2.3-0.4,3.5-0.5l3.5-0.2V4.8L45.6,5c-1.2,0.1-2.4,0.4-3.6,0.5L42.3,7.4z"/>
						<path class="st2" d="M49.2,3.4V1.5l-3.9,0.2c-1.3,0.2-2.6,0.4-3.9,0.6l0.3,1.8c1.2-0.2,2.5-0.4,3.7-0.5L49.2,3.4z"/>
					</g>
				</g>
			</g>
			<g>
				<g>
					<g>
						<path class="st1" d="M60.1-0.6c-1.7-0.3-3.3-0.5-5-0.8l-5-0.3V9.7l4,0.2c1.3,0.2,2.6,0.4,3.9,0.6L60.1-0.6z"/>
					</g>
					<g>
						<path class="st2" d="M50.8,6.7l3.5,0.2c1.2,0.1,2.3,0.3,3.5,0.5l0.3-1.8c-1.2-0.2-2.4-0.4-3.6-0.5l-3.7-0.2V6.7z"/>
						<path class="st2" d="M58.3,4.1l0.3-1.8c-1.3-0.2-2.6-0.4-3.9-0.6l-3.9-0.2v1.9l3.8,0.2C55.8,3.7,57.1,3.9,58.3,4.1z"/>
					</g>
				</g>
			</g>
			<g>
				<g>
					<g>
						<path class="st1" d="M69.7,2.4c-1.6-0.6-3.2-1.2-4.8-1.7c-1.6-0.4-3.3-0.9-4.9-1.2l-2.2,11c1.3,0.3,2.6,0.7,3.8,1
							c1.3,0.4,2.5,0.9,3.7,1.3L69.7,2.4z"/>
					</g>
					<g>
						<path class="st2" d="M59.2,7.7l3.4,0.9c1.1,0.3,2.2,0.8,3.3,1.2L66.6,8c-1.2-0.4-2.3-0.9-3.4-1.2l-3.5-0.9L59.2,7.7z"/>
						<path class="st2" d="M67.1,6.6l0.7-1.7c-1.2-0.4-2.5-0.9-3.7-1.3l-3.8-1l-0.4,1.8l3.7,0.9C64.8,5.7,65.9,6.2,67.1,6.6z"/>
					</g>
				</g>
			</g>
			<g>
				<g>
					<g>
						<path class="st1" d="M78.7,7.1c-1.4-0.9-2.9-1.8-4.3-2.6c-1.5-0.7-3-1.5-4.6-2.2l-4.3,10.4c1.2,0.5,2.4,1.1,3.6,1.7
							c1.1,0.7,2.3,1.4,3.4,2L78.7,7.1z"/>
					</g>
					<g>
						<path class="st2" d="M67.3,10.3l3.2,1.5c1,0.6,2,1.2,3,1.8l1-1.6c-1-0.6-2.1-1.3-3.1-1.9L68,8.6L67.3,10.3z"/>
						<path class="st2" d="M75.3,10.8l1-1.6c-1.1-0.7-2.2-1.4-3.4-2l-3.5-1.7l-0.7,1.7L72,8.8C73.1,9.5,74.2,10.1,75.3,10.8z"/>
					</g>
				</g>
			</g>
			<g>
				<g>
					<g>
						<path class="st1" d="M86.5,13.5c-1.2-1.1-2.5-2.3-3.7-3.4c-1.3-1-2.7-2-4.1-3l-6.3,9.3c1.1,0.8,2.1,1.6,3.2,2.4l2.9,2.7
							L86.5,13.5z"/>
					</g>
					<g>
						<polygon class="st2" points="74.7,14.4 77.5,16.5 80.1,18.9 81.4,17.5 78.7,15.1 75.7,12.9 						"/>
						<polygon class="st2" points="82.4,16.5 83.7,15.1 80.8,12.5 77.7,10.1 76.6,11.7 79.6,13.9 						"/>
					</g>
				</g>
			</g>
			<g>
				<g>
					<g>
						<path class="st1" d="M92.9,21.3c-1-1.4-2-2.7-3-4.1c-1.1-1.3-2.3-2.5-3.4-3.8l-8,8l2.7,2.9c0.8,1.1,1.6,2.1,2.4,3.2L92.9,21.3
							z"/>
					</g>
					<g>
						<polygon class="st2" points="81.1,19.9 83.5,22.5 85.6,25.4 87.1,24.3 84.9,21.4 82.5,18.6 						"/>
						<path class="st2" d="M88.4,23.4l1.5-1.1l-2.4-3.2c-0.9-1-1.8-1.9-2.6-2.9l-1.3,1.3c0.8,0.9,1.7,1.9,2.5,2.8L88.4,23.4z"/>
					</g>
				</g>
			</g>
			<g>
				<g>
					<g>
						<path class="st1" d="M97.6,30.3c-0.7-1.6-1.4-3.1-2.2-4.6c-0.8-1.5-1.7-2.9-2.6-4.3l-9.3,6.3c0.7,1.1,1.4,2.2,2,3.4
							c0.5,1.2,1.2,2.4,1.7,3.6L97.6,30.3z"/>
					</g>
					<g>
						<path class="st2" d="M86.4,26.6c0.6,1,1.2,2,1.8,3l1.5,3.2l1.7-0.7l-1.6-3.3c-0.6-1.1-1.3-2.1-1.9-3.1L86.4,26.6z"/>
						<path class="st2" d="M92.8,31.4l1.7-0.7l-1.7-3.5c-0.6-1.2-1.3-2.3-2-3.4l-1.6,1c0.6,1.1,1.3,2.1,1.9,3.2L92.8,31.4z"/>
					</g>
				</g>
			</g>
			<g>
				<g>
					<g>
						<path class="st1" d="M100.6,39.9c-0.3-1.6-0.8-3.3-1.2-4.9c-0.5-1.6-1.1-3.2-1.7-4.8l-10.4,4.3c0.4,1.2,0.9,2.5,1.3,3.7
							c0.3,1.3,0.7,2.5,1,3.8L100.6,39.9z"/>
					</g>
					<g>
						<path class="st2" d="M90.3,34.1c0.4,1.1,0.8,2.2,1.2,3.3l0.9,3.4l1.8-0.4l-0.9-3.5c-0.4-1.2-0.8-2.3-1.2-3.5L90.3,34.1z"/>
						<path class="st2" d="M95.6,40.1l1.8-0.4l-1-3.8c-0.4-1.3-0.9-2.5-1.3-3.7l-1.7,0.7c0.4,1.2,0.9,2.4,1.3,3.6L95.6,40.1z"/>
					</g>
				</g>
			</g>
			<g>
				<g>
					<g>
						<path class="st1" d="M101.6,50l-0.2-5c-0.2-1.7-0.5-3.3-0.7-5l-11,2.2c0.2,1.3,0.4,2.6,0.6,3.9l0.2,4h11.1V50z"/>
					</g>
					<g>
						<path class="st2" d="M92.6,42.3c0.2,1.2,0.4,2.3,0.5,3.5l0.2,3.5h1.9L95,45.6c-0.1-1.2-0.4-2.4-0.5-3.6L92.6,42.3z"/>
						<path class="st2" d="M96.6,49.2h1.9l-0.2-3.9c-0.2-1.3-0.4-2.6-0.6-3.9l-1.8,0.3c0.2,1.2,0.4,2.5,0.5,3.7L96.6,49.2z"/>
					</g>
				</g>
			</g>
		</g>
	</g>
</g>
<g>
	<circle class="st3" cx="50" cy="50" r="24.9"/>
	<g>
		<g>
			<g>
				<g>
					<path class="st4" d="M60.9,54.5c4.6,0.3,9.6-1.2,14-4.5c4.4,3.3,8.1,8.3,10.2,14.6c-6,2.9-12.1,3.9-17.5,3.1
						C66.9,62.2,64.4,57.6,60.9,54.5z"/>
				</g>
			</g>
			<g>
				<g>
					<path class="st4" d="M54.5,60.9c3.1,3.5,7.7,5.9,13.1,6.7c0.8,5.4-0.1,11.6-3.1,17.5C58.3,83,53.2,79.3,50,74.9
						C53.3,70.6,54.8,65.6,54.5,60.9z"/>
				</g>
			</g>
			<g>
				<g>
					<path class="st4" d="M45.5,60.9c-0.3,4.6,1.2,9.6,4.5,14c-3.3,4.4-8.3,8.1-14.6,10.2c-2.9-6-3.9-12.1-3.1-17.5
						C37.8,66.9,42.4,64.4,45.5,60.9z"/>
				</g>
			</g>
			<g>
				<g>
					<path class="st4" d="M39.1,54.5c-3.5,3.1-5.9,7.7-6.7,13.1c-5.4,0.8-11.6-0.1-17.5-3.1C17,58.3,20.7,53.2,25.1,50
						C29.4,53.3,34.4,54.8,39.1,54.5z"/>
				</g>
			</g>
			<g>
				<g>
					<path class="st4" d="M39.1,45.5c-4.6-0.3-9.6,1.2-14,4.5c-4.4-3.3-8.1-8.3-10.2-14.6c6-2.9,12.1-3.9,17.5-3.1
						C33.1,37.8,35.6,42.4,39.1,45.5z"/>
				</g>
			</g>
			<g>
				<g>
					<path class="st4" d="M45.5,39.1c-3.1-3.5-7.7-5.9-13.1-6.7c-0.8-5.4,0.1-11.6,3.1-17.5C41.7,17,46.8,20.7,50,25.1
						C46.7,29.4,45.2,34.4,45.5,39.1z"/>
				</g>
			</g>
			<g>
				<g>
					<path class="st4" d="M54.5,39.1c0.3-4.6-1.2-9.6-4.5-14c3.3-4.4,8.3-8.1,14.6-10.2c2.9,6,3.9,12.1,3.1,17.5
						C62.2,33.1,57.6,35.6,54.5,39.1z"/>
				</g>
			</g>
			<g>
				<g>
					<path class="st4" d="M60.9,45.5c3.5-3.1,5.9-7.7,6.7-13.1c5.4-0.8,11.6,0.1,17.5,3.1C83,41.7,79.3,46.8,74.9,50
						C70.6,46.7,65.6,45.2,60.9,45.5z"/>
				</g>
			</g>
		</g>
	</g>
</g>
<g>
	<g>
		<path class="st5" d="M53.5,10.5h-2.2V17c0,1-0.8,1.7-1.7,1.7c-1,0-1.7-0.8-1.7-1.7h-2.2c0,2.2,1.8,3.9,3.9,3.9
			c2.2,0,3.9-1.8,3.9-3.9V10.5"/>
		<polyline class="st6" points="53.5,8.3 49.6,8.3 49.6,10.5 51.3,10.5 51.3,8.3 53.5,8.3 53.5,10.5 53.5,8.3 		"/>
		<polyline class="st7" points="53.5,8.3 51.3,8.3 51.3,10.5 53.5,10.5 53.5,8.3 		"/>
	</g>
</g>
<g>
	<g>
		<path class="st5" d="M89.9,53.9v-2.2h-6.5c-1,0-1.7-0.8-1.7-1.7c0-1,0.8-1.7,1.7-1.7v-2.2c-2.2,0-3.9,1.8-3.9,3.9
			c0,2.2,1.8,3.9,3.9,3.9H89.9"/>
		<polyline class="st6" points="92.1,53.9 92.1,50 89.9,50 89.9,51.7 92.1,51.7 92.1,53.9 89.9,53.9 92.1,53.9 		"/>
		<polyline class="st7" points="92.1,53.9 92.1,51.7 89.9,51.7 89.9,53.9 92.1,53.9 		"/>
	</g>
</g>
<g>
	<g>
		<path class="st5" d="M10.4,46.1v2.2h6.5c1,0,1.7,0.8,1.7,1.7c0,1-0.8,1.7-1.7,1.7v2.2c2.2,0,3.9-1.8,3.9-3.9
			c0-2.2-1.8-3.9-3.9-3.9H10.4"/>
		<polyline class="st6" points="8.2,46.1 8.2,50 10.4,50 10.4,48.3 8.2,48.3 8.2,46.1 10.4,46.1 8.2,46.1 		"/>
		<polyline class="st7" points="8.2,46.1 8.2,48.3 10.4,48.3 10.4,46.1 8.2,46.1 		"/>
	</g>
</g>
<g>
	<g>
		<path class="st5" d="M45.6,89.5h2.2V83c0-1,0.8-1.7,1.7-1.7c1,0,1.7,0.8,1.7,1.7h2.2c0-2.2-1.8-3.9-3.9-3.9
			c-2.2,0-3.9,1.8-3.9,3.9V89.5"/>
		<polyline class="st6" points="45.6,91.7 49.6,91.7 49.6,89.5 47.8,89.5 47.8,91.7 45.6,91.7 45.6,89.5 45.6,91.7 		"/>
		<polyline class="st7" points="45.6,91.7 47.8,91.7 47.8,89.5 45.6,89.5 45.6,91.7 		"/>
	</g>
</g>
<g>
	<g>
		<path class="st5" d="M24.6,19.7L23,21.2l4.6,4.6c0.7,0.7,0.7,1.8,0,2.5s-1.8,0.7-2.5,0l-1.5,1.5c1.5,1.5,4,1.5,5.6,0
			c1.5-1.5,1.5-4,0-5.6L24.6,19.7"/>
		<polyline class="st6" points="23,18.2 20.3,20.9 21.8,22.5 23,21.2 21.5,19.7 23,18.2 24.6,19.7 23,18.2 		"/>
		<polyline class="st7" points="23,18.2 21.5,19.7 23,21.2 24.6,19.7 23,18.2 		"/>
	</g>
</g>
<g>
	<g>
		<path class="st5" d="M81,24.7l-1.5-1.5l-4.6,4.6c-0.7,0.7-1.8,0.7-2.5,0s-0.7-1.8,0-2.5l-1.5-1.5c-1.5,1.5-1.5,4,0,5.6
			c1.5,1.5,4,1.5,5.6,0L81,24.7"/>
		<polyline class="st6" points="82.6,23.1 79.8,20.3 78.2,21.9 79.5,23.1 81,21.6 82.6,23.1 81,24.7 82.6,23.1 		"/>
		<polyline class="st7" points="82.6,23.1 81,21.6 79.5,23.1 81,24.7 82.6,23.1 		"/>
	</g>
</g>
<g>
	<g>
		<path class="st5" d="M19.2,75.3l1.5,1.5l4.6-4.6c0.7-0.7,1.8-0.7,2.5,0s0.7,1.8,0,2.5l1.5,1.5c1.5-1.5,1.5-4,0-5.6s-4-1.5-5.6,0
			L19.2,75.3"/>
		<polyline class="st6" points="17.7,76.9 20.5,79.7 22,78.1 20.8,76.9 19.2,78.4 17.7,76.9 19.2,75.3 17.7,76.9 		"/>
		<polyline class="st7" points="17.7,76.9 19.2,78.4 20.8,76.9 19.2,75.3 17.7,76.9 		"/>
	</g>
</g>
<g>
	<g>
		<path class="st5" d="M74.9,81.1l1.5-1.5L71.8,75c-0.7-0.7-0.7-1.8,0-2.5s1.8-0.7,2.5,0l1.5-1.5c-1.5-1.5-4-1.5-5.6,0s-1.5,4,0,5.6
			L74.9,81.1"/>
		<polyline class="st6" points="76.4,82.6 79.2,79.9 77.6,78.3 76.4,79.6 78,81.1 76.4,82.6 74.9,81.1 76.4,82.6 		"/>
		<polyline class="st7" points="76.4,82.6 78,81.1 76.4,79.6 74.9,81.1 76.4,82.6 		"/>
	</g>
</g>
<g>
	<path class="st8" d="M37.9,55c-0.1,2.8-2.1,5-4.8,5.6v2.1h-3.2v-2.1c-3.2-0.6-4.4-3.1-4.7-3.9l3.4-1.3c0.2,0.5,0.6,1,1.3,1.4v-5.6
		c-4.1-1.7-4.9-4.4-4.8-6.4c0.1-2.8,2.1-5,4.8-5.6v-2.1h3.2v2.1c3.2,0.6,4.4,3.1,4.7,3.9l-3.4,1.3c-0.2-0.5-0.6-1-1.3-1.4v5.6
		C37.2,50.4,38,53.1,37.9,55z M29.9,47.2v-4c-0.7,0.4-1.1,1.1-1.2,1.9C28.7,45.5,28.7,46.3,29.9,47.2z M33.1,52.8v4
		c0.7-0.4,1.1-1.1,1.2-1.9C34.3,54.5,34.3,53.7,33.1,52.8z"/>
	<path class="st8" d="M45.7,43.1v17.4H42V43.1h-1.7v-3.6h1.8C44.1,39.5,45.7,41.1,45.7,43.1z"/>
	<path class="st8" d="M60.3,45.6v8.8c0,3.4-2.7,6.1-6.1,6.1s-6.1-2.7-6.1-6.1v-8.8c0-3.4,2.7-6.1,6.1-6.1
		C57.5,39.5,60.3,42.2,60.3,45.6z M56.7,45.6c0-0.9-0.5-1.7-1.2-2.2c-0.8-0.4-1.7-0.4-2.5,0s-1.2,1.3-1.2,2.2v8.8
		c0,1.4,1.1,2.5,2.5,2.5s2.5-1.1,2.5-2.5L56.7,45.6L56.7,45.6z"/>
	<path class="st8" d="M74.9,45.6v8.8c0,3.4-2.7,6.1-6.1,6.1s-6.1-2.7-6.1-6.1v-8.8c0-3.4,2.7-6.1,6.1-6.1
		C72.2,39.5,74.9,42.2,74.9,45.6z M71.3,45.6c0-0.9-0.5-1.7-1.2-2.2c-0.8-0.4-1.7-0.4-2.5,0s-1.2,1.3-1.2,2.2v8.8
		c0,1.4,1.1,2.5,2.5,2.5s2.5-1.1,2.5-2.5v-8.8H71.3z"/>
</g>
</svg>
