<?xml version="1.0" encoding="utf-8"?>
<!-- Generator: Adobe Illustrator 24.0.2, SVG Export Plug-In . SVG Version: 6.00 Build 0)  -->
<svg version="1.1" id="Layer_1" xmlns="http://www.w3.org/2000/svg" xmlns:xlink="http://www.w3.org/1999/xlink" x="0px" y="0px"
	 viewBox="0 0 100 140" style="enable-background:new 0 0 100 140;" xml:space="preserve">
<style type="text/css">
	.st0{fill:#FFFFFF;}
	.st1{fill:none;stroke:#FF0000;stroke-miterlimit:10;}
	.st2{fill:#FF0000;}
	.st3{fill:#B85829;}
	.st4{fill:#231F20;}
	.st5{fill:#19381F;}
	.st6{fill:#8E2A28;}
	.st7{fill:#FFF100;}
	.st8{fill:#FAAF40;}
	.st9{fill:#EC1C24;}
</style>
<path class="st0" d="M88,140H12c-6.6,0-12-5.4-12-12V12C0,5.4,5.4,0,12,0h76c6.6,0,12,5.4,12,12v116C100,134.6,94.6,140,88,140z"/>
<rect x="26" y="30.6" class="st1" width="48" height="78.8"/>
<g>
	<path class="st2" d="M20.6,17.9c1.8,1.7,2.8,4,2.8,6.4v7.6h-4.8v-7.6c0-2.1-1.6-3.8-3.7-4c-0.1,0-0.2,0-0.3,0h-4v11.6h-5V4h4.8
		v11.6h4c0.1,0,0.2,0,0.3,0c2.1-0.2,3.7-1.9,3.7-4V4h4.8v7.6C23.4,13.9,22.4,16.3,20.6,17.9z"/>
</g>
<g>
	<path class="st2" d="M79.6,121.7c-1.8-1.7-2.8-4-2.8-6.4v-7.6h4.8v7.6c0,2.1,1.6,3.8,3.7,4c0.1,0,0.2,0,0.3,0h4v-11.6h4.8v28h-4.8
		v-11.6h-4c-0.1,0-0.2,0-0.3,0c-2.1,0.2-3.7,1.9-3.7,4v7.6h-4.8v-7.6C76.8,125.7,77.8,123.3,79.6,121.7z"/>
</g>
<g>
	<g>
		<path class="st3" d="M27.6,59.8c-1.4,2.5-2.9,5.3-2.7,8.2c0.2,2,1.3,3.9,2.4,5.6c1.7,2.6,3.8,5.2,6.4,6.9
			c3.4,2.2,7.5,2.9,11.5,3.6c2,0.3,4,0.6,6,0.4c1.4-0.2,2.8-0.6,4.2-1.1c6.7-2.2,13.5-4.6,19-9.1c2.7-2.2,5-4.9,6-8.2
			s0.4-7.2-2.1-9.5"/>
		<g>
			<path class="st4" d="M26.8,59.3c-1.6,2.8-3.2,5.8-2.7,9.1c0.4,2.9,2.2,5.4,3.9,7.7c1.8,2.4,3.9,4.5,6.5,5.9
				c2.7,1.4,5.8,2.1,8.8,2.6c3.1,0.5,6.3,1.2,9.4,0.5c3.2-0.7,6.4-2,9.5-3.1c5.6-2.1,11.3-4.9,15.4-9.4C81.7,68,83.8,60.8,79,56
				c-0.8-0.8-2,0.4-1.2,1.2c4,4,2.2,10.1-1.2,13.9c-3.7,4.1-8.8,6.7-13.8,8.7c-2.5,1-5.2,1.9-7.8,2.8c-1.4,0.5-2.8,0.9-4.2,1
				c-1.6,0.1-3.3-0.1-4.9-0.4c-5.4-0.9-10.8-1.9-14.7-6.1c-2-2.1-4-4.8-5-7.5c-1.2-3.4,0.4-6.6,2.1-9.5
				C28.9,59.2,27.4,58.4,26.8,59.3L26.8,59.3z"/>
		</g>
	</g>
	<g>
		<path class="st5" d="M28.6,60.6c-0.4,0.4-0.7,1-0.8,1.6c0.6,0,1.2,0,1.8,0.1c-0.4,1.2-0.9,2.4-1.3,3.6c0.6,0,1.2-0.1,1.8-0.1
			c-0.1,1.3-0.5,2.6-1.1,3.7c0.4,0.1,0.9,0.1,1.3,0c-0.3,0.4-0.3,1.1,0,1.5s1,0.6,1.5,0.3c-0.2,0.6-0.4,1.3-0.6,1.9
			c0.4,0.2,0.8,0.3,1.3,0.3c0.1,0.6,0.2,1.1,0.3,1.7c0.6,0,1.3,0,1.9-0.1c0,0.6,0,1.2,0,1.8c0.6-0.4,1.2-0.8,1.8-1.2
			c-0.2,1-0.4,2.1-0.5,3.1c0.6-0.2,1.2-0.5,1.7-1c0.3,0.4,0.6,0.9,0.7,1.4c0.5-0.3,1-0.7,1.5-1c0,0.5,0,1.1,0.3,1.6s1,0.7,1.4,0.4
			c0.4-0.3,0.6-0.9,1-0.8c0.1,0,0.2,0.2,0.3,0.3c0.4,0.5,0.7,1,1.1,1.5c0.4-0.8,1.3-1.3,2.1-1.2c0.9,0.1,1.6,0.8,1.8,1.6
			c0-0.7,0.6-1.2,1.3-1.2c0.7,0.1,1.2,0.6,1.4,1.3c-0.1-0.6,0.3-1.4,1-1.5c0.6-0.2,1.4,0.2,1.6,0.9c0.5-0.4,0-1.4,0.6-1.6
			c0.2-0.1,0.4,0.1,0.6,0.2c0.7,0.4,1.4,0.9,2.1,1.3c-0.1-0.8,0.2-1.7,0.9-2.1s1.7-0.4,2.1,0.3c0-0.8,0.6-1.6,1.4-1.7
			c0.8-0.2,1.7,0.3,1.9,1.1c0.2-1,0.4-2,1-2.8s1.9-1.1,2.6-0.5c0-0.6,0.6-0.9,1.2-0.9s1.1,0.3,1.6,0.5c0.1-0.7,0.2-1.4,0-2
			c0.7-0.1,1.5-0.1,2.2,0.2c0-0.5,0-1.1,0-1.6c0.7,0.2,1.4,0.4,2.2,0.6c0.2-0.7,0.3-1.4,0.2-2.1c0.7,0,1.4,0,2,0
			c0-0.8-0.3-1.6-0.8-2.2c0.6,0,1.2-0.2,1.8-0.4c-0.5-0.8-1.1-1.5-1.8-2.1c0.7-0.6,1.5-1.1,2.3-1.4c-0.6-0.8-1.2-1.5-1.8-2.3
			c0.8-0.5,1.7-1,2.5-1.4c-0.7-0.2-1.5-0.4-2.2-0.6c-0.2-0.1-0.4-0.1-0.6-0.3s-0.1-0.5,0.1-0.6"/>
		<g>
			<path class="st4" d="M28,60c-0.5,0.6-0.8,1.2-1,2c-0.1,0.6,0.3,1.1,0.8,1.1c0.6,0,1.2,0,1.8,0.1c-0.3-0.4-0.6-0.7-0.8-1.1
				c-0.4,1.2-0.9,2.4-1.3,3.6c-0.2,0.5,0.3,1.1,0.8,1.1c0.6,0,1.2-0.1,1.8-0.1c-0.3-0.3-0.6-0.6-0.9-0.9c-0.1,1.2-0.4,2.2-1,3.2
				c-0.2,0.4-0.1,1.2,0.5,1.3c0.6,0.1,1.2,0.1,1.8,0c-0.3-0.4-0.6-0.8-1-1.3c-0.9,1.7,0.4,3.8,2.4,3.1c-0.4-0.4-0.7-0.7-1.1-1.1
				c-0.2,0.6-0.4,1.3-0.6,1.9c-0.1,0.3,0.1,0.8,0.4,1c0.6,0.3,1.1,0.4,1.7,0.4c-0.3-0.2-0.6-0.4-0.8-0.6c0.1,0.6,0.2,1.1,0.3,1.7
				c0.1,0.4,0.5,0.6,0.8,0.6c0.6,0,1.3,0,1.9-0.1c-0.3-0.3-0.6-0.6-0.9-0.9c0,0.6,0,1.2,0,1.8c0,0.6,0.7,1.1,1.3,0.7
				s1.2-0.8,1.8-1.2c-0.4-0.3-0.8-0.6-1.3-1c-0.2,1-0.4,2.1-0.5,3.1c-0.1,0.6,0.4,1.3,1.1,1.1c0.8-0.3,1.4-0.6,2.1-1.2
				c-0.4,0-0.8,0-1.2,0c0.2,0.3,0.4,0.6,0.5,1c0.1,0.5,0.8,0.8,1.3,0.5s1-0.7,1.5-1c-0.4-0.2-0.9-0.5-1.3-0.7c0,1.2,0.3,2.7,1.7,2.9
				c0.5,0.1,1,0,1.4-0.4c0.2-0.1,0.4-0.3,0.3-0.4c0,0,0.7,1.1,0.8,1.2c0.4,0.5,1.1,0.6,1.5,0c0.6-1,2-1,2.3,0.2
				c0.3,1,1.6,0.7,1.7-0.2c0.5-0.3,0.9-0.2,1,0.3c0.3,0.9,1.7,0.8,1.7-0.2c0.3-0.8,0.6-0.9,0.9-0.2c0.2,0.5,1,0.6,1.3,0.2
				c0.4-0.4,0.4-0.8,0.5-1.4c0.1-0.2-0.1-0.2-0.3,0.1c0.2,0.1,0.4,0.3,0.6,0.4c0.5,0.3,1,0.6,1.5,0.9s1.3-0.1,1.3-0.7
				c0-0.8,0.6-2.2,1.5-1.2c0.5,0.6,1.4,0.1,1.5-0.6c0.1-1.2,1.3-1,1.7-0.2c0.3,0.6,1.4,0.5,1.6-0.2c0.2-1,0.8-3.8,2.4-2.7
				c0.5,0.3,1.1,0,1.3-0.5c0.2-0.6,1.2-0.1,1.5,0.1c0.5,0.2,1.2,0.1,1.3-0.5c0.2-0.9,0.2-1.6,0-2.5c-0.3,0.4-0.6,0.7-0.8,1.1
				c0.7-0.1,1.3,0,2,0.2c0.5,0.2,1.1-0.3,1.1-0.8s0-1.1,0-1.6c-0.4,0.3-0.7,0.6-1.1,0.8c0.7,0.2,1.4,0.4,2.2,0.6
				c0.4,0.1,0.9-0.1,1.1-0.6c0.2-0.8,0.3-1.5,0.2-2.3c-0.3,0.3-0.6,0.6-0.9,0.9c0.7,0,1.4,0,2,0c0.5,0,0.9-0.4,0.9-0.9
				c0-1.1-0.4-2-1.1-2.8c-0.2,0.5-0.4,1-0.6,1.5c0.7-0.1,1.4-0.2,2-0.4c0.5-0.2,0.8-0.8,0.5-1.3c-0.5-0.9-1.1-1.6-1.9-2.3
				c0,0.4,0,0.8,0,1.2c0.6-0.5,1.2-0.9,1.9-1.1c0.6-0.2,0.8-0.9,0.4-1.4c-0.6-0.8-1.2-1.5-1.8-2.3c-0.1,0.4-0.1,0.9-0.2,1.3
				c0.8-0.5,1.7-1,2.5-1.4c0.6-0.4,0.5-1.4-0.2-1.6c-0.4-0.1-0.9-0.3-1.3-0.4c-0.1,0-0.3-0.1-0.4-0.1c-0.4-0.3-0.6-0.1-0.5,0.4
				c0.8-0.8-0.4-2-1.2-1.2c-1.9,1.8,2.1,2.7,3.1,3c-0.1-0.5-0.1-1-0.2-1.6c-0.8,0.5-1.7,1-2.5,1.4c-0.5,0.3-0.5,0.9-0.2,1.3
				c0.6,0.8,1.2,1.5,1.8,2.3c0.1-0.5,0.3-1,0.4-1.4c-1,0.4-1.9,0.9-2.7,1.6c-0.3,0.3-0.3,0.9,0,1.2c0.7,0.6,1.2,1.2,1.6,2
				c0.2-0.4,0.3-0.8,0.5-1.3c-0.5,0.2-1,0.3-1.6,0.4c-0.8,0.1-1.1,0.9-0.6,1.5c0.4,0.5,0.6,1,0.6,1.6c0.3-0.3,0.6-0.6,0.9-0.9
				c-0.7,0-1.4,0-2,0c-0.4,0-0.9,0.4-0.9,0.9c0,0.6,0,1.2-0.2,1.9c0.4-0.2,0.7-0.4,1.1-0.6c-0.7-0.2-1.4-0.4-2.2-0.6
				c-0.5-0.1-1.1,0.3-1.1,0.8s0,1.1,0,1.6c0.4-0.3,0.7-0.6,1.1-0.8C70.8,72,70,72,69.2,72.1c-0.6,0.1-0.9,0.5-0.8,1.1s0.1,1,0,1.6
				c0.4-0.2,0.8-0.3,1.3-0.5c-1.4-0.7-3.5-1-4,0.9c0.4-0.2,0.8-0.3,1.3-0.5c-1-0.7-2.3-0.5-3.3,0.2c-1.1,0.8-1.4,2.2-1.6,3.5
				c0.5-0.1,1-0.1,1.6-0.2c-1.3-2.5-4.7-1.6-4.9,1.1c0.5-0.2,1-0.4,1.5-0.6c-1.9-2.2-4.6,0.1-4.5,2.4c0.4-0.2,0.9-0.5,1.3-0.7
				c-0.9-0.5-2.4-1.9-3.5-1.5c-0.3,0.1-0.6,0.4-0.7,0.7c-0.1,0.2,0,0.9-0.2,1.1c0.4,0.1,0.9,0.1,1.3,0.2c-1-2.2-4.3-1.3-4.1,1.1
				c0.6-0.1,1.1-0.2,1.7-0.2c-0.4-1-1.2-1.9-2.4-1.9c-1.2,0.1-1.9,0.9-2,2c0.6-0.1,1.1-0.2,1.7-0.2c-0.8-2.6-4.1-3-5.5-0.6
				c0.5,0,1,0,1.5,0c-0.5-0.7-1.1-2-2-2.2c-0.4-0.1-0.7,0-1,0.2c-0.1,0.1-0.2,0.3-0.4,0.3c-0.2,0.4-0.3,0.3-0.4-0.1
				c-0.2-0.2-0.3-0.5-0.2-0.8c0-0.6-0.7-1.1-1.3-0.7c-0.5,0.3-1,0.7-1.5,1c0.4,0.2,0.8,0.3,1.3,0.5c-0.2-0.7-0.5-1.2-0.9-1.7
				c-0.3-0.4-0.9-0.3-1.2,0c-0.4,0.4-0.8,0.6-1.3,0.8c0.4,0.4,0.7,0.7,1.1,1.1c0.2-1,0.4-2.1,0.5-3.1c0.1-0.7-0.6-1.4-1.3-1
				c-0.6,0.4-1.2,0.8-1.8,1.2c0.4,0.2,0.9,0.5,1.3,0.7c0-0.6,0-1.2,0-1.8c0-0.5-0.4-0.9-0.9-0.9c-0.6,0-1.3,0-1.9,0.1
				c0.3,0.2,0.6,0.4,0.8,0.6c-0.1-0.6-0.2-1.1-0.3-1.7C33.4,73.2,33,73,32.7,73s-0.6-0.1-0.9-0.2c0.1,0.3,0.3,0.6,0.4,1
				c0.2-0.6,0.4-1.3,0.6-1.9c0.2-0.6-0.4-1.3-1.1-1.1c-0.2-0.2-0.3-0.4-0.5-0.6c0.4-0.7-0.2-1.4-1-1.3c-0.3,0-0.6,0-0.9,0
				c0.2,0.4,0.3,0.8,0.5,1.3c0.7-1.3,1.1-2.6,1.2-4.1c0-0.4-0.4-0.9-0.9-0.9c-0.6,0-1.2,0.1-1.8,0.1c0.3,0.4,0.6,0.7,0.8,1.1
				c0.4-1.2,0.9-2.4,1.3-3.6c0.2-0.5-0.3-1.1-0.8-1.1c-0.6,0-1.2,0-1.8-0.1c0.3,0.4,0.6,0.7,0.8,1.1c0.1-0.5,0.3-0.8,0.6-1.2
				C29.9,60.4,28.7,59.2,28,60L28,60z"/>
		</g>
	</g>
	<g>
		<path class="st6" d="M31.8,60.9c0.7,3.1,1.6,6.1,2.6,9c0.2,0.5,0.4,1,0.6,1.4c0.4,0.6,1,1,1.5,1.3c2.4,1.6,5,2.8,7.7,3.5
			c0.9,0.2,1.8,0.4,2.7,0.7c0.6,0.2,1.3,0.3,1.9,0.4c1.1,0.1,2.2-0.1,3.3-0.4c7.1-1.7,13.8-4.9,19.9-8.8c0.4-0.2,0.7-0.5,1-0.8
			c0.2-0.3,0.3-0.7,0.4-1.1c0.5-2.3,0.9-4.8,0-6.9"/>
		<g>
			<path class="st4" d="M31,61.1c0.5,2.2,1.1,4.4,1.8,6.6c0.6,1.8,1,3.8,2.6,5.1c3.3,2.7,7.6,3.9,11.7,4.9s8.3-0.7,12.1-2.1
				c4-1.5,7.9-3.5,11.6-5.7c0.9-0.5,1.8-1,2.6-1.7c0.7-0.6,0.9-1.4,1.1-2.3c0.5-2.3,0.8-4.7-0.1-6.9c-0.4-1-2-0.6-1.7,0.5
				c0.4,1.2,0.5,2.4,0.4,3.6c-0.1,1-0.1,2.9-0.8,3.8c-0.6,0.8-2,1.3-2.9,1.8c-1,0.6-2.1,1.2-3.1,1.7c-4.1,2.2-8.5,4-13,5.2
				c-1.3,0.3-2.6,0.7-3.9,0.7c-1.2,0-2.4-0.4-3.5-0.7c-2.3-0.5-4.5-1.3-6.5-2.4c-1.1-0.6-2.2-1.2-3.1-2c-0.9-0.8-1.2-2.2-1.6-3.4
				c-0.8-2.4-1.5-4.8-2-7.3C32.4,59.5,30.8,60,31,61.1L31,61.1z"/>
		</g>
	</g>
	<g>
		<path class="st3" d="M32.8,46.1c-1.5-0.6-3.2,0-4.6,0.8c-2.2,1.2-4.4,3.1-4.7,5.6c-0.4,2.6,1.5,5.2,3.8,6.4s5.1,1.4,7.8,1.4
			c8.6-0.1,17.1-2,25.7-1.6c3.2,0.2,6.4,0.6,9.7,0.4c3.2-0.3,6.5-1.4,8.6-3.8c2.8-3.4,2.5-9-0.8-11.9c-2.6-2.3-6.3-2.8-9.7-2.9
			c-2.4-0.1-4.8,0-7.2,0C51,40.7,40.4,41,30.8,45"/>
		<g>
			<path class="st4" d="M33,45.3c-3.6-1.2-8.4,2.3-9.9,5.5c-1.7,3.8,1,7.8,4.5,9.3c4.5,1.9,10,1.1,14.7,0.7
				c5.5-0.5,10.9-1.3,16.4-1.2c5.1,0.1,10.3,1.3,15.3-0.2c3.8-1.2,7-3.9,7.6-8c0.6-3.6-0.9-7.4-3.9-9.5c-3.7-2.6-8.8-2.4-13.1-2.4
				c-11.4,0.1-23.4,0.2-34.2,4.6c-1,0.4-0.6,2.1,0.5,1.7c8.2-3.4,17.1-4.1,25.8-4.4c4.4-0.1,8.9-0.4,13.3,0c3.7,0.3,7.7,1.4,9.3,5.1
				c1.4,3.2,0.7,7.1-2,9.4c-3.4,2.8-8.1,2.7-12.2,2.4c-4.7-0.3-9.3-0.4-14,0c-4.6,0.4-9.2,1-13.8,1.2C33,59.6,27,59.8,24.8,55.2
				c-1-2.2-0.2-4.3,1.5-5.9c1.5-1.4,4.1-3.2,6.3-2.4C33.6,47.3,34,45.6,33,45.3L33,45.3z"/>
		</g>
	</g>
	<g>
		<g>
			<path class="st4" d="M72,59.6c1.5,2.5,2.4,5.2,2.5,8c0.2-0.3,0.4-0.6,0.6-0.8c-6.4,1.3-12.8,2.5-19.3,3.1
				c-2.8,0.3-5.4,1.2-8.2,1.8c-3.2,0.7-6.5,1-9.8,1.4c0.3,0.3,0.6,0.6,0.9,0.9c-0.4-4.4-0.6-8.8-0.7-13.2c-0.3,0.3-0.6,0.6-0.9,0.9
				c10.4-0.5,20.8-0.9,31.2-1.4c1.5-0.1,2.9-0.1,4.4-0.2c1.1,0,1.1-1.8,0-1.7c-10.4,0.5-20.8,0.9-31.2,1.4c-1.5,0.1-2.9,0.1-4.4,0.2
				c-0.5,0-0.9,0.4-0.9,0.9c0,4.4,0.3,8.8,0.7,13.2c0,0.4,0.4,0.9,0.9,0.9c3.1-0.4,6.2-0.7,9.3-1.3c3.1-0.6,5.9-1.7,9.1-2
				c6.5-0.6,12.9-1.8,19.3-3.1c0.4-0.1,0.6-0.5,0.6-0.8c-0.1-3.2-1-6.2-2.7-8.9C72.9,57.8,71.4,58.6,72,59.6z"/>
		</g>
	</g>
	<g>
		<path class="st7" d="M73.1,58.7c2.1-0.1,1.3,2.8,2.2,4.4c1,1.6,1.8,3.3,1.5,5.1c-0.8-0.5-1.8,0-2.5,0.5s-1.5,1.1-2.4,1
			c-0.8-0.1-1.5-0.7-2.2-0.5c-0.5,0.2-0.7,0.7-1,1.1c-1,1.2-3.4,0.7-4.9,1.5C63,72.1,62.3,73,61.3,73c-0.9,0-1.5-0.6-2.2-1.1
			s-1.7-0.8-2.4-0.3c-0.2,0.2-0.3,0.4-0.4,0.6c-1.1,2.1-4.4,3.2-6.9,2.1c-0.5-0.2-0.9-0.5-1.5-0.5c-0.4,0-0.8,0.1-1.2,0.2
			c-2.7,0.8-5.5,1.6-8.2,2.5c-0.9-4.6-1.3-11.5-1.4-16.2C37.1,60.5,64.7,59,73.1,58.7z"/>
		<g>
			<path class="st4" d="M73.1,59.5c1,0,0.9,2.5,1.1,3.1c0.7,1.9,2,3.2,1.8,5.4c0.4-0.3,0.7-0.6,1.1-0.8c-0.8-0.3-1.7-0.2-2.5,0.2
				c-0.9,0.4-1.7,1.4-2.8,1.2c-0.8-0.2-1.4-0.6-2.3-0.4c-0.8,0.3-1,1.1-1.6,1.6c-1.2,0.9-3.1,0.4-4.5,1.1c-0.9,0.4-1.7,1.6-2.8,1.1
				c-0.7-0.3-1.2-0.9-2-1.2c-0.6-0.2-1.3-0.4-2-0.1c-0.8,0.3-1,1.1-1.6,1.8c-1.1,1.3-3,1.8-4.6,1.5c-0.9-0.2-1.7-0.8-2.7-0.8
				s-1.9,0.4-2.8,0.7c-2.3,0.7-4.6,1.4-6.8,2.1c0.4,0.2,0.7,0.4,1.1,0.6c-1-5.2-1.3-10.6-1.4-15.9c-0.3,0.3-0.6,0.6-0.9,0.9
				c9.4-0.5,18.8-1,28.2-1.4C67.9,59.7,70.5,59.6,73.1,59.5c1.1,0,1.1-1.8,0-1.7c-10.8,0.4-21.7,1-32.5,1.6
				c-1.2,0.1-2.3,0.1-3.5,0.2c-0.5,0-0.9,0.4-0.9,0.9c0.1,5.5,0.4,11,1.4,16.4c0.1,0.4,0.6,0.7,1.1,0.6c2.2-0.7,4.4-1.3,6.6-2
				c0.5-0.2,1.1-0.4,1.6-0.5c0.8-0.2,1.3-0.1,2,0.2c0.7,0.3,1.3,0.4,2,0.5c1.5,0.1,3-0.3,4.2-1.1c0.6-0.4,1.1-0.8,1.5-1.4
				c0.2-0.3,0.5-0.9,0.8-1c0.4-0.1,1,0.4,1.4,0.6c1.3,0.9,2.5,1.4,4,0.5c0.7-0.4,1.3-1,2.2-1.1c0.8-0.2,1.6-0.2,2.4-0.3
				c0.6-0.1,1.3-0.4,1.8-0.8c0.2-0.2,0.4-0.7,0.7-0.9c0.5-0.4,1,0,1.5,0.2c0.7,0.2,1.4,0.1,2.1-0.2c1-0.5,1.9-1.7,3.1-1.2
				c0.6,0.2,1-0.3,1.1-0.8c0.1-1.3-0.1-2.5-0.6-3.6s-1.2-2.1-1.4-3.3c-0.3-1.6-0.6-3.3-2.6-3.4C72,57.8,72,59.5,73.1,59.5z"/>
		</g>
	</g>
	<g>
		<g>
			<path class="st8" d="M42.3,71.2c0-0.2,0-0.9,0.2-1.1c0.5-0.4,1.1,0.1,1.5,0.3c0.7,0.4,1.3,0.8,2,1.1c1.1,0.5,2.4,0.7,3.6,0.1
				c1.2-0.6,2.1-2,3.4-2.3c1.4-0.4,3,0.2,4.4,0.4c1.4,0.2,2.7,0.1,3.9-0.6c1.4-0.8,2.4-2.1,4.2-2.1c1.5,0,2.9,0.5,4.3,0.1
				c1.2-0.3,2.1-1,2.5-2.1c0.4-1-1.3-1.5-1.7-0.5c-0.6,1.6-3.3,0.9-4.5,0.8c-1.6-0.1-2.8,0.2-4.1,1.2c-1.4,1-2.5,1.7-4.3,1.5
				c-1.4-0.2-2.9-0.6-4.3-0.5c-1.3,0.1-2.3,0.7-3.3,1.6c-0.6,0.5-1.1,1-1.9,1.2c-0.9,0.2-1.7-0.4-2.4-0.8c-1.1-0.6-2.5-1.7-3.8-1.3
				c-1.2,0.4-1.5,1.8-1.5,3C40.5,72.3,42.2,72.3,42.3,71.2L42.3,71.2z"/>
		</g>
	</g>
	<g>
		<path class="st0" d="M41.4,46.3c-0.9,0.5-1.4,1.2-1.9,2c-0.5,0.7-0.9,1.5-1.1,2.3c-0.2,0.7-0.1,1.4,0,2.2c0.1,0.7,0.2,1.5,0.6,2.1
			c0.7,0.9,2,1.2,3.2,1.2c0.9,0,1.8-0.1,2.6-0.5c1.2-0.6,1.9-1.7,2.7-2.8c0.4-0.5,0.8-1.1,1-1.7c0.4-1,0.5-2.1,0.2-3.2
			c-0.3-1-1.1-1.9-2.2-2.3c-0.6-0.2-1.2-0.2-1.8-0.3C43.5,45.4,42.4,45.6,41.4,46.3"/>
		<g>
			<path class="st4" d="M41.2,45.9c-1,0.6-1.7,1.5-2.3,2.5c-0.7,1.2-1.1,2.3-1.1,3.7c0,1.2,0.2,2.6,1,3.5c0.7,0.8,1.9,1,2.9,1.1
				c1.2,0.1,2.6-0.1,3.6-0.8c1-0.6,1.7-1.6,2.4-2.5c0.7-1.1,1.4-2.1,1.6-3.5c0.1-1.2-0.1-2.4-0.8-3.3c-0.8-1.1-2-1.6-3.4-1.7
				C43.8,44.8,42.4,45,41.2,45.9c-0.5,0.4,0,1.3,0.5,0.9c0.8-0.6,1.7-0.8,2.7-0.9c1,0,2.1,0.1,2.9,0.8c0.7,0.6,1,1.6,1,2.5
				c0,1.1-0.5,2-1.1,2.9c-0.5,0.8-1.1,1.6-1.8,2.3c-0.8,0.7-1.7,1.1-2.8,1.1c-0.9,0.1-1.9,0-2.7-0.4c-0.9-0.5-1.1-1.6-1.2-2.5
				c-0.1-0.6-0.1-1.2,0-1.8s0.4-1.1,0.7-1.7c0.5-0.9,1.1-1.8,2.1-2.4C42.3,46.4,41.8,45.6,41.2,45.9L41.2,45.9z"/>
		</g>
	</g>
	<g>
		<path class="st0" d="M65.7,44.8c-0.6-0.1-1.3-0.2-1.9,0c-0.5,0.1-0.9,0.5-1.3,0.8c-1,0.9-1.4,2.5-1.6,3.8
			c-0.2,1.3-0.1,2.5,0.1,3.8c0.1,0.7,0.5,1.7,1.1,1.9c2.1,1,4.6,0.9,6.3-0.6c0.9-0.8,1.5-2,2-3.1c0.2-0.5,0.5-1,0.6-1.5
			c0.2-0.7,0.1-1.5,0.1-2.3c0-0.4,0-0.8-0.1-1.1c-0.2-0.9-1-1.5-1.8-1.9s-1.7-0.5-2.6-0.7c-0.6-0.1-1.3-0.2-1.9-0.1
			c-0.8,0-1.6,0.2-2.4,0.4"/>
		<g>
			<path class="st4" d="M65.7,44.2c-1.5-0.2-2.8,0-3.8,1.2c-0.8,1-1.2,2.3-1.5,3.6c-0.3,1.5-0.2,3.1,0.1,4.5
				c0.1,0.5,0.4,1.1,0.7,1.5c0.4,0.5,1,0.7,1.6,0.9c1.2,0.4,2.5,0.4,3.7,0.1c1.3-0.4,2.3-1.2,3-2.3c0.8-1.1,1.5-2.5,1.8-3.7
				c0.2-0.7,0.2-1.5,0.1-2.2c0-0.7-0.1-1.4-0.4-2.1c-0.7-1.4-2.3-2-3.7-2.2c-0.9-0.1-1.8-0.3-2.6-0.3c-0.9,0-1.8,0.2-2.8,0.4
				c-0.6,0.1-0.4,1.1,0.3,1c1.4-0.3,2.7-0.4,4.1-0.2c1.1,0.2,2.3,0.3,3.2,1.1c1,0.8,1,2,0.9,3.2c0,1.3-0.6,2.4-1.2,3.5
				c-0.5,1-1.2,1.9-2.1,2.5c-0.9,0.5-1.9,0.7-2.9,0.6C63.3,55.2,62,55,61.6,54c-0.5-1-0.5-2.4-0.4-3.5c0.1-1.2,0.3-2.6,0.9-3.6
				c0.3-0.5,0.7-1,1.3-1.3c0.7-0.4,1.5-0.3,2.2-0.2C66.3,45.4,66.3,44.3,65.7,44.2L65.7,44.2z"/>
		</g>
	</g>
	<g>
		<g>
			<path class="st4" d="M43.2,50.2c-0.9,0.2-1.5,1-1.6,1.9c-0.1,0.5-0.1,1.1,0.1,1.6c0.3,0.5,1,0.7,1.5,0.7c1,0.2,2-0.2,2.4-1.2
				s-0.2-1.9-0.9-2.6c-0.9-0.9-2.4,0.5-1.5,1.5c0.1,0.1,0.2,0.3,0.4,0.4c0.2,0.2,0,0.2,0.1,0c0.1-0.1,0.1,0,0.1-0.1h-0.1
				c-0.2,0-0.4-0.1-0.5-0.1c0.2,0.2,0.3,0.4,0.5,0.6c0-0.2,0-0.4,0-0.6l0.1-0.1c0-0.1,0.1-0.1,0.1,0C45.1,51.8,44.5,49.8,43.2,50.2
				L43.2,50.2z"/>
		</g>
	</g>
	<g>
		<g>
			<path class="st4" d="M65.6,49.3c-0.5,0.5-0.9,1.2-0.9,1.9c0,0.8,0.5,1.6,1.3,1.7c0.8,0.1,1.5-0.5,1.9-1.2c0.2-0.4,0.3-1,0-1.4
				c-0.2-0.3-0.4-0.6-0.6-0.8c-0.3-0.4-1.1-0.4-1.5,0s-0.3,1,0,1.5c0.1,0.1,0.2,0.2,0.3,0.3l0.1,0.1l-0.1-0.1c0-0.2,0-0.4,0-0.5
				c0,0.2,0.1-0.1-0.1,0.1c0,0,0,0.1-0.1,0.1l0,0H66c0.1,0,0.3,0,0.4,0.1c0.2,0.1,0.2,0.2,0.3,0.4c0-0.2,0,0.1,0,0s0.1-0.2,0-0.1
				c0-0.1,0.1-0.2,0.2-0.3C66.8,51.2,67,51,67,51c0.4-0.4,0.4-1.1,0-1.5C66.7,48.9,66,48.9,65.6,49.3L65.6,49.3z"/>
		</g>
	</g>
	<g>
		<g>
			<path class="st4" d="M32.4,50.1c0.9,0,0.9-1.4,0-1.4C31.5,48.7,31.5,50.1,32.4,50.1L32.4,50.1z"/>
		</g>
	</g>
	<g>
		<g>
			<path class="st4" d="M32.9,53.5c0.9,0,0.9-1.4,0-1.4S32,53.5,32.9,53.5L32.9,53.5z"/>
		</g>
	</g>
	<g>
		<g>
			<path class="st4" d="M35,55.5c0.9,0,0.9-1.4,0-1.4S34.1,55.5,35,55.5L35,55.5z"/>
		</g>
	</g>
	<g>
		<g>
			<path class="st4" d="M50.4,50.9c0.9,0,0.9-1.4,0-1.4C49.6,49.6,49.6,50.9,50.4,50.9L50.4,50.9z"/>
		</g>
	</g>
	<g>
		<g>
			<path class="st4" d="M50.4,53.8c0.9,0,0.9-1.4,0-1.4C49.5,52.4,49.5,53.8,50.4,53.8L50.4,53.8z"/>
		</g>
	</g>
	<g>
		<g>
			<path class="st4" d="M54,52.7c0.9,0,0.9-1.4,0-1.4C53.1,51.4,53.1,52.7,54,52.7L54,52.7z"/>
		</g>
	</g>
	<g>
		<g>
			<path class="st4" d="M57,51.2c0.9,0,0.9-1.4,0-1.4S56.1,51.2,57,51.2L57,51.2z"/>
		</g>
	</g>
	<g>
		<g>
			<path class="st4" d="M57.3,47.4c0.9,0,0.9-1.4,0-1.4C56.4,46,56.4,47.4,57.3,47.4L57.3,47.4z"/>
		</g>
	</g>
	<g>
		<g>
			<path class="st4" d="M53.2,45.8c0.9,0,0.9-1.4,0-1.4C52.3,44.5,52.3,45.8,53.2,45.8L53.2,45.8z"/>
		</g>
	</g>
	<g>
		<g>
			<path class="st4" d="M58.1,55.3c0.9,0,0.9-1.4,0-1.4C57.2,54,57.2,55.3,58.1,55.3L58.1,55.3z"/>
		</g>
	</g>
	<g>
		<g>
			<path class="st4" d="M61,43.7c0.9,0,0.9-1.4,0-1.4S60.1,43.7,61,43.7L61,43.7z"/>
		</g>
	</g>
	<g>
		<g>
			<path class="st4" d="M48.5,44.7c0.9,0,0.9-1.4,0-1.4S47.6,44.7,48.5,44.7L48.5,44.7z"/>
		</g>
	</g>
	<g>
		<g>
			<path class="st4" d="M50.8,43.2c0.9,0,0.9-1.4,0-1.4C49.9,41.9,49.9,43.2,50.8,43.2L50.8,43.2z"/>
		</g>
	</g>
	<g>
		<g>
			<path class="st4" d="M44.9,44.5c0.9,0,0.9-1.4,0-1.4C44,43.2,44,44.5,44.9,44.5L44.9,44.5z"/>
		</g>
	</g>
	<g>
		<g>
			<path class="st4" d="M37.5,45.4c0.9,0,0.9-1.4,0-1.4S36.6,45.4,37.5,45.4L37.5,45.4z"/>
		</g>
	</g>
	<g>
		<g>
			<path class="st4" d="M37.2,48.1c0.9,0,0.9-1.4,0-1.4C36.3,46.7,36.3,48.1,37.2,48.1L37.2,48.1z"/>
		</g>
	</g>
	<g>
		<g>
			<path class="st4" d="M35.8,52.1c0.9,0,0.9-1.4,0-1.4C34.9,50.7,34.9,52.1,35.8,52.1L35.8,52.1z"/>
		</g>
	</g>
	<g>
		<g>
			<path class="st4" d="M54,48.9c0.9,0,0.9-1.4,0-1.4S53.1,48.9,54,48.9L54,48.9z"/>
		</g>
	</g>
	<g>
		<g>
			<path class="st4" d="M57.2,44c0.9,0,0.9-1.4,0-1.4C56.4,42.7,56.4,44,57.2,44L57.2,44z"/>
		</g>
	</g>
	<g>
		<g>
			<path class="st4" d="M74.8,44c0.9,0,0.9-1.4,0-1.4C74,42.6,74,44,74.8,44L74.8,44z"/>
		</g>
	</g>
	<g>
		<g>
			<path class="st4" d="M71.2,44.1c0.9,0,0.9-1.4,0-1.4C70.4,42.8,70.4,44.1,71.2,44.1L71.2,44.1z"/>
		</g>
	</g>
	<g>
		<g>
			<path class="st4" d="M73.2,46.7c0.9,0,0.9-1.4,0-1.4C72.3,45.3,72.3,46.7,73.2,46.7L73.2,46.7z"/>
		</g>
	</g>
	<g>
		<g>
			<path class="st4" d="M76.5,47c0.9,0,0.9-1.4,0-1.4S75.6,47,76.5,47L76.5,47z"/>
		</g>
	</g>
	<g>
		<g>
			<path class="st4" d="M73.9,51c0.9,0,0.9-1.4,0-1.4S73,51,73.9,51L73.9,51z"/>
		</g>
	</g>
	<g>
		<g>
			<path class="st4" d="M77.4,51.3c0.9,0,0.9-1.4,0-1.4C76.5,49.9,76.5,51.3,77.4,51.3L77.4,51.3z"/>
		</g>
	</g>
	<g>
		<g>
			<path class="st4" d="M75.3,52.8c0.9,0,0.9-1.4,0-1.4C74.4,51.4,74.4,52.8,75.3,52.8L75.3,52.8z"/>
		</g>
	</g>
	<g>
		<g>
			<path class="st4" d="M71.7,54c0.9,0,0.9-1.4,0-1.4C70.8,52.6,70.8,54,71.7,54L71.7,54z"/>
		</g>
	</g>
	<g>
		<g>
			<path class="st9" d="M41.4,67.4c0.8-1.9,3.2-0.2,4.4,0.4s2.7,0.9,3.9,0.2c1.1-0.6,1.6-2.1,2.9-2.4c1.2-0.3,2.5,0.3,3.7,0.6
				c1.1,0.3,2.2,0.5,3.3,0.2c1.4-0.3,2.1-1.5,3.3-2.1c1.5-0.8,3.5,0.4,5.1,0.4c1.2,0,2.2-0.4,3-1.4c0.7-0.9-0.8-1.7-1.5-0.9
				c-1,1.3-3.5,0.2-4.8,0c-1.5-0.2-2.6,0.3-3.7,1.2c-1.2,1-2.1,1.4-3.6,1.1c-1.2-0.2-2.4-0.7-3.6-0.8c-1.1-0.1-2.1,0-3,0.7
				c-0.5,0.4-0.9,0.9-1.3,1.4c-0.8,0.9-1.8,0.8-2.8,0.3c-1.3-0.6-2.5-1.5-4-1.4c-1.2,0-2.3,0.6-2.7,1.7
				C39.5,67.6,40.9,68.4,41.4,67.4L41.4,67.4z"/>
		</g>
	</g>
	<g>
		<g>
			<path class="st4" d="M26.7,74c-0.2,2.2-0.4,4.4-0.3,6.6c0,0.5,0.4,0.9,0.9,0.9s0.9-0.4,0.9-0.9c-0.1-2.2,0.2-4.4,0.3-6.6
				c0-0.5-0.4-0.9-0.9-0.9S26.8,73.5,26.7,74L26.7,74z"/>
		</g>
	</g>
	<g>
		<path class="st3" d="M27.2,81.3c-0.8,0.1-1.5,0.7-1.9,1.4s-0.5,1.6-0.5,2.4c0,0.5,0,1.1,0.2,1.6c0.5,1.1,1.9,1.5,3.1,1.3
			c1.8-0.2,3.4-1.6,4-3.3c0.2-0.7,0.3-1.4,0.1-2.1s-0.7-1.3-1.3-1.6c-0.4-0.1-0.8-0.2-1.2-0.2c-1-0.1-1.9-0.1-2.8,0.3"/>
		<g>
			<path class="st4" d="M27.2,80.4c-1,0.1-1.8,0.6-2.4,1.5c-0.6,0.8-0.8,1.9-0.9,2.9s0,2,0.7,2.8c0.5,0.7,1.3,1.1,2.1,1.2
				c1.8,0.3,3.6-0.4,4.8-1.7c1.4-1.4,2.2-3.6,1.2-5.5c-0.6-1.1-1.6-1.5-2.7-1.6c-1.2-0.1-2.4-0.1-3.5,0.4c-0.4,0.2-0.5,0.8-0.3,1.2
				c0.3,0.4,0.7,0.5,1.2,0.3c0.7-0.3,1.4-0.2,2.1-0.2c0.6,0,1.2,0,1.6,0.5c0.8,1,0.2,2.4-0.5,3.3s-1.9,1.6-3,1.6s-2-0.4-2.1-1.6
				c0-0.8,0-1.6,0.3-2.3c0.2-0.5,0.7-1,1.2-1.1s0.9-0.4,0.9-0.9C28,80.9,27.6,80.4,27.2,80.4L27.2,80.4z"/>
		</g>
	</g>
	<g>
		<g>
			<path class="st4" d="M44.5,84.9c0.3,1.6,0.6,3.2,1.1,4.8c0.1,0.4,0.6,0.7,1.1,0.6c0.4-0.1,0.7-0.6,0.6-1.1
				c-0.4-1.6-0.8-3.2-1.1-4.8c-0.1-0.4-0.6-0.7-1.1-0.6C44.6,84,44.4,84.5,44.5,84.9L44.5,84.9z"/>
		</g>
	</g>
	<g>
		<path class="st3" d="M46.5,89.8c1-0.1,2.1,0,3,0.6s1.4,1.7,1.3,2.7c0,0.1-0.1,0.3-0.1,0.4c-0.1,0.1-0.2,0.2-0.3,0.3
			c-1.2,0.7-2.5,1.4-3.8,1.7c-1.4,0.3-2.9,0.2-4-0.5c-0.3-0.2-0.7-0.5-0.8-0.9c-0.3-0.7,0.1-1.5,0.7-2c0.6-0.5,1.4-0.7,2.1-0.9
			c0.9-0.2,1.8-0.5,2.7-0.7"/>
		<g>
			<path class="st4" d="M46.5,90.7c1.2-0.1,2.5,0.1,3.2,1.2c0.1,0.2,0.2,0.5,0.2,0.7c0,0.1,0,0.2,0,0.4v0.1c0,0,0,0,0.1-0.1
				c-0.1,0-0.1,0.1-0.2,0.1c-0.6,0.4-1.3,0.7-1.9,1c-1.2,0.5-2.5,0.9-3.8,0.6c-0.9-0.2-2.4-0.9-1.4-1.9c0.5-0.5,1.3-0.6,1.9-0.8
				c0.9-0.2,1.7-0.4,2.6-0.7c1.1-0.3,0.6-1.9-0.5-1.7c-1,0.3-2,0.5-3,0.8c-0.9,0.2-1.8,0.6-2.5,1.3c-0.6,0.7-0.9,1.7-0.6,2.6
				c0.3,0.9,1.2,1.5,2.1,1.8c1.8,0.7,3.8,0.4,5.5-0.4c0.9-0.4,1.8-0.8,2.6-1.4s0.9-1.7,0.6-2.6c-0.7-2.1-2.9-3-5-2.8
				c-0.5,0-0.9,0.4-0.9,0.9C45.7,90.2,46.1,90.7,46.5,90.7L46.5,90.7z"/>
		</g>
	</g>
	<g>
		<g>
			<path class="st4" d="M42.9,93.3c0.1,0,0.1,0,0.2,0C43,93.3,42.9,93.2,42.9,93.3c0.1,0,0.3,0,0.4,0.1c-0.1,0-0.1-0.1-0.2-0.1
				c0.2,0.1,0.3,0.2,0.4,0.3c-0.1,0-0.1-0.1-0.2-0.1c0.1,0.1,0.3,0.2,0.4,0.4c0-0.1-0.1-0.1-0.1-0.2c0.1,0.1,0.2,0.3,0.2,0.4
				c0-0.1-0.1-0.1-0.1-0.2c0.1,0.1,0.1,0.2,0.1,0.4c0,0.2,0.2,0.4,0.4,0.5s0.5,0.2,0.7,0.1s0.4-0.2,0.5-0.4c0.1-0.2,0.1-0.4,0.1-0.7
				c-0.1-0.3-0.2-0.6-0.3-0.8c-0.1-0.2-0.3-0.5-0.6-0.7c-0.1-0.1-0.3-0.2-0.4-0.3c-0.2-0.1-0.3-0.2-0.5-0.2
				c-0.3-0.1-0.6-0.2-0.9-0.2c-0.2,0-0.5,0.1-0.6,0.3c-0.1,0.1-0.3,0.4-0.3,0.6s0.1,0.5,0.3,0.6C42.4,93.2,42.6,93.3,42.9,93.3
				L42.9,93.3z"/>
		</g>
	</g>
	<g>
		<g>
			<path class="st4" d="M45.4,92.5c0.1,0,0.2,0.1,0.3,0.1C45.6,92.5,45.5,92.5,45.4,92.5c0.2,0.1,0.3,0.1,0.5,0.2
				c-0.1,0-0.1-0.1-0.2-0.1c0.1,0.1,0.2,0.2,0.3,0.3c0-0.1-0.1-0.1-0.1-0.2c0.1,0.1,0.2,0.3,0.2,0.4c0-0.1-0.1-0.1-0.1-0.2
				c0.1,0.1,0.1,0.3,0.1,0.4c0-0.1,0-0.2,0-0.2v0.1c0,0.1,0,0.2,0.1,0.3c0,0.1,0.1,0.2,0.2,0.3c0.1,0.1,0.4,0.3,0.6,0.3
				c0.2,0,0.5-0.1,0.6-0.3c0.1-0.2,0.3-0.4,0.3-0.6s0-0.3-0.1-0.5c0-0.2-0.1-0.3-0.2-0.5c-0.1-0.2-0.3-0.4-0.4-0.6
				c-0.2-0.2-0.4-0.4-0.6-0.5c-0.2-0.1-0.5-0.2-0.7-0.3c-0.2-0.1-0.5,0-0.7,0.1s-0.3,0.3-0.4,0.5c-0.1,0.2,0,0.5,0.1,0.7
				C45,92.2,45.2,92.4,45.4,92.5L45.4,92.5z"/>
		</g>
	</g>
	<g>
		<g>
			<path class="st4" d="M61.7,81.8c0.5,2,0.9,4,1.4,6.1c0.1,0.5,0.6,0.7,1.1,0.6c0.5-0.1,0.7-0.6,0.6-1.1c-0.5-2-0.9-4-1.4-6.1
				c-0.1-0.5-0.6-0.7-1.1-0.6C61.9,80.8,61.6,81.3,61.7,81.8L61.7,81.8z"/>
		</g>
	</g>
	<g>
		<path class="st3" d="M64.1,88.7c-1.4,0.1-2.7,1.2-3,2.6c-0.1,0.6-0.1,1.1,0,1.7c0.1,0.3,0.2,0.6,0.3,0.9c0.5,0.8,1.6,0.9,2.6,0.8
			c0.9-0.1,1.7-0.3,2.6-0.6c0.8-0.3,1.7-0.6,2.4-1.2c0.7-0.6,1.1-1.5,0.8-2.4c-0.3-1.1-1.5-1.6-2.6-1.9c-1-0.2-2-0.3-3-0.3"/>
		<g>
			<path class="st4" d="M64.1,87.8c-1.8,0.1-3.4,1.4-3.8,3.1c-0.3,1-0.2,2.2,0.3,3.1c0.4,0.8,1.2,1.3,2.1,1.4c1,0.2,1.9,0,2.9-0.2
				s2-0.5,2.9-1c1.7-0.8,3-3,1.8-4.8c-1.3-1.8-4-2-6-2c-1.1,0-1.1,1.7,0,1.7c1.3,0,3,0,4.2,0.8c1,0.7,0.6,1.8-0.2,2.5
				c-0.6,0.4-1.3,0.6-2,0.8c-0.7,0.2-1.5,0.4-2.3,0.5c-0.5,0-1,0.1-1.5-0.2C62,93.2,62,92.5,62,92c0-1.3,1-2.4,2.3-2.5
				c0.5,0,0.9-0.4,0.9-0.9C64.9,88.2,64.5,87.8,64.1,87.8L64.1,87.8z"/>
		</g>
	</g>
	<g>
		<g>
			<path class="st4" d="M63.5,89.2c-0.2,0.9-0.4,1.9-0.3,2.9c0,0.4,0.4,0.9,0.9,0.9c0.5,0,0.9-0.4,0.9-0.9s0-1,0.1-1.5
				c0,0.1,0,0.2,0,0.2c0.1-0.4,0.1-0.8,0.2-1.1c0.1-0.4-0.1-1-0.6-1.1C64.1,88.5,63.6,88.7,63.5,89.2L63.5,89.2z"/>
		</g>
	</g>
	<g>
		<g>
			<path class="st4" d="M65.8,89.2c0,0.1,0,0.2,0,0.2C65.9,89.3,65.9,89.3,65.8,89.2c0,0.4-0.2,0.7-0.3,1c-0.1,0.4-0.1,0.9-0.1,1.3
				c0,0.2,0.1,0.4,0.3,0.6c0.1,0.1,0.4,0.3,0.6,0.3s0.5-0.1,0.6-0.3c0.1-0.2,0.3-0.4,0.3-0.6c0-0.3,0-0.5,0-0.8c0,0.1,0,0.2,0,0.2
				c0-0.3,0.1-0.5,0.2-0.8s0.2-0.6,0.2-1c0-0.2-0.1-0.4-0.3-0.6c-0.1-0.1-0.4-0.3-0.6-0.3s-0.5,0.1-0.6,0.3S65.8,89,65.8,89.2
				L65.8,89.2z"/>
		</g>
	</g>
	<g>
		<g>
			<path class="st4" d="M78.3,71.3c1.8,1.9,1.9,4.6,2.2,7.1c0,0.5,0.4,0.9,0.9,0.9c0.4,0,0.9-0.4,0.9-0.9c-0.3-2.9-0.5-6.1-2.7-8.3
				C78.8,69.2,77.5,70.5,78.3,71.3L78.3,71.3z"/>
		</g>
	</g>
	<g>
		<path class="st3" d="M81.3,78.9c-0.7-0.1-1.4,0.1-2.1,0.3c-0.9,0.3-1.8,0.9-2.3,1.8s-0.3,2.1,0.5,2.7c0.5,0.3,1.1,0.4,1.7,0.4
			c1.3,0.1,2.6,0.1,3.7-0.5s1.9-1.9,1.5-3.1c-0.4-1.1-1.6-1.6-2.7-1.9"/>
		<g>
			<path class="st4" d="M81.3,78.1c-1-0.1-1.9,0.2-2.8,0.6c-0.7,0.3-1.4,0.8-1.9,1.4c-1,1.3-1.2,3.3,0.2,4.4
				c0.8,0.6,1.7,0.6,2.6,0.7c0.9,0,1.8,0,2.7-0.2c1.6-0.4,3.1-1.8,3.1-3.5c0.1-2-1.8-3.1-3.5-3.5c-0.5-0.1-0.9,0.1-1.1,0.6
				c-0.1,0.4,0.1,1,0.6,1.1c0.9,0.2,2,0.6,2.2,1.5c0.1,0.4-0.1,0.8-0.3,1.2c-0.3,0.4-0.7,0.7-1.2,0.9c-0.6,0.2-1.2,0.3-1.9,0.3
				c-0.6,0-1.3,0-1.9-0.1c-0.5-0.1-0.6-0.3-0.7-0.8c0-0.2,0,0.1,0-0.1c0-0.1,0-0.1,0-0.2c0,0,0-0.3,0-0.2c0-0.3,0.1-0.4,0.3-0.7
				c0.7-1,2.3-1.6,3.5-1.5c0.5,0,0.9-0.4,0.9-0.9C82.1,78.4,81.7,78.1,81.3,78.1L81.3,78.1z"/>
		</g>
	</g>
</g>
<g>
	<path class="st2" d="M21.8,45.7l-6.6,8.3l-6.6-8.3l6.6-8.2L21.8,45.7z"/>
</g>
<g>
	<path class="st2" d="M91.4,94.1l-6.6,8.3l-6.6-8.3l6.6-8.2L91.4,94.1z"/>
</g>
</svg>
