<?xml version="1.0" encoding="utf-8"?>
<!-- Generator: Adobe Illustrator 24.0.2, SVG Export Plug-In . SVG Version: 6.00 Build 0)  -->
<svg version="1.1" id="Layer_1" xmlns="http://www.w3.org/2000/svg" xmlns:xlink="http://www.w3.org/1999/xlink" x="0px" y="0px"
	 viewBox="0 0 100 140" style="enable-background:new 0 0 100 140;" xml:space="preserve">
<style type="text/css">
	.st0{fill:#FFFFFF;}
</style>
<path class="st0" d="M88,140H12c-6.6,0-12-5.4-12-12V12C0,5.4,5.4,0,12,0h76c6.6,0,12,5.4,12,12v116C100,134.6,94.6,140,88,140z"/>
<g>
	<path d="M9.2,52.5c3.5,0,5.5-0.5,5.5-4.6c-0.8,1.4-1.9,1.9-3.4,1.9c-1.8,0-2.9-1.1-2.9-2.9c0-2.8,2.6-5.2,6.9-9.1
		c4.3,3.9,6.9,6.4,6.9,9.1c0,1.8-1.1,2.9-2.9,2.9c-1.5,0-2.6-0.5-3.4-1.9c0,4.1,2,4.6,5.5,4.6l0.6,1.4H8.6L9.2,52.5z"/>
</g>
<g>
	<path d="M90.8,87.5c-3.5,0-5.5,0.5-5.5,4.6c0.8-1.4,1.9-1.9,3.4-1.9c1.8,0,2.9,1.1,2.9,2.9c0,2.8-2.6,5.2-6.9,9.1
		c-4.3-3.9-6.9-6.4-6.9-9.1c0-1.8,1.1-2.9,2.9-2.9c1.5,0,2.6,0.5,3.4,1.9c0-4.1-2-4.6-5.5-4.6L78,86.1h13.2L90.8,87.5z"/>
</g>
<g>
	<path d="M30.7,41.5c4.6,0,7.3-0.7,7.3-6.2c-1.1,1.8-2.6,2.6-4.6,2.6c-2.4,0-3.9-1.5-3.9-3.9c0-3.7,3.5-7,9.2-12.2
		c5.7,5.2,9.2,8.5,9.2,12.2c0,2.4-1.5,3.9-3.9,3.9c-2,0-3.4-0.7-4.6-2.6c0,5.5,2.7,6.2,7.3,6.2l0.8,1.8H29.9L30.7,41.5z"/>
</g>
<g>
	<path d="M53.3,41.5c4.6,0,7.3-0.7,7.3-6.2c-1.1,1.8-2.6,2.6-4.6,2.6c-2.4,0-3.9-1.5-3.9-3.9c0-3.7,3.5-7,9.2-12.2
		C67,27,70.5,30.3,70.5,34c0,2.4-1.5,3.9-3.9,3.9c-2,0-3.4-0.7-4.6-2.6c0,5.5,2.7,6.2,7.3,6.2l0.8,1.8H52.5L53.3,41.5z"/>
</g>
<g>
	<path d="M30.7,79c4.6,0,7.3-0.7,7.3-6.2c-1.1,1.8-2.6,2.6-4.6,2.6c-2.4,0-3.9-1.5-3.9-3.9c0-3.7,3.5-7,9.2-12.2
		c5.7,5.2,9.2,8.5,9.2,12.2c0,2.4-1.5,3.9-3.9,3.9c-2,0-3.4-0.7-4.6-2.6c0,5.5,2.7,6.2,7.3,6.2l0.8,1.8H29.9L30.7,79z"/>
</g>
<g>
	<path d="M53.3,79c4.6,0,7.3-0.7,7.3-6.2c-1.1,1.8-2.6,2.6-4.6,2.6c-2.4,0-3.9-1.5-3.9-3.9c0-3.7,3.5-7,9.2-12.2
		c5.7,5.2,9.2,8.5,9.2,12.2c0,2.4-1.5,3.9-3.9,3.9c-2,0-3.4-0.7-4.6-2.6c0,5.5,2.7,6.2,7.3,6.2l0.8,1.8H52.5L53.3,79z"/>
</g>
<g>
	<path d="M43.5,59.2c3.7,0,5.9-0.6,5.9-5c-0.9,1.5-2.1,2.1-3.7,2.1c-1.9,0-3.2-1.2-3.2-3.2c0-3,2.8-5.7,7.4-9.9
		c4.6,4.2,7.4,6.9,7.4,9.9c0,1.9-1.2,3.2-3.2,3.2c-1.6,0-2.8-0.6-3.7-2.1c0,4.5,2.2,5,5.9,5l0.6,1.5H42.9L43.5,59.2z"/>
</g>
<g>
	<path d="M43.5,23.5c3.7,0,5.9-0.6,5.9-5c-0.9,1.5-2.1,2.1-3.7,2.1c-1.9,0-3.2-1.2-3.2-3.2c0-3,2.8-5.7,7.4-9.9
		c4.6,4.2,7.4,6.9,7.4,9.9c0,1.9-1.2,3.2-3.2,3.2c-1.6,0-2.8-0.6-3.7-2.1c0,4.5,2.2,5,5.9,5l0.6,1.5H42.9L43.5,23.5z"/>
</g>
<g>
	<path d="M43.5,95c3.7,0,5.9-0.6,5.9-5c-0.9,1.5-2.1,2.1-3.7,2.1c-1.9,0-3.2-1.2-3.2-3.2c0-3,2.8-5.7,7.4-9.9
		c4.6,4.2,7.4,6.9,7.4,9.9c0,1.9-1.2,3.2-3.2,3.2c-1.6,0-2.8-0.6-3.7-2.1c0,4.5,2.2,5,5.9,5l0.6,1.5H42.9L43.5,95z"/>
</g>
<g>
	<path d="M69.3,98.7c-4.6,0-7.3,0.7-7.3,6.2c1.1-1.8,2.6-2.6,4.6-2.6c2.4,0,3.9,1.5,3.9,3.9c0,3.7-3.5,7-9.2,12.2
		c-5.7-5.2-9.2-8.5-9.2-12.2c0-2.4,1.5-3.9,3.9-3.9c2,0,3.4,0.7,4.6,2.6c0-5.5-2.7-6.2-7.3-6.2l-0.8-1.8h17.6L69.3,98.7z"/>
</g>
<g>
	<path d="M46.7,98.7c-4.6,0-7.3,0.7-7.3,6.2c1.1-1.8,2.6-2.6,4.6-2.6c2.4,0,3.9,1.5,3.9,3.9c0,3.7-3.5,7-9.2,12.2
		c-5.7-5.2-9.2-8.5-9.2-12.2c0-2.4,1.5-3.9,3.9-3.9c2,0,3.4,0.7,4.6,2.6c0-5.5-2.7-6.2-7.3-6.2l-0.8-1.8h17.6L46.7,98.7z"/>
</g>
<g>
	<path d="M23.9,12.1v11.7c0,4.5-3.6,8.1-8.1,8.1s-8.1-3.6-8.1-8.1h4.8c0,1.8,1.5,3.3,3.3,3.3s3.3-1.5,3.3-3.3v-4.1
		c-3.3,1.5-7.2,0.6-9.6-2.1c-2.4-2.8-2.7-6.7-0.7-9.8s5.7-4.5,9.2-3.5C21.5,5.3,23.9,8.4,23.9,12.1L23.9,12.1z M19.1,12.1
		c0-1.4-0.8-2.6-2.1-3.1s-2.7-0.2-3.7,0.7c-1,1-1.3,2.4-0.7,3.7c0.5,1.3,1.7,2.1,3.1,2.1C17.6,15.5,19.1,14,19.1,12.1z"/>
</g>
<g>
	<path d="M76.7,127.5v-11.7c0-4.5,3.6-8.1,8.1-8.1s8.1,3.6,8.1,8.1h-4.8c0-1.8-1.5-3.3-3.3-3.3s-3.3,1.5-3.3,3.3v4.1
		c3.3-1.5,7.2-0.6,9.6,2.1c2.4,2.8,2.7,6.7,0.7,9.8s-5.7,4.5-9.2,3.5C79.2,134.3,76.7,131.1,76.7,127.5L76.7,127.5z M81.6,127.4
		c0,1.4,0.8,2.6,2.1,3.1c1.3,0.5,2.7,0.2,3.7-0.7c1-1,1.3-2.4,0.7-3.7c-0.5-1.3-1.7-2.1-3.1-2.1C83.1,124.1,81.6,125.6,81.6,127.4z"
		/>
</g>
</svg>
