<?xml version="1.0" encoding="utf-8"?>
<!-- Generator: Adobe Illustrator 25.0.0, SVG Export Plug-In . SVG Version: 6.00 Build 0)  -->
<svg version="1.1" id="Layer_1" xmlns="http://www.w3.org/2000/svg" xmlns:xlink="http://www.w3.org/1999/xlink" x="0px" y="0px"
	 viewBox="0 0 100 100" style="enable-background:new 0 0 100 100;" xml:space="preserve">
<style type="text/css">
	.st0{opacity:0.6;fill:#46BCF7;stroke:#000000;stroke-miterlimit:10;}
	.st1{fill:#C91111;}
	.st2{fill:none;stroke:#000000;stroke-width:2.947;stroke-miterlimit:10;}
	.st3{fill:#FFFFFF;}
</style>
<g>
	<circle class="st0" cx="50" cy="50" r="48.2"/>
</g>
<g>
	<path class="st1" d="M24.3,74.6c14.8,0,23.5-2.3,23.5-19.9C44.2,60.5,39.4,63,33,63c-7.7,0-12.5-4.8-12.5-12.5
		C20.4,38.6,31.7,28,50,11.3C68.3,28,79.6,38.6,79.6,50.5C79.6,58.2,74.8,63,67,63c-6.4,0-10.9-2.3-14.8-8.4
		c0,17.7,8.7,19.9,23.5,19.9l2.6,5.8l-56.6,0L24.3,74.6z"/>
</g>
<g>
	<circle class="st2" cx="50" cy="50" r="47.3"/>
</g>
<polygon class="st3" points="50,27.2 53.6,34.4 61.5,35.6 55.8,41.2 57.1,49.1 50,45.4 42.9,49.1 44.2,41.2 38.5,35.6 46.4,34.4 "/>
<g>
	<path d="M23.3,45.7v8.6c0,4.2-3.4,7.6-7.7,7.7H8V42.2H6.2V38h9.4C19.9,38.1,23.3,41.5,23.3,45.7z M19.2,45.7c0-1.9-1.6-3.5-3.5-3.5
		h-3.5v15.6h3.5c1.9,0,3.5-1.6,3.5-3.5V45.7z"/>
	<path d="M36.8,56.4l2.7,3.1c-2,1.7-3.8,2.4-6,2.4c-2.4,0-4.6-1-6.1-2.9l0,0c-0.3-0.4-0.5-0.7-0.8-1.2l0,0c-0.3-0.5-0.5-1.1-0.6-1.7
		l0,0c-0.8-3.5,1-7.1,4.2-8.5c3.3-1.5,7.1-0.4,9.2,2.5h0c0.1,0.1,0.1,0.2,0.2,0.2c0,0.1,0.1,0.1,0.1,0.2c0.1,0.1,0.1,0.2,0.2,0.3
		c0,0,0,0.1,0.1,0.1c0.1,0.1,0.1,0.3,0.2,0.4l0,0l0,0l0,0l0,0l0,0l0,0l0,0l0,0l0,0l0.8,1.9l-4.2,1.7l-0.6,0.2l-4.6,1.9
		c0.5,0.3,1.1,0.5,1.7,0.5C34.6,57.7,35.5,57.4,36.8,56.4z M30,53.9l0.2-0.1l2.4-1l2.6-1.1c0,0,0,0-0.1-0.1c-0.6-0.4-1.3-0.7-2-0.7
		c-0.4,0-0.8,0.1-1.2,0.2C30.9,51.8,30.1,52.8,30,53.9L30,53.9z"/>
	<path d="M57.7,46.9v15h-4.1v-0.8c-3.2,1.6-7,0.8-9.2-2c-2.2-2.8-2.2-6.7,0-9.4c2.2-2.8,6.1-3.6,9.2-2v-0.8L57.7,46.9z M50.2,57.8
		c1.9,0,3.4-1.5,3.4-3.4c0-1.9-1.5-3.4-3.4-3.4c-1.9,0-3.4,1.5-3.4,3.4C46.8,56.3,48.3,57.8,50.2,57.8L50.2,57.8z"/>
	<path d="M60.4,62V38.1h4.1V62H60.4z"/>
	<path d="M78,56.4l2.7,3.1c-2,1.7-3.8,2.4-6,2.4c-2.4,0-4.6-1-6.1-2.9l0,0c-0.3-0.4-0.5-0.7-0.8-1.2l0,0c-0.3-0.5-0.5-1.1-0.6-1.7
		l0,0c-0.8-3.5,1-7.1,4.2-8.5c3.3-1.5,7.1-0.4,9.2,2.5h0c0.1,0.1,0.1,0.2,0.2,0.2c0,0.1,0.1,0.1,0.1,0.2c0.1,0.1,0.1,0.2,0.2,0.3
		c0,0,0,0.1,0.1,0.1c0.1,0.1,0.1,0.3,0.2,0.4l0,0l0,0l0,0l0,0l0,0l0,0l0,0l0,0l0,0l0.8,1.9L78,55.1l-0.6,0.2l-4.6,1.9
		c0.5,0.3,1.1,0.5,1.7,0.5C75.8,57.7,76.8,57.4,78,56.4z M71.3,53.9l0.1-0.1l2.4-1l2.6-1.1c0,0,0,0-0.1-0.1c-0.6-0.4-1.3-0.7-2-0.7
		c-0.4,0-0.8,0.1-1.2,0.2C72.1,51.8,71.4,52.8,71.3,53.9L71.3,53.9z"/>
	<path d="M93.8,48.5l-2.9,2.9c-0.4-0.4-1-0.5-1.6-0.3c-0.5,0.2-0.9,0.8-0.9,1.4v9.4h-4.1v-15h4.1v0.2c0.5-0.1,1-0.2,1.5-0.2
		C91.3,46.9,92.7,47.5,93.8,48.5z"/>
</g>
</svg>
