<?xml version="1.0" encoding="utf-8"?>
<!-- Generator: Adobe Illustrator 24.0.1, SVG Export Plug-In . SVG Version: 6.00 Build 0)  -->
<svg version="1.1" id="Layer_1" xmlns="http://www.w3.org/2000/svg" xmlns:xlink="http://www.w3.org/1999/xlink" x="0px" y="0px"
	 viewBox="0 0 100 140" style="enable-background:new 0 0 100 140;" xml:space="preserve">
<style type="text/css">
	.st0{fill:#FFFFFF;stroke:#FF8896;stroke-miterlimit:10;}
	.st1{fill:#FF0000;}
</style>
<path class="st0" d="M88,140H12c-6.6,0-12-5.4-12-12V12C0,5.4,5.4,0,12,0h76c6.6,0,12,5.4,12,12v116C100,134.6,94.6,140,88,140z"/>
<g>
	<path class="st1" d="M23.2,4.4v28h-4.8V20.1c-2.5,1.1-5.5,0.9-7.8-0.6s-3.7-4.1-3.7-6.9V4.4h4.8v8.2c0,1.9,1.5,3.4,3.4,3.4
		s3.4-1.5,3.4-3.4V4.4H23.2z"/>
</g>
<g>
	<path class="st1" d="M76.7,135.7v-28h4.8V120c2.5-1.1,5.5-0.9,7.8,0.6s3.7,4.1,3.7,6.9v8.2h-4.8v-8.2c0-1.9-1.5-3.4-3.4-3.4
		s-3.4,1.5-3.4,3.4v8.2H76.7z"/>
</g>
<g>
	<path class="st1" d="M21.8,45.7L15.2,54l-6.6-8.3l6.6-8.2L21.8,45.7z"/>
</g>
<g>
	<path class="st1" d="M91.4,94.1l-6.6,8.3l-6.6-8.3l6.6-8.2L91.4,94.1z"/>
</g>
<g>
	<path class="st1" d="M47.5,32.3l-8.8,11.1l-8.8-11.1l8.8-10.9L47.5,32.3z"/>
</g>
<g>
	<path class="st1" d="M70.1,32.3l-8.8,11.1l-8.8-11.1l8.8-10.9L70.1,32.3z"/>
</g>
<g>
	<path class="st1" d="M47.5,107.5l-8.8,11.1l-8.8-11.1l8.8-10.9L47.5,107.5z"/>
</g>
<g>
	<path class="st1" d="M70.1,107.5l-8.8,11.1l-8.8-11.1l8.8-10.9L70.1,107.5z"/>
</g>
</svg>
