<?xml version="1.0" encoding="utf-8"?>
<!-- Generator: Adobe Illustrator 24.0.1, SVG Export Plug-In . SVG Version: 6.00 Build 0)  -->
<svg version="1.1" id="Layer_1" xmlns="http://www.w3.org/2000/svg" xmlns:xlink="http://www.w3.org/1999/xlink" x="0px" y="0px"
	 viewBox="0 0 100 140" style="enable-background:new 0 0 100 140;" xml:space="preserve">
<style type="text/css">
	.st0{fill:#FFFFFF;stroke:#FF8896;stroke-miterlimit:10;}
	.st1{fill:#FF0000;}
</style>
<path class="st0" d="M88,140H12c-6.6,0-12-5.4-12-12V12C0,5.4,5.4,0,12,0h76c6.6,0,12,5.4,12,12v116C100,134.6,94.6,140,88,140z"/>
<g>
	<path class="st1" d="M20.9,18.3c2.6,2.6,3.1,6.7,1.3,9.9C20.3,31.4,16.6,33,13,32s-6.1-4.2-6.1-7.9h4.8c0,1.4,0.8,2.6,2.1,3.1
		s2.7,0.2,3.7-0.7c1-1,1.3-2.4,0.7-3.7c-0.5-1.3-1.7-2.1-3.1-2.1h-1.8v-4.8h1.8c1.4,0,2.6-0.8,3.1-2.1s0.2-2.7-0.7-3.7
		c-1-1-2.4-1.3-3.7-0.7c-1.3,0.5-2.1,1.7-2.1,3.1H6.9c0-4.5,3.7-8.2,8.2-8.2s8.2,3.7,8.2,8.2C23.3,14.7,22.4,16.8,20.9,18.3z"/>
</g>
<g>
	<path class="st1" d="M79.1,121.7c-2.6-2.6-3.1-6.7-1.3-9.9c1.9-3.2,5.6-4.8,9.2-3.8s6.1,4.2,6.1,7.9h-4.8c0-1.4-0.8-2.6-2.1-3.1
		c-1.3-0.5-2.7-0.2-3.7,0.7c-1,1-1.3,2.4-0.7,3.7c0.5,1.3,1.7,2.1,3.1,2.1h1.8v4.8h-1.8c-1.4,0-2.6,0.8-3.1,2.1
		c-0.5,1.3-0.2,2.7,0.7,3.7c1,1,2.4,1.3,3.7,0.7c1.3-0.5,2.1-1.7,2.1-3.1h4.8c0,4.5-3.7,8.2-8.2,8.2s-8.2-3.7-8.2-8.2
		C76.7,125.3,77.6,123.2,79.1,121.7z"/>
</g>
<g>
	<path class="st1" d="M23,42.4c0,3.5-3,6.1-7.8,10.5c-4.8-4.4-7.8-7-7.8-10.5c0-2.3,1.6-3.7,3.8-3.7c2.1,0,3.1,1.1,4,2.8
		c0.9-1.7,1.9-2.8,4-2.8C21.4,38.7,23,40.1,23,42.4z"/>
</g>
<g>
	<path class="st1" d="M77,97.6c0-3.5,3-6.1,7.8-10.5c4.8,4.4,7.8,7,7.8,10.5c0,2.3-1.6,3.7-3.8,3.7c-2.1,0-3.1-1.1-4-2.8
		c-0.9,1.7-1.9,2.8-4,2.8C78.6,101.3,77,99.9,77,97.6z"/>
</g>
<g>
	<path class="st1" d="M39.6,112.2c0-4.7,4-8.2,10.4-14c6.4,5.8,10.4,9.3,10.4,14c0,3.1-2.1,5-5,5c-2.8,0-4.2-1.4-5.4-3.7
		c-1.2,2.2-2.6,3.7-5.4,3.7C41.7,117.1,39.6,115.3,39.6,112.2z"/>
</g>
<g>
	<path class="st1" d="M60.4,27.8c0,4.7-4,8.2-10.4,14c-6.4-5.8-10.4-9.3-10.4-14c0-3.1,2.1-5,5-5c2.8,0,4.2,1.4,5.4,3.7
		c1.2-2.2,2.6-3.7,5.4-3.7C58.3,22.8,60.4,24.7,60.4,27.8z"/>
</g>
<g>
	<path class="st1" d="M60.4,65.5c0,4.7-4,8.2-10.4,14c-6.4-5.8-10.4-9.3-10.4-14c0-3.1,2.1-5,5-5c2.8,0,4.2,1.4,5.4,3.7
		c1.2-2.2,2.6-3.7,5.4-3.7C58.3,60.5,60.4,62.4,60.4,65.5z"/>
</g>
</svg>
