<?xml version="1.0" encoding="utf-8"?>
<!-- Generator: Adobe Illustrator 24.0.1, SVG Export Plug-In . SVG Version: 6.00 Build 0)  -->
<svg version="1.1" id="Layer_1" xmlns="http://www.w3.org/2000/svg" xmlns:xlink="http://www.w3.org/1999/xlink" x="0px" y="0px"
	 viewBox="0 0 100 140" style="enable-background:new 0 0 100 140;" xml:space="preserve">
<style type="text/css">
	.st0{fill:#FFFFFF;stroke:#4C4C4C;stroke-miterlimit:10;}
</style>
<path class="st0" d="M88,140H12c-6.6,0-12-5.4-12-12V12C0,5.4,5.4,0,12,0h76c6.6,0,12,5.4,12,12v116C100,134.6,94.6,140,88,140z"/>
<g>
	<path d="M23.4,3.9v2.4c0,0.8-0.1,1.6-0.2,2.4c-0.5,3.9-2.3,7.1-4,10.1c-1.9,3.4-3.7,6.5-3.7,10.6v2.4h-4.8v-2.4
		c0-5.4,2.3-9.4,4.3-13c1.4-2.5,2.8-5,3.3-7.7H8V3.9H23.4z"/>
</g>
<g>
	<path d="M77.2,135.7v-2.4c0-0.8,0.1-1.6,0.2-2.4c0.5-3.9,2.3-7.1,4-10.1c1.9-3.4,3.7-6.5,3.7-10.6v-2.4H90v2.4
		c0,5.4-2.3,9.4-4.3,13c-1.4,2.5-2.8,5-3.3,7.7h10.4v4.8L77.2,135.7L77.2,135.7z"/>
</g>
<g>
	<path d="M9.2,52.5c3.5,0,5.5-0.5,5.5-4.6c-0.8,1.4-1.9,1.9-3.4,1.9c-1.8,0-2.9-1.1-2.9-2.9c0-2.8,2.6-5.2,6.9-9.1
		c4.3,3.9,6.9,6.4,6.9,9.1c0,1.8-1.1,2.9-2.9,2.9c-1.5,0-2.6-0.5-3.4-1.9c0,4.1,2,4.6,5.5,4.6l0.6,1.4H8.6L9.2,52.5z"/>
</g>
<g>
	<path d="M90.8,87.5c-3.5,0-5.5,0.5-5.5,4.6c0.8-1.4,1.9-1.9,3.4-1.9c1.8,0,2.9,1.1,2.9,2.9c0,2.8-2.6,5.2-6.9,9.1
		c-4.3-3.9-6.9-6.4-6.9-9.1c0-1.8,1.1-2.9,2.9-2.9c1.5,0,2.6,0.5,3.4,1.9c0-4.1-2-4.6-5.5-4.6L78,86.1h13.2L90.8,87.5z"/>
</g>
<g>
	<path d="M30.7,41.5c4.6,0,7.3-0.7,7.3-6.2c-1.1,1.8-2.6,2.6-4.6,2.6c-2.4,0-3.9-1.5-3.9-3.9c0-3.7,3.5-7,9.2-12.2
		c5.7,5.2,9.2,8.5,9.2,12.2c0,2.4-1.5,3.9-3.9,3.9c-2,0-3.4-0.7-4.6-2.6c0,5.5,2.7,6.2,7.3,6.2l0.8,1.8H29.9L30.7,41.5z"/>
</g>
<g>
	<path d="M53.3,41.5c4.6,0,7.3-0.7,7.3-6.2c-1.1,1.8-2.6,2.6-4.6,2.6c-2.4,0-3.9-1.5-3.9-3.9c0-3.7,3.5-7,9.2-12.2
		C67,27,70.5,30.3,70.5,34c0,2.4-1.5,3.9-3.9,3.9c-2,0-3.4-0.7-4.6-2.6c0,5.5,2.7,6.2,7.3,6.2l0.8,1.8H52.5L53.3,41.5z"/>
</g>
<g>
	<path d="M30.7,79c4.6,0,7.3-0.7,7.3-6.2c-1.1,1.8-2.6,2.6-4.6,2.6c-2.4,0-3.9-1.5-3.9-3.9c0-3.7,3.5-7,9.2-12.2
		c5.7,5.2,9.2,8.5,9.2,12.2c0,2.4-1.5,3.9-3.9,3.9c-2,0-3.4-0.7-4.6-2.6c0,5.5,2.7,6.2,7.3,6.2l0.8,1.8H29.9L30.7,79z"/>
</g>
<g>
	<path d="M53.3,79c4.6,0,7.3-0.7,7.3-6.2c-1.1,1.8-2.6,2.6-4.6,2.6c-2.4,0-3.9-1.5-3.9-3.9c0-3.7,3.5-7,9.2-12.2
		c5.7,5.2,9.2,8.5,9.2,12.2c0,2.4-1.5,3.9-3.9,3.9c-2,0-3.4-0.7-4.6-2.6c0,5.5,2.7,6.2,7.3,6.2l0.8,1.8H52.5L53.3,79z"/>
</g>
<g>
	<path d="M43.5,59.2c3.7,0,5.9-0.6,5.9-5c-0.9,1.5-2.1,2.1-3.7,2.1c-1.9,0-3.2-1.2-3.2-3.2c0-3,2.8-5.7,7.4-9.9
		c4.6,4.2,7.4,6.9,7.4,9.9c0,1.9-1.2,3.2-3.2,3.2c-1.6,0-2.8-0.6-3.7-2.1c0,4.5,2.2,5,5.9,5l0.6,1.5h-14L43.5,59.2z"/>
</g>
<g>
	<path d="M69.3,98.7c-4.6,0-7.3,0.7-7.3,6.2c1.1-1.8,2.6-2.6,4.6-2.6c2.4,0,3.9,1.5,3.9,3.9c0,3.7-3.5,7-9.2,12.2
		c-5.7-5.2-9.2-8.5-9.2-12.2c0-2.4,1.5-3.9,3.9-3.9c2,0,3.4,0.7,4.6,2.6c0-5.5-2.7-6.2-7.3-6.2l-0.8-1.8h17.6L69.3,98.7z"/>
</g>
<g>
	<path d="M46.7,98.7c-4.6,0-7.3,0.7-7.3,6.2c1.1-1.8,2.6-2.6,4.6-2.6c2.4,0,3.9,1.5,3.9,3.9c0,3.7-3.5,7-9.2,12.2
		c-5.7-5.2-9.2-8.5-9.2-12.2c0-2.4,1.5-3.9,3.9-3.9c2,0,3.4,0.7,4.6,2.6c0-5.5-2.7-6.2-7.3-6.2l-0.8-1.8h17.6L46.7,98.7z"/>
</g>
</svg>
