<?xml version="1.0" encoding="utf-8"?>
<!-- Generator: Adobe Illustrator 24.0.1, SVG Export Plug-In . SVG Version: 6.00 Build 0)  -->
<svg version="1.1" id="Layer_1" xmlns="http://www.w3.org/2000/svg" xmlns:xlink="http://www.w3.org/1999/xlink" x="0px" y="0px"
	 viewBox="0 0 100 140" style="enable-background:new 0 0 100 140;" xml:space="preserve">
<style type="text/css">
	.st0{fill:#FFFFFF;stroke:#4C4C4C;stroke-miterlimit:10;}
</style>
<path class="st0" d="M88,140H12c-6.6,0-12-5.4-12-12V12C0,5.4,5.4,0,12,0h76c6.6,0,12,5.4,12,12v116C100,134.6,94.6,140,88,140z"/>
<g>
	<path d="M21.5,17.9c3.2,3.2,3.2,8.4,0,11.6s-8.4,3.2-11.6,0s-3.2-8.4,0-11.6C7.3,15.3,6.7,11.2,8.6,8s5.6-4.8,9.2-3.8
		s6.1,4.2,6.1,7.9C23.9,14.3,23,16.4,21.5,17.9z M15.7,20.3c-1.9,0-3.4,1.5-3.4,3.4s1.5,3.4,3.4,3.4s3.4-1.5,3.4-3.4
		C19.1,21.8,17.6,20.3,15.7,20.3z M15.7,15.5c1.9,0,3.4-1.5,3.4-3.4s-1.5-3.4-3.4-3.4s-3.4,1.5-3.4,3.4C12.3,14,13.8,15.5,15.7,15.5
		z"/>
</g>
<g>
	<path d="M79.1,121.7c-3.2-3.2-3.2-8.4,0-11.6s8.4-3.2,11.6,0s3.2,8.4,0,11.6c2.6,2.6,3.1,6.7,1.3,9.9c-1.9,3.2-5.6,4.8-9.2,3.8
		s-6.1-4.2-6.1-7.9C76.7,125.3,77.6,123.2,79.1,121.7z M84.9,119.3c1.9,0,3.4-1.5,3.4-3.4s-1.5-3.4-3.4-3.4s-3.4,1.5-3.4,3.4
		C81.6,117.7,83.1,119.3,84.9,119.3z M84.9,124.1c-1.9,0-3.4,1.5-3.4,3.4c0,1.9,1.5,3.4,3.4,3.4s3.4-1.5,3.4-3.4
		C88.3,125.6,86.8,124.1,84.9,124.1z"/>
</g>
<g>
	<path d="M9.2,52.5c3.5,0,5.5-0.5,5.5-4.6c-0.8,1.4-1.9,1.9-3.4,1.9c-1.8,0-2.9-1.1-2.9-2.9c0-2.8,2.6-5.2,6.9-9.1
		c4.3,3.9,6.9,6.4,6.9,9.1c0,1.8-1.1,2.9-2.9,2.9c-1.5,0-2.6-0.5-3.4-1.9c0,4.1,2,4.6,5.5,4.6l0.6,1.4H8.6L9.2,52.5z"/>
</g>
<g>
	<path d="M90.8,87.5c-3.5,0-5.5,0.5-5.5,4.6c0.8-1.4,1.9-1.9,3.4-1.9c1.8,0,2.9,1.1,2.9,2.9c0,2.8-2.6,5.2-6.9,9.1
		c-4.3-3.9-6.9-6.4-6.9-9.1c0-1.8,1.1-2.9,2.9-2.9c1.5,0,2.6,0.5,3.4,1.9c0-4.1-2-4.6-5.5-4.6L78,86.1h13.2L90.8,87.5z"/>
</g>
<g>
	<path d="M30.7,41.5c4.6,0,7.3-0.7,7.3-6.2c-1.1,1.8-2.6,2.6-4.6,2.6c-2.4,0-3.9-1.5-3.9-3.9c0-3.7,3.5-7,9.2-12.2
		c5.7,5.2,9.2,8.5,9.2,12.2c0,2.4-1.5,3.9-3.9,3.9c-2,0-3.4-0.7-4.6-2.6c0,5.5,2.7,6.2,7.3,6.2l0.8,1.8H29.9L30.7,41.5z"/>
</g>
<g>
	<path d="M53.3,41.5c4.6,0,7.3-0.7,7.3-6.2c-1.1,1.8-2.6,2.6-4.6,2.6c-2.4,0-3.9-1.5-3.9-3.9c0-3.7,3.5-7,9.2-12.2
		C67,27,70.5,30.3,70.5,34c0,2.4-1.5,3.9-3.9,3.9c-2,0-3.4-0.7-4.6-2.6c0,5.5,2.7,6.2,7.3,6.2l0.8,1.8H52.5L53.3,41.5z"/>
</g>
<g>
	<path d="M30.7,79c4.6,0,7.3-0.7,7.3-6.2c-1.1,1.8-2.6,2.6-4.6,2.6c-2.4,0-3.9-1.5-3.9-3.9c0-3.7,3.5-7,9.2-12.2
		c5.7,5.2,9.2,8.5,9.2,12.2c0,2.4-1.5,3.9-3.9,3.9c-2,0-3.4-0.7-4.6-2.6c0,5.5,2.7,6.2,7.3,6.2l0.8,1.8H29.9L30.7,79z"/>
</g>
<g>
	<path d="M53.3,79c4.6,0,7.3-0.7,7.3-6.2c-1.1,1.8-2.6,2.6-4.6,2.6c-2.4,0-3.9-1.5-3.9-3.9c0-3.7,3.5-7,9.2-12.2
		c5.7,5.2,9.2,8.5,9.2,12.2c0,2.4-1.5,3.9-3.9,3.9c-2,0-3.4-0.7-4.6-2.6c0,5.5,2.7,6.2,7.3,6.2l0.8,1.8H52.5L53.3,79z"/>
</g>
<g>
	<path d="M43.5,59.2c3.7,0,5.9-0.6,5.9-5c-0.9,1.5-2.1,2.1-3.7,2.1c-1.9,0-3.2-1.2-3.2-3.2c0-3,2.8-5.7,7.4-9.9
		c4.6,4.2,7.4,6.9,7.4,9.9c0,1.9-1.2,3.2-3.2,3.2c-1.6,0-2.8-0.6-3.7-2.1c0,4.5,2.2,5,5.9,5l0.6,1.5h-14L43.5,59.2z"/>
</g>
<g>
	<path d="M43.5,95c3.7,0,5.9-0.6,5.9-5c-0.9,1.5-2.1,2.1-3.7,2.1c-1.9,0-3.2-1.2-3.2-3.2c0-3,2.8-5.7,7.4-9.9
		c4.6,4.2,7.4,6.9,7.4,9.9c0,1.9-1.2,3.2-3.2,3.2c-1.6,0-2.8-0.6-3.7-2.1c0,4.5,2.2,5,5.9,5l0.6,1.5h-14L43.5,95z"/>
</g>
<g>
	<path d="M69.3,98.7c-4.6,0-7.3,0.7-7.3,6.2c1.1-1.8,2.6-2.6,4.6-2.6c2.4,0,3.9,1.5,3.9,3.9c0,3.7-3.5,7-9.2,12.2
		c-5.7-5.2-9.2-8.5-9.2-12.2c0-2.4,1.5-3.9,3.9-3.9c2,0,3.4,0.7,4.6,2.6c0-5.5-2.7-6.2-7.3-6.2l-0.8-1.8h17.6L69.3,98.7z"/>
</g>
<g>
	<path d="M46.7,98.7c-4.6,0-7.3,0.7-7.3,6.2c1.1-1.8,2.6-2.6,4.6-2.6c2.4,0,3.9,1.5,3.9,3.9c0,3.7-3.5,7-9.2,12.2
		c-5.7-5.2-9.2-8.5-9.2-12.2c0-2.4,1.5-3.9,3.9-3.9c2,0,3.4,0.7,4.6,2.6c0-5.5-2.7-6.2-7.3-6.2l-0.8-1.8h17.6L46.7,98.7z"/>
</g>
</svg>
