<?xml version="1.0" encoding="utf-8"?>
<!-- Generator: Adobe Illustrator 24.0.1, SVG Export Plug-In . SVG Version: 6.00 Build 0)  -->
<svg version="1.1" id="Layer_1" xmlns="http://www.w3.org/2000/svg" xmlns:xlink="http://www.w3.org/1999/xlink" x="0px" y="0px"
	 viewBox="0 0 100 140" style="enable-background:new 0 0 100 140;" xml:space="preserve">
<style type="text/css">
	.st0{fill:#FFFFFF;stroke:#FF8896;stroke-miterlimit:10;}
	.st1{fill:none;stroke:#FF0000;stroke-miterlimit:10;}
	.st2{fill:#FF0000;}
	.st3{fill:#231F20;}
	.st4{fill:#79A03F;}
	.st5{fill:#FFFFFF;}
	.st6{fill:#FFF100;}
	.st7{fill:none;stroke:#231F20;stroke-width:0.2816;stroke-miterlimit:10;}
	.st8{fill:none;}
</style>
<path class="st0" d="M88,140H12c-6.6,0-12-5.4-12-12V12C0,5.4,5.4,0,12,0h76c6.6,0,12,5.4,12,12v116C100,134.6,94.6,140,88,140z"/>
<rect x="26" y="30.6" class="st1" width="48" height="78.8"/>
<g>
	<path class="st2" d="M25.2,27.1v4.8h-2.4c-1.3,0-2.6-0.5-3.6-1.3c-2.9,1.7-6.4,1.7-9.3,0.1C7,29,5.2,26,5.2,22.6v-9.4
		C5.2,8.1,9.4,4,14.5,4s9.3,4.2,9.3,9.3v9.4c0,1.6-0.4,3.1-1.1,4.4h0.1H25.2z M15.5,27l-3.3-3.3l3.4-3.4l3.2,3.2
		c0.1-0.3,0.1-0.6,0.1-0.8v-9.4c0-2.5-2-4.5-4.5-4.5s-4.5,2-4.5,4.5v9.4c0,2.5,2,4.5,4.5,4.5C14.8,27.1,15.2,27,15.5,27z"/>
</g>
<g>
	<path class="st2" d="M75,112.5v-4.8h2.4c1.3,0,2.6,0.5,3.6,1.3c2.9-1.7,6.4-1.7,9.3-0.1c2.9,1.7,4.7,4.7,4.7,8.1v9.4
		c0,5.1-4.2,9.3-9.3,9.3c-5.1,0-9.3-4.2-9.3-9.3V117c0-1.6,0.4-3.1,1.1-4.4h-0.1L75,112.5z M84.7,112.6l3.3,3.3l-3.4,3.4l-3.2-3.2
		c-0.1,0.3-0.1,0.6-0.1,0.8v9.4c0,2.5,2,4.5,4.5,4.5s4.5-2,4.5-4.5V117c0-2.5-2-4.5-4.5-4.5C85.4,112.5,85,112.6,84.7,112.6z"/>
</g>
<g>
	<g>
		<g>
			<path class="st3" d="M17,104.8c4.5,0.1,9-1,13.4-1.7c4.7-0.7,9.4-1.1,14.1-1.6c6.4-0.6,12.8-1.4,19.2-1c4.9,0.3,9.9,0.9,14.8,0.3
				c0.8-0.1,1.4-1.3,0.5-1.7c-3-1.3-6-2.6-9-3.9c-0.1,0.6-0.1,1.1-0.2,1.7c2-0.4,4.2-0.5,6.1-1.1c1.2-0.3,2.1-1.4,1.5-2.6
				c-0.6-1.1-2.2-0.1-1.6,0.9c-0.2-0.5-2.5,0.2-3.1,0.3c-1.2,0.2-2.3,0.4-3.5,0.6c-0.8,0.1-1,1.4-0.2,1.7c3,1.3,6,2.6,9,3.9
				c0.2-0.6,0.3-1.2,0.5-1.7c-6.9,0.9-13.8-0.7-20.7-0.4c-3.8,0.2-7.6,0.6-11.4,1c-4.6,0.5-9.3,0.9-13.9,1.5
				c-5.2,0.7-10.4,2.1-15.6,2C15.8,102.9,15.8,104.8,17,104.8L17,104.8z"/>
		</g>
	</g>
	<g>
		<path class="st4" d="M39.4,101.1c0,0,2.5-20.7-3.4-18.8c-6,1.9-10.1-7-10.1-7C16,58.9,33.4,49,32.7,63.8c0,0,1,9.2,5.2,8.3
			s3.8-15.5,3.8-15.5c1-8.1,1.5-17.1,13.1-12.4c0,0,3.4,0.4,2.6,8.5c-0.8,8.1-0.5,11.9-0.5,11.9c1.5,10.7,8.8,1.8,9.1-2.1
			c1.2-14.8,11.9-9.3,10.7-3.5c-1.2,5.7-2,12.2-8.1,16.3c-7.2,6.6-13.4,3.2-11.7,9.3c0,0,0.5,0.8,0.6,12.1c0,0,2.4,0.3,2.5,2.6
			L39.4,101.1z"/>
		<g>
			<path class="st3" d="M40.1,101.1c0.3-2.3,0.4-4.6,0.5-6.9c0.1-3.3,0.3-7.2-1.1-10.3c-0.4-1-1.2-2-2.4-2.3
				c-0.7-0.1-1.4,0.2-2.1,0.3c-1.2,0.2-2.3-0.1-3.4-0.6c-3-1.7-4.9-5.2-6.4-8.2c-1.9-4-2.8-9.3-0.2-13.3c1.3-2,4.3-3.7,5.9-1.1
				c1,1.6,0.8,3.4,0.9,5.2c0.1,1.3,0.4,2.7,0.8,4c0.5,1.6,1.2,3.5,2.6,4.5c1.2,0.9,2.9,0.8,4-0.3c1.2-1.2,1.7-3,2-4.5
				c0.4-2,0.7-4,0.8-6.1c0.1-1.4,0.1-2.9,0.1-4.3c0-1.6,0.3-3.2,0.6-4.8c0.6-3.8,1.7-8.8,6.5-8.7c1.4,0,2.7,0.4,4,0.8
				c0.4,0.1,0.8,0.3,1.1,0.4c0.2,0.1,0.1,0,0,0c0.1,0,0.2,0,0.3,0.1c0.9,0.5,1.5,1.8,1.7,3c0.6,3.3-0.2,6.8-0.4,10.1
				c-0.1,2-0.2,4-0.1,6c0.1,2.6,1.4,7.3,4.9,6.2c3-1,5.4-4.9,5.7-7.9c0.3-2.9,1.4-9.3,5.8-8.5c1.2,0.2,2.3,1.1,2.9,2.1
				c0.9,1.5,0.6,2.9,0.2,4.5c-0.6,2.8-1.1,5.6-2.3,8.2c-1.5,3.1-3.9,5.3-6.6,7.3c-2.4,1.8-5.1,2.7-7.8,3.6c-1.5,0.5-2.9,1.3-3,3.1
				c0,0.8,0.2,1.5,0.4,2.3c-0.1-0.4,0,0,0,0.1c0.1,0.9,0.2,1.9,0.3,2.9c0.2,2.9,0.2,5.8,0.3,8.7c0,0.4,0.3,0.7,0.7,0.7
				c-0.2,0,0.5,0.2,0.7,0.2c0.7,0.3,1,0.9,1.1,1.7c0.2-0.2,0.5-0.5,0.7-0.7c-6.8,0.6-13.6,1.1-20.5,1.7c-0.9,0.1-0.9,1.5,0,1.4
				c6.8-0.6,13.6-1.1,20.5-1.7c0.4,0,0.7-0.3,0.7-0.7c-0.1-1.8-1.4-3.1-3.2-3.4c0.2,0.2,0.5,0.5,0.7,0.7c0-3-0.1-5.9-0.3-8.9
				c-0.1-1-0.1-2.1-0.3-3.1c-0.2-0.8-0.5-1.7-0.3-2.5c0.3-0.8,1.2-1.1,1.9-1.3c1.1-0.4,2.3-0.7,3.4-1.2c3.1-1.2,5.8-3.2,8.3-5.5
				c2.2-2,3.6-4.6,4.6-7.4c0.9-2.6,1.5-5.4,1.9-8.1c0.2-1.3-0.1-2.7-0.8-3.8c-1.5-2.3-4.4-3.5-6.9-2.2c-1.6,0.8-2.6,2.5-3.2,4.1
				c-0.5,1.3-0.8,2.6-0.9,3.9c-0.1,1-0.2,2-0.6,3C64.2,65.3,63,67,61.5,68c-1.8,1.2-2.9,0.2-3.5-1.7c-0.4-1.4-0.5-2.7-0.5-4.1
				c0-2.9,0.2-5.8,0.5-8.7c0.3-3,1-8.9-2.7-10.3c-3.5-1.3-7.9-2.5-10.8,0.7c-2.7,3.1-3.1,8.2-3.4,12.1c-0.3,3-0.1,6-0.5,9
				c-0.3,1.8-0.6,3.9-1.7,5.3c-1.2,1.5-2.7,0.6-3.6-0.8c-0.9-1.6-1.4-3.4-1.7-5.2c-0.2-1.4-0.1-3-0.4-4.5c-0.6-2.8-2.8-5.1-5.8-4.1
				c-3.2,1.1-4.8,4.8-5.2,7.9c-0.5,4.5,1.3,8.6,3.5,12.5c1.8,3.2,4.8,7,8.9,6.8c1.3-0.1,2.5-0.9,3.4,0.4c0.8,1.3,1,3,1.2,4.5
				c0.3,3.6,0.2,7.2-0.2,10.8c-0.1,0.7-0.1,1.4-0.2,2.1C38.6,102,40,102,40.1,101.1z"/>
		</g>
	</g>
	<g>
		<ellipse class="st5" cx="46.7" cy="52.7" rx="4.1" ry="5.2"/>
		<g>
			<path class="st3" d="M50.1,52.7c0,1.6-0.7,3.5-2.3,4.2c-1.4,0.6-2.9-0.1-3.7-1.4c-1-1.5-1.1-3.5-0.3-5.1c0.6-1.3,2-2.5,3.6-2.1
				C49.2,48.8,50.1,50.9,50.1,52.7c0,0.9,1.4,0.9,1.4,0c0-2.2-1-4.5-3.1-5.5c-2-0.9-4.2,0-5.4,1.8c-1.3,1.9-1.4,4.6-0.4,6.7
				c0.9,1.9,2.9,3.2,5.1,2.8c2.6-0.6,3.9-3.3,3.9-5.8C51.5,51.8,50.1,51.8,50.1,52.7z"/>
		</g>
	</g>
	<g>
		<g>
			<g>
				<path class="st2" d="M32.5,53.7c1.4-1,2.8-1.9,4.2-2.9c1.3-0.9,2.5-1.9,4-2.5c-0.1-0.5-0.2-0.9-0.4-1.4c-1.1,0.5-2,1.2-2.8,2
					S35.9,50.5,35,51c-0.6,0.3-0.4,1.4,0.4,1.3c0.7-0.1,1.2-0.4,1.7-0.7s1-0.6,1.6-0.7c1.2-0.3,2.4-0.9,2.5-2.3
					c0-0.5-0.5-0.8-0.9-0.7c-0.6,0.2-1.2,0.6-1.4,1.2c-0.2,0.3-0.1,0.8,0.3,1c0.3,0.2,0.8,0.1,1-0.3c0.1-0.3,0.3-0.5,0.6-0.6
					c-0.3-0.2-0.6-0.5-0.9-0.7c0,0.8-1.5,0.9-2,1.1c-0.4,0.1-0.8,0.4-1.2,0.6c-0.3,0.2-0.7,0.5-1.1,0.6c0.1,0.4,0.2,0.9,0.4,1.3
					c1-0.6,1.8-1.3,2.5-2.1c0.7-0.7,1.5-1.5,2.5-1.9c0.4-0.1,0.6-0.5,0.5-0.9c-0.1-0.3-0.5-0.6-0.9-0.5c-1.5,0.6-2.8,1.6-4.2,2.5
					c-1.4,1-2.9,2-4.3,2.9C31,53,31.7,54.2,32.5,53.7L32.5,53.7z"/>
			</g>
		</g>
		<g>
			<g>
				<path class="st2" d="M55.6,41.1c0,0.8,0.3,1.5,0.9,2.1c0.4,0.4,1.3,0.1,1.2-0.5s-0.1-1.2-0.2-1.8c-0.2,0.2-0.3,0.5-0.5,0.7
					c1.9-0.5,3.8-0.9,5.6-1.6c0.9-0.3,1.7-0.6,2.6-0.8c1-0.2,2-0.1,2.9-0.2c-0.1-0.4-0.2-0.9-0.4-1.3c-1.7,0.8-3.7,1-5.4,1.8
					c-1.9,0.7-3.7,1.5-5.6,2.3c-0.8,0.3-0.5,1.7,0.4,1.4c0.9-0.4,1.7-0.8,2.4-1.5c0.7-0.6-0.3-1.6-1-1c-0.5,0.5-1.2,0.9-1.8,1.1
					c0.1,0.5,0.2,0.9,0.4,1.4c1.9-0.8,3.8-1.6,5.8-2.4c1.8-0.7,3.8-1,5.6-1.8c0.7-0.3,0.3-1.3-0.4-1.3c-2,0-3.8,0.2-5.7,0.9
					c-1.9,0.7-3.8,1.2-5.8,1.7c-0.3,0.1-0.6,0.4-0.5,0.7c0.1,0.6,0.1,1.2,0.2,1.8c0.4-0.2,0.8-0.3,1.2-0.5C57.2,42,57,41.7,57,41.2
					C56.9,40.2,55.5,40.2,55.6,41.1L55.6,41.1z"/>
			</g>
		</g>
		<g>
			<g>
				<path class="st6" d="M41.8,47.6c0,0.3,0,0.6,0,0.9c0,0.4,0.3,0.7,0.7,0.7c0.5,0,0.9-0.2,1.3-0.6c0.2-0.2,0.3-0.4,0.5-0.5
					c0.2-0.2,0.3-0.1,0.5,0c0.7,0.2,1.2-0.1,1.8-0.5c0.5-0.4,1.1-0.6,1.8-0.7c1.3-0.3,2.4-0.7,3.2-1.8c1-1.2,1.9-2.4,3-3.4
					c-0.4,0-0.7-0.1-1.1-0.1c0.3,0.4,0.5,0.9,0.8,1.3c0.2,0.3,0.2,0.2,0,0.4c-0.1,0.2-0.5,0.3-0.7,0.3c-1,0.5-2,0.9-3,1.4
					c0.3,0.3,0.6,0.6,1,1c0.7-1.2,1.7-2.2,2.9-2.9c-0.3-0.1-0.7-0.3-1-0.4c0.1,0.2,0,0.3-0.2,0.4c0.3,0.1,0.6,0.2,1,0.3
					c-0.1,0.2-0.2,0.3-0.2,0.5c0.9,0,0.9-1.4,0-1.4s-1.3,0.9-1,1.6c0.2,0.4,0.7,0.4,1,0.3c0.7-0.4,1.1-1.2,0.8-2
					c-0.1-0.4-0.6-0.6-1-0.4c-1.4,0.8-2.6,2-3.4,3.4c-0.4,0.7,0.3,1.2,1,1c0.8-0.3,1.5-0.7,2.2-1c0.6-0.3,1.3-0.5,1.8-0.9
					c1.2-1-0.1-2.4-0.7-3.4c-0.2-0.4-0.8-0.5-1.1-0.1c-1,1-1.9,2-2.7,3.1c-0.4,0.5-0.8,1-1.3,1.3s-1.2,0.4-1.7,0.5s-1.1,0.3-1.6,0.6
					c-0.2,0.1-0.5,0.4-0.7,0.5c-0.3,0.1-0.6-0.1-0.9-0.1c-0.5,0-0.9,0.2-1.3,0.5c-0.2,0.2-0.6,0.7-0.9,0.7c0.2,0.2,0.5,0.5,0.7,0.7
					c0-0.3,0-0.6,0-0.9C43.2,46.7,41.8,46.7,41.8,47.6L41.8,47.6z"/>
			</g>
		</g>
		<g>
			<g>
				<path class="st2" d="M43.9,45.8c0.3-0.8,0.9-1.5,1.4-2.1c0.6-0.6,1.1-1.4,1.8-1.9s1.5-0.7,2.3-0.8c1-0.1,2-0.1,3-0.1
					c-0.2-0.4-0.3-0.8-0.5-1.2c-1.1,1.2-2.2,2.4-3.7,3.3c-1.4,0.8-2.9,1.6-4.5,1.9c0.3,0.2,0.6,0.5,0.9,0.7c0-0.6,0.5-1.1,0.9-1.5
					c0.5-0.5,1-1,1.6-1.5c0.5-0.4,1-0.9,1.5-1.2c0.6-0.3,1.3-0.2,2-0.2c-0.2-0.2-0.5-0.5-0.7-0.7c0-0.1,0,0-0.1,0
					c-0.1,0.1-0.2,0.1-0.3,0.2c-0.2,0.1-0.4,0.3-0.6,0.4c-0.4,0.3-0.8,0.6-1.2,0.9c-0.8,0.6-1.6,1.1-2.4,1.7c0.3,0.3,0.6,0.6,1,1
					c0.8-1.1,1.8-2,3-2.7c0.8-0.4,0.1-1.6-0.7-1.2c-1.4,0.8-2.6,1.9-3.5,3.2c-0.4,0.6,0.4,1.4,1,1c1-0.7,2-1.4,3-2.1
					c0.5-0.3,1-0.7,1.5-1c0.4-0.3,0.9-0.7,0.8-1.3c0-0.4-0.3-0.7-0.7-0.7c-0.9-0.1-1.8-0.1-2.6,0.3c-0.7,0.3-1.4,0.9-2,1.5
					c-1.2,1-2.8,2.3-2.9,4c0,0.5,0.5,0.8,0.9,0.7c1.7-0.3,3.4-1.2,4.8-2c1.6-0.9,2.7-2.2,3.9-3.5c0.4-0.4,0.1-1.2-0.5-1.2
					c-2,0-4.4-0.2-6.1,1.1c-0.8,0.6-1.4,1.4-2.1,2.1c-0.7,0.8-1.3,1.7-1.7,2.6c-0.1,0.4,0.2,0.8,0.5,0.9
					C43.4,46.4,43.7,46.2,43.9,45.8L43.9,45.8z"/>
			</g>
		</g>
		<g>
			<g>
				<path class="st3" d="M30.6,55.3c4.7-2,9.5-3.9,14.2-5.9c5.3-2.2,10.5-4.4,15.8-6.5c3.2-1.3,6.4-2.7,9.6-4
					c0.5-0.2,0.7-0.8,0.3-1.2c-0.7-0.8-2.2-0.9-3.2-0.9c-4.4-0.1-9,1.7-13,3.3c0.2,0.1,0.5,0.1,0.7,0.2c-2.3-2.1-5.8-2.5-8.5-0.9
					c-1.3,0.8-2.3,1.9-3.2,3.1c-0.5,0.7-1.4,1.8-1.6,2.6c-0.1,0.5,0.2,0.1-0.2,0.4c-0.7,0.4-1.7,0.7-2.4,1c-1.2,0.6-2.4,1.1-3.5,1.8
					c-2.3,1.4-5.3,3.3-5.9,6.1c-0.2,0.9,1.2,1.3,1.4,0.4c0.5-2.3,2.9-3.8,4.8-5c1.8-1.1,3.8-2.1,5.7-2.9c0.4-0.2,0.8-0.3,1.1-0.6
					c0.6-0.7,0.9-1.8,1.4-2.6c0.5-0.7,1-1.4,1.6-2c1.5-1.5,3.5-2.4,5.6-1.9c1,0.2,2.2,0.8,2.8,1.4c0.2,0.2,0.4,0.3,0.7,0.2
					c3.8-1.5,8.1-3.2,12.3-3.2c0.7,0,1.5,0,2.1,0.3c0,0,0.2,0.2,0.3,0.2c0.1,0-0.1-0.1,0,0c0.1-0.4,0.2-0.8,0.3-1.2
					c-4.8,2-9.6,4-14.4,5.9c-5.2,2.1-10.4,4.3-15.5,6.4c-3.3,1.3-6.5,2.7-9.8,4C29.4,54.3,29.8,55.7,30.6,55.3z"/>
			</g>
		</g>
		<g>
			<path class="st5" d="M54.6,40.8c0,0,1.3,1,1.8,3.1"/>
			<g>
				<path class="st3" d="M54.3,41.4C54,41.2,54.3,41.4,54.3,41.4c0.2,0.2,0.2,0.2,0.3,0.3l0.1,0.1c0,0,0,0.1,0.1,0.1
					c0.1,0.1-0.1-0.2,0,0c0.2,0.3,0.4,0.6,0.6,0.9c0,0,0,0.1,0.1,0.1V43c0-0.1,0-0.1,0,0s0.1,0.2,0.1,0.3c0.1,0.2,0.1,0.5,0.2,0.7
					c0.1,0.4,0.5,0.6,0.9,0.5s0.6-0.5,0.5-0.9c-0.3-1.3-1-2.7-2.1-3.5C55,40,54.7,40,54.6,40c-0.2,0-0.3,0.2-0.4,0.3
					c-0.1,0.2-0.1,0.4-0.1,0.5C54,41.2,54.1,41.3,54.3,41.4L54.3,41.4z"/>
			</g>
		</g>
		<g>
			<g>
				<path class="st3" d="M41.9,50.2c-0.1-1.1,0.3-2.4,0.8-3.4c-0.3,0.1-0.5,0.2-0.8,0.3c1.4,0.3,3,0.1,4.4-0.3c3.4-1,6.1-3.4,8-6.4
					c0.5-0.8-0.7-1.5-1.2-0.7c-1.7,2.6-4.2,4.9-7.3,5.7c-0.8,0.2-1.7,0.4-2.6,0.4c-0.3,0-0.5,0-0.8,0s0.1,0-0.1,0
					c-0.3-0.1-0.7,0-0.8,0.3c-0.6,1.2-1,2.7-0.9,4.1C40.6,51.1,42,51.1,41.9,50.2L41.9,50.2z"/>
			</g>
		</g>
	</g>
	<g>
		<ellipse class="st5" cx="54.2" cy="52.2" rx="4" ry="5.4"/>
		<g>
			<path class="st3" d="M57.5,52.2c0,1.6-0.6,3.6-2.2,4.4c-1.4,0.7-2.9-0.2-3.6-1.4c-0.9-1.6-1-3.7-0.3-5.4c0.6-1.3,1.9-2.6,3.4-2.2
				C56.7,48.1,57.5,50.4,57.5,52.2c0,0.9,1.4,0.9,1.4,0c0-2.2-0.9-4.7-3.1-5.7c-2-0.9-4.2,0.1-5.3,1.9c-1.3,2.1-1.3,4.8-0.3,7
				c0.9,1.9,2.8,3.4,4.9,2.8c2.6-0.7,3.7-3.6,3.7-6C58.9,51.3,57.5,51.3,57.5,52.2z"/>
		</g>
	</g>
	<g>
		<g>
			<path class="st3" d="M46.8,51.4c-0.4,0.5-0.6,1-0.7,1.7c-0.1,0.6,0,1.3,0.6,1.6c0.7,0.4,1.5,0,1.8-0.7c0.2-0.3,0.2-0.7,0.3-1
				c0-0.3,0-0.6,0-1c-0.1-0.4-0.4-0.7-0.8-0.8c-0.3-0.1-0.6-0.1-0.9,0c-0.3,0.1-0.6,0.5-0.5,0.9c0.1,0.3,0.5,0.6,0.9,0.5h0.1
				c-0.1,0-0.1,0-0.2,0c0.1,0,0.2,0,0.3,0c-0.1,0-0.1,0-0.2,0c0.1,0,0.2,0,0.2,0.1c-0.1,0-0.1,0-0.2-0.1c0,0,0.1,0,0.1,0.1l-0.1-0.1
				l0,0l-0.1-0.1c0,0,0,0,0,0.1c0-0.1,0-0.1-0.1-0.2v0.1c0-0.1,0-0.1,0-0.2c0,0.3,0,0.6,0,0.9c0-0.1,0-0.1,0-0.2
				c0,0.2-0.1,0.4-0.1,0.6c0-0.1,0-0.1,0.1-0.2c0,0.1-0.1,0.2-0.1,0.2l0.1-0.1l-0.1,0.1l0.1-0.1c0,0-0.1,0.1-0.2,0.1
				c0.1,0,0.1,0,0.2-0.1c-0.1,0-0.1,0-0.2,0c0.1,0,0.1,0,0.2,0h-0.1c0.1,0,0.1,0,0.2,0h-0.1c0.1,0,0.1,0,0.2,0.1c0,0-0.1,0-0.1-0.1
				l0.1,0.1l-0.1-0.1l0.1,0.1l-0.1-0.1c0,0.1,0,0.1,0.1,0.2c0-0.1,0-0.1-0.1-0.2c0,0.1,0,0.1,0,0.2c0-0.2,0-0.4,0-0.6
				c0,0.1,0,0.1,0,0.2c0-0.2,0.1-0.4,0.2-0.6c0,0.1,0,0.1-0.1,0.2c0-0.1,0.1-0.2,0.2-0.3l-0.1,0.1l0.1-0.1c0.3-0.3,0.3-0.7,0-1
				C47.5,51.2,47.1,51.1,46.8,51.4L46.8,51.4z"/>
		</g>
	</g>
	<g>
		<g>
			<path class="st3" d="M53.6,51.1c-0.4,0.1-0.8,0.5-0.8,0.9c-0.1,0.4,0,0.8,0.1,1.2c0.2,0.4,0.7,0.7,1.1,0.7c0.3,0,0.5-0.1,0.7-0.4
				c0.1-0.2,0.1-0.4,0.1-0.6c0-0.2,0-0.4,0-0.5s0-0.3,0-0.4v-0.1c0-0.1-0.1-0.2-0.1-0.3c-0.2-0.3-0.5-0.5-0.9-0.5
				c-0.2,0-0.4,0.1-0.5,0.2c-0.1,0.1-0.2,0.3-0.2,0.5s0.1,0.4,0.2,0.5c0.1,0.1,0.3,0.2,0.5,0.2c0,0,0,0,0.1,0c-0.1,0-0.1,0-0.2,0
				h0.1c-0.1,0-0.1,0-0.2-0.1c0,0,0,0,0.1,0l-0.1-0.1c0,0,0.1,0,0.1,0.1l-0.1-0.1c0,0,0,0.1,0.1,0.1c0-0.1,0-0.1-0.1-0.2
				c0,0.1,0,0.1,0.1,0.2c0-0.1,0-0.1,0-0.2c0,0.3,0,0.6,0,0.9c0-0.1,0-0.1,0-0.2l0,0c0-0.1,0-0.1,0.1-0.2l0,0l0.1-0.1l0,0l0.1-0.1
				l0,0c0.1,0,0.1,0,0.2-0.1l0,0c0.1,0,0.1,0,0.2,0h-0.1c0.1,0,0.1,0,0.2,0c-0.1,0-0.1,0-0.2,0c0.1,0,0.1,0,0.2,0.1
				c0,0-0.1,0-0.1-0.1l0.1,0.1l-0.1-0.1l0.1,0.1c0-0.1-0.1-0.1-0.1-0.2c0,0.1,0,0.1,0.1,0.2c0-0.1,0-0.1-0.1-0.2c0,0.1,0,0.1,0,0.2
				c0-0.1,0-0.2,0-0.3c0,0.1,0,0.1,0,0.2c0-0.1,0-0.1,0.1-0.2c0,0.1,0,0.1-0.1,0.2c0,0,0-0.1,0.1-0.1l-0.1,0.1l0.1-0.1l-0.1,0.1h0.1
				c-0.1,0-0.1,0-0.2,0.1c0,0,0,0,0.1,0c0.2,0,0.3-0.2,0.4-0.3c0.1-0.2,0.1-0.4,0.1-0.5c-0.1-0.2-0.2-0.3-0.3-0.4
				C54,51.1,53.8,51.1,53.6,51.1L53.6,51.1z"/>
		</g>
	</g>
	<g>
		<g>
			<g>
				<path class="st5" d="M47.4,61.9c0.2,0.1,0.3,0.3,0.5,0.3c0.1,0,0.2,0,0.3,0c0.2,0,0,0,0,0c-0.2-0.2-0.3-0.3-0.5-0.5l0,0
					c0,0.1,0.1,0.2,0.1,0.3c0.1,0.2,0.4,0.4,0.6,0.5c0.3,0.1,0.6,0.1,0.9,0.1c0.2,0,0.5,0.1,0.7,0c0.6-0.1,1.2-0.3,1.7-0.6
					c0.2-0.1,0.4-0.2,0.6-0.3c0.1-0.1,0.2-0.1,0.3-0.2c0.1,0,0.1-0.1,0.2-0.1c0,0,0.2-0.1,0,0c-0.4-0.5-0.7-0.9-1.1-1.4
					c-0.2,0.3-0.4,0.6-0.6,0.9C51,61,51,61.1,50.9,61.1c-0.1,0.2,0.1-0.1,0,0c0,0.1-0.1,0.1-0.1,0.2l-0.1,0.1c0.1-0.1,0.1-0.1,0.1,0
					c0,0-0.3,0.1-0.1,0.1c-0.1,0-0.1,0-0.2,0.1c-0.2,0.1,0.2,0-0.1,0c-0.1,0-0.2,0-0.3,0c-0.2,0-0.3,0-0.5,0c-0.1,0-0.2,0-0.2,0
					c0.2,0-0.1,0-0.1-0.1c-0.5-0.2-1,0.2-1.2,0.7c-0.1,0.5,0.2,1,0.7,1.2c0.4,0.2,1,0.2,1.4,0.2c0.5,0,1-0.1,1.5-0.4
					c0.8-0.5,1.2-1.4,1.7-2.1c0.2-0.3,0.1-0.8-0.1-1c-0.2-0.3-0.6-0.5-1-0.3c-0.4,0.1-0.6,0.3-1,0.5c-0.3,0.2-0.6,0.3-0.9,0.5
					c-0.3,0.1,0.2-0.1-0.1,0c-0.1,0-0.2,0.1-0.2,0.1s-0.3,0-0.1,0c-0.1,0-0.2,0-0.2,0c-0.2,0-0.3,0-0.5-0.1c-0.1,0-0.2,0-0.3,0h-0.1
					c-0.2,0-0.1,0,0.2,0.1c0.1,0.1,0.2,0.2,0.3,0.3c0.2,0.3,0-0.1-0.1-0.2c-0.1-0.2-0.2-0.3-0.4-0.4c-0.1-0.1-0.2-0.1-0.3-0.1
					s-0.2,0-0.3,0c-0.2,0-0.1,0,0.4,0.2c-0.4-0.3-1-0.4-1.3,0C47,61,47,61.6,47.4,61.9L47.4,61.9z"/>
			</g>
		</g>
		<g>
			<g>
				<path class="st3" d="M48.1,58.7c-0.9-0.1-2,0-2.2,1c-0.1,0.9,0.5,1.7,1,2.4c1.2,1.5,3.6,2.9,5.4,1.5c1.5-1.1,1.7-3.3,1.9-5
					c0-0.5-0.6-0.6-0.9-0.4c-0.2,0.2-0.4,0.4-0.6,0.6c-0.3,0.3-0.6,0.5-1.1,0.8c-1.4,0.7-3.1,0.4-4.6,0c-0.6-0.2-0.9,0.8-0.3,1
					c1.7,0.6,3.6,0.8,5.3,0c0.5-0.2,0.9-0.6,1.3-0.9c0.2-0.2,0.4-0.5,0.7-0.7c-0.3-0.1-0.6-0.2-0.9-0.4c-0.1,0.9-0.2,1.7-0.4,2.5
					c-0.1,0.3-0.2,0.5-0.3,0.8s-0.2,0.4-0.4,0.6c-0.1,0.1-0.2,0.2-0.3,0.2c-0.1,0.1,0.1,0,0,0c0,0-0.1,0.1-0.2,0.1
					c0,0-0.1,0-0.1,0.1c-0.1,0.1,0,0-0.1,0S51.1,63,51,63h-0.1c-0.1,0,0.1,0,0,0s-0.2,0-0.3,0s-0.1,0-0.2,0c-0.1,0,0.1,0-0.1,0
					c-0.1,0-0.2,0-0.3-0.1c-0.8-0.2-1.5-0.7-2.1-1.3c-0.2-0.2-0.3-0.3-0.4-0.5c-0.1-0.1,0,0.1,0-0.1l-0.1-0.1
					c-0.1-0.1-0.1-0.2-0.2-0.3c0-0.1-0.1-0.2-0.1-0.2c0-0.1-0.1-0.3-0.1-0.2c-0.1-0.1-0.1-0.3-0.1-0.4c0-0.1,0,0.1,0,0v-0.1v-0.1
					c0,0.2,0,0.1,0,0s0,0,0,0s0-0.1,0.1-0.1c0-0.1-0.1,0.1,0,0c0,0,0.1-0.1,0,0h0.1l0,0c0.1,0-0.1,0,0,0h0.1c0,0,0.2,0,0.1,0
					c-0.1,0,0.1,0,0.1,0c0.1,0,0.1,0,0.2,0c0.1,0,0.1,0,0.2,0h0.1c0.1,0-0.1,0,0,0c0.3,0,0.6-0.1,0.6-0.4
					C48.5,59.1,48.4,58.8,48.1,58.7L48.1,58.7z"/>
			</g>
		</g>
	</g>
	<line class="st7" x1="48.6" y1="97.5" x2="50.2" y2="98"/>
	<g>
		<g>
			<g>
				<g>
					<path class="st3" d="M26.5,60.8c0.3,0.2,0.5,0.4,0.8,0.7l0.1,0.1c0.1,0.1,0.2,0.1,0.3,0c0.1-0.1,0.1-0.2,0-0.3
						c-0.3-0.2-0.5-0.4-0.8-0.7l-0.1-0.1c-0.1-0.1-0.2-0.1-0.3,0C26.5,60.6,26.5,60.8,26.5,60.8L26.5,60.8z"/>
				</g>
			</g>
			<g>
				<g>
					<path class="st3" d="M28.9,62.9c0.6-0.4,1.2-0.7,1.8-1.1c0.1-0.1,0.2-0.1,0.3-0.2c0.2-0.1,0-0.5-0.2-0.3
						c-0.6,0.4-1.2,0.7-1.8,1.1c-0.1,0.1-0.2,0.1-0.3,0.2C28.6,62.7,28.7,63,28.9,62.9L28.9,62.9z"/>
				</g>
			</g>
			<g>
				<g>
					<path class="st3" d="M25.9,66.9c0.6,0.1,1.2,0.3,1.8,0.4c0.1,0,0.2,0,0.3,0.1c0.2,0.1,0.3-0.3,0.1-0.4
						c-0.6-0.1-1.2-0.3-1.8-0.4c-0.1,0-0.2,0-0.3-0.1C25.8,66.5,25.7,66.8,25.9,66.9L25.9,66.9z"/>
				</g>
			</g>
			<g>
				<g>
					<path class="st3" d="M29.8,66.8c0.4-0.3,0.7-0.6,1.1-0.9c0.1,0,0.1-0.1,0.2-0.1c0.1-0.1,0.1-0.2,0-0.3c-0.1-0.1-0.2-0.1-0.3,0
						c-0.4,0.3-0.7,0.6-1.1,0.9c-0.1,0-0.1,0.1-0.2,0.1c-0.1,0.1-0.1,0.2,0,0.3C29.6,66.9,29.7,66.9,29.8,66.8L29.8,66.8z"/>
				</g>
			</g>
			<g>
				<g>
					<path class="st3" d="M28.7,70.6c-0.4,0.5-0.7,1-1.1,1.5c-0.1,0.1-0.1,0.1-0.2,0.2s0,0.2,0.1,0.3c0.1,0.1,0.2,0,0.3-0.1
						c0.4-0.5,0.7-1,1.1-1.5c0.1-0.1,0.1-0.1,0.2-0.2s0-0.2-0.1-0.3C28.9,70.4,28.8,70.5,28.7,70.6L28.7,70.6z"/>
				</g>
			</g>
			<g>
				<g>
					<path class="st3" d="M30.7,70.7c0.2,0.9,0.4,1.8,0.6,2.6c0,0.1,0.1,0.3,0.1,0.4c0.1,0.2,0.4,0.1,0.4-0.1
						c-0.2-0.9-0.4-1.8-0.6-2.6c0-0.1-0.1-0.3-0.1-0.4C31,70.4,30.7,70.5,30.7,70.7L30.7,70.7z"/>
				</g>
			</g>
			<g>
				<g>
					<path class="st3" d="M35.3,75.3c0.2,0.5,0.5,0.9,0.7,1.4c0,0.1,0.1,0.1,0.1,0.2c0.1,0.2,0.4,0,0.3-0.2
						c-0.2-0.5-0.5-0.9-0.7-1.4c0-0.1-0.1-0.1-0.1-0.2C35.5,74.8,35.1,75,35.3,75.3L35.3,75.3z"/>
				</g>
			</g>
			<g>
				<g>
					<path class="st3" d="M33.3,77.7c0,0.7,0,1.4,0,2.1c0,0.1,0,0.2,0,0.3c0,0.2,0.4,0.2,0.4,0c0-0.7,0-1.4,0-2.1c0-0.1,0-0.2,0-0.3
						C33.7,77.4,33.3,77.4,33.3,77.7L33.3,77.7z"/>
				</g>
			</g>
			<g>
				<g>
					<path class="st3" d="M44.2,61.3c0.3-0.2,0.7-0.4,1-0.6l0.1-0.1c0.1-0.1,0.1-0.2,0.1-0.3c-0.1-0.1-0.2-0.1-0.3-0.1
						c-0.3,0.2-0.7,0.4-1,0.6L44,60.9c-0.1,0.1-0.1,0.2-0.1,0.3C44,61.3,44.1,61.3,44.2,61.3L44.2,61.3z"/>
				</g>
			</g>
			<g>
				<g>
					<path class="st3" d="M43.1,65.1c0.3-0.4,0.7-0.8,1-1.1c0-0.1,0.1-0.1,0.1-0.2c0.1-0.1,0.1-0.2,0-0.3s-0.2-0.1-0.3,0
						c-0.3,0.4-0.7,0.8-1,1.1c0,0.1-0.1,0.1-0.1,0.2c-0.1,0.1-0.1,0.2,0,0.3C42.9,65.1,43,65.2,43.1,65.1L43.1,65.1z"/>
				</g>
			</g>
			<g>
				<g>
					<path class="st3" d="M42,71.6c0.3-0.6,0.7-1.2,1-1.8c0-0.1,0.1-0.2,0.1-0.3c0.1-0.2-0.2-0.4-0.3-0.2c-0.3,0.6-0.7,1.2-1,1.8
						c0,0.1-0.1,0.2-0.1,0.3C41.6,71.7,41.9,71.9,42,71.6L42,71.6z"/>
				</g>
			</g>
			<g>
				<g>
					<path class="st3" d="M37.8,76.9c0.4-0.2,0.8-0.5,1.2-0.7c0.1,0,0.1-0.1,0.2-0.1c0.1-0.1,0.1-0.2,0.1-0.3
						c-0.1-0.1-0.2-0.1-0.3-0.1c-0.4,0.2-0.8,0.5-1.2,0.7c-0.1,0-0.1,0.1-0.2,0.1c-0.1,0.1-0.1,0.2-0.1,0.3
						C37.6,76.9,37.7,77,37.8,76.9L37.8,76.9z"/>
				</g>
			</g>
			<g>
				<g>
					<path class="st3" d="M41,76c0,0.5,0,1,0,1.6c0,0.1,0,0.1,0,0.2c0,0.2,0.4,0.2,0.4,0c0-0.5,0-1,0-1.6c0-0.1,0-0.1,0-0.2
						C41.4,75.7,41,75.7,41,76L41,76z"/>
				</g>
			</g>
			<g>
				<g>
					<path class="st3" d="M37.8,81.2c0.5-0.4,1-0.7,1.5-1.1c0.1-0.1,0.1-0.1,0.2-0.2c0.1-0.1,0.1-0.2,0.1-0.3c0-0.1-0.2-0.1-0.3-0.1
						c-0.5,0.4-1,0.7-1.5,1.1c-0.1,0.1-0.1,0.1-0.2,0.2c-0.1,0.1-0.1,0.2-0.1,0.3C37.6,81.2,37.7,81.2,37.8,81.2L37.8,81.2z"/>
				</g>
			</g>
			<g>
				<g>
					<path class="st3" d="M45.6,74.6c0.2,0.6,0.3,1.3,0.5,1.9c0,0.1,0,0.2,0.1,0.3c0.1,0.2,0.4,0.1,0.4-0.1
						c-0.2-0.6-0.3-1.3-0.5-1.9c0-0.1,0-0.2-0.1-0.3C45.9,74.3,45.6,74.4,45.6,74.6L45.6,74.6z"/>
				</g>
			</g>
			<g>
				<g>
					<path class="st3" d="M48.4,73.2c0,0.6,0,1.1,0,1.7c0,0.1,0,0.2,0,0.2c0,0.2,0.4,0.2,0.4,0c0-0.6,0-1.1,0-1.7c0-0.1,0-0.2,0-0.2
						C48.7,73,48.4,73,48.4,73.2L48.4,73.2z"/>
				</g>
			</g>
			<g>
				<g>
					<path class="st3" d="M47.6,68.6c0.7-0.1,1.3-0.2,2-0.3c0.1,0,0.2,0,0.3,0s0.2-0.1,0.1-0.2c0-0.1-0.1-0.1-0.2-0.1
						c-0.7,0.1-1.3,0.2-2,0.3c-0.1,0-0.2,0-0.3,0s-0.2,0.1-0.1,0.2C47.4,68.6,47.5,68.7,47.6,68.6L47.6,68.6z"/>
				</g>
			</g>
			<g>
				<g>
					<path class="st3" d="M53.1,70.7c0.6-0.3,1.2-0.6,1.8-0.9c0.1,0,0.2-0.1,0.3-0.1c0.2-0.1,0-0.4-0.2-0.3
						c-0.6,0.3-1.2,0.6-1.8,0.9c-0.1,0-0.2,0.1-0.3,0.1C52.7,70.5,52.9,70.8,53.1,70.7L53.1,70.7z"/>
				</g>
			</g>
			<g>
				<g>
					<path class="st3" d="M55.3,65c0.1-0.4,0.3-0.8,0.4-1.1c0-0.1,0-0.1,0.1-0.2c0-0.1,0-0.2-0.1-0.2s-0.2,0-0.2,0.1
						c-0.1,0.4-0.3,0.8-0.4,1.1c0,0.1,0,0.1-0.1,0.2c0,0.1,0,0.2,0.1,0.2C55.1,65.2,55.2,65.1,55.3,65L55.3,65z"/>
				</g>
			</g>
			<g>
				<g>
					<path class="st3" d="M54.4,63.1c0.3-0.3,0.6-0.6,1-0.9l0.1-0.1c0.1-0.1,0.1-0.2,0-0.3s-0.2-0.1-0.3,0c-0.3,0.3-0.6,0.6-1,0.9
						l-0.1,0.1c-0.1,0.1-0.1,0.2,0,0.3C54.2,63.2,54.3,63.2,54.4,63.1L54.4,63.1z"/>
				</g>
			</g>
			<g>
				<g>
					<path class="st3" d="M51.9,72.9c0.3,0.1,0.6,0.3,0.9,0.4c0,0,0.1,0,0.1,0.1c0.1,0,0.2,0,0.3-0.1c0-0.1,0-0.2-0.1-0.3
						c-0.3-0.1-0.6-0.3-0.9-0.4c0,0-0.1,0-0.1-0.1c-0.1,0-0.2,0-0.3,0.1C51.8,72.7,51.8,72.9,51.9,72.9L51.9,72.9z"/>
				</g>
			</g>
			<g>
				<g>
					<path class="st3" d="M51.2,75.3c0.7,0.1,1.4,0.3,2.1,0.4c0.1,0,0.2,0,0.3,0.1c0.2,0,0.3-0.3,0.1-0.4c-0.7-0.1-1.4-0.3-2.1-0.4
						c-0.1,0-0.2,0-0.3-0.1C51.1,74.9,51,75.3,51.2,75.3L51.2,75.3z"/>
				</g>
			</g>
			<g>
				<g>
					<path class="st3" d="M60.3,74.6c0,0.5,0,1,0,1.6c0,0.1,0,0.1,0,0.2c0,0.2,0.4,0.2,0.4,0c0-0.5,0-1,0-1.6c0-0.1,0-0.1,0-0.2
						C60.7,74.3,60.3,74.3,60.3,74.6L60.3,74.6z"/>
				</g>
			</g>
			<g>
				<g>
					<path class="st3" d="M60.3,71c0.2,0.4,0.4,0.8,0.6,1.2c0,0.1,0.1,0.1,0.1,0.2s0.2,0.1,0.3,0.1c0.1-0.1,0.1-0.2,0.1-0.3
						c-0.2-0.4-0.4-0.8-0.6-1.2c0-0.1-0.1-0.1-0.1-0.2s-0.2-0.1-0.3-0.1C60.3,70.8,60.3,70.9,60.3,71L60.3,71z"/>
				</g>
			</g>
			<g>
				<g>
					<path class="st3" d="M56.2,72.8c0.2-0.5,0.5-0.9,0.7-1.4c0-0.1,0.1-0.1,0.1-0.2s0-0.2-0.1-0.3c-0.1,0-0.2,0-0.3,0.1
						c-0.2,0.5-0.5,0.9-0.7,1.4c0,0.1-0.1,0.1-0.1,0.2s0,0.2,0.1,0.3C56,73,56.1,72.9,56.2,72.8L56.2,72.8z"/>
				</g>
			</g>
			<g>
				<g>
					<path class="st3" d="M64.8,70.4c0.4-0.3,0.8-0.6,1.2-0.9c0.1,0,0.1-0.1,0.2-0.1c0.1-0.1,0.1-0.2,0.1-0.3c0-0.1-0.2-0.1-0.3-0.1
						c-0.4,0.3-0.8,0.6-1.2,0.9c-0.1,0-0.1,0.1-0.2,0.1c-0.1,0.1-0.1,0.2-0.1,0.3C64.5,70.4,64.7,70.4,64.8,70.4L64.8,70.4z"/>
				</g>
			</g>
			<g>
				<g>
					<path class="st3" d="M67.4,63.8c0.5-0.2,0.9-0.4,1.4-0.6c0.1,0,0.1-0.1,0.2-0.1s0.2-0.1,0.1-0.2c0-0.1-0.1-0.2-0.2-0.1
						c-0.5,0.2-0.9,0.4-1.4,0.6c-0.1,0-0.1,0.1-0.2,0.1s-0.2,0.1-0.1,0.2C67.2,63.8,67.3,63.9,67.4,63.8L67.4,63.8z"/>
				</g>
			</g>
			<g>
				<g>
					<path class="st3" d="M69.2,67.1c0,0.6,0,1.2,0,1.8c0,0.1,0,0.2,0,0.3c0,0.2,0.4,0.2,0.4,0c0-0.6,0-1.2,0-1.8c0-0.1,0-0.2,0-0.3
						C69.6,66.8,69.2,66.8,69.2,67.1L69.2,67.1z"/>
				</g>
			</g>
			<g>
				<g>
					<path class="st3" d="M70.2,65.1c0.3,0.1,0.7,0.3,1,0.4c0,0,0.1,0,0.1,0.1c0.1,0,0.2,0,0.2-0.1s0-0.2-0.1-0.2
						c-0.3-0.1-0.7-0.3-1-0.4c0,0-0.1,0-0.1-0.1c-0.1,0-0.2,0-0.2,0.1C70,65,70.1,65.1,70.2,65.1L70.2,65.1z"/>
				</g>
			</g>
			<g>
				<g>
					<path class="st3" d="M69.6,59.8c0.2-0.4,0.5-0.9,0.7-1.3c0-0.1,0.1-0.1,0.1-0.2c0-0.1,0-0.2-0.1-0.3c-0.1,0-0.2,0-0.3,0.1
						c-0.2,0.4-0.5,0.9-0.7,1.3c0,0.1-0.1,0.1-0.1,0.2c0,0.1,0,0.2,0.1,0.3C69.4,59.9,69.5,59.9,69.6,59.8L69.6,59.8z"/>
				</g>
			</g>
			<g>
				<g>
					<path class="st3" d="M71.2,59.4c0.3,0.4,0.5,0.8,0.8,1.3c0,0.1,0.1,0.1,0.1,0.2c0.1,0.2,0.4,0,0.3-0.2
						c-0.3-0.4-0.5-0.8-0.8-1.3c0-0.1-0.1-0.1-0.1-0.2C71.4,59,71.1,59.2,71.2,59.4L71.2,59.4z"/>
				</g>
			</g>
			<g>
				<g>
					<path class="st3" d="M72.1,55.9c0.3,0.4,0.6,0.9,0.8,1.3c0,0.1,0.1,0.1,0.1,0.2c0.1,0.2,0.5,0,0.3-0.2
						c-0.3-0.4-0.6-0.9-0.8-1.3c0-0.1-0.1-0.1-0.1-0.2C72.3,55.5,72,55.7,72.1,55.9L72.1,55.9z"/>
				</g>
			</g>
			<g>
				<g>
					<path class="st3" d="M73.7,62.4c-0.3,0.3-0.7,0.7-1,1l-0.1,0.1c-0.1,0.1-0.1,0.2,0,0.3s0.2,0.1,0.3,0c0.3-0.3,0.7-0.7,1-1
						l0.1-0.1c0.1-0.1,0.1-0.2,0-0.3C73.9,62.3,73.8,62.3,73.7,62.4L73.7,62.4z"/>
				</g>
			</g>
			<g>
				<g>
					<path class="st3" d="M64.5,75.3c0.3-0.3,0.6-0.6,0.9-0.8l0.1-0.1c0.1-0.1,0.1-0.2,0-0.3c-0.1-0.1-0.2-0.1-0.3,0
						c-0.3,0.3-0.6,0.6-0.9,0.8L64.2,75c-0.1,0.1-0.1,0.2,0,0.3C64.3,75.4,64.5,75.4,64.5,75.3L64.5,75.3z"/>
				</g>
			</g>
			<g>
				<g>
					<path class="st3" d="M46.8,79.6c0.5,0.1,1.1,0.2,1.6,0.4c0.1,0,0.2,0,0.2,0c0.2,0.1,0.3-0.3,0.1-0.4c-0.5-0.1-1.1-0.2-1.6-0.4
						c-0.1,0-0.2,0-0.2,0C46.7,79.2,46.6,79.5,46.8,79.6L46.8,79.6z"/>
				</g>
			</g>
			<g>
				<g>
					<path class="st3" d="M51.6,80c0.6,0,1.1,0,1.7,0c0.1,0,0.2,0,0.2,0c0.2,0,0.2-0.4,0-0.4c-0.6,0-1.1,0-1.7,0c-0.1,0-0.2,0-0.2,0
						C51.3,79.6,51.3,80,51.6,80L51.6,80z"/>
				</g>
			</g>
			<g>
				<g>
					<path class="st3" d="M43.9,81.6c0,0.6,0,1.2,0,1.8c0,0.1,0,0.2,0,0.2c0,0.2,0.4,0.2,0.4,0c0-0.6,0-1.2,0-1.8c0-0.1,0-0.2,0-0.2
						C44.3,81.3,43.9,81.3,43.9,81.6L43.9,81.6z"/>
				</g>
			</g>
			<g>
				<g>
					<path class="st3" d="M46.7,81.7c0.2,0.3,0.4,0.6,0.6,0.9l0.1,0.1c0.1,0.1,0.2,0.1,0.3,0.1c0.1-0.1,0.1-0.2,0.1-0.3
						c-0.2-0.3-0.4-0.6-0.6-0.9l-0.1-0.1c-0.1-0.1-0.2-0.1-0.3-0.1C46.7,81.5,46.6,81.6,46.7,81.7L46.7,81.7z"/>
				</g>
			</g>
			<g>
				<g>
					<path class="st3" d="M48.4,85.5c0,0.5,0.1,1.1,0.1,1.6c0,0.1,0,0.2,0,0.2c0,0.1,0.1,0.2,0.2,0.2c0.1,0,0.2-0.1,0.2-0.2
						c0-0.5-0.1-1.1-0.1-1.6c0-0.1,0-0.2,0-0.2c0-0.1-0.1-0.2-0.2-0.2C48.4,85.3,48.3,85.4,48.4,85.5L48.4,85.5z"/>
				</g>
			</g>
			<g>
				<g>
					<path class="st3" d="M52.7,85.6c0.4,0.1,0.8,0.2,1.2,0.3c0.1,0,0.1,0,0.2,0c0.1,0,0.2,0,0.2-0.1s0-0.2-0.1-0.2
						c-0.4-0.1-0.8-0.2-1.2-0.3c-0.1,0-0.1,0-0.2,0c-0.1,0-0.2,0-0.2,0.1C52.5,85.5,52.6,85.6,52.7,85.6L52.7,85.6z"/>
				</g>
			</g>
			<g>
				<g>
					<path class="st3" d="M50.7,88.7c0.6,0.1,1.3,0.2,1.9,0.4c0.1,0,0.2,0,0.3,0.1c0.1,0,0.2,0,0.2-0.1s0-0.2-0.1-0.2
						c-0.6-0.1-1.3-0.2-1.9-0.4c-0.1,0-0.2,0-0.3-0.1c-0.1,0-0.2,0-0.2,0.1C50.6,88.6,50.6,88.7,50.7,88.7L50.7,88.7z"/>
				</g>
			</g>
			<g>
				<g>
					<path class="st3" d="M54.1,87.8c0.2,0.4,0.5,0.7,0.7,1.1c0,0.1,0.1,0.1,0.1,0.2c0.1,0.1,0.2,0.1,0.3,0.1s0.1-0.2,0.1-0.3
						c-0.2-0.4-0.5-0.7-0.7-1.1c0-0.1-0.1-0.1-0.1-0.2c-0.1-0.1-0.2-0.1-0.3-0.1C54.1,87.6,54,87.8,54.1,87.8L54.1,87.8z"/>
				</g>
			</g>
			<g>
				<g>
					<path class="st3" d="M53.5,92.1c0.2,0.3,0.3,0.6,0.5,0.9c0,0,0,0.1,0.1,0.1c0,0.1,0.2,0.1,0.3,0.1c0.1-0.1,0.1-0.2,0.1-0.3
						c-0.2-0.3-0.3-0.6-0.5-0.9c0,0,0-0.1-0.1-0.1c0-0.1-0.2-0.1-0.3-0.1C53.5,91.9,53.5,92,53.5,92.1L53.5,92.1z"/>
				</g>
			</g>
			<g>
				<g>
					<path class="st3" d="M50.6,94.2c0.1,0.5,0.3,0.9,0.4,1.4c0,0.1,0,0.1,0.1,0.2c0.1,0.2,0.4,0.1,0.4-0.1
						c-0.1-0.5-0.3-0.9-0.4-1.4c0-0.1,0-0.1-0.1-0.2C50.9,93.9,50.5,94,50.6,94.2L50.6,94.2z"/>
				</g>
			</g>
			<g>
				<g>
					<path class="st3" d="M48.1,91.5c0.5,0.3,1,0.7,1.4,1c0.1,0,0.1,0.1,0.2,0.1c0.1,0.1,0.2,0,0.3-0.1s0-0.2-0.1-0.3
						c-0.5-0.3-1-0.7-1.4-1c-0.1,0-0.1-0.1-0.2-0.1c-0.1-0.1-0.2,0-0.3,0.1C48,91.3,48,91.4,48.1,91.5L48.1,91.5z"/>
				</g>
			</g>
			<g>
				<g>
					<path class="st3" d="M44.4,88.3c-0.2,0.7-0.3,1.4-0.5,2.1c0,0.1,0,0.2-0.1,0.3c-0.1,0.2,0.3,0.3,0.4,0.1
						c0.2-0.7,0.3-1.4,0.5-2.1c0-0.1,0-0.2,0.1-0.3C44.9,88.2,44.5,88.1,44.4,88.3L44.4,88.3z"/>
				</g>
			</g>
			<g>
				<g>
					<path class="st3" d="M44.2,93.3c-0.1,0.5-0.2,1-0.2,1.5c0,0.1,0,0.1,0,0.2s0,0.2,0.1,0.2s0.2,0,0.2-0.1c0.1-0.5,0.2-1,0.2-1.5
						c0-0.1,0-0.1,0-0.2s0-0.2-0.1-0.2C44.3,93.1,44.2,93.2,44.2,93.3L44.2,93.3z"/>
				</g>
			</g>
			<g>
				<g>
					<path class="st3" d="M46.1,95.5c0.4,0.2,0.8,0.3,1.2,0.5c0.1,0,0.1,0,0.2,0.1c0.1,0,0.2,0,0.2-0.1s0-0.2-0.1-0.2
						c-0.4-0.2-0.8-0.3-1.2-0.5c-0.1,0-0.1,0-0.2-0.1c-0.1,0-0.2,0-0.2,0.1C45.9,95.3,46,95.4,46.1,95.5L46.1,95.5z"/>
				</g>
			</g>
			<g>
				<g>
					<path class="st3" d="M43.3,96.1c0,0.5,0,1,0,1.5c0,0.1,0,0.1,0,0.2c0,0.2,0.4,0.2,0.4,0c0-0.5,0-1,0-1.5c0-0.1,0-0.1,0-0.2
						C43.7,95.8,43.3,95.8,43.3,96.1L43.3,96.1z"/>
				</g>
			</g>
		</g>
		<g>
			<line class="st8" x1="54.2" y1="95.4" x2="53" y2="96.8"/>
			<g>
				<path class="st3" d="M54.1,95.3c-0.4,0.4-0.7,0.8-1.1,1.2c-0.1,0.1-0.1,0.1-0.2,0.2c-0.1,0.1-0.1,0.2,0,0.3
					c0.1,0.1,0.2,0.1,0.3,0c0.4-0.4,0.7-0.8,1.1-1.2c0.1-0.1,0.1-0.1,0.2-0.2c0.1-0.1,0.1-0.2,0-0.3S54.2,95.2,54.1,95.3L54.1,95.3z
					"/>
			</g>
		</g>
		<g>
			<line class="st8" x1="56.8" y1="76" x2="56.8" y2="78.1"/>
			<g>
				<path class="st3" d="M56.6,76c0,0.6,0,1.2,0,1.8c0,0.1,0,0.2,0,0.3c0,0.2,0.4,0.2,0.4,0c0-0.6,0-1.2,0-1.8c0-0.1,0-0.2,0-0.3
					C57,75.7,56.6,75.7,56.6,76L56.6,76z"/>
			</g>
		</g>
		<g>
			<line class="st8" x1="41.2" y1="85.4" x2="43" y2="86"/>
			<g>
				<path class="st3" d="M41.1,85.6c0.5,0.2,1,0.4,1.5,0.5c0.1,0,0.1,0.1,0.2,0.1c0.2,0.1,0.3-0.3,0.1-0.4c-0.5-0.2-1-0.4-1.5-0.5
					c-0.1,0-0.1-0.1-0.2-0.1C41,85.2,40.9,85.5,41.1,85.6L41.1,85.6z"/>
			</g>
		</g>
	</g>
</g>
<g>
	<path class="st2" d="M21.8,45.7L15.2,54l-6.6-8.3l6.6-8.2L21.8,45.7z"/>
</g>
<g>
	<path class="st2" d="M91.4,94.1l-6.6,8.3l-6.6-8.3l6.6-8.2L91.4,94.1z"/>
</g>
</svg>
