<?xml version="1.0" encoding="utf-8"?>
<!-- Generator: Adobe Illustrator 24.0.1, SVG Export Plug-In . SVG Version: 6.00 Build 0)  -->
<svg version="1.1" id="Layer_1" xmlns="http://www.w3.org/2000/svg" xmlns:xlink="http://www.w3.org/1999/xlink" x="0px" y="0px"
	 viewBox="0 0 100 140" style="enable-background:new 0 0 100 140;" xml:space="preserve">
<style type="text/css">
	.st0{fill:#FFFFFF;stroke:#FF8896;stroke-miterlimit:10;}
	.st1{fill:#FF0000;}
</style>
<path class="st0" d="M88,140H12c-6.6,0-12-5.4-12-12V12C0,5.4,5.4,0,12,0h76c6.6,0,12,5.4,12,12v116C100,134.6,94.6,140,88,140z"/>
<g>
	<path class="st1" d="M23.9,12.1v11.7c0,4.5-3.6,8.1-8.1,8.1s-8.1-3.6-8.1-8.1h4.8c0,1.8,1.5,3.3,3.3,3.3s3.3-1.5,3.3-3.3v-4.1
		c-3.3,1.5-7.2,0.6-9.6-2.1c-2.4-2.8-2.7-6.7-0.7-9.8s5.7-4.5,9.2-3.5C21.5,5.3,23.9,8.4,23.9,12.1L23.9,12.1z M19.1,12.1
		c0-1.4-0.8-2.6-2.1-3.1s-2.7-0.2-3.7,0.7c-1,1-1.3,2.4-0.7,3.7c0.5,1.3,1.7,2.1,3.1,2.1C17.6,15.5,19.1,14,19.1,12.1z"/>
</g>
<g>
	<path class="st1" d="M76.7,127.5v-11.7c0-4.5,3.6-8.1,8.1-8.1s8.1,3.6,8.1,8.1h-4.8c0-1.8-1.5-3.3-3.3-3.3s-3.3,1.5-3.3,3.3v4.1
		c3.3-1.5,7.2-0.6,9.6,2.1c2.4,2.8,2.7,6.7,0.7,9.8s-5.7,4.5-9.2,3.5C79.2,134.3,76.7,131.1,76.7,127.5L76.7,127.5z M81.6,127.4
		c0,1.4,0.8,2.6,2.1,3.1c1.3,0.5,2.7,0.2,3.7-0.7c1-1,1.3-2.4,0.7-3.7c-0.5-1.3-1.7-2.1-3.1-2.1C83.1,124.1,81.6,125.6,81.6,127.4z"
		/>
</g>
<g>
	<path class="st1" d="M77,97.6c0-3.5,3-6.1,7.8-10.5c4.8,4.4,7.8,7,7.8,10.5c0,2.3-1.6,3.7-3.8,3.7c-2.1,0-3.1-1.1-4-2.8
		c-0.9,1.7-1.9,2.8-4,2.8C78.6,101.3,77,99.9,77,97.6z"/>
</g>
<g>
	<path class="st1" d="M71.7,27.8c0,4.7-4,8.2-10.4,14c-6.4-5.8-10.4-9.3-10.4-14c0-3.1,2.1-5,5-5c2.8,0,4.2,1.4,5.4,3.7
		c1.2-2.2,2.6-3.7,5.4-3.7C69.6,22.8,71.7,24.7,71.7,27.8z"/>
</g>
<g>
	<path class="st1" d="M49.1,27.8c0,4.7-4,8.2-10.4,14c-6.4-5.8-10.4-9.3-10.4-14c0-3.1,2.1-5,5-5c2.8,0,4.2,1.4,5.4,3.7
		c1.2-2.2,2.6-3.7,5.4-3.7C47,22.8,49.1,24.7,49.1,27.8z"/>
</g>
<g>
	<path class="st1" d="M58.8,46c0,4-3.4,7-8.8,11.9c-5.4-5-8.8-7.9-8.8-11.9c0-2.6,1.8-4.2,4.3-4.2c2.3,0,3.5,1.2,4.5,3.1
		c1-1.9,2.2-3.1,4.5-3.1C57,41.8,58.8,43.4,58.8,46z"/>
</g>
<g>
	<path class="st1" d="M58.8,11.6c0,4-3.4,7-8.8,11.9c-5.4-5-8.8-7.9-8.8-11.9c0-2.6,1.8-4.2,4.3-4.2c2.3,0,3.5,1.2,4.5,3.1
		c1-1.9,2.2-3.1,4.5-3.1C57,7.4,58.8,9,58.8,11.6z"/>
</g>
<g>
	<path class="st1" d="M58.8,86.3c0,4-3.4,7-8.8,11.9c-5.4-5-8.8-7.9-8.8-11.9c0-2.6,1.8-4.2,4.3-4.2c2.3,0,3.5,1.2,4.5,3.1
		c1-1.9,2.2-3.1,4.5-3.1C57,82.1,58.8,83.7,58.8,86.3z"/>
</g>
<g>
	<path class="st1" d="M71.7,65.5c0,4.7-4,8.2-10.4,14c-6.4-5.8-10.4-9.3-10.4-14c0-3.1,2.1-5,5-5c2.8,0,4.2,1.4,5.4,3.7
		c1.2-2.2,2.6-3.7,5.4-3.7C69.6,60.5,71.7,62.4,71.7,65.5z"/>
</g>
<g>
	<path class="st1" d="M49.1,65.5c0,4.7-4,8.2-10.4,14c-6.4-5.8-10.4-9.3-10.4-14c0-3.1,2.1-5,5-5c2.8,0,4.2,1.4,5.4,3.7
		c1.2-2.2,2.6-3.7,5.4-3.7C47,60.5,49.1,62.4,49.1,65.5z"/>
</g>
<g>
	<path class="st1" d="M28.3,112.2c0-4.7,4-8.2,10.4-14c6.4,5.8,10.4,9.3,10.4,14c0,3.1-2.1,5-5,5c-2.8,0-4.2-1.4-5.4-3.7
		c-1.2,2.2-2.6,3.7-5.4,3.7C30.4,117.2,28.3,115.3,28.3,112.2z"/>
</g>
<g>
	<path class="st1" d="M50.9,112.2c0-4.7,4-8.2,10.4-14c6.4,5.8,10.4,9.3,10.4,14c0,3.1-2.1,5-5,5c-2.8,0-4.2-1.4-5.4-3.7
		c-1.2,2.2-2.6,3.7-5.4,3.7C53,117.2,50.9,115.3,50.9,112.2z"/>
</g>
<g>
	<path class="st1" d="M23,42.4c0,3.5-3,6.1-7.8,10.5c-4.8-4.4-7.8-7-7.8-10.5c0-2.3,1.6-3.7,3.8-3.7c2.1,0,3.1,1.1,4,2.8
		c0.9-1.7,1.9-2.8,4-2.8C21.4,38.7,23,40.1,23,42.4z"/>
</g>
</svg>
