<?xml version="1.0" encoding="utf-8"?>
<!-- Generator: Adobe Illustrator 24.0.1, SVG Export Plug-In . SVG Version: 6.00 Build 0)  -->
<svg version="1.1" id="Layer_1" xmlns="http://www.w3.org/2000/svg" xmlns:xlink="http://www.w3.org/1999/xlink" x="0px" y="0px"
	 viewBox="0 0 100 140" style="enable-background:new 0 0 100 140;" xml:space="preserve">
<style type="text/css">
	.st0{fill:#FFFFFF;stroke:#FF8896;stroke-miterlimit:10;}
	.st1{fill:#FF0000;}
</style>
<path class="st0" d="M88,140H12c-6.6,0-12-5.4-12-12V12C0,5.4,5.4,0,12,0h76c6.6,0,12,5.4,12,12v116C100,134.6,94.6,140,88,140z"/>
<g>
	<path class="st1" d="M23.9,12.1v11.7c0,4.5-3.6,8.1-8.1,8.1s-8.1-3.6-8.1-8.1h4.8c0,1.8,1.5,3.3,3.3,3.3s3.3-1.5,3.3-3.3v-4.1
		c-3.3,1.5-7.2,0.6-9.6-2.1c-2.4-2.8-2.7-6.7-0.7-9.8s5.7-4.5,9.2-3.5C21.5,5.3,23.9,8.4,23.9,12.1L23.9,12.1z M19.1,12.1
		c0-1.4-0.8-2.6-2.1-3.1s-2.7-0.2-3.7,0.7c-1,1-1.3,2.4-0.7,3.7c0.5,1.3,1.7,2.1,3.1,2.1C17.6,15.5,19.1,14,19.1,12.1z"/>
</g>
<g>
	<path class="st1" d="M76.7,127.5v-11.7c0-4.5,3.6-8.1,8.1-8.1s8.1,3.6,8.1,8.1h-4.8c0-1.8-1.5-3.3-3.3-3.3s-3.3,1.5-3.3,3.3v4.1
		c3.3-1.5,7.2-0.6,9.6,2.1c2.4,2.8,2.7,6.7,0.7,9.8s-5.7,4.5-9.2,3.5C79.2,134.3,76.7,131.1,76.7,127.5L76.7,127.5z M81.6,127.4
		c0,1.4,0.8,2.6,2.1,3.1c1.3,0.5,2.7,0.2,3.7-0.7c1-1,1.3-2.4,0.7-3.7c-0.5-1.3-1.7-2.1-3.1-2.1C83.1,124.1,81.6,125.6,81.6,127.4z"
		/>
</g>
<g>
	<path class="st1" d="M21.8,45.7L15.2,54l-6.6-8.3l6.6-8.2L21.8,45.7z"/>
</g>
<g>
	<path class="st1" d="M91.4,94.1l-6.6,8.3l-6.6-8.3l6.6-8.2L91.4,94.1z"/>
</g>
<g>
	<path class="st1" d="M47.5,32.3l-8.8,11.1l-8.8-11.1l8.8-10.9L47.5,32.3z"/>
</g>
<g>
	<path class="st1" d="M70.1,69.9L61.3,81l-8.8-11.1L61.3,59L70.1,69.9z"/>
</g>
<g>
	<path class="st1" d="M47.5,69.9L38.7,81l-8.8-11.1L38.7,59L47.5,69.9z"/>
</g>
<g>
	<path class="st1" d="M70.1,32.3l-8.8,11.1l-8.8-11.1l8.8-10.9L70.1,32.3z"/>
</g>
<g>
	<path class="st1" d="M56.9,51.3L50,60l-6.9-8.8l6.9-8.6L56.9,51.3z"/>
</g>
<g>
	<path class="st1" d="M56.9,90.6L50,99.4l-6.9-8.8L50,82L56.9,90.6z"/>
</g>
<g>
	<path class="st1" d="M56.9,15.9L50,24.6l-6.9-8.8L50,7.3L56.9,15.9z"/>
</g>
<g>
	<path class="st1" d="M47.5,107.5l-8.8,11.1l-8.8-11.1l8.8-10.9L47.5,107.5z"/>
</g>
<g>
	<path class="st1" d="M70.1,107.5l-8.8,11.1l-8.8-11.1l8.8-10.9L70.1,107.5z"/>
</g>
</svg>
