<?xml version="1.0" encoding="utf-8"?>
<!-- Generator: Adobe Illustrator 24.0.2, SVG Export Plug-In . SVG Version: 6.00 Build 0)  -->
<svg version="1.1" id="Layer_1" xmlns="http://www.w3.org/2000/svg" xmlns:xlink="http://www.w3.org/1999/xlink" x="0px" y="0px"
	 viewBox="0 0 100 140" style="enable-background:new 0 0 100 140;" xml:space="preserve">
<style type="text/css">
	.st0{fill:#FFFFFF;}
	.st1{fill:#FF0000;}
</style>
<path class="st0" d="M88,140H12c-6.6,0-12-5.4-12-12V12C0,5.4,5.4,0,12,0h76c6.6,0,12,5.4,12,12v116C100,134.6,94.6,140,88,140z"/>
<g>
	<path class="st1" d="M21.5,17.9c3.2,3.2,3.2,8.4,0,11.6s-8.4,3.2-11.6,0s-3.2-8.4,0-11.6C7.3,15.3,6.7,11.2,8.6,8s5.6-4.8,9.2-3.8
		s6.1,4.2,6.1,7.9C23.9,14.3,23,16.4,21.5,17.9z M15.7,20.3c-1.9,0-3.4,1.5-3.4,3.4s1.5,3.4,3.4,3.4s3.4-1.5,3.4-3.4
		C19.1,21.8,17.6,20.3,15.7,20.3z M15.7,15.5c1.9,0,3.4-1.5,3.4-3.4s-1.5-3.4-3.4-3.4s-3.4,1.5-3.4,3.4C12.3,14,13.8,15.5,15.7,15.5
		z"/>
</g>
<g>
	<path class="st1" d="M79.1,121.7c-3.2-3.2-3.2-8.4,0-11.6s8.4-3.2,11.6,0s3.2,8.4,0,11.6c2.6,2.6,3.1,6.7,1.3,9.9
		c-1.9,3.2-5.6,4.8-9.2,3.8s-6.1-4.2-6.1-7.9C76.7,125.3,77.6,123.2,79.1,121.7z M84.9,119.3c1.9,0,3.4-1.5,3.4-3.4
		s-1.5-3.4-3.4-3.4s-3.4,1.5-3.4,3.4C81.6,117.7,83.1,119.3,84.9,119.3z M84.9,124.1c-1.9,0-3.4,1.5-3.4,3.4c0,1.9,1.5,3.4,3.4,3.4
		s3.4-1.5,3.4-3.4C88.3,125.6,86.8,124.1,84.9,124.1z"/>
</g>
<g>
	<path class="st1" d="M21.8,45.7l-6.6,8.3l-6.6-8.3l6.6-8.2L21.8,45.7z"/>
</g>
<g>
	<path class="st1" d="M91.4,94.1l-6.6,8.3l-6.6-8.3l6.6-8.2L91.4,94.1z"/>
</g>
<g>
	<path class="st1" d="M47.5,32.3l-8.8,11.1l-8.8-11.1l8.8-10.9L47.5,32.3z"/>
</g>
<g>
	<path class="st1" d="M70.1,69.9L61.3,81l-8.8-11.1L61.3,59L70.1,69.9z"/>
</g>
<g>
	<path class="st1" d="M47.5,69.9L38.7,81l-8.8-11.1L38.7,59L47.5,69.9z"/>
</g>
<g>
	<path class="st1" d="M70.1,32.3l-8.8,11.1l-8.8-11.1l8.8-10.9L70.1,32.3z"/>
</g>
<g>
	<path class="st1" d="M56.9,51.3L50,60l-6.9-8.8l6.9-8.6L56.9,51.3z"/>
</g>
<g>
	<path class="st1" d="M56.9,90.6L50,99.4l-6.9-8.8L50,82L56.9,90.6z"/>
</g>
<g>
	<path class="st1" d="M47.5,107.5l-8.8,11.1l-8.8-11.1l8.8-10.9L47.5,107.5z"/>
</g>
<g>
	<path class="st1" d="M70.1,107.5l-8.8,11.1l-8.8-11.1l8.8-10.9L70.1,107.5z"/>
</g>
</svg>
