<?xml version="1.0" encoding="utf-8"?>
<!-- Generator: Adobe Illustrator 24.0.1, SVG Export Plug-In . SVG Version: 6.00 Build 0)  -->
<svg version="1.1" id="Layer_1" xmlns="http://www.w3.org/2000/svg" xmlns:xlink="http://www.w3.org/1999/xlink" x="0px" y="0px"
	 viewBox="0 0 100 140" style="enable-background:new 0 0 100 140;" xml:space="preserve">
<style type="text/css">
	.st0{fill:#FFFFFF;stroke:#FF8896;stroke-miterlimit:10;}
	.st1{fill:#FF0000;}
</style>
<path class="st0" d="M88,140H12c-6.6,0-12-5.4-12-12V12C0,5.4,5.4,0,12,0h76c6.6,0,12,5.4,12,12v116C100,134.6,94.6,140,88,140z"/>
<g>
	<path class="st1" d="M12.3,9.1v4.7h3.3c4.5,0,8.1,3.6,8.1,8.1v2c0.1,4.4-3.4,8.1-7.9,8.3c-0.1,0-0.2,0-0.3,0
		c-4.5,0-8.1-3.6-8.1-8.1h4.8c0,0.9,0.3,1.7,1,2.3c0.6,0.6,1.5,1,2.3,1h0.1c1.8-0.1,3.2-1.6,3.2-3.4v-2c0-1.8-1.5-3.3-3.3-3.3h-8
		V4.2h16.3V9H12.3V9.1z"/>
</g>
<g>
	<path class="st1" d="M88.2,130.8v-4.7h-3.3c-4.5,0-8.1-3.6-8.1-8.1v-2c-0.1-4.4,3.4-8.1,7.9-8.3c0.1,0,0.2,0,0.3,0
		c4.5,0,8.1,3.6,8.1,8.1h-4.8c0-0.9-0.3-1.7-1-2.3c-0.6-0.6-1.5-1-2.3-1h-0.1c-1.8,0.1-3.2,1.6-3.2,3.4v2c0,1.8,1.5,3.3,3.3,3.3h8.1
		v14.4H76.8v-4.8H88.2z"/>
</g>
<g>
	<path class="st1" d="M21.8,45.7L15.2,54l-6.6-8.3l6.6-8.2L21.8,45.7z"/>
</g>
<g>
	<path class="st1" d="M91.4,94.1l-6.6,8.3l-6.6-8.3l6.6-8.2L91.4,94.1z"/>
</g>
<g>
	<path class="st1" d="M47.5,32.3l-8.8,11.1l-8.8-11.1l8.8-10.9L47.5,32.3z"/>
</g>
<g>
	<path class="st1" d="M58.8,69.9L50,81l-8.8-11.1L50,59L58.8,69.9z"/>
</g>
<g>
	<path class="st1" d="M70.1,32.3l-8.8,11.1l-8.8-11.1l8.8-10.9L70.1,32.3z"/>
</g>
<g>
	<path class="st1" d="M47.5,107.5l-8.8,11.1l-8.8-11.1l8.8-10.9L47.5,107.5z"/>
</g>
<g>
	<path class="st1" d="M70.1,107.5l-8.8,11.1l-8.8-11.1l8.8-10.9L70.1,107.5z"/>
</g>
</svg>
