<?xml version="1.0" encoding="utf-8"?>
<!-- Generator: Adobe Illustrator 24.0.2, SVG Export Plug-In . SVG Version: 6.00 Build 0)  -->
<svg version="1.1" id="Layer_1" xmlns="http://www.w3.org/2000/svg" xmlns:xlink="http://www.w3.org/1999/xlink" x="0px" y="0px"
	 viewBox="0 0 100 140" style="enable-background:new 0 0 100 140;" xml:space="preserve">
<style type="text/css">
	.st0{fill:#FFFFFF;}
	.st1{fill:#FF0000;}
</style>
<path class="st0" d="M88,140H12c-6.6,0-12-5.4-12-12V12C0,5.4,5.4,0,12,0h76c6.6,0,12,5.4,12,12v116C100,134.6,94.6,140,88,140z"/>
<g>
	<path class="st1" d="M24.4,13.6v18.7h-4.8v-9.9h-8.9v10H5.8V13.6c0-5.1,4.2-9.3,9.3-9.3S24.4,8.5,24.4,13.6z M19.5,17.5v-3.9
		c0-2.5-2-4.5-4.5-4.5s-4.5,2-4.5,4.5v3.9H19.5z"/>
</g>
<g>
	<path class="st1" d="M75.6,126.4v-18.7h4.8v9.9h8.9v-10h4.8v18.7c0,5.1-4.2,9.3-9.3,9.3C79.8,135.7,75.6,131.5,75.6,126.4z
		 M80.5,122.5v3.9c0,2.5,2,4.5,4.5,4.5s4.5-2,4.5-4.5v-3.9C89.5,122.5,80.5,122.5,80.5,122.5z"/>
</g>
<g>
	<path class="st1" d="M21.8,45.7l-6.6,8.3l-6.6-8.3l6.6-8.2L21.8,45.7z"/>
</g>
<g>
	<path class="st1" d="M91.4,94.1l-6.6,8.3l-6.6-8.3l6.6-8.2L91.4,94.1z"/>
</g>
<g>
	<path class="st1" d="M58.8,69.9L50,81l-8.8-11.1L50,59L58.8,69.9z"/>
</g>
</svg>
