<?xml version="1.0" encoding="utf-8"?>
<!-- Generator: Adobe Illustrator 24.0.2, SVG Export Plug-In . SVG Version: 6.00 Build 0)  -->
<svg version="1.1" id="Layer_1" xmlns="http://www.w3.org/2000/svg" xmlns:xlink="http://www.w3.org/1999/xlink" x="0px" y="0px"
	 viewBox="0 0 100 140" style="enable-background:new 0 0 100 140;" xml:space="preserve">
<style type="text/css">
	.st0{fill:#FFFFFF;}
	.st1{fill:#FF0000;}
	.st2{fill:none;stroke:#FF0000;stroke-miterlimit:10;}
	.st3{fill:#913327;stroke:#231F20;stroke-width:1.8751;stroke-miterlimit:10;}
	.st4{fill:#B55F27;stroke:#231F20;stroke-width:1.8751;stroke-miterlimit:10;}
	.st5{fill:#EC1C24;}
	.st6{fill:#FFF100;}
	.st7{fill:#231F20;stroke:#231F20;stroke-width:1.2501;stroke-miterlimit:10;}
	.st8{fill:#FFFFFF;stroke:#231F20;stroke-width:1.2501;stroke-miterlimit:10;}
	.st9{fill:#231F20;stroke:#231F20;stroke-width:0.3125;stroke-miterlimit:10;}
</style>
<path class="st0" d="M88,140H12c-6.6,0-12-5.4-12-12V12C0,5.4,5.4,0,12,0h76c6.6,0,12,5.4,12,12v116C100,134.6,94.6,140,88,140z"/>
<g>
	<path class="st1" d="M23.9,4v19.3c0,4.8-3.9,8.7-8.7,8.7s-8.7-3.9-8.7-8.7h4.8c0,2.1,1.7,3.9,3.9,3.9c2.1,0,3.9-1.7,3.9-3.9V8.8
		h-3.9V4H23.9z"/>
</g>
<g>
	<path class="st1" d="M76.3,135.6v-19.3c0-4.8,3.9-8.7,8.7-8.7c4.8,0,8.7,3.9,8.7,8.7h-4.8c0-2.1-1.7-3.9-3.9-3.9
		c-2.1,0-3.9,1.7-3.9,3.9v14.4H85v4.8h-8.7V135.6z"/>
</g>
<rect x="26" y="30.6" class="st2" width="48" height="78.8"/>
<g>
	<path class="st1" d="M77,97.6c0-3.5,3-6.1,7.8-10.5c4.8,4.4,7.8,7,7.8,10.5c0,2.3-1.6,3.7-3.8,3.7c-2.1,0-3.1-1.1-4-2.8
		c-0.9,1.7-1.9,2.8-4,2.8C78.6,101.3,77,99.9,77,97.6z"/>
</g>
<g>
	<path class="st1" d="M23,42.4c0,3.5-3,6.1-7.8,10.5c-4.8-4.4-7.8-7-7.8-10.5c0-2.3,1.6-3.7,3.8-3.7c2.1,0,3.1,1.1,4,2.8
		c0.9-1.7,1.9-2.8,4-2.8C21.4,38.7,23,40.1,23,42.4z"/>
</g>
<g>
	<ellipse class="st3" cx="51" cy="65.7" rx="16.6" ry="45"/>
	<path class="st4" d="M44.2,24c0,0-4-2.4-7.4,0.1c-1.7,1.2-2.2,4.6-2.8,9.4c-2.3,20-1.8,68.7,4.3,73c4.4,3.1,5.9-0.6,5.9-0.6
		s-3.6-23.7-1.8-41.3c0,0,0-2.4-1.3-9.6C41.1,55.1,39.6,46.5,44.2,24z"/>
	<g>
		<g>
			<path class="st5" d="M48.6,38.3c-2,5.6,3.1,7.1,4,12.4c0.5,2.9-0.7,5.7-1,8.6c-0.3,2.7,0.2,5.1,1.1,7.6c1,2.9,2.5,5.7,2.4,8.8
				c-0.2,4.4-3.5,5.9-5.3,9.4c-2.6,4.9,4,7.7,0.3,12.7c-1.6,2.2,2.1,4.3,3.6,2.1c1.2-1.7,2-3.6,2-5.7c0-2.4-1.5-3.7-2-5.7
				c-0.5-2.6,3.4-5.5,4.7-7.9c1.1-2.2,1.2-4.7,0.8-7.1c-0.5-3.3-2.2-6.2-3-9.4c-1-3.9,0.4-6.9,0.7-10.7c0.2-2.6-0.4-4.8-1.4-7.2
				c-0.7-1.8-3.6-4.9-2.9-6.9C53.5,36.9,49.5,35.8,48.6,38.3L48.6,38.3z"/>
		</g>
	</g>
	<g>
		<g>
			<path class="st6" d="M49.1,98.4c-0.1-2,0.7-3.9,0.4-5.9c-0.4-2.3-1.5-2.6-1.6-5.5c-0.1-1.7,0.6-3.6,1.1-5.3
				c0.8-2.3,1.9-4.5,1.7-7c-0.1-0.9-0.5-1.7-0.6-2.5c-0.3-2.6,0.4-3.2,0.7-5.5c0.2-1.8-0.2-2.7-0.7-4.4c-1.2-3.5-0.3-6,0.3-9.5
				c0.3-2,0.5-4-0.1-5.9c-1-3.2-2.6-5-1.1-8.8c1-2.5-3.1-3.6-4.1-1.1c-0.8,2.1-1.2,4.2-0.7,6.4c0.6,3,2.4,5,1.9,8.3
				c-0.3,2.3-1.2,4.6-1.3,7c-0.1,2.8,1.6,5.5,1.4,8.3c-0.1,1.9-1,3.2-0.8,5.2c0.2,2.3,0.7,3.7,0.2,6.1c-0.4,1.7-1.2,3.2-1.6,4.9
				c-0.5,2-0.7,4.1-0.3,6.1c0.6,3.2,0.9,6,1,9.2C45,101.1,49.2,101.1,49.1,98.4L49.1,98.4z"/>
		</g>
	</g>
	<path class="st7" d="M44.9,37.7c0,0-0.3,15.9,5.2,16.7c6.8,0.9,7.8-1.7,7.8-1.7s3.5-7.5,0.5-6c0,0-4,2.9-9.4,1.8
		c0,0-2.1,0.2-1.7-9.3c0,0,0-0.8-0.5-1.4C46,36.9,44.9,36,44.9,37.7z"/>
	<ellipse class="st8" cx="55.4" cy="32.4" rx="4.4" ry="6.7"/>
	<ellipse class="st8" cx="48.4" cy="31" rx="4.8" ry="5.6"/>
	<ellipse class="st9" cx="47.8" cy="31.8" rx="2.3" ry="3"/>
	<ellipse class="st9" cx="56.4" cy="33.3" rx="2.3" ry="2.9"/>
	<path class="st4" d="M43.9,107.4l0.6,5.1c0,0-8.1,0.3-7.7,4.6c0.4,4.4,8.9,0.9,8.9,0.9s4.8-4-0.5-5.4L43.9,107.4z"/>
	<path class="st4" d="M57,107.7l-0.5,4.9c0,0-3.8,1.8-3.5,4.5s5.4,1.2,5.4,1.2s4.6-2.7,0-5c0,0-0.8-0.4-1.1-1.1
		C57,111.4,57,107.7,57,107.7z"/>
	<path class="st4" d="M32.9,50.2l-8.8,8.1c0,0-6.4-1.5-7.5-0.5c-1.2,1,6.5,1.1,6.5,1.1l-2.2,4.5c0,0-0.1,2.7,2.9-3.9l2.8,4.5
		c0,0,1.9,0.3-1.9-5.3L32.9,50.2z"/>
	<path class="st4" d="M69.9,50.5c0,0,6.5,3.5,7.5,5.3l5.1-2.3c0,0,2.2-0.5-3.1,2.3l3.8,0.5c0,0,2.3,1-4.5,0.4l1.9,3.8
		c0,0-0.4,2.1-3.1-3.8L69.9,50.5z"/>
	<path class="st4" d="M56.6,23.3c0,0,7.5-1.7,9.5,1.1c1.6,2.3,2.8,5.7,3.2,12.5c1.3,20.1,3.8,67-6,70.6c-4.5,1.7-5.2-0.4-5.2-0.4
		s5.2-25.3,3.6-41.5c0,0-0.1-6-0.5-13.4C61.2,52.2,62.2,28.6,56.6,23.3z"/>
</g>
</svg>
