<?xml version="1.0" encoding="utf-8"?>
<!-- Generator: Adobe Illustrator 24.0.2, SVG Export Plug-In . SVG Version: 6.00 Build 0)  -->
<svg version="1.1" id="Layer_1" xmlns="http://www.w3.org/2000/svg" xmlns:xlink="http://www.w3.org/1999/xlink" x="0px" y="0px"
	 viewBox="0 0 100 140" style="enable-background:new 0 0 100 140;" xml:space="preserve">
<style type="text/css">
	.st0{fill:#FFFFFF;}
	.st1{fill:#FF0000;}
</style>
<path class="st0" d="M88,140H12c-6.6,0-12-5.4-12-12V12C0,5.4,5.4,0,12,0h76c6.6,0,12,5.4,12,12v116C100,134.6,94.6,140,88,140z"/>
<g>
	<path class="st1" d="M20.9,18.3c2.6,2.6,3.1,6.7,1.3,9.9C20.3,31.4,16.6,33,13,32c-3.6-1-6.1-4.2-6.1-7.9h4.8
		c0,1.4,0.8,2.6,2.1,3.1s2.7,0.2,3.7-0.7c1-1,1.3-2.4,0.7-3.7c-0.5-1.3-1.7-2.1-3.1-2.1h-1.8v-4.8h1.8c1.4,0,2.6-0.8,3.1-2.1
		s0.2-2.7-0.7-3.7c-1-1-2.4-1.3-3.7-0.7c-1.3,0.5-2.1,1.7-2.1,3.1H6.9c0-4.5,3.7-8.2,8.2-8.2s8.2,3.7,8.2,8.2
		C23.3,14.7,22.4,16.8,20.9,18.3z"/>
</g>
<g>
	<path class="st1" d="M79.1,121.7c-2.6-2.6-3.1-6.7-1.3-9.9c1.9-3.2,5.6-4.8,9.2-3.8s6.1,4.2,6.1,7.9h-4.8c0-1.4-0.8-2.6-2.1-3.1
		c-1.3-0.5-2.7-0.2-3.7,0.7c-1,1-1.3,2.4-0.7,3.7c0.5,1.3,1.7,2.1,3.1,2.1h1.8v4.8h-1.8c-1.4,0-2.6,0.8-3.1,2.1
		c-0.5,1.3-0.2,2.7,0.7,3.7c1,1,2.4,1.3,3.7,0.7c1.3-0.5,2.1-1.7,2.1-3.1h4.8c0,4.5-3.7,8.2-8.2,8.2s-8.2-3.7-8.2-8.2
		C76.7,125.3,77.6,123.2,79.1,121.7z"/>
</g>
<g>
	<path class="st1" d="M21.8,45.7l-6.6,8.3l-6.6-8.3l6.6-8.2L21.8,45.7z"/>
</g>
<g>
	<path class="st1" d="M91.4,94.1l-6.6,8.3l-6.6-8.3l6.6-8.2L91.4,94.1z"/>
</g>
<g>
	<path class="st1" d="M58.8,107.8L50,118.9l-8.8-11.1L50,96.9L58.8,107.8z"/>
</g>
<g>
	<path class="st1" d="M58.8,32.2L50,43.4l-8.8-11.1L50,21.3L58.8,32.2z"/>
</g>
<g>
	<path class="st1" d="M58.8,69.9L50,81l-8.8-11.1L50,59L58.8,69.9z"/>
</g>
</svg>
