<?xml version="1.0" encoding="utf-8"?>
<!-- Generator: Adobe Illustrator 24.0.1, SVG Export Plug-In . SVG Version: 6.00 Build 0)  -->
<svg version="1.1" id="Layer_1" xmlns="http://www.w3.org/2000/svg" xmlns:xlink="http://www.w3.org/1999/xlink" x="0px" y="0px"
	 viewBox="0 0 100 140" style="enable-background:new 0 0 100 140;" xml:space="preserve">
<style type="text/css">
	.st0{fill:#FFFFFF;stroke:#FF8896;stroke-miterlimit:10;}
	.st1{fill:#FF0000;}
</style>
<path class="st0" d="M88,140H12c-6.6,0-12-5.4-12-12V12C0,5.4,5.4,0,12,0h76c6.6,0,12,5.4,12,12v116C100,134.6,94.6,140,88,140z"/>
<g>
	<path class="st1" d="M10.5,9.7v23.2H5.7V9.8H3.4V4.9h2.4C8.4,4.9,10.5,7.1,10.5,9.7z"/>
	<path class="st1" d="M30,13.1v11.7c0,4.5-3.6,8.1-8.1,8.1s-8.1-3.6-8.1-8.1V13.1c0-4.5,3.6-8.1,8.1-8.1C26.4,4.9,30,8.6,30,13.1z
		 M25.2,13.1c0-1.2-0.6-2.3-1.6-2.9c-1-0.6-2.3-0.6-3.3,0s-1.7,1.7-1.6,2.9v11.7c0,1.8,1.5,3.3,3.3,3.3s3.3-1.5,3.3-3.3L25.2,13.1
		L25.2,13.1z"/>
</g>
<g>
	<path class="st1" d="M89.4,130.9v-23.2h4.8v23.1h2.3v4.8h-2.4C91.5,135.7,89.4,133.5,89.4,130.9z"/>
	<path class="st1" d="M69.9,127.5v-11.7c0-4.5,3.6-8.1,8.1-8.1s8.1,3.6,8.1,8.1v11.7c0,4.5-3.6,8.1-8.1,8.1
		C73.5,135.7,69.9,132,69.9,127.5z M74.7,127.5c0,1.2,0.6,2.3,1.6,2.9c1,0.6,2.3,0.6,3.3,0s1.7-1.7,1.6-2.9v-11.7
		c0-1.8-1.5-3.3-3.3-3.3s-3.3,1.5-3.3,3.3v11.7C74.6,127.5,74.7,127.5,74.7,127.5z"/>
</g>
<g>
	<path class="st1" d="M21.8,45.7L15.2,54l-6.6-8.3l6.6-8.2L21.8,45.7z"/>
</g>
<g>
	<path class="st1" d="M91.4,94.1l-6.6,8.3l-6.6-8.3l6.6-8.2L91.4,94.1z"/>
</g>
<g>
	<path class="st1" d="M47.5,32.3l-8.8,11.1l-8.8-11.1l8.8-10.9L47.5,32.3z"/>
</g>
<g>
	<path class="st1" d="M70.1,69.9L61.3,81l-8.8-11.1L61.3,59L70.1,69.9z"/>
</g>
<g>
	<path class="st1" d="M47.5,69.9L38.7,81l-8.8-11.1L38.7,59L47.5,69.9z"/>
</g>
<g>
	<path class="st1" d="M70.1,32.3l-8.8,11.1l-8.8-11.1l8.8-10.9L70.1,32.3z"/>
</g>
<g>
	<path class="st1" d="M56.9,51.3L50,60l-6.9-8.8l6.9-8.6L56.9,51.3z"/>
</g>
<g>
	<path class="st1" d="M56.9,90.6L50,99.4l-6.9-8.8L50,82L56.9,90.6z"/>
</g>
<g>
	<path class="st1" d="M56.9,15.9L50,24.6l-6.9-8.8L50,7.3L56.9,15.9z"/>
</g>
<g>
	<path class="st1" d="M56.9,124l-6.9,8.8l-6.9-8.8l6.9-8.6L56.9,124z"/>
</g>
<g>
	<path class="st1" d="M47.5,107.5l-8.8,11.1l-8.8-11.1l8.8-10.9L47.5,107.5z"/>
</g>
<g>
	<path class="st1" d="M70.1,107.5l-8.8,11.1l-8.8-11.1l8.8-10.9L70.1,107.5z"/>
</g>
</svg>
