<?xml version="1.0" encoding="utf-8"?>
<!-- Generator: Adobe Illustrator 25.0.0, SVG Export Plug-In . SVG Version: 6.00 Build 0)  -->
<svg version="1.1" id="Layer_1" xmlns="http://www.w3.org/2000/svg" xmlns:xlink="http://www.w3.org/1999/xlink" x="0px" y="0px"
	 viewBox="0 0 60 100" style="enable-background:new 0 0 60 100;" xml:space="preserve">
<style type="text/css">
	.st0{fill:#5B5655;stroke:#000000;stroke-width:2;stroke-miterlimit:10;}
	.st1{fill:#FF0000;stroke:#000000;stroke-width:3.533;stroke-miterlimit:10;}
	.st2{fill:#FFFFFF;stroke:#000000;stroke-width:3.2342;stroke-miterlimit:10;}
	.st3{fill:none;stroke:#000000;stroke-width:3.2342;stroke-miterlimit:10;}
</style>
<g>
	<g>
		<g>
			<path class="st0" d="M7.9,22.3v61.2c0,1.1-0.9,2-2,2H3.7c-1.1,0-2-0.9-2-2V22.3c0-1.1,0.9-2,2-2h2.2C7,20.3,7.9,21.2,7.9,22.3z"
				/>
			<path class="st0" d="M58.3,22.3v61.2c0,1.1-0.9,2-2,2h-2.2c-1.1,0-2-0.9-2-2V22.3c0-1.1,0.9-2,2-2h2.2
				C57.4,20.3,58.3,21.2,58.3,22.3z"/>
			<path class="st1" d="M53.4,23.8V82c0,5.1-4,9.2-8.7,9.2H15.4c-4.8,0-8.7-4.2-8.7-9.2V23.8c0-5.1,4-9.2,8.7-9.2h29.3
				C49.5,14.6,53.4,18.8,53.4,23.8z"/>
		</g>
		<path class="st2" d="M43.7,14.6L32.1,9.2c-1.3-0.6-2.8-0.6-4.1,0l-11.7,5.4H43.7z"/>
	</g>
	<g>
		<line class="st3" x1="53.4" y1="26.9" x2="58.3" y2="26.9"/>
		<line class="st3" x1="2.1" y1="26.9" x2="7" y2="26.9"/>
		<line class="st3" x1="53.4" y1="37.1" x2="58.3" y2="37.1"/>
		<line class="st3" x1="2.1" y1="37.1" x2="7" y2="37.1"/>
		<line class="st3" x1="53.4" y1="47.3" x2="58.3" y2="47.3"/>
		<line class="st3" x1="2.1" y1="47.3" x2="7" y2="47.3"/>
		<line class="st3" x1="53.4" y1="57.6" x2="58.3" y2="57.6"/>
		<line class="st3" x1="2.1" y1="57.6" x2="7" y2="57.6"/>
		<line class="st3" x1="53.4" y1="67.8" x2="58.3" y2="67.8"/>
		<line class="st3" x1="2.1" y1="67.8" x2="7" y2="67.8"/>
		<line class="st3" x1="53.4" y1="78" x2="58.3" y2="78"/>
		<line class="st3" x1="2.1" y1="78" x2="7" y2="78"/>
	</g>
</g>
</svg>
