<?xml version="1.0" encoding="utf-8"?>
<!-- Generator: Adobe Illustrator 25.0.0, SVG Export Plug-In . SVG Version: 6.00 Build 0)  -->
<svg version="1.1" id="Layer_1" xmlns="http://www.w3.org/2000/svg" xmlns:xlink="http://www.w3.org/1999/xlink" x="0px" y="0px"
	 viewBox="0 0 60 100" style="enable-background:new 0 0 60 100;" xml:space="preserve">
<style type="text/css">
	.st0{fill:#5B5655;stroke:#000000;stroke-width:2;stroke-miterlimit:10;}
	.st1{fill:#FFFFFF;stroke:#000000;stroke-width:3.533;stroke-miterlimit:10;}
	.st2{fill:none;stroke:#000000;stroke-width:3.2342;stroke-miterlimit:10;}
</style>
<g>
	<path class="st0" d="M7.9,28.6v61.2c0,1.1-0.9,2-2,2H3.7c-1.1,0-2-0.9-2-2V28.6c0-1.1,0.9-2,2-2h2.2C7,26.6,7.9,27.5,7.9,28.6z"/>
	<path class="st0" d="M58.3,28.6v61.2c0,1.1-0.9,2-2,2h-2.2c-1.1,0-2-0.9-2-2V28.6c0-1.1,0.9-2,2-2h2.2
		C57.4,26.6,58.3,27.5,58.3,28.6z"/>
	<path class="st1" d="M53.4,30.1v58.2c0,5.1-4,9.2-8.7,9.2H15.4c-4.8,0-8.7-4.2-8.7-9.2V30.1c0-5.1,4-9.2,8.7-9.2h29.3
		C49.5,20.9,53.4,25.1,53.4,30.1z"/>
</g>
<path class="st2" d="M43.7,20.9l-11.7-5.4c-1.3-0.6-2.8-0.6-4.1,0l-11.7,5.4H43.7z"/>
</svg>
