<?xml version="1.0" encoding="iso-8859-1"?>
<!-- Generator: Adobe Illustrator 19.0.0, SVG Export Plug-In . SVG Version: 6.00 Build 0)  -->
<svg version="1.1" id="Capa_1" xmlns="http://www.w3.org/2000/svg" xmlns:xlink="http://www.w3.org/1999/xlink" x="0px" y="0px"
	 viewBox="0 0 512 512" style="enable-background:new 0 0 512 512;" xml:space="preserve">
<g>
	<g>
		<path d="M169.503,418.126l-53.204-53.204c-4.004-4.003-10.493-4.003-14.498,0c-4.003,4.004-4.003,10.495,0.001,14.498
			l53.204,53.204c2.002,2.002,4.625,3.003,7.248,3.003c2.623,0,5.247-1,7.249-3.003C173.506,428.621,173.506,422.13,169.503,418.126
			z"/>
	</g>
</g>
<g>
	<g>
		<path d="M90.051,342.922c-13.192,0-13.214,20.502,0,20.502C103.243,363.424,103.265,342.922,90.051,342.922z"/>
	</g>
</g>
<g>
	<g>
		<path d="M508.997,179.147L332.864,3.013c-4.004-4.002-10.493-4.002-14.498,0L70.946,250.433l-55.765,55.766
			C5.392,315.988,0,329.005,0,342.852s5.392,26.865,15.182,36.654L132.504,496.83c10.105,10.104,23.381,15.158,36.655,15.158
			s26.547-5.053,36.654-15.158l55.766-55.766l247.419-247.419c1.922-1.923,3.003-4.531,3.003-7.25S510.92,181.069,508.997,179.147z
			 M191.314,482.332c-12.217,12.218-32.096,12.216-44.313,0L29.679,365.009c-5.917-5.917-9.177-13.786-9.177-22.157
			s3.26-16.24,9.177-22.157l48.516-48.517l161.637,161.637L191.314,482.332z M254.33,419.318L92.693,257.681L325.615,24.759
			l161.636,161.637L254.33,419.318z"/>
	</g>
</g>
<g>
	<g>
		<path d="M382.324,129.686c-13.973-13.966-36.972-16.36-64.763-6.742c-25.319,8.76-52.374,26.697-76.182,50.505
			c-23.804,23.809-41.738,50.863-50.5,76.179c-9.62,27.793-7.222,50.791,6.748,64.754c8.335,8.338,19.884,12.555,33.753,12.555
			c9.369,0,19.798-1.925,31.004-5.804c25.314-8.762,52.368-26.696,76.178-50.5c0,0,0,0,0.001,0
			c23.807-23.807,41.744-50.862,50.506-76.18C398.688,166.661,396.293,143.662,382.324,129.686z M324.065,256.131
			c-21.658,21.654-45.945,37.857-68.388,45.624c-19.679,6.812-35.555,6.13-43.554-1.874c-8-7.997-8.682-23.871-1.87-43.551
			c7.766-22.442,23.97-46.728,45.623-68.387c33.699-33.699,69.588-50.199,92.661-50.199c8.338,0,15.007,2.158,19.286,6.436
			C383.949,160.312,369.942,210.256,324.065,256.131z"/>
	</g>
</g>
<g>
</g>
<g>
</g>
<g>
</g>
<g>
</g>
<g>
</g>
<g>
</g>
<g>
</g>
<g>
</g>
<g>
</g>
<g>
</g>
<g>
</g>
<g>
</g>
<g>
</g>
<g>
</g>
<g>
</g>
</svg>
