<?xml version="1.0" encoding="utf-8"?>
<!-- Generator: Adobe Illustrator 24.0.1, SVG Export Plug-In . SVG Version: 6.00 Build 0)  -->
<svg version="1.1" id="Capa_1" xmlns="http://www.w3.org/2000/svg" xmlns:xlink="http://www.w3.org/1999/xlink" x="0px" y="0px"
	 viewBox="0 0 512 512" style="enable-background:new 0 0 512 512;" xml:space="preserve">
<g>
	<g>
		<path d="M169.5,418.1l-53.2-53.2c-4-4-10.5-4-14.5,0s-4,10.5,0,14.5l53.2,53.2c2,2,4.6,3,7.2,3s5.2-1,7.2-3
			C173.5,428.6,173.5,422.1,169.5,418.1z"/>
	</g>
</g>
<g>
	<g>
		<path d="M90.1,342.9c-13.2,0-13.2,20.5,0,20.5C103.2,363.4,103.3,342.9,90.1,342.9z"/>
	</g>
</g>
<g>
	<g>
		<path d="M509,179.1L332.9,3c-4-4-10.5-4-14.5,0L70.9,250.4l-55.8,55.8C5.4,316,0,329,0,342.9s5.4,26.9,15.2,36.7l117.3,117.3
			c10.1,10.1,23.4,15.2,36.7,15.2s26.5-5.1,36.7-15.2l55.8-55.8L509,193.6c1.9-1.9,3-4.5,3-7.2S510.9,181.1,509,179.1z M191.3,482.3
			c-12.2,12.2-32.1,12.2-44.3,0L29.7,365c-5.9-5.9-9.2-13.8-9.2-22.2s3.3-16.2,9.2-22.2l48.5-48.5l161.6,161.6L191.3,482.3z
			 M254.3,419.3L92.7,257.7L325.6,24.8l161.6,161.6L254.3,419.3z"/>
	</g>
</g>
<g>
	<path d="M269.6,150l11.5,11.4l-38.7,39.1l27.6,27.3l37.9-38.2l11.6,11.5l-37.9,38.2l30.4,30.1l39.9-40.2l12,11.9l-52.1,52.5
		l-93.1-92.2L269.6,150z"/>
</g>
</svg>
