<?xml version="1.0" encoding="utf-8"?>
<!-- Generator: Adobe Illustrator 25.0.0, SVG Export Plug-In . SVG Version: 6.00 Build 0)  -->
<svg version="1.1" id="Capa_1" xmlns="http://www.w3.org/2000/svg" xmlns:xlink="http://www.w3.org/1999/xlink" x="0px" y="0px"
	 viewBox="0 0 512 512" style="enable-background:new 0 0 512 512;" xml:space="preserve">
<style type="text/css">
	.st0{fill:none;stroke:#000000;stroke-width:25;stroke-miterlimit:10;}
</style>
<g>
	<path class="st0" d="M245.2,392.8c-27.1,0-46.1,18.7-46.1,45.4c0,26.3,19.4,45.4,46.1,45.4c27.1,0,46.1-18.7,46.1-45.4
		C291.3,411,272.7,392.8,245.2,392.8z M210.7,330.3h71c2.5-38.5,16.1-62.9,48.3-89.3c41.1-33.8,56.4-62.4,56.4-105.6
		c0-66.1-47.5-107.1-123.8-107.1c-54.4,0-93.4,19.1-131.8,65.2l51.7,45.1c23.1-27.3,46.2-44.8,77.4-44.8c28,0,49,21.6,49,50.4
		c0,27-12.7,49.8-40.1,72l-0.1,0.1C227.5,248.7,212.7,276.7,210.7,330.3z"/>
</g>
</svg>
