<?xml version="1.0" encoding="utf-8"?>
<!-- Generator: Adobe Illustrator 25.0.0, SVG Export Plug-In . SVG Version: 6.00 Build 0)  -->
<svg version="1.1" id="Capa_1" xmlns="http://www.w3.org/2000/svg" xmlns:xlink="http://www.w3.org/1999/xlink" x="0px" y="0px"
	 viewBox="0 0 512 512" style="enable-background:new 0 0 512 512;" xml:space="preserve">
<path d="M116.6,372.6L116.6,372.6c-6.2-5.5-6.7-15-1.1-21.2l100.2-111.5c5.2-5.8,4.7-14.7-1.1-19.9L103,119.8
	c-6.2-5.5-6.7-15-1.1-21.2l0,0c5.5-6.2,15-6.7,21.2-1.1l111.5,100.2c18.1,16.2,19.6,44.2,3.3,62.3L137.8,371.5
	C132.2,377.6,122.8,378.1,116.6,372.6z"/>
<path d="M411,406.4H265c-8.3,0-15-6.7-15-15v0c0-8.3,6.7-15,15-15h146c8.3,0,15,6.7,15,15v0C426,399.7,419.3,406.4,411,406.4z"/>
</svg>
