<?xml version="1.0" encoding="utf-8"?>
<!-- Generator: Adobe Illustrator 24.0.1, SVG Export Plug-In . SVG Version: 6.00 Build 0)  -->
<svg version="1.1" id="Layer_1" xmlns="http://www.w3.org/2000/svg" xmlns:xlink="http://www.w3.org/1999/xlink" x="0px" y="0px"
	 viewBox="0 0 100 140" style="enable-background:new 0 0 100 140;" xml:space="preserve">
<style type="text/css">
	.st0{fill:#FFFFFF;stroke:#4C4C4C;stroke-miterlimit:10;}
	.st1{fill:none;stroke:#000000;stroke-miterlimit:10;}
	.st2{fill:#956226;}
	.st3{fill:#BBBDBF;}
	.st4{fill:#262261;}
	.st5{fill:#6D6E70;}
	.st6{fill:#808184;}
	.st7{fill:#231F20;}
	.st8{fill:#FFFFFF;}
</style>
<path class="st0" d="M88,140H12c-6.6,0-12-5.4-12-12V12C0,5.4,5.4,0,12,0h76c6.6,0,12,5.4,12,12v116C100,134.6,94.6,140,88,140z"/>
<g>
	<path d="M9.1,52.6c3.5,0,5.5-0.5,5.5-4.6c-0.8,1.4-1.8,2-3.2,2c-2,0-3.4-1.4-3.4-3.4s1.3-3.2,3.2-3.2c0.9,0,1.2,0.1,2,0.4
		c-0.8-0.7-1.6-1.5-1.6-3c0-1.9,1.4-3.2,3.6-3.2s3.6,1.3,3.6,3.2c0,1.5-0.8,2.3-1.6,3c0.8-0.3,1.1-0.4,2-0.4c1.9,0,3.2,1.3,3.2,3.2
		c0,2-1.5,3.4-3.4,3.4c-1.4,0-2.4-0.6-3.2-2c0,4.1,2,4.6,5.5,4.6l0.6,1.4H8.5L9.1,52.6z"/>
</g>
<g>
	<path d="M90.9,87.4c-3.5,0-5.5,0.5-5.5,4.6c0.8-1.4,1.8-2,3.2-2c2,0,3.4,1.4,3.4,3.4s-1.3,3.2-3.2,3.2c-0.9,0-1.2-0.1-2-0.4
		c0.8,0.7,1.6,1.5,1.6,3c0,1.9-1.4,3.2-3.6,3.2s-3.6-1.3-3.6-3.2c0-1.5,0.8-2.3,1.6-3c-0.8,0.3-1.1,0.4-2,0.4
		c-1.9,0-3.2-1.3-3.2-3.2c0-2,1.5-3.4,3.4-3.4c1.4,0,2.4,0.6,3.2,2c0-4.1-2-4.6-5.5-4.6L78.1,86h13.2L90.9,87.4z"/>
</g>
<g>
	<path d="M23.9,4v19.3c0,4.8-3.9,8.7-8.7,8.7s-8.7-3.9-8.7-8.7h4.8c0,2.1,1.7,3.9,3.9,3.9c2.1,0,3.9-1.7,3.9-3.9V8.8h-3.9V4H23.9z"
		/>
</g>
<g>
	<path d="M76.3,135.6v-19.3c0-4.8,3.9-8.7,8.7-8.7c4.8,0,8.7,3.9,8.7,8.7h-4.8c0-2.1-1.7-3.9-3.9-3.9c-2.1,0-3.9,1.7-3.9,3.9v14.4
		H85v4.8h-8.7V135.6z"/>
</g>
<rect x="26" y="30.6" class="st1" width="48" height="78.8"/>
<g>
	<g>
		<g>
			<path class="st2" d="M62.7,87.5c-0.2-0.5-0.4-0.9-1-0.8s-0.8,0.8-1.3,1.2c0.2,0,0.4-0.1,0.6-0.1c-0.4-0.1-0.4-0.7-1-0.7
				c-0.6,0.1-1,0.9-1.2,1.4c0.2-0.1,0.3-0.2,0.5-0.3c-0.5-0.1-0.5-1.1-1.2-1.1c-0.7-0.1-1,1.1-1.5,1c-0.1,0-0.3-0.5-0.5-0.5
				c-0.2-0.1-0.4-0.1-0.6,0c-0.6,0.2-0.8,1.3-1.1,1.8c0.3-0.1,0.5-0.1,0.8-0.2c-0.5-0.2-0.6-0.8-1.1-0.9c-0.7-0.1-1.1,0.9-1.9,0.4
				c-0.4-0.2-0.5-0.7-1.1-0.6c-0.7,0.1-0.9,0.9-1.2,1.4c0.3,0,0.6-0.1,0.9-0.1C50,88.2,48.4,88.6,48,90c0.3,0,0.7-0.1,1-0.1
				c-0.3-0.4-0.6-1.1-1.2-1.2c-0.5-0.1-1.1,0.3-1.4,0.7c-0.3,0.5,0.1,0.4-0.3,0c-0.1-0.1-0.3-0.2-0.4-0.3c-0.6-0.2-0.8,0.3-1.2,0.5
				c-0.4,0.1-0.6-0.5-1.1-0.6c-0.6-0.1-0.8,0.2-1.2,0.6c-0.7,0.6-0.5,0.1-1.1,0c-0.7-0.2-1.1,0.5-1.5,1c0.3,0,0.5,0,0.8,0
				c-0.4-0.5-0.7-1.2-1.4-0.9c-0.2,0.1-0.4,0.3-0.5,0.4c-0.2,0.2-0.2,0.3,0,0.4c-0.1-0.2-0.3-0.3-0.4-0.5c-0.2-0.3-0.7-0.2-0.9,0.1
				c-0.1,0.2-0.3,0.5-0.4,0.7c0.3,0,0.7,0,1,0c-0.3-0.6-0.8-0.8-1.5-0.7c-0.7,0.1-0.4,1.2,0.3,1.1c0.1,0,0.1,0.1,0.2,0.1
				c0.2,0.4,0.8,0.4,1,0c0.1-0.2,0.3-0.5,0.4-0.7c-0.3,0-0.6,0.1-0.9,0.1c0.4,0.4,0.8,1,1.4,0.7c0.2-0.1,0.4-0.3,0.5-0.4
				c0.2-0.2,0.2-0.3-0.1-0.4c0.2,0.2,0.3,0.4,0.5,0.6s0.6,0.2,0.8,0c0.1-0.2,0.7-0.6,0.4-0.6c0.1,0,0.3,0.3,0.4,0.4
				c0.3,0.2,0.6,0.3,1,0.2c0.4-0.1,0.6-0.8,1-0.8c0.3,0,0.6,0.5,1,0.5c0.3,0.1,0.6-0.1,0.9-0.3c0.6-0.4,0.3-0.2,0.8,0.1
				c0.3,0.2,0.6,0.2,0.9,0.1c0.5-0.2,0.7-1.3,1.3-0.4c0.3,0.4,0.9,0.4,1-0.1c0.3-0.1,0.7-0.1,1-0.2c0.2,0.3,0.7,0.2,0.9-0.1
				c0.1-0.2,0.2-0.4,0.3-0.6c0.1-0.3,0.2-0.3,0.1,0.1c0.1,0.1,0.2,0.3,0.3,0.4c0.3,0.2,0.6,0.4,1,0.3s0.7-0.6,1.1-0.6
				c0.3,0,0.5,0.4,0.8,0.6c0.3,0.1,0.6,0.1,0.8-0.2c0.2-0.5,0.4-1.1,0.7-1.5c-0.2,0.1-0.3,0.2-0.5,0.3c-0.1,0,0.5,0.6,0.6,0.6
				c0.4,0.1,0.9-0.1,1.2-0.3c0.1-0.1,0.6-0.5,0.4-0.6C57.6,88.4,58,89,58.1,89c0.3,0.4,0.6,0.4,1.1,0.5c0.2,0,0.4-0.1,0.5-0.3
				c0.2-0.2,0.2-0.4,0.2-0.7c0.1,0.1,0.2,0.2,0.2,0.3c0.2,0.1,0.3,0.2,0.5,0.2c0.6,0,0.9-1,1.1-1c-0.2-0.1-0.3-0.2-0.5-0.3
				c0.1,0.2,0.2,0.3,0.3,0.5C62,88.8,63,88.2,62.7,87.5L62.7,87.5z"/>
		</g>
	</g>
	<g>
		<g>
			<path class="st2" d="M39.6,44c-0.1,1.3-0.1,2.6,0.4,3.9c0.2,0.6,0.5,1.2,0.6,1.8c0.1,0.7,0.1,1.4,0.1,2.1c0,0.7,1.1,0.7,1.1,0
				c0.2-2.6,0.3-5.2,0.3-7.8c-0.4,0.1-0.7,0.1-1.1,0.2c0.6,2.2,1.1,4.4,1.5,6.7c0.1,0.7,1.1,0.4,1.1-0.2c0.2-2.3-0.2-4.6,0.4-6.9
				c-0.4,0-0.7,0-1.1,0c0.4,2.4,0.9,4.7,1.3,7.1c0.1,0.6,1,0.5,1.1,0c0.3-1.1,0.4-2.3,0.5-3.4c0-1-0.3-2.1,0.3-3
				c-0.3,0-0.7-0.1-1-0.1c0.5,2.6,1.2,5.3,2,7.9c0.2,0.6,1.1,0.5,1.1-0.2c-0.1-2.6-0.3-5.2-0.6-7.8c-0.4,0.1-0.7,0.2-1.1,0.3
				c1.1,1.9,1.9,4,2.2,6.2c0.1,0.6,1.1,0.5,1.1-0.2c-0.1-2.1,0.1-4.2,0.5-6.3c-0.4,0-0.7,0-1.1,0c0.4,1.9,0.9,3.7,1.3,5.6
				c0.2,0.7,1.1,0.5,1.1-0.2c0.2-1.8,0.1-3.5,0-5.3c-0.1-0.7-1.2-0.7-1.1,0c0.2,1.8,0.2,3.5,0,5.3c0.4-0.1,0.7-0.1,1.1-0.2
				c-0.4-1.9-0.9-3.7-1.3-5.6c-0.1-0.5-1-0.6-1.1,0c-0.4,2.2-0.6,4.4-0.5,6.6c0.4-0.1,0.7-0.1,1.1-0.2c-0.4-2.3-1.2-4.5-2.3-6.4
				c-0.3-0.5-1.1-0.3-1.1,0.3c0.3,2.6,0.5,5.2,0.6,7.8c0.4-0.1,0.7-0.1,1.1-0.2c-0.8-2.6-1.4-5.2-2-7.9c-0.1-0.5-0.8-0.5-1-0.1
				c-0.6,0.9-0.5,1.9-0.5,2.9c0,1.3-0.1,2.5-0.4,3.7c0.4,0,0.7,0,1.1,0c-0.4-2.4-0.9-4.7-1.3-7.1c-0.1-0.6-1-0.5-1.1,0
				c-0.6,2.3-0.2,4.8-0.4,7.2c0.4-0.1,0.7-0.1,1.1-0.2c-0.3-2.3-0.8-4.5-1.5-6.7C41.9,43,41,43.1,41,43.8c0,2.6-0.1,5.2-0.3,7.8
				c0.4,0,0.8,0,1.1,0c0-1.4-0.1-2.6-0.6-3.9c-0.2-0.6-0.5-1.2-0.5-1.9c-0.1-0.7,0-1.4,0-2.1C40.8,43.2,39.6,43.2,39.6,44L39.6,44z"
				/>
		</g>
	</g>
	<g>
		<g>
			<path class="st2" d="M40.7,61.6c-0.2,0.8-0.5,1.5-0.9,2.2c-0.2,0.3,0,0.9,0.5,0.9c1.4-0.1,1.7-1.4,2.5-2.3
				c-0.3-0.1-0.6-0.2-1-0.3c0.2,0.8,0.4,1.5,0.6,2.3c0.1,0.6,0.9,0.5,1.1,0c0.1-0.3,0.2-0.6,0.3-0.9c0.1-0.2,0.1-0.6,0.3-0.7
				c-0.1,0-0.3,0-0.4,0.1h0.1c-0.1-0.1-0.2-0.2-0.3-0.3c0.3,0.5,0.4,1.1,0.7,1.6c0.2,0.5,0.9,0.5,1.1,0c0.1-0.2,0.2-0.4,0.3-0.7
				c0.1-0.1,0.2-0.4,0.2-0.5c0.1-0.1,0-0.2-0.1-0.1c-0.2-0.1-0.3,0-0.1,0.2c0.1,0.2,0.3,0.4,0.4,0.6c0.3,0.5,1,0.3,1.1-0.3
				c0-0.4,0.1-1.2,0.5-1.5c-0.1,0.1-0.3,0.1-0.4,0.2h0.1C47.2,62,47,62,46.9,61.9c0.2,0.1,0.2,0.7,0.3,0.9s0.1,0.5,0.2,0.7
				c0.1,0.4,0.4,0.7,0.8,0.7c0.9,0,0.8-1.2,1.3-1.7c-0.3-0.1-0.6-0.2-1-0.3c0.1,0.4,0.3,0.8,0.4,1.2c0.1,0.4,0.7,0.6,1,0.3
				c0.1-0.1,0.3-0.5,0.5-0.5c-0.1,0-0.3,0-0.4-0.1c0,0,0.2,0.3,0.3,0.4c0.2,0.2,0.4,0.3,0.7,0.4c0.2,0,0.5,0,0.6-0.2
				c0.1-0.1,0.4-0.5,0.4-0.5c-0.1-0.1-0.3-0.1-0.4-0.2c0.3,0.2,0.5,0.5,0.9,0.4c0.5-0.1,0.6-0.6,0.8-1c0.3-0.7-0.7-1.2-1-0.6
				c-0.1,0.2-0.2,0.5-0.4,0.7c0.2-0.1,0.3-0.2,0.5-0.3c0.2,0-0.2-0.2-0.3-0.2c-0.2-0.1-0.4,0-0.6,0c-0.2,0.1-0.3,0.2-0.4,0.3
				c-0.2,0.2-0.1,0.3-0.2,0c-0.5-1-1.5-0.1-1.9,0.4c0.3,0.1,0.6,0.2,1,0.3c-0.1-0.4-0.3-0.8-0.4-1.2c-0.1-0.4-0.6-0.5-1-0.3
				c-0.2,0.2-0.4,0.5-0.5,0.7s-0.2,0.6-0.3,0.8c0.1-0.1,0.3-0.1,0.4-0.2h-0.1c0.1,0.1,0.3,0.1,0.4,0.2c-0.5-0.5-0.3-2.4-1.4-2.2
				C46.2,61,46,62.5,46,63.2c0.4-0.1,0.7-0.2,1.1-0.3c-0.3-0.5-0.8-1.6-1.6-1.2c-0.7,0.3-0.9,1.4-1.2,2c0.4,0,0.7,0,1.1,0
				c-0.2-0.5-0.4-1.1-0.6-1.7c-0.1-0.3-0.4-0.6-0.8-0.6c-0.9,0-1.2,1.7-1.4,2.4c0.4,0,0.7,0,1.1,0c-0.2-0.8-0.4-1.5-0.6-2.3
				c-0.1-0.4-0.7-0.6-1-0.3c-0.5,0.5-0.9,1.9-1.7,2c0.2,0.3,0.3,0.6,0.5,0.9c0.4-0.8,0.8-1.6,1-2.5C42,61.2,40.9,60.9,40.7,61.6
				L40.7,61.6z"/>
		</g>
	</g>
	<g>
		<g>
			<path class="st2" d="M52.5,62.4c0.2,0.2,0.3,0.4,0.4,0.7c0.2,0.4,0.9,0.3,1-0.1c0-0.2,0.1-0.4,0.1-0.6c0-0.1,0.1-0.4,0.1-0.5
				s-0.5-0.1-0.5,0.1c0,0.1,0.1,0.2,0.2,0.3c0.1,0.2,0.3,0.4,0.4,0.6c0.3,0.4,0.9,0.4,1-0.1s0.3-0.9,0.4-1.4
				c0.1-0.2,0.1-0.4,0.2-0.6c0,0,0-0.2,0-0.1c0-0.1,0.1-0.1-0.1,0c-0.2-0.2-0.4-0.4-0.6-0.6c0.1,0.9,0.4,1.8,0.9,2.5
				c0.2,0.3,0.6,0.4,0.9,0.1c0.2-0.2,0.3-0.5,0.4-0.8c0-0.1,0-0.2,0.1-0.3c0-0.1,0-0.1,0.1-0.2l0,0c-0.3-0.1-0.5-0.1-0.8-0.2
				c0.1,0.3,0.3,0.5,0.4,0.8c0.1,0.2,0.2,0.5,0.5,0.6c0.2,0.2,0.6,0.2,0.8,0.1c0.1-0.1,0.2-0.1,0.2-0.2c0-0.1,0.1-0.1,0.1-0.2
				c0.1-0.1,0-0.1-0.1,0.1c0.7-0.2,0.4-1.3-0.3-1.1c-0.2,0-0.3,0.1-0.4,0.2c0,0-0.1,0.1-0.1,0.2c-0.1,0.1,0,0,0,0
				c0.1,0,0.2-0.1,0.3-0.1c0.2,0.1,0.2,0.2,0.1,0c0,0,0-0.1-0.1-0.1c-0.1-0.1-0.1-0.2-0.2-0.3c-0.1-0.2-0.2-0.4-0.4-0.6
				c-0.1-0.2-0.5-0.4-0.8-0.2s-0.5,0.5-0.5,0.8c0,0.1,0,0.3-0.1,0.4c0,0.1,0,0.1,0,0.2v0.1c0.3,0,0.6,0.1,0.9,0.1
				c-0.4-0.6-0.7-1.3-0.8-2c0-0.3-0.2-0.6-0.6-0.6c-0.6,0.1-0.9,0.5-1.1,1.1c-0.2,0.6-0.4,1.3-0.5,1.9c0.3,0,0.7-0.1,1-0.1
				c-0.3-0.5-0.8-1.5-1.6-1.3c-0.7,0.2-0.7,1.2-0.9,1.8c0.3,0,0.7-0.1,1-0.1c-0.1-0.2-0.3-0.5-0.4-0.7c-0.2-0.2-0.5-0.4-0.8-0.2
				C52.5,61.8,52.4,62.2,52.5,62.4L52.5,62.4z"/>
		</g>
	</g>
	<g>
		<g>
			<g>
				<path class="st3" d="M39.2,43.1c0.6,0.3,1.6,0.1,1.8-0.6c0.2-0.6-0.2-1.3-0.9-1.4c-0.1,0-0.2,0.1-0.2,0.2
					c-0.4,1.1,0.1,2.8,1.6,2.4c1-0.3,1-1.8-0.1-2c-0.1,0-0.4,0.1-0.3,0.3c0.5,1.3,2.4,0.7,2-0.7c0-0.1-0.1-0.1-0.2-0.2
					c-0.4-0.1-0.8,0.2-0.8,0.6c0,0.6,0.5,0.9,1,1c0.1,0,0.2,0,0.3-0.1c0.1-0.3,0.1-0.6,0-0.9c-0.1-0.2-0.5-0.1-0.4,0.2
					c0.2,0.5,0.5,1.5,1.2,1.2s0.5-1.1,0.2-1.6c-0.1-0.2-0.3-0.1-0.4,0c-0.3,0.5-0.2,1.1,0.3,1.4c0.1,0,0.2,0,0.3,0
					c0.3-0.3,0.4-0.7,0.4-1.2c0-0.2-0.4-0.3-0.4-0.1c-0.1,0.8,0.1,1.5,0.8,2c0.1,0.1,0.2,0,0.3,0c0.4-0.3,0.5-0.7,0.3-1.1
					c0-0.2-0.3-0.2-0.4-0.1c-0.3,0.4-0.1,1.3,0.6,1.1c0.6-0.2,0.5-1,0-1.2c-0.2-0.1-0.3,0.1-0.3,0.2c-0.1,0.5,0.4,0.7,0.8,0.6
					c0.6-0.2,0.8-1.2,1-1.7c0.1-0.3-0.3-0.4-0.4-0.1c-0.2,0.5-0.1,0.9,0.2,1.4c0.1,0.2,0.3,0.1,0.4,0c0.4-0.5,0.3-1.1-0.1-1.5
					c-0.1-0.1-0.3-0.1-0.4,0c-0.4,0.7,0.2,1.5,0.9,1.7c0.6,0.1,1.4-0.5,0.8-1.1c-0.1-0.1-0.3-0.1-0.4,0c-0.2,0.4-0.2,0.9,0,1.3
					c0.1,0.2,0.4,0.1,0.4-0.1c0.2-0.5,0.2-1,0.2-1.6c0-0.3-0.5-0.3-0.5,0c0.1,0.6,0.7,1.2,1.3,0.9c0.5-0.2,0.6-0.9,0.3-1.3
					c-0.1,0-0.4,0.1-0.4,0.3c-0.2,0.7-0.1,1.3,0.3,1.9c0.1,0.1,0.3,0.2,0.4,0c0.2-0.3,0.3-0.5,0.5-0.8c-0.1,0-0.3-0.1-0.4-0.1
					c0,0.3,0.1,0.7,0.5,0.8c0.3,0.1,0.5-0.1,0.6-0.3c0.1-0.3-0.3-0.4-0.4-0.1c0-0.1-0.1-0.2-0.1-0.3c0-0.2-0.3-0.3-0.4-0.1
					c-0.2,0.3-0.3,0.5-0.5,0.8c0.1,0,0.3,0,0.4,0c-0.3-0.5-0.4-1-0.3-1.5c-0.1,0-0.3,0.1-0.4,0.1c-0.1,0.6-0.3,0.7-0.6,0.4
					c-0.2-0.1-0.3-0.2-0.2-0.4c-0.2,0-0.3,0-0.5,0c0.1,0.5,0,1-0.1,1.5c0.1,0,0.3,0,0.4-0.1c-0.2-0.3-0.2-0.6,0-0.8
					c-0.1,0-0.2,0-0.4,0c-0.1,0.3-0.2,0.4-0.4,0.3c-0.2,0-0.3-0.1-0.4-0.2c-0.2-0.2-0.4-0.5-0.2-0.8c-0.1,0-0.2,0-0.4,0
					c0.3,0.3,0.2,0.7,0,1c0.1,0,0.3,0,0.4,0c-0.2-0.3-0.3-0.7-0.1-1c-0.1,0-0.3-0.1-0.4-0.1c-0.1,0.2-0.2,0.4-0.3,0.7
					c0,0.1-0.1,0.2-0.1,0.3c0,0.3-0.2,0.4-0.5,0.3c-0.1,0.1-0.2,0.1-0.3,0.2H46c-0.1,0-0.3-0.1-0.4-0.1c0.1,0.3,0,0.5-0.2,0.6
					c0.1,0,0.2,0,0.3,0c-0.5-0.4-0.7-0.9-0.6-1.5c-0.1,0-0.3,0-0.4-0.1c0,0.3-0.1,0.6-0.3,0.9c0.1,0,0.2,0,0.3,0
					c-0.3-0.2-0.3-0.5-0.1-0.8c-0.1,0-0.3,0-0.4,0c0.1,0.3,0,1-0.3,0.7c-0.1-0.2-0.2-0.4-0.3-0.6c-0.3-0.1-0.5-0.1-0.6,0
					c0,0.1,0,0.3,0,0.4c0.1,0,0.2-0.1,0.3-0.1c-0.2,0-0.4-0.1-0.5-0.3c0-0.6,0-0.6-0.1-0.2c-0.3,0.5-0.9,0.3-1.1-0.1
					c-0.1,0.1-0.2,0.2-0.3,0.3c0.8,0.1,0.4,1.3-0.4,1.1c-0.8-0.2-0.8-1.2-0.6-1.8c-0.1,0.1-0.1,0.1-0.2,0.2c0.6,0,0.6,0.8,0.2,1.1
					c-0.3,0.2-0.7,0.1-1,0C39,42.6,38.9,43,39.2,43.1L39.2,43.1z"/>
			</g>
		</g>
		<g>
			<g>
				<path class="st3" d="M45.7,42.3c0-0.1,0.1-0.2,0.2-0.2H46c0.1,0,0.1,0,0.1-0.1c0.1,0,0.3,0.1,0.4,0.1c0-0.1-0.1-0.2,0.1-0.3
					c0.1,0,0.2,0,0.3,0c0.2,0.1,0.4,0,0.6,0c0.5,0,1,0,1.5,0c0-0.1-0.1-0.3-0.1-0.4c0.1,0.1,0.1,0.2,0.2,0.3
					c0.1,0.3,0.5,0.2,0.4-0.1c0-0.1,0.1-0.1,0.1,0c0,0.2,0.3,0.2,0.4,0.1c0.1-0.1,0.1-0.1,0.2,0.1c0,0.1,0.1,0.2,0.2,0.2
					c0.1,0,0.2,0,0.2,0s0.1,0,0.1-0.1c0.1,0,0.1-0.1-0.1-0.1c-0.1,0.3,0.4,0.4,0.4,0.1c0-0.2,0-0.3-0.2-0.4c-0.1,0-0.2-0.1-0.2-0.1
					h-0.1l0,0c-0.1,0-0.1,0,0,0c0,0,0.1,0,0,0c0,0,0,0,0-0.1c0,0,0-0.1-0.1-0.1c-0.1-0.1-0.1-0.1-0.2-0.1c-0.2,0-0.4,0.1-0.6,0.2
					c0.1,0,0.3,0.1,0.4,0.1c-0.1-0.3-0.3-0.5-0.6-0.4S49,41.4,49,41.6c0.1,0,0.3-0.1,0.4-0.1c-0.1-0.4-0.5-0.7-0.9-0.3
					c-0.3,0.3,0.1,0.8,0.5,0.6c0.2-0.1,0.1-0.4-0.1-0.4c-0.4,0-0.7,0-1.1,0c-0.2,0-0.3,0-0.5,0c-0.1,0-0.2,0-0.3,0s-0.1,0-0.2-0.1
					c-0.5-0.1-1,0.4-0.8,0.9c0.1,0.2,0.2,0.2,0.4,0.1c0.3-0.3,0-0.7-0.3-0.7c-0.4,0-0.7,0.3-0.9,0.6C45.1,42.4,45.6,42.6,45.7,42.3
					L45.7,42.3z"/>
			</g>
		</g>
		<g>
			<g>
				<path class="st3" d="M43.9,41.4c0.1-0.1,0.3-0.3,0.4-0.3c0.2,0,0.2,0.3,0.2,0.4c0,0.1,0.1,0.2,0.2,0.2c0.1,0,0.2-0.1,0.3-0.2
					c0-0.1,0.1-0.3,0.2-0.3c0.1,0,0.3,0.2,0.3,0.3c0.1,0.2,0.2,0.4,0.4,0.4c0.1,0,0.2-0.1,0.2-0.2c0,0,0-0.1,0.1-0.1l0,0
					c0.1,0.1,0.2,0,0.3-0.1s0-0.3-0.1-0.3c-0.2-0.1-0.3-0.1-0.5,0c-0.1,0-0.1,0.1-0.2,0.2c0,0-0.1,0.1-0.1,0.2c0,0,0.1,0,0.1-0.1
					l0,0c0.1,0,0.1,0,0.2,0l0,0c0,0,0,0,0-0.1c0,0,0-0.1-0.1-0.1c0-0.1-0.1-0.1-0.1-0.2c-0.1-0.2-0.3-0.3-0.5-0.3
					c-0.4,0-0.6,0.3-0.7,0.6c0.1,0,0.3,0,0.4,0.1c0-0.3-0.1-0.8-0.6-0.8c-0.4-0.1-0.7,0.2-0.9,0.5c-0.1,0.1,0,0.3,0.1,0.3
					C43.7,41.5,43.8,41.5,43.9,41.4L43.9,41.4z"/>
			</g>
		</g>
		<g>
			<g>
				<path class="st3" d="M41.5,41.7c0-0.1,0-0.2,0.1-0.2c0.1-0.1,0.1-0.1,0.2-0.2l0,0l0,0c0,0,0,0.1,0.1,0.1c0,0.1,0.1,0.2,0.2,0.3
					c0.1,0.1,0.4,0,0.4-0.2c0-0.1,0-0.3,0.1-0.3l0,0c0.1,0,0.1,0.1,0.2,0.1c0.1,0,0.2,0.1,0.3,0c0.1,0,0.1-0.1,0.2-0.1l0,0l0,0l0,0
					l0,0c0.1,0.1,0.2,0.1,0.3,0.1c0.1-0.1,0.2-0.2,0.1-0.3c-0.1-0.2-0.3-0.3-0.6-0.2c-0.1,0-0.2,0.1-0.3,0.1l0,0c0,0,0,0,0.1,0l0,0
					l-0.1-0.1c-0.2-0.1-0.5-0.1-0.6,0.1C42,41,42,41.3,42,41.5c0.1-0.1,0.3-0.1,0.4-0.2c0,0,0-0.1-0.1-0.1c0-0.1,0-0.1-0.1-0.2
					c-0.1-0.2-0.3-0.2-0.5-0.2c-0.3,0.1-0.6,0.4-0.6,0.7c0,0.1,0,0.2,0.2,0.3C41.4,41.9,41.5,41.9,41.5,41.7L41.5,41.7z"/>
			</g>
		</g>
		<g>
			<g>
				<path class="st3" d="M41.2,43L41.2,43L41.2,43L41.2,43C41.2,43,41.1,43,41.2,43C41.1,43,41.1,43,41.2,43
					C41.1,43,41.1,43,41.2,43C41.1,43,41.1,43,41.2,43C41.1,43,41.1,43,41.2,43C41.1,43,41.1,43,41.2,43C41.1,43,41.1,43,41.2,43
					L41.2,43c-0.1,0-0.1,0-0.2,0l0,0l0,0l0,0l0,0l0,0c0,0,0,0,0-0.1l0,0c0,0,0,0,0-0.1l0,0c0.1,0,0.3-0.1,0.4-0.1l0,0c0,0,0,0,0,0.1
					l0,0c0,0,0,0,0,0.1l0,0c0,0,0,0,0,0.1l0,0c0,0,0,0,0,0.1l0,0l0,0l0,0l0,0l0,0c0,0,0,0-0.1,0c0,0,0,0,0.1,0c0,0,0,0-0.1,0h0.1
					c0,0,0,0-0.1,0h0.1c0.1,0,0.1,0,0.2,0l0.1-0.1c0-0.1,0-0.1,0-0.2l-0.1-0.1c-0.1,0-0.2,0-0.2,0c-0.1,0-0.2,0-0.3,0.1
					S41,42.9,40.9,43v0.1c0,0.1,0,0.1,0,0.2l0,0c0,0,0,0,0.1,0h0.1c0,0,0.1,0,0.1-0.1C41.2,43.2,41.3,43.1,41.2,43
					c0.1-0.1,0.1-0.2,0-0.2c0,0-0.1-0.1-0.2-0.1c-0.1,0-0.2,0-0.2,0c-0.1,0-0.1,0.1-0.1,0.1c0,0.1,0,0.1,0,0.2
					c0,0.1,0.1,0.1,0.1,0.1c0.1,0,0.1,0,0.2,0C41.1,43.1,41.1,43.1,41.2,43L41.2,43z"/>
			</g>
		</g>
		<g>
			<g>
				<path class="st3" d="M43.8,41.9c0.1-0.2,0.3,0.2,0.3,0.2c0,0.1,0,0.3,0,0.4c0,0.2,0.3,0.3,0.4,0.1c0.2-0.3,0.4-0.5,0.6-0.7
					c-0.1,0-0.3-0.1-0.4-0.1c0.1,0.5,0.6,0.4,1,0.2c-0.1,0-0.2-0.1-0.3-0.1c0,0.2,0.1,0.3,0.1,0.5c0.1,0.2,0.4,0.2,0.4,0
					c0.1-0.2,0.1,0,0.3,0c0.1,0,0.5-0.2,0.5-0.1c0,0.3,0.4,0.3,0.4,0.1l0,0c0.1,0.1,0.3,0.2,0.4,0c0-0.1,0.4-0.7,0.5-0.2
					c0,0.2,0.3,0.2,0.4,0.1c0-0.1,0.1-0.2,0.2-0.2c0,0,0.1,0.1,0.2,0.1c0.1,0.1,0.3,0.1,0.4,0.1c0.1,0,0.3-0.1,0.4-0.2l0.2-0.1
					c0.1,0,0.2,0.2,0.2,0.3c0.1,0.1,0.3,0.2,0.4,0c0-0.1,0.1-0.2,0.1-0.3c-0.1,0-0.2,0.1-0.3,0.1c0.3,0.1,0.6,0.1,0.8-0.2
					c-0.1,0-0.2,0-0.3,0c0.1,0,0.1,0.1,0.2,0.2c0.2,0.2,0.5,0,0.4-0.2c-0.1-0.1-0.1-0.2-0.2-0.3c-0.1-0.1-0.2-0.1-0.3,0
					c-0.1,0-0.1,0.1-0.2,0.1c-0.1,0-0.3,0-0.3,0.1s-0.1,0.2-0.1,0.3c0.1,0,0.3,0,0.4,0c-0.1-0.2-0.3-0.5-0.5-0.6
					c-0.3,0-0.4,0.2-0.6,0.3c-0.2,0.1-0.5-0.2-0.7-0.1c-0.2,0-0.4,0.2-0.5,0.4c0.1,0,0.3,0,0.4,0.1c-0.1-0.3-0.3-0.5-0.6-0.5
					s-0.6,0.3-0.7,0.6c0.1,0,0.3,0,0.4,0c-0.2-0.4-0.7-0.3-0.8,0.1c0.1,0,0.3,0,0.4,0.1c0-0.2-0.1-0.4-0.3-0.6
					c-0.1-0.1-0.6-0.1-0.6,0.1c0,0,0.2,0.1,0.1,0l-0.1-0.1c-0.1,0-0.2-0.1-0.2,0c-0.3,0-0.4,0.3-0.4,0.5c0.1,0,0.3,0,0.4,0
					c0-0.2-0.1-0.3-0.1-0.5c0-0.1-0.2-0.2-0.3-0.1c0,0-0.3,0.2-0.3,0.1c0-0.2-0.3-0.2-0.4-0.1c-0.3,0.2-0.5,0.5-0.7,0.8
					c0.1,0,0.3,0.1,0.4,0.1c0-0.4,0-0.8-0.3-1S44,41.6,43.8,41.9C43.2,41.9,43.6,42.1,43.8,41.9L43.8,41.9z"/>
			</g>
		</g>
	</g>
	<g>
		<path class="st4" d="M37.4,65.6c0,0,8.9-0.7,24-2.7c0,0,1.7,2.4,1.8,3.5s1.7,17.7,1.7,17.7s-0.5,1.8-1,2.6c0,0-27.9,3.6-28.9,3.5
			c0,0-1.1-8.6-0.8-10.3C34.5,78.2,32.1,69.6,37.4,65.6z"/>
		<g>
			<path class="st5" d="M37.4,66c5.5-0.5,11-1.1,16.5-1.8c1.3-0.2,2.6-0.3,3.9-0.5c0.7-0.1,1.4-0.2,2.1-0.3c0.3,0,0.7-0.1,1-0.1
				C61,63,61,63,61.1,63.1c0,0,0,0.1,0.1,0.1c0.5,0.3,0.9,1.4,1.2,1.9s0.4,1,0.5,1.6c0.3,2.4,0.5,4.9,0.7,7.3
				c0.3,2.8,0.5,5.6,0.8,8.4c0.1,0.5,0.2,1.2,0.2,1.7c0,0.4-0.6,1.4-0.7,2c-0.1,0.5,0.2,0.2-0.2,0.3c-0.5,0.2-1.3,0.2-1.8,0.2
				c-1,0.1-2.1,0.3-3.1,0.4c-2.9,0.4-5.8,0.7-8.8,1.1c-3.3,0.4-6.6,0.8-9.9,1.2c-1.6,0.2-3.4,0.6-5,0.5c0.1,0.1,0.3,0.3,0.4,0.4
				c-0.4-3.5-0.9-7.1-0.8-10.6c0.1-2-0.4-3.9-0.3-5.9c0.1-3,0.9-6,3.3-7.9c0.4-0.3-0.2-0.8-0.5-0.5c-2.2,1.8-3.2,4.3-3.5,7
				c-0.2,2.3,0.2,4.6,0.2,6.9c0,1.9,0,3.7,0.2,5.6c0.2,1.8,0.4,3.6,0.6,5.3c0,0.2,0.2,0.4,0.4,0.4c0.9,0.1,1.9-0.2,2.7-0.3
				c2-0.2,4-0.5,6-0.7c4.8-0.6,9.6-1.2,14.4-1.8c1.6-0.2,3.1-0.4,4.7-0.6c0.3,0,0.7,0,0.9-0.1c0.7-0.2,0.9-1.3,1.1-1.9
				c0.4-1.2,0.2-2.1,0.1-3.3c-0.2-2.3-0.4-4.6-0.6-6.9c-0.2-2.5-0.5-4.9-0.7-7.4c-0.1-0.6-0.1-1.1-0.2-1.7c-0.3-1.2-1.1-2.3-1.8-3.3
				c-0.1-0.1-0.2-0.2-0.3-0.2c-8,1.1-16,2.1-24,2.7C36.9,65.2,36.9,66,37.4,66z"/>
		</g>
	</g>
	<g>
		<path class="st6" d="M38.2,35.5c0,0,9.5,3.3,13.6-0.8C51.7,34.7,44.8,27.3,38.2,35.5z"/>
		<g>
			<path class="st7" d="M38,36c1.8,0.6,3.7,1,5.6,1.2c2.9,0.3,6.3,0.1,8.5-2.1c0.2-0.2,0.2-0.6,0-0.8c-1.2-1.3-3-2.3-4.7-2.8
				c-3.8-1.1-7.3,0.7-9.7,3.7c-0.5,0.6,0.3,1.4,0.8,0.8c1.3-1.6,2.8-3,4.8-3.5c1.3-0.4,2.7-0.2,4,0.2c1.4,0.5,2.9,1.4,3.9,2.5
				c0-0.3,0-0.5,0-0.8c-2.1,2.1-5.3,2.1-8,1.8c-1.7-0.2-3.4-0.5-5-1.1C37.6,34.7,37.3,35.8,38,36z"/>
		</g>
	</g>
	<g>
		<g>
			<path class="st7" d="M39.6,35c0,0.2,0,0.4,0,0.5s0,0.2,0.1,0.2c0.1,0.1,0.2,0.1,0.2,0.1c0.1,0,0.2,0,0.2-0.1
				c0.1-0.1,0.1-0.1,0.1-0.2c0-0.2,0-0.4,0-0.5s0-0.2-0.1-0.2c-0.1-0.1-0.2-0.1-0.2-0.1c-0.1,0-0.2,0-0.2,0.1
				C39.7,34.8,39.6,34.9,39.6,35L39.6,35z"/>
		</g>
	</g>
	<g>
		<g>
			<path class="st7" d="M41.6,35.5c0,0.2,0,0.5,0,0.7c0,0.1,0,0.2,0.1,0.2c0.1,0.1,0.2,0.1,0.2,0.1c0.2,0,0.3-0.2,0.3-0.3
				c0-0.2,0-0.5,0-0.7c0-0.1,0-0.2-0.1-0.2c-0.1-0.1-0.2-0.1-0.2-0.1C41.7,35.1,41.6,35.3,41.6,35.5L41.6,35.5z"/>
		</g>
	</g>
	<g>
		<ellipse transform="matrix(0.9937 -0.1123 0.1123 0.9937 -3.4359 5.1954)" class="st5" cx="44.4" cy="33.1" rx="4.5" ry="1.5"/>
		<g>
			<path class="st7" d="M48.3,32.6c0,0.1,0,0.1-0.1,0.2c-0.1,0.2-0.3,0.3-0.5,0.4c-0.5,0.3-1.2,0.5-1.8,0.6
				c-1.4,0.3-3.1,0.5-4.5,0.2c-0.2,0-0.4-0.1-0.6-0.2c-0.1,0-0.3-0.2-0.3-0.2c-0.1-0.1,0,0,0,0s0-0.1,0.1-0.1
				c0.1-0.1,0.3-0.2,0.4-0.3c1.2-0.7,2.8-1,4.1-1c0.8,0,1.6,0,2.3,0.1C47.7,32.4,47.9,32.4,48.3,32.6C48.2,32.6,48.2,32.6,48.3,32.6
				C48.4,32.8,48.3,32.7,48.3,32.6c0,0,0,0.1,0,0.2c0.1,0.7,1.2,0.4,1.1-0.3c-0.2-1.4-2.6-1.5-3.6-1.5c-1.8,0-3.9,0.2-5.5,1.2
				c-0.5,0.3-1,0.7-1,1.3s0.4,1,0.9,1.2c0.7,0.3,1.5,0.5,2.3,0.5c1.1,0.1,2.1,0,3.2-0.2c0.9-0.2,1.9-0.4,2.7-0.9
				c0.5-0.3,1.1-0.8,1.1-1.5C49.4,31.9,48.3,31.9,48.3,32.6z"/>
		</g>
	</g>
	<g>
		<g>
			<path class="st7" d="M43.9,35.5c0,0.3,0,0.6,0,0.9c0,0.2,0.2,0.4,0.3,0.3c0.2,0,0.3-0.2,0.3-0.3c0-0.3,0-0.6,0-0.9
				c0-0.2-0.2-0.4-0.3-0.3C44,35.1,43.9,35.3,43.9,35.5L43.9,35.5z"/>
		</g>
	</g>
	<g>
		<g>
			<path class="st7" d="M45.9,35.5C45.9,35.6,45.9,35.6,45.9,35.5C45.9,35.6,45.9,35.6,45.9,35.5c0.1,0.2,0.1,0.4,0.2,0.6
				c0,0.1,0.1,0.2,0.2,0.2c0.1,0,0.2,0.1,0.3,0c0.1,0,0.2-0.1,0.2-0.2V36c0-0.1,0-0.1,0-0.2c0-0.3-0.1-0.5-0.2-0.8
				c0-0.1-0.1-0.1-0.2-0.2c-0.1,0-0.2,0-0.3,0S46,34.9,45.9,35v0.1C45.8,35.4,45.9,35.5,45.9,35.5L45.9,35.5z"/>
		</g>
	</g>
	<g>
		<g>
			<path class="st7" d="M47.9,35.4C47.9,35.4,48,35.4,47.9,35.4C48,35.5,48,35.4,47.9,35.4c0.1,0.1,0.1,0.1,0.2,0.2c0,0,0,0-0.1-0.1
				c0,0.1,0.1,0.1,0.1,0.2v-0.1c0,0.1,0,0.1,0.1,0.2c0,0.1,0.1,0.2,0.2,0.2c0.1,0,0.2,0.1,0.3,0c0.1,0,0.2-0.1,0.2-0.2v-0.1
				c0-0.1,0-0.1,0-0.2c0-0.1,0-0.2-0.1-0.2c0-0.1-0.1-0.1-0.1-0.2c-0.1-0.2-0.2-0.3-0.4-0.4c-0.1,0-0.2-0.1-0.3,0
				c-0.1,0-0.2,0.1-0.2,0.2c0,0.1-0.1,0.2,0,0.3C47.8,35.3,47.8,35.4,47.9,35.4L47.9,35.4z"/>
		</g>
	</g>
	<g>
		<g>
			<path class="st7" d="M49.9,34.7L49.9,34.7L49.9,34.7L49.9,34.7C50,34.7,49.9,34.7,49.9,34.7L49.9,34.7C50,34.7,50,34.7,49.9,34.7
				c0.1,0,0.2,0.1,0.2,0.1s0,0-0.1-0.1l0.1,0.1c0,0,0,0-0.1-0.1l0.1,0.1v-0.1v0.1c0,0.1,0.1,0.2,0.2,0.2c0.1,0,0.2,0.1,0.3,0
				c0.1,0,0.2-0.1,0.2-0.2v-0.1c0-0.1,0-0.1,0-0.2c0-0.1-0.1-0.2-0.1-0.3c-0.1-0.1-0.2-0.2-0.3-0.3s-0.2-0.1-0.3-0.1s-0.1,0-0.2,0
				c-0.1,0-0.1,0-0.2,0c-0.1,0-0.2,0.1-0.2,0.2c0,0.1-0.1,0.2,0,0.3c0,0.1,0.1,0.2,0.2,0.2h0.1C49.8,34.7,49.9,34.7,49.9,34.7
				L49.9,34.7z"/>
		</g>
	</g>
	<g>
		<ellipse class="st8" cx="44.1" cy="57" rx="4.2" ry="4.8"/>
		<g>
			<path class="st7" d="M47.7,57c0,1.6-0.8,3.3-2.4,4c-1.5,0.6-3.1,0-4-1.3c-1-1.4-1.1-3.4-0.3-4.9c0.7-1.4,2.2-2.3,3.8-1.9
				C46.7,53.3,47.7,55.2,47.7,57c0,0.7,1.1,0.7,1.1,0c0-2.1-1.1-4.2-3.2-5.1c-1.9-0.8-4,0-5.2,1.6c-1.3,1.8-1.4,4.3-0.4,6.2
				c0.9,1.8,2.9,2.9,4.9,2.5c2.4-0.5,3.8-3,3.8-5.3C48.9,56.3,47.7,56.3,47.7,57z"/>
		</g>
	</g>
	<g>
		<g>
			<path class="st7" d="M43.9,57c-0.6,0.7-1.1,2.3,0.2,2.6c0.3,0.1,0.5,0.1,0.8,0c0.1,0,0.2,0,0.2-0.1c0.1,0,0.1,0,0,0s-0.1,0,0.1,0
				c0.4-0.1,0.8-0.2,1.1-0.4c0.5-0.3,0.7-0.9,0.5-1.5c-0.2-0.5-0.5-0.7-1-0.9c-0.4-0.2-0.9-0.3-1.3-0.2c-0.2,0.1-0.4,0.2-0.6,0.3
				c0,0,0,0-0.1,0.1c-0.4,0.5,0,0,0.1-0.1c-0.4,0.3-0.7,0.9-0.4,1.4c0.3,0.4,0.9,0.7,1.4,0.4c0.1-0.1,0.2-0.1,0.3-0.2
				c0.2-0.3,0.2-0.3,0-0.1c0.1-0.1,0-0.1-0.1,0.1c-0.1,0.1-0.3,0.2-0.5,0.1c0.1,0,0.1,0,0.2,0.1c-0.1,0-0.1,0,0.1,0
				c0.3,0.2,0.2,0-0.2-0.7c0.1-0.2,0.2-0.3,0.3-0.5c0-0.1,0.3-0.1,0.1,0c-0.1,0-0.1,0-0.2,0.1c-0.1,0-0.1,0-0.1,0
				c0.2,0-0.3,0-0.4,0.1h-0.1c-0.2,0-0.1,0.1,0.1,0c0.2,0.2,0.5,0.5,0.7,0.7c0,0.1,0,0.2,0,0.1c-0.1,0.2,0.1-0.1,0,0
				c0.4-0.4,0.4-1.1,0-1.5C45,56.6,44.3,56.6,43.9,57L43.9,57z"/>
		</g>
	</g>
	<g>
		<g>
			<path class="st7" d="M37.6,35.5c0.5,5.2,1,10.4,1.5,15.6c0.2,2.3,0.4,4.6,0.7,6.8c0.1,0.5,0.2,0.9,0.2,1.4c0,2.5-1.6,4.5-3.4,6.2
				c-2.8,2.7-3.4,6.9-3.3,10.6c0,1.2,0.2,2.5,0.3,3.7c0,0.4,0-0.1,0,0.3c0,0.5,0,1,0,1.5c0,1.7,0.1,3.4,0.3,5.2
				c0.1,1.4,0.2,3.1,0.8,4.4c0.3,0.6,0.5,0.9,1.2,0.9c0.8,0,1.6-0.1,2.4-0.2c6.4-0.6,12.8-1.1,19.2-1.7c1.3-0.1,3.1,0,4.3-0.4
				c2-0.7,3.8-4.1,3.6-6.1c-0.4-5.6-1-11.1-1.6-16.7c-0.2-2-1.3-3.9-2.7-5.3c-2.6-2.8-7.4-3.8-7.9-8.2C53,51.7,53,49.8,52.9,48
				c-0.2-3.4-0.3-6.7-0.5-10.1c-0.1-1.2,0.3-3.1-0.7-4c-2.3-2-5.3-3.3-8.4-2.7c-2.3,0.5-4.2,2.1-5.6,3.9c-0.4,0.6,0.4,1.4,0.8,0.8
				c1.6-2,3.7-3.7,6.3-3.7c1.7,0,3.2,0.6,4.6,1.5c0.5,0.3,0.9,0.6,1.3,1c0.1,0.1,0.2,0.3,0.3,0.3c0.4,0.1-0.5,0.4,0-0.3
				c-0.2,0.3,0.1,1.5,0.1,1.8c0.3,5.5,0.5,11,0.8,16.5c0.1,1.9,1,3.7,2.4,5.1c1.8,1.9,4.4,2.6,6.1,4.6c0.9,1,1.7,2.3,2.1,3.6
				c0.1,0.4,0-0.1,0,0.2c0,0.3,0.1,0.6,0.1,0.9c0.1,1.3,0.2,2.6,0.4,3.8c0.3,3.2,0.6,6.4,0.9,9.5c0.1,1,0.3,2,0.3,2.9
				c0,1.4-0.8,2.9-1.7,3.9c-0.4,0.4-0.7,0.6-1.2,1c-0.3,0.2,0.3,0-0.1,0c-0.7,0-1.3,0.1-2,0.2C53.1,89.2,47,89.8,41,90.3
				c-1.8,0.2-3.5,0.3-5.3,0.5h-0.1c0.6,0,0.2,0.2,0.1-0.3c-0.1-0.7-0.4-1.4-0.5-2.1c-0.3-1.7-0.3-3.4-0.4-5.1
				c-0.1-1.7-0.1-3.4-0.3-5.2c-0.4-3.5-0.3-7.7,1.7-10.7c0.6-1,1.6-1.6,2.3-2.5c0.8-0.9,1.5-1.9,1.9-3c0.5-1.2,0.7-2.5,0.5-3.8
				c0-0.3-0.1-0.3-0.1-0.2c0-0.2,0-0.5-0.1-0.7c-0.1-1-0.2-2-0.3-2.9c-0.6-5.9-1.2-11.8-1.7-17.7c0-0.4-0.1-0.9-0.1-1.3
				C38.7,34.8,37.5,34.8,37.6,35.5z"/>
		</g>
	</g>
	<g>
		<g>
			<path class="st7" d="M39.7,67.6c-0.6,0-1.2,0.5-1.3,1.1c-0.1,0.7,0.3,1.2,0.8,1.6c0.3,0.2,0.6,0.4,0.8,0.6
				c0.2,0.1,0.3,0.3,0.4,0.4c0.1,0.1,0.3,0.2,0.3,0.3c0,0.1-0.2,0.2-0.3,0.3c-0.1,0.1-0.3,0.2-0.5,0.2c-0.3,0.1-0.7,0.2-1,0.1
				c-0.2,0-0.4,0-0.4,0.2s0.1,0.4,0.2,0.4c0.7,0.1,1.4,0,2-0.4c0.3-0.2,0.6-0.5,0.6-0.9s-0.3-0.7-0.6-0.9c-0.3-0.3-0.6-0.5-0.9-0.7
				c-0.3-0.2-0.5-0.3-0.7-0.6c-0.2-0.2-0.2-0.4-0.1-0.7c0.1-0.2,0.3-0.4,0.6-0.4C40.1,68.3,40.1,67.6,39.7,67.6L39.7,67.6z"/>
		</g>
	</g>
	<g>
		<ellipse class="st8" cx="51.2" cy="56.9" rx="3.9" ry="5.2"/>
		<g>
			<path class="st7" d="M54.5,56.9c0,1.6-0.6,3.5-2.2,4.3c-1.4,0.7-2.9-0.1-3.7-1.4c-0.9-1.5-1-3.6-0.3-5.3c0.6-1.4,1.9-2.6,3.5-2.2
				C53.7,52.9,54.5,55.2,54.5,56.9c0,0.7,1.1,0.7,1.1,0c0-2.1-0.9-4.5-2.9-5.4c-1.9-0.9-3.9,0.1-5,1.8c-1.2,1.9-1.3,4.5-0.3,6.6
				c0.8,1.8,2.7,3.2,4.7,2.6c2.4-0.6,3.6-3.4,3.6-5.6C55.7,56.2,54.5,56.2,54.5,56.9z"/>
		</g>
	</g>
	<g>
		<g>
			<path class="st7" d="M45.1,67.7c-0.4,0.1-0.9-0.1-1.3,0.1c-0.4,0.2-0.7,0.5-0.8,1c0,0.2-0.1,0.4-0.1,0.6s0,0.5,0.1,0.7
				c0.3,0.5,0.9,0.4,1.3,0.1c0.2-0.2,0.3-0.4,0.5-0.7c0.2-0.3,0.3-0.5,0.5-0.8c-0.2,0-0.4,0-0.6,0c0.5,0.7,1,1.4,1.3,2.2
				c0.1,0.2,0.3,0.2,0.5,0.1s0.2-0.3,0.1-0.5c-0.4-0.8-0.8-1.5-1.3-2.2c-0.2-0.2-0.4-0.2-0.6,0c-0.1,0.2-0.3,0.4-0.4,0.6
				c-0.1,0.2-0.2,0.4-0.4,0.6c-0.1,0.1-0.2,0.2-0.3,0.2c0-0.1,0-0.3,0-0.4c0-0.3,0-0.7,0.3-0.8c0.2-0.1,0.3-0.1,0.5-0.1s0.4,0,0.7,0
				c0.2,0,0.3-0.1,0.3-0.3C45.4,67.9,45.3,67.7,45.1,67.7L45.1,67.7z"/>
		</g>
	</g>
	<g>
		<g>
			<path class="st7" d="M47.4,68.4c0.2,0.4,0.4,0.8,0.4,1.2c0,0.3,0.6,0.3,0.7,0c0.1-0.4,0.1-0.8,0.2-1.2c0-0.1,0-0.2,0.1-0.3
				c0.1,0,0.2,0,0.3,0.1c0.2,0.2,0.3,0.6,0.4,0.9c0.1,0.4,0.2,0.8,0.4,1.2c0.1,0.3,0.6,0.3,0.7,0c0.2-0.5,0.3-1.1,0.7-1.6
				c0-0.1,0.1-0.1,0.1-0.1s0,0,0.1-0.1c0.1,0,0.1-0.1,0-0.1l0,0c0,0,0,0.1,0.1,0.1c0,0.1,0.1,0.1,0.1,0.2c0.2,0.3,0.3,0.6,0.4,0.9
				c0.1,0.4,0.8,0.2,0.7-0.2c-0.2-0.6-0.7-2.3-1.6-1.6c-0.6,0.5-0.9,1.4-1.1,2.2c0.2,0,0.4,0,0.7,0c-0.2-0.5-0.3-1-0.5-1.5
				c-0.1-0.4-0.3-0.9-0.8-1.1c-0.4-0.2-0.9,0-1.1,0.4c-0.2,0.4-0.2,1-0.3,1.5c0.2,0,0.4,0,0.7,0c-0.1-0.5-0.2-1-0.5-1.4
				C47.8,67.6,47.2,68,47.4,68.4L47.4,68.4z"/>
		</g>
	</g>
	<g>
		<g>
			<path class="st7" d="M53.9,67.4c0,0.4-0.1,0.8,0.2,1.2c0.3,0.4,0.7,0.5,1.2,0.5c0.4-0.1,0.8-0.4,1-0.7c0.1-0.1,0.1-0.2,0.1-0.3
				c0,0,0-0.1,0.1-0.1c0,0,0.1-0.1,0.1-0.2l0,0h-0.1c-0.1,0-0.2-0.2-0.2-0.1c0,0,0,0.1,0,0.2s0,0.1,0.1,0.2c0.1,0.6,0.3,1.1,0.4,1.7
				c0.1,0.4,0.8,0.2,0.7-0.2c-0.1-0.5-0.2-1-0.4-1.5c0-0.1-0.1-0.2-0.1-0.3c0-0.1-0.1-0.3-0.1-0.4c-0.1-0.2-0.4-0.3-0.7-0.2
				c-0.2,0.1-0.3,0.3-0.4,0.6c0,0.2-0.1,0.3-0.2,0.4c-0.1,0.1-0.2,0.2-0.4,0.3c-0.1,0-0.1,0-0.2,0c-0.1,0,0,0-0.1,0h-0.1
				c-0.1,0-0.1-0.1-0.1-0.1c0-0.1-0.1-0.1-0.1-0.2l0,0v-0.1c0-0.1,0-0.1,0-0.2s0-0.2,0-0.3c0-0.2-0.2-0.3-0.3-0.3
				C54.1,67,54,67.2,53.9,67.4L53.9,67.4z"/>
		</g>
	</g>
	<g>
		<g>
			<path class="st7" d="M58.8,66.6c-0.3-0.2-0.7-0.1-0.9,0.1s-0.3,0.6-0.4,0.9c-0.2,0.6-0.2,1.3,0,1.9c0.2,0.5,0.7,1.2,1.3,0.9
				c0.3-0.1,0.4-0.4,0.5-0.8c0.1-0.3,0.2-0.6,0.2-1s0-0.7,0-1.1S59.4,66.6,58.8,66.6c0,0.1-0.2,0.3-0.2,0.4c0.1,1.2,0.4,2.3,0.8,3.4
				c0.1,0.2,0.2,0.3,0.4,0.2c0.2,0,0.3-0.2,0.2-0.4c-0.4-1-0.7-2.1-0.8-3.2c-0.1,0.1-0.2,0.2-0.3,0.3l0,0c-0.1,0-0.2,0-0.3,0
				c-0.1-0.1-0.1-0.1-0.1,0c0,0,0,0,0,0.1s0,0.1,0,0.2s0,0.3,0,0.4c0,0.3,0,0.5-0.1,0.7c0,0.3-0.1,0.5-0.2,0.8c0,0-0.1,0.1,0,0.1
				c-0.1,0-0.2-0.1-0.2-0.1c-0.3-0.3-0.4-0.9-0.4-1.3c0-0.3,0.1-0.5,0.2-0.8c0-0.1,0.1-0.2,0.1-0.3c0,0,0-0.1,0.1-0.1l0,0
				C58.9,67.5,59.2,66.9,58.8,66.6L58.8,66.6z"/>
		</g>
	</g>
	<g>
		<g>
			<path class="st7" d="M60.6,65.2c-0.1,0.8,0.1,1.5,0.3,2.2s0.3,1.5,0.4,2.3c0,0.4,0.7,0.4,0.7,0c-0.1-0.7-0.1-1.5-0.3-2.2
				s-0.5-1.4-0.3-2.1C61.3,65,60.6,64.8,60.6,65.2L60.6,65.2z"/>
		</g>
	</g>
	<g>
		<g>
			<path class="st7" d="M44,80.6c-0.5-0.1-1.1,0.1-1.5,0.5s-0.5,1-0.3,1.6c0.1,0.3,0.2,0.5,0.3,0.8c0.2,0.3,0.3,0.5,0.7,0.5
				c0.6,0,1-0.5,1.1-1c0.1-0.3,0.1-0.6,0.1-0.8c0-0.3,0.1-0.7,0.1-1c-0.2,0.1-0.4,0.1-0.6,0.2c0.4,0.8,0.6,1.5,0.9,2.3
				c0.1,0.2,0.2,0.3,0.4,0.2c0.2,0,0.3-0.2,0.2-0.4c-0.3-0.8-0.6-1.7-1-2.5c-0.1-0.1-0.3-0.2-0.4-0.2c-0.2,0-0.2,0.2-0.3,0.3
				c0,0.2,0,0.5-0.1,0.7c0,0.1,0,0.2,0,0.3c0,0.1,0,0.2,0,0.2c0,0.2-0.1,0.4-0.1,0.5c-0.1,0.1-0.1,0.3-0.3,0.4c0,0-0.1,0.1-0.1,0H43
				l0,0v-0.1c-0.1-0.2-0.2-0.4-0.3-0.5c-0.1-0.4-0.1-0.7,0-1c0.1-0.2,0.2-0.3,0.4-0.4c0.1-0.1,0.3-0.1,0.5-0.1S44,81,44,80.9
				C44.3,80.9,44.2,80.7,44,80.6L44,80.6z"/>
		</g>
	</g>
	<g>
		<g>
			<path class="st7" d="M48.9,79.8c-0.7-0.2-1.3,0.5-1.6,1c-0.3,0.6-0.5,1.4-0.2,2c0.1,0.4,0.4,0.5,0.8,0.6c0.4,0,0.7,0,1-0.2
				c0.6-0.4,0.6-1.3,0.6-1.9c0-0.9,0-1.9-0.2-2.8c-0.2,0.1-0.4,0.2-0.6,0.3c0.9,1.5,1,3.3,2.1,4.7c0.3,0.3,0.8-0.1,0.5-0.5
				c-0.5-0.6-0.8-1.4-1.1-2.2c-0.3-0.8-0.5-1.6-1-2.3c-0.2-0.3-0.7-0.1-0.6,0.3c0.2,0.7,0.2,1.5,0.2,2.3c0,0.4,0,0.7-0.1,1.1
				c0,0.2-0.1,0.6-0.3,0.7c-0.1,0.1-0.3,0.1-0.4,0c-0.1,0-0.3,0-0.3-0.1c-0.1-0.3,0-0.6,0-0.9c0.1-0.3,0.2-0.6,0.4-0.9
				c0.1-0.2,0.4-0.5,0.6-0.4C49.1,80.6,49.3,80,48.9,79.8L48.9,79.8z"/>
		</g>
	</g>
	<g>
		<g>
			<path class="st7" d="M52.1,81c-0.1,0.5,0.2,0.9,0.6,1.2c0.4,0.2,0.9,0.3,1.2,0c0.3-0.2,0.5-0.6,0.6-1s0-0.9,0.2-1.3
				c-0.2,0-0.4,0-0.6,0c0.2,0.3,0.3,0.7,0.4,1.1c0.1,0.4,0.3,0.8,0.6,1.1c0.3,0.3,0.8-0.2,0.5-0.5c-0.2-0.3-0.3-0.6-0.4-0.9
				c-0.1-0.4-0.2-0.8-0.4-1.1c-0.1-0.2-0.5-0.2-0.6,0C54,79.9,54,80.3,54,80.7c0,0.3-0.1,0.5-0.2,0.8c-0.1,0.1-0.1,0.1-0.2,0.2
				c-0.1,0,0,0-0.1,0h-0.1c0,0-0.1,0-0.2,0c-0.1,0-0.2-0.1-0.3-0.2s-0.1-0.2-0.1-0.2c0-0.2-0.1-0.4-0.2-0.4
				C52.4,80.7,52.1,80.8,52.1,81L52.1,81z"/>
		</g>
	</g>
	<g>
		<g>
			<path class="st7" d="M56.1,79.3c0.1,0.7,0.3,1.4,0.5,2.1c0.1,0.4,0.7,0.3,0.7-0.1c0-0.5,0-1.2,0.4-1.5c0,0,0.1,0,0.1-0.1h0.1
				c0,0,0,0-0.1,0h-0.1l0,0c0,0,0,0,0,0.1s0,0.2,0,0.2c0.1,0.3,0.1,0.7,0.1,1s0.5,0.5,0.6,0.2s0.1-0.5,0.1-0.8c0-0.1,0-0.2,0-0.3
				l0,0l0,0c0.1,0,0,0,0,0s-0.1-0.1,0,0l0.1,0.1c0.1,0.1,0.1,0.2,0.2,0.3c0.1,0.2,0.2,0.5,0.2,0.8c0,0.2,0.3,0.3,0.4,0.2
				c0.2-0.1,0.3-0.2,0.2-0.4c-0.1-0.4-0.2-0.7-0.3-1c-0.2-0.3-0.4-0.6-0.8-0.6c-0.4,0-0.6,0.3-0.7,0.6c0,0.2,0,0.3,0,0.4
				s0.1,0.3,0,0.4c0.2,0.1,0.4,0.1,0.6,0.2c0-0.5,0-0.9-0.1-1.4c0-0.2-0.1-0.4-0.3-0.5s-0.5-0.1-0.7,0.1c-0.8,0.4-0.8,1.4-0.8,2.2
				c0.2,0,0.4-0.1,0.7-0.1c-0.2-0.7-0.4-1.4-0.5-2.1c0-0.2-0.3-0.3-0.4-0.2C56.1,78.9,56.1,79.1,56.1,79.3L56.1,79.3z"/>
		</g>
	</g>
	<g>
		<path class="st8" d="M45.7,72.6c-1,0.2-1.9,0.4-2.8,0.8c-0.2,0.1-0.4,0.2-0.6,0.3c-0.4,0.4-0.5,1-0.3,1.6s0.6,0.9,1,1.3
			c0.5,0.5,1.1,1.1,1.8,1.4c1,0.6,2.3,0.7,3.5,0.4c0.4-0.1,0.9-0.3,1.3-0.5c0.9-0.5,2-1,2.4-1.9c0.2-0.5,0.3-1.1,0.3-1.7
			c0-0.4,0-0.8-0.2-1.2c-0.3-0.5-0.8-0.8-1.4-0.9c-0.6-0.1-1.2,0-1.7,0.1C47.7,72.4,46.8,72.4,45.7,72.6"/>
		<g>
			<path class="st7" d="M45.6,72c-1,0.2-2.1,0.5-3.1,0.9c-0.9,0.4-1.2,1.3-1.1,2.2c0.2,1,1.1,1.7,1.7,2.4c0.8,0.7,1.6,1.3,2.6,1.5
				c1.9,0.5,3.9-0.3,5.5-1.4c0.8-0.6,1.3-1.3,1.5-2.2c0.2-0.9,0.2-2.1-0.4-2.9c-0.7-0.9-1.9-1-2.9-0.9C48.1,71.8,46.8,71.9,45.6,72
				c-0.7,0.1-0.4,1.2,0.3,1.1c0.8-0.1,1.6-0.2,2.4-0.3c0.8-0.1,1.7-0.4,2.5-0.1s0.9,1,0.9,1.7c0,0.8-0.2,1.4-0.8,1.9
				c-0.5,0.4-1.1,0.7-1.7,1c-0.7,0.3-1.4,0.6-2.3,0.6c-1.6,0.1-2.9-1-3.9-2.2c-0.3-0.3-0.5-0.7-0.5-1.1s0.3-0.6,0.6-0.7
				c0.9-0.3,1.8-0.6,2.7-0.8C46.6,73,46.3,71.9,45.6,72L45.6,72z"/>
		</g>
	</g>
	<g>
		<g>
			<path class="st7" d="M38.5,91.7c-0.1,1.1,0,2.3,0.3,3.4c0.1,0.3,0.4,0.5,0.7,0.4s0.5-0.4,0.4-0.7c-0.2-0.5-0.3-1-0.3-1.5
				s0-1.1,0-1.6c0-0.3-0.3-0.6-0.6-0.6C38.7,91.2,38.6,91.4,38.5,91.7L38.5,91.7z"/>
		</g>
	</g>
	<g>
		<g>
			<path class="st7" d="M51.3,59.7C51.4,59.6,51.1,59.8,51.3,59.7c0,0,0.1,0,0.1-0.1c0.1-0.1,0.2-0.2,0.3-0.3c0,0,0-0.1,0.1-0.1
				c0-0.1,0.1-0.1-0.1,0.1c0.1-0.1-0.1,0.1-0.1,0.1c-0.1,0-0.3,0.1-0.4,0.1c-0.2,0-0.3,0-0.4-0.1c-0.2-0.2-0.3-0.4-0.2-0.7
				c0-0.1,0.1-0.2,0.1-0.3l0.1-0.1c-0.1,0-0.1,0,0,0c0.2-0.1,0,0,0,0c-0.1,0,0,0,0.1,0s0.1,0,0.2,0c0,0,0.2,0.1,0.1,0l-0.1-0.1
				c0.1,0.1,0.2,0.2,0.4,0.4l0,0c0,0.3,0.1,0.5,0.1,0.8c0,0.1,0,0.1-0.1,0.2c0.3-0.4,0.1-1.2-0.4-1.4c-0.5-0.3-1.1-0.1-1.4,0.4
				C49.3,59,49.5,59.7,50,60c0.3,0.2,0.6,0.3,1,0.3c0.8,0,1.6-0.7,1.6-1.5c0-0.9-0.8-1.6-1.7-1.4c-0.4,0.1-0.7,0.4-0.9,0.7
				c0,0,0,0.1-0.1,0.1c-0.1,0.1,0.1-0.1,0-0.1c-0.1,0.1,0.2-0.2,0.1-0.1c-0.1,0.1-0.2,0.1-0.3,0.2c-0.4,0.4-0.4,1.1,0,1.5
				C50.2,60.1,50.9,60.2,51.3,59.7L51.3,59.7z"/>
		</g>
	</g>
	<g>
		<path class="st8" d="M39.3,95.7c-0.5,0.2-1,0.4-1.5,0.6s-1,0.4-1.4,0.8s-0.7,0.9-0.6,1.4c1.3,0,2.7,0.1,4,0c0.9,0,1.9-0.1,2.8-0.3
			c0.2,0,0.3-0.1,0.4-0.2c0.1-0.2,0-0.5-0.2-0.7c-0.9-1.1-2.3-1.8-3.7-2"/>
		<g>
			<path class="st7" d="M39.2,95.1c-1.5,0.7-4.1,1.3-3.8,3.5c0,0.3,0.3,0.4,0.5,0.4c1.3,0,2.7,0.1,4,0c0.6,0,1.2-0.1,1.8-0.1
				c0.5-0.1,1.3,0,1.7-0.4c0.9-0.9-0.5-2.1-1.2-2.6c-0.9-0.6-1.9-1-3-1.1c-0.3,0-0.6,0.3-0.6,0.6c0,0.3,0.3,0.5,0.6,0.6
				c0.8,0.1,1.5,0.4,2.2,0.8c0.3,0.2,0.6,0.5,0.9,0.7c0.1,0.1,0.1,0.2,0.2,0.2c0,0,0,0.1,0.1,0.1c0.2-0.2,0.2-0.2,0.1-0.2
				c-0.1,0-0.2,0-0.3,0s-0.3,0-0.4,0.1c-2,0.3-4,0.3-6.1,0.2c0.2,0.1,0.4,0.3,0.5,0.4c-0.1-0.6,0.6-1,1-1.3c0.6-0.3,1.3-0.6,2-0.8
				c0.3-0.1,0.5-0.4,0.4-0.7C39.8,95.2,39.4,95,39.2,95.1L39.2,95.1z"/>
		</g>
	</g>
	<g>
		<g>
			<path class="st7" d="M36.3,98.1c0,0.4,0,0.7,0,1.1c0,0.1,0.1,0.3,0.2,0.4c0.1,0.1,0.3,0.2,0.4,0.2c0.1,0,0.3-0.1,0.4-0.2
				c0.1-0.1,0.2-0.2,0.2-0.4c0-0.4,0-0.7,0-1.1c0-0.1-0.1-0.3-0.2-0.4c-0.1-0.1-0.3-0.2-0.4-0.2c-0.1,0-0.3,0.1-0.4,0.2
				C36.4,97.8,36.3,97.9,36.3,98.1L36.3,98.1z"/>
		</g>
	</g>
	<g>
		<g>
			<path class="st7" d="M37.8,97.9c0,0.4,0,0.8,0,1.2c0,0.1,0.1,0.3,0.2,0.4c0.1,0.1,0.3,0.2,0.4,0.2c0.3,0,0.6-0.3,0.6-0.6
				c0-0.4,0-0.8,0-1.2c0-0.1-0.1-0.3-0.2-0.4c-0.1-0.1-0.3-0.2-0.4-0.2C38.1,97.3,37.8,97.6,37.8,97.9L37.8,97.9z"/>
		</g>
	</g>
	<g>
		<g>
			<path class="st7" d="M39.6,97.8c0,0.3,0,0.6,0,0.9c0,0.1,0.1,0.3,0.2,0.4c0.1,0.1,0.3,0.2,0.4,0.2c0.1,0,0.3-0.1,0.4-0.2
				c0.1-0.1,0.2-0.2,0.2-0.4c0-0.3,0-0.6,0-0.9c0-0.1-0.1-0.3-0.2-0.4c-0.1-0.1-0.3-0.2-0.4-0.2c-0.1,0-0.3,0.1-0.4,0.2
				C39.6,97.5,39.6,97.6,39.6,97.8L39.6,97.8z"/>
		</g>
	</g>
	<g>
		<g>
			<path class="st7" d="M41.5,97.9c0,0.4,0,0.7,0,1.1c0,0.1,0.1,0.3,0.2,0.4c0.1,0.1,0.3,0.2,0.4,0.2c0.1,0,0.3-0.1,0.4-0.2
				c0.1-0.1,0.2-0.2,0.2-0.4c0-0.4,0-0.7,0-1.1c0-0.1-0.1-0.3-0.2-0.4c-0.1-0.1-0.3-0.2-0.4-0.2c-0.1,0-0.3,0.1-0.4,0.2
				S41.5,97.7,41.5,97.9L41.5,97.9z"/>
		</g>
	</g>
	<g>
		<g>
			<path class="st7" d="M60.5,89.5c-0.1,0.7,0,1.3,0.2,1.9c0.1,0.1,0.1,0.3,0.2,0.4c0-0.1,0,0.1,0.1,0.1c0,0.1,0,0.1,0,0.2
				c0.1,0.3,0.1,0.4,0.1,0.8c0,0.3,0.2,0.6,0.6,0.6c0.3,0,0.6-0.3,0.6-0.6c0-0.3-0.1-0.6-0.1-0.9c-0.1-0.3-0.2-0.6-0.3-0.9
				s-0.2-0.4-0.2-0.7c0,0,0-0.2,0-0.1c0-0.1,0-0.2,0-0.2c0-0.1,0-0.1,0-0.2v-0.1c0,0.1,0,0,0,0c0-0.3-0.1-0.6-0.4-0.7
				C60.9,89,60.5,89.1,60.5,89.5L60.5,89.5z"/>
		</g>
	</g>
	<g>
		<path class="st8" d="M61.7,92.9c-0.7,0.4-1.4,0.9-2.2,1.3c-0.4,0.2-0.8,0.5-1,0.9s-0.2,1,0.2,1.2c0.2,0.1,0.5,0.1,0.7,0.1
			c0.6,0,1.1-0.1,1.7-0.1c0.2,0,0.4-0.1,0.6-0.1c0.1,0,0.3,0,0.4-0.1c0.9-0.1,1.7-0.3,2.6-0.4c0.1,0,0.3,0,0.4-0.1s0.2-0.3,0.3-0.4
			c0.2-0.7,0.1-1.5-0.4-2c-0.4-0.5-1.1-0.7-1.8-0.8c-0.6-0.1-1.4,0.1-1.8,0.6"/>
		<g>
			<path class="st7" d="M61.4,92.4c-0.7,0.4-1.4,0.9-2.2,1.3c-0.5,0.3-1.1,0.7-1.3,1.4c-0.2,0.6,0,1.3,0.5,1.7
				c0.6,0.4,1.5,0.2,2.2,0.1c0.8-0.1,1.6-0.2,2.4-0.4c0.4-0.1,0.7-0.1,1.1-0.2s0.8-0.1,1.2-0.3c0.6-0.3,0.8-1.2,0.8-1.8
				c-0.1-0.7-0.4-1.3-0.9-1.8c-1.1-0.9-3.2-1.2-4.1,0c-0.2,0.2-0.2,0.6,0,0.8c0.2,0.2,0.6,0.2,0.8,0c0.5-0.7,1.6-0.5,2.3-0.1
				c0.4,0.2,0.6,0.6,0.7,1c0,0.2,0,0.4,0,0.6s-0.1,0.3-0.3,0.4c-1.1,0.2-2.3,0.4-3.5,0.6c-0.6,0.1-1.1,0.1-1.7,0.1
				c-0.3,0-0.5-0.1-0.4-0.4c0.2-0.4,0.8-0.7,1.1-0.9c0.6-0.4,1.2-0.7,1.8-1.1C62.6,93,62,92,61.4,92.4L61.4,92.4z"/>
		</g>
	</g>
	<g>
		<g>
			<path class="st7" d="M59.8,95.5c0,0.4,0,0.8,0,1.3c0,0.1,0.1,0.3,0.2,0.4c0.1,0.1,0.3,0.2,0.4,0.2c0.1,0,0.3-0.1,0.4-0.2
				c0.1-0.1,0.2-0.2,0.2-0.4c0-0.4,0-0.8,0-1.3c0-0.1-0.1-0.3-0.2-0.4c-0.1-0.1-0.3-0.2-0.4-0.2c-0.1,0-0.3,0.1-0.4,0.2
				C59.9,95.2,59.8,95.3,59.8,95.5L59.8,95.5z"/>
		</g>
	</g>
	<g>
		<g>
			<path class="st7" d="M61.8,95.1c0,0.5,0,1.1,0,1.6c0,0.3,0.3,0.6,0.6,0.6S63,97,63,96.7c0-0.5,0-1.1,0-1.6c0-0.3-0.3-0.6-0.6-0.6
				C62,94.6,61.8,94.8,61.8,95.1L61.8,95.1z"/>
		</g>
	</g>
	<g>
		<g>
			<path class="st7" d="M63.3,94.9c0,0.5,0,1.1,0,1.6c0,0.3,0.3,0.6,0.6,0.6s0.6-0.3,0.6-0.6c0-0.5,0-1.1,0-1.6
				c0-0.3-0.3-0.6-0.6-0.6C63.5,94.3,63.3,94.6,63.3,94.9L63.3,94.9z"/>
		</g>
	</g>
	<g>
		<g>
			<path class="st7" d="M35.2,71.6c-0.4,0.2-0.6,0.6-0.6,1c-0.1,0.5-0.2,1-0.2,1.5c0,0.4-0.1,1.2,0.4,1.3c0.5,0.2,1-0.2,1.4-0.4
				c0.4-0.2,0.9-0.3,1.3-0.3c0.5-0.1,1-0.1,1.3-0.5s0-0.9-0.2-1.4c-0.2-0.4-0.4-0.8-0.8-1.1c-0.5-0.3-1-0.3-1.6-0.3
				c-0.4,0-1.2,0-1.3,0.5c0,0.2,0,0.4,0.2,0.4s0.4-0.1,0.4-0.2c0,0.1-0.1,0,0,0s0.1,0,0.2,0c0.2,0,0.3,0,0.5,0c0.3,0,0.7,0.1,1,0.2
				s0.4,0.2,0.6,0.5c0.2,0.3,0.3,0.6,0.4,0.9c0,0.1,0.1,0.2,0,0.2C38.1,74,38,74,37.8,74c-0.3,0-0.7,0.1-1,0.2s-0.6,0.2-1,0.3
				c-0.3,0.1-0.6,0.3-0.9,0.3c0.1,0,0.1,0,0.2,0c0,0.1,0,0.1,0,0v-0.1c0-0.1,0-0.1,0-0.2s0-0.2,0-0.4c0-0.3,0.1-0.5,0.1-0.8
				s0.1-0.5,0.1-0.8c0-0.1,0-0.4,0.1-0.4c0.2-0.1,0.3-0.2,0.2-0.4C35.6,71.6,35.4,71.5,35.2,71.6L35.2,71.6z"/>
		</g>
	</g>
	<g>
		<g>
			<path class="st7" d="M35.8,75c-0.8,0.6-1.1,1.7-1,2.7c0.1,0.5,0.3,1,0.7,1.3c0.4,0.2,0.9,0.3,1.3,0.3c1-0.1,1.9-0.7,2.4-1.6
				c0.3-0.5,0.4-1,0.3-1.6c-0.1-0.5-0.4-0.9-0.7-1.2c-1-0.8-2.3-0.7-3.3,0c-0.4,0.3,0,0.8,0.3,0.6c0.6-0.5,1.5-0.7,2.3-0.3
				c0.3,0.2,0.6,0.4,0.7,0.7c0.2,0.4,0.1,0.7,0,1.1c-0.3,0.7-0.9,1.2-1.6,1.4c-0.6,0.2-1.5,0.1-1.7-0.6c-0.1-0.4-0.1-0.9,0-1.3
				s0.3-0.8,0.6-1c0.1-0.1,0.2-0.3,0.1-0.5C36.2,75,36,74.9,35.8,75L35.8,75z"/>
		</g>
	</g>
	<g>
		<g>
			<path class="st7" d="M36.4,79.8c-0.1,1.1,0.5,2.2,0.7,3.3c0.3,1.1,0.4,2.3,0.8,3.4c0.1,0.4,0.8,0.2,0.7-0.2
				c-0.4-1.1-0.5-2.2-0.8-3.3c-0.1-0.6-0.3-1.1-0.5-1.6S37,80.3,37,79.8C37.2,79.4,36.5,79.4,36.4,79.8L36.4,79.8z"/>
		</g>
	</g>
	<g>
		<g>
			<path class="st7" d="M35,81.5c0.2,0,0.3,0,0.5,0c0,0,0.1,0,0,0l0,0h0.1c0.1,0,0.2,0,0.2,0.1c0,0,0,0,0.1,0c0,0,0.1,0,0,0l0,0
				c0,0,0,0,0.1,0s0.2,0.1,0.2,0.1s0.1,0,0.1,0.1l0,0l0,0c0.1,0.1,0.1,0.1,0.2,0.2c0.1,0.1,0.4,0.1,0.5,0s0.1-0.3,0-0.5
				c-0.5-0.6-1.4-0.9-2.2-0.8c-0.2,0-0.4,0.1-0.3,0.3C34.7,81.3,34.8,81.5,35,81.5L35,81.5z"/>
		</g>
	</g>
	<g>
		<g>
			<path class="st7" d="M37.5,82c0.3-0.9,0.9-1.7,1.6-2.3c0.1-0.1,0.1-0.4,0-0.5s-0.3-0.1-0.5,0c-0.8,0.7-1.4,1.6-1.7,2.6
				c-0.1,0.2,0.1,0.4,0.2,0.4C37.3,82.3,37.5,82.2,37.5,82L37.5,82z"/>
		</g>
	</g>
	<g>
		<g>
			<path class="st7" d="M38.1,86.2c-0.3,0-0.5,0.2-0.6,0.4c-0.1,0.2-0.2,0.4-0.3,0.6c-0.2,0.4-0.4,0.8-0.5,1.2
				c-0.1,0.2,0.1,0.4,0.2,0.4c0.2,0,0.4-0.1,0.4-0.2c0.1-0.2,0.1-0.3,0.2-0.5l0,0c0,0,0,0,0-0.1c0,0,0-0.1,0.1-0.1
				c0-0.1,0.1-0.2,0.1-0.3c0.1-0.2,0.2-0.3,0.3-0.5l0.1-0.1c0,0,0,0,0-0.1c0,0,0-0.1,0,0l0,0l0,0l0,0c0,0,0,0-0.1,0
				c0.2,0,0.4-0.1,0.3-0.3C38.4,86.4,38.3,86.2,38.1,86.2L38.1,86.2z"/>
		</g>
	</g>
	<g>
		<g>
			<path class="st7" d="M38.5,86.9L38.5,86.9C38.6,86.9,38.7,86.9,38.5,86.9C38.5,86.9,38.6,86.9,38.5,86.9c0.2,0,0.2,0,0.3,0h0.1
				l0,0c0,0,0,0,0.1,0s0.1,0,0.2,0.1h0.1c0.1,0,0,0,0,0l0,0c0.1,0,0.1,0.1,0.2,0.1l0,0c0,0,0.1,0,0,0l0,0l0,0c0.1,0,0.1,0.1,0.2,0.2
				c0.1,0.1,0.4,0.1,0.5,0s0.1-0.3,0-0.5c-0.5-0.5-1.2-0.8-1.9-0.6c-0.2,0-0.3,0.2-0.2,0.4C38.2,86.8,38.4,86.9,38.5,86.9L38.5,86.9
				z"/>
		</g>
	</g>
	<g>
		<g>
			<path class="st7" d="M58.9,71c-0.6,0.1-0.7,0.9-0.7,1.5c0,0.3,0,0.7,0.2,0.9c0.1,0.1,0.2,0.2,0.4,0.3c0.2,0,0.4-0.1,0.5-0.1
				c0.6-0.3,1.2-0.6,1.7-0.9c0.3-0.1,0.7-0.3,0.6-0.7c-0.1-0.3-0.5-0.5-0.8-0.6c-0.7-0.3-1.4-0.4-2.1-0.2c-0.2,0.1-0.3,0.2-0.2,0.4
				c0,0.2,0.2,0.3,0.4,0.2c0.4-0.1,0.7-0.1,1.1,0c0.2,0,0.4,0.1,0.6,0.2c0.1,0,0.2,0.1,0.2,0.1s0.1,0,0.1,0.1c0,0,0,0,0.1,0s0,0,0,0
				c0-0.1,0-0.1,0-0.2c0.1-0.2,0.2-0.2,0.1-0.2l0,0L61,71.9c-0.1,0.1-0.2,0.1-0.3,0.2c-0.2,0.1-0.4,0.2-0.6,0.3
				c-0.4,0.2-0.7,0.4-1.1,0.6c0,0-0.1,0-0.1,0.1c0.1-0.1,0.2,0.1,0.2,0.1l0,0l0,0v-0.1c0-0.2-0.1-0.4,0-0.5c0-0.2,0-0.3,0.1-0.5
				l0.1-0.1l0,0l0,0c0,0,0,0,0.1,0c0.2,0,0.3-0.3,0.2-0.4C59.3,71.1,59.1,71,58.9,71L58.9,71z"/>
		</g>
	</g>
	<g>
		<g>
			<path class="st7" d="M59.1,73.2c-0.1,0.3,0.1,0.7,0.3,0.9c0.2,0.2,0.5,0.4,0.7,0.6c0.6,0.4,1.3,0.1,1.8-0.4
				c0.4-0.5,0.6-1.1,0.5-1.7c0-0.3-0.1-0.6-0.3-0.9s-0.6-0.3-0.9-0.2c-0.2,0.1-0.3,0.2-0.5,0.3c-0.2,0.1-0.3,0.2-0.5,0.3
				c-0.3,0.2-0.7,0.4-1,0.6C59.1,72.9,59.1,73.1,59.1,73.2c0.2,0.3,0.4,0.3,0.6,0.2c0.4-0.3,0.9-0.6,1.3-0.9
				c0.2-0.1,0.4-0.3,0.6-0.3c0,0-0.1,0,0,0l0,0l0,0c0,0,0.1,0.1,0,0.1c0,0,0,0.1,0,0.2c0.1,0.4,0.1,0.8-0.1,1.2
				c-0.2,0.3-0.5,0.6-0.9,0.6c-0.2,0-0.4-0.3-0.6-0.4c-0.1-0.1-0.2-0.2-0.3-0.3l-0.1-0.1l0,0c0,0,0,0.1,0,0c0.1-0.2-0.1-0.4-0.2-0.4
				C59.3,72.9,59.1,73,59.1,73.2L59.1,73.2z"/>
		</g>
	</g>
	<g>
		<g>
			<path class="st7" d="M58.7,76.2c0.3,0,0.5-0.1,0.8-0.1s0.5,0,0.8-0.1c0.2-0.1,0.4-0.2,0.6-0.4c0.1-0.1,0.1-0.1,0.2-0.2l0.1-0.1
				l0,0c0,0,0,0,0.1,0c0.2-0.1,0.2-0.3,0.1-0.5c-0.1-0.2-0.3-0.2-0.5-0.1s-0.3,0.2-0.4,0.4c-0.1,0.1-0.1,0.1-0.2,0.2l0,0l0,0
				c0,0,0,0-0.1,0l0,0c-0.2,0.1-0.4,0.1-0.6,0.1c-0.2,0-0.5,0.1-0.7,0.1s-0.3,0.1-0.3,0.3C58.4,76,58.5,76.2,58.7,76.2L58.7,76.2z"
				/>
		</g>
	</g>
	<g>
		<g>
			<path class="st7" d="M59.9,76c0.1,0,0.3,0,0.4,0c0.1,0,0.1,0,0.2,0c-0.1,0,0,0,0,0h0.1c0.1,0,0.2,0.1,0.4,0.1h0.1c0,0,0,0,0.1,0
				l0,0c0.1,0,0.1,0.1,0.2,0.1c0.2,0.1,0.4,0,0.5-0.1c0.1-0.2,0-0.4-0.1-0.5c-0.5-0.3-1.1-0.4-1.7-0.4c-0.2,0-0.4,0.1-0.3,0.3
				C59.6,75.8,59.7,76,59.9,76L59.9,76z"/>
		</g>
	</g>
	<g>
		<g>
			<path class="st7" d="M61.1,74.4c-0.1,0.6,0,1.2,0.2,1.8c0.1,0.6,0.3,1.2,0.4,1.9c0.1,0.4,0.8,0.2,0.7-0.2
				c-0.1-0.6-0.3-1.2-0.4-1.7c-0.1-0.5-0.3-1.1-0.2-1.6c0-0.2,0-0.4-0.2-0.4C61.3,74.2,61.1,74.3,61.1,74.4L61.1,74.4z"/>
		</g>
	</g>
	<g>
		<g>
			<path class="st7" d="M61.7,77.8c-0.1,0.6-0.5,1.2-0.8,1.7c-0.3,0.6-0.5,1.3-0.7,2c-0.1,0.4,0.6,0.6,0.7,0.2
				c0.2-0.7,0.3-1.3,0.7-2c0.3-0.6,0.7-1.1,0.8-1.8c0-0.2-0.1-0.4-0.2-0.4C62,77.5,61.8,77.6,61.7,77.8L61.7,77.8z"/>
		</g>
	</g>
	<g>
		<g>
			<path class="st7" d="M62.1,78.4c0.1,0.1,0.3,0.1,0.4,0.2c0.1,0,0.1,0.1,0.2,0.1c0,0,0.1,0,0.1,0.1l0,0l0,0
				c0.2,0.2,0.4,0.4,0.6,0.6c0.1,0.1,0.4,0.1,0.5,0s0.1-0.3,0-0.5c-0.4-0.5-0.9-0.9-1.5-1.2c-0.2-0.1-0.4,0-0.5,0.1
				C61.8,78.1,61.9,78.3,62.1,78.4L62.1,78.4z"/>
		</g>
	</g>
	<g>
		<path class="st8" d="M35.1,68c0,0-15.7,8-11.9,23.7c0,0,5.4-4.9,6.7,0.9S26.6,95,26.6,95s3.2,2,0.3,4.6s-3-3.2-3-3.2
			s0.7,3.8-3,3.5c-3.8-0.4-3-8.8,2-7.3C23,92.5,19.2,76.8,35.1,68z"/>
		<g>
			<path class="st7" d="M34.9,67.5c-5.7,3-10.7,8.7-12.2,15c-0.7,3.1-0.6,6.2,0.1,9.3c0.1,0.4,0.6,0.5,1,0.3c1.6-1.5,4.6-2.9,5.6,0
				c0.3,0.8,1.1,3.6-0.5,3.3c-0.6-0.1-1.2-0.5-1.7-0.9c-0.2,0.3-0.4,0.7-0.6,1c0.5,0.3,1.1,0.9,1.2,1.5c0.2,0.9-1.1,3.2-2.2,2.6
				c-0.8-0.4-0.8-2.4-0.9-3.2c-0.4,0.1-0.7,0.1-1.1,0.2c0.1,0.7,0.1,1.6-0.4,2.2c-0.9,1.1-2.9,0.7-3.5-0.5c-1.2-2.4,0.3-5.9,3.3-5.1
				c0.4,0.1,0.8-0.3,0.7-0.7c-1.4-5.8,0.4-12.5,3.9-17.2c2.1-2.8,4.9-5,7.9-6.7C36.1,68.2,35.5,67.2,34.9,67.5
				c-5,2.8-9.1,6.8-11.2,12.2c-1.3,3.4-1.9,7.1-1.5,10.7c0.1,0.7,0.2,1.5,0.3,2.2c0.2-0.2,0.5-0.5,0.7-0.7c-1.9-0.5-3.7,0.2-4.5,2
				c-0.7,1.5-0.8,3.6,0.2,5.1s3.4,1.9,4.8,0.7c1-0.8,1.2-2.3,1-3.5c-0.1-0.6-1.1-0.5-1.1,0.2c0,1.5,0.4,4.8,2.6,4.4
				c1.5-0.3,2.9-2.1,2.8-3.6c-0.1-1.1-0.9-2.1-1.8-2.7c-0.6-0.4-1.2,0.6-0.6,1c0.8,0.6,1.9,1.2,2.9,1.1c2.1-0.2,1.5-3.1,1.2-4.4
				c-0.6-2-2-3.3-4.1-2.8c-1.3,0.3-2.5,1.1-3.5,2c0.3,0.1,0.6,0.2,1,0.3c-1.5-6.4,0.3-12.6,4.6-17.4c2-2.2,4.4-4.3,7-5.6
				C36.1,68.2,35.5,67.2,34.9,67.5z"/>
		</g>
	</g>
	<g>
		<path class="st8" d="M60.6,61.9c0,0,18.8-10.6,22.5,13.5c0,0-3.3,0.1-3.2,5.1c0.1,5,1.9,4.1,1.9,4.1s2.1-0.7,1.8-5.1
			c0,0,1.1,5,3.1,2.9s0-4.9,0-4.9s3.2,2.4,3.9-0.6c0.8-3-2.2-3.8-2.2-3.8s-2.6-0.4-4.2,1.3C84.2,74.3,79.1,52.4,60.6,61.9z"/>
		<g>
			<path class="st7" d="M60.9,62.4c5.6-3.1,13.2-3.4,17.5,2c2.5,3.1,3.6,7.3,4.2,11.2c0.2-0.2,0.4-0.5,0.5-0.7c-1.2,0-2.4,0.9-3,1.9
				c-0.8,1.2-0.9,2.8-0.8,4.2c0,1.2,0.1,2.6,0.8,3.5c0.3,0.4,0.8,0.8,1.4,0.8c0.5,0,0.5,0,0.7-0.2c1.9-1.1,2-3.6,1.9-5.6
				c-0.4,0.1-0.7,0.1-1.1,0.2c0.3,1.3,1.1,4,2.9,3.8c1.3-0.2,2.2-1.8,2.3-3c0.1-1.1-0.3-2.4-1-3.3c-0.3,0.3-0.5,0.5-0.8,0.8
				c0.9,0.7,2.2,1.2,3.3,0.9c1.7-0.6,2-3,1.3-4.4c-1.4-2.8-5.2-2.4-7.1-0.4c0.3,0.1,0.6,0.2,1,0.3c-1.6-6.8-6.5-14.2-13.9-15.1
				c-3.7-0.5-7.3,0.7-10.6,2.4C59.7,61.8,60.2,62.8,60.9,62.4c5.1-2.6,11-3.5,15.7,0.2c3,2.3,5,5.8,6.3,9.4c0.3,0.8,0.6,1.6,0.8,2.4
				c0.1,0.4,0.7,0.5,1,0.3c1.3-1.3,3.6-1.8,4.9-0.4c0.8,0.9,1,3.4-0.7,3.4c-0.7,0-1.4-0.4-1.9-0.8c-0.5-0.3-1.1,0.3-0.8,0.8
				c0.4,0.5,0.6,1.1,0.7,1.7c0.2,0.8-0.2,3.4-1.5,2.8c-0.8-0.4-1.2-2.1-1.3-2.9C84,78.7,83,78.8,83,79.5c0.1,1.6,0,3.5-1.3,4.5
				c-0.1,0.1-0.1,0.1-0.2,0.1s-0.4-0.2-0.6-0.5c-1.1-2-0.9-7.5,2.2-7.6c0.4,0,0.6-0.4,0.5-0.7c-0.9-6-3.3-12.9-9.4-15.3
				c-3.6-1.5-7.8-0.9-11.4,0.4c-0.9,0.3-1.8,0.7-2.6,1.1C59.7,61.8,60.3,62.8,60.9,62.4z"/>
		</g>
	</g>
</g>
</svg>
