<?xml version="1.0" encoding="utf-8"?>
<!-- Generator: Adobe Illustrator 24.0.1, SVG Export Plug-In . SVG Version: 6.00 Build 0)  -->
<svg version="1.1" id="Layer_1" xmlns="http://www.w3.org/2000/svg" xmlns:xlink="http://www.w3.org/1999/xlink" x="0px" y="0px"
	 viewBox="0 0 100 140" style="enable-background:new 0 0 100 140;" xml:space="preserve">
<style type="text/css">
	.st0{fill:#FFFFFF;stroke:#FF8896;stroke-miterlimit:10;}
	.st1{fill:#FF0000;}
</style>
<path class="st0" d="M88,140H12c-6.6,0-12-5.4-12-12V12C0,5.4,5.4,0,12,0h76c6.6,0,12,5.4,12,12v116C100,134.6,94.6,140,88,140z"/>
<g>
	<path class="st1" d="M15.7,15.8c4.5,0,8.2,3.7,8.2,8.2s-3.6,8.2-8.2,8.2c-4.5,0-8.2-3.6-8.2-8.1l0,0V12.4c0-2.9,1.5-5.6,4.1-7.1
		c2.5-1.5,5.6-1.5,8.2,0s4.1,4.2,4.1,7.1h-4.8c0-1.8-1.5-3.3-3.3-3.3s-3.3,1.5-3.3,3.3v4.1C13.3,16.1,14.5,15.8,15.7,15.8L15.7,15.8
		z M15.7,27.4c1.9,0,3.4-1.5,3.4-3.4s-1.5-3.4-3.4-3.4s-3.4,1.5-3.4,3.4C12.3,25.9,13.8,27.4,15.7,27.4L15.7,27.4z"/>
</g>
<g>
	<path class="st1" d="M84.9,124.1c-4.5,0-8.2-3.7-8.2-8.2s3.6-8.2,8.2-8.2c4.5,0,8.2,3.6,8.2,8.1l0,0v11.7c0,2.9-1.5,5.6-4.1,7.1
		c-2.5,1.5-5.6,1.5-8.2,0s-4.1-4.2-4.1-7.1h4.8c0,1.8,1.5,3.3,3.3,3.3s3.3-1.5,3.3-3.3v-4.1C87.2,123.8,86.1,124.1,84.9,124.1
		L84.9,124.1z M84.9,112.5c-1.9,0-3.4,1.5-3.4,3.4s1.5,3.4,3.4,3.4s3.4-1.5,3.4-3.4S86.8,112.5,84.9,112.5L84.9,112.5z"/>
</g>
<g>
	<path class="st1" d="M21.8,45.7L15.2,54l-6.6-8.3l6.6-8.2L21.8,45.7z"/>
</g>
<g>
	<path class="st1" d="M91.4,94.1l-6.6,8.3l-6.6-8.3l6.6-8.2L91.4,94.1z"/>
</g>
<g>
	<path class="st1" d="M47.5,32.3l-8.8,11.1l-8.8-11.1l8.8-10.9L47.5,32.3z"/>
</g>
<g>
	<path class="st1" d="M70.1,69.9L61.3,81l-8.8-11.1L61.3,59L70.1,69.9z"/>
</g>
<g>
	<path class="st1" d="M47.5,69.9L38.7,81l-8.8-11.1L38.7,59L47.5,69.9z"/>
</g>
<g>
	<path class="st1" d="M70.1,32.3l-8.8,11.1l-8.8-11.1l8.8-10.9L70.1,32.3z"/>
</g>
<g>
	<path class="st1" d="M47.5,107.5l-8.8,11.1l-8.8-11.1l8.8-10.9L47.5,107.5z"/>
</g>
<g>
	<path class="st1" d="M70.1,107.5l-8.8,11.1l-8.8-11.1l8.8-10.9L70.1,107.5z"/>
</g>
</svg>
