<?xml version="1.0" encoding="utf-8"?>
<!-- Generator: Adobe Illustrator 24.0.1, SVG Export Plug-In . SVG Version: 6.00 Build 0)  -->
<svg version="1.1" id="Layer_1" xmlns="http://www.w3.org/2000/svg" xmlns:xlink="http://www.w3.org/1999/xlink" x="0px" y="0px"
	 viewBox="0 0 100 140" style="enable-background:new 0 0 100 140;" xml:space="preserve">
<style type="text/css">
	.st0{fill:#FFFFFF;stroke:#FF8896;stroke-miterlimit:10;}
	.st1{fill:#FF0000;}
</style>
<path class="st0" d="M88,140H12c-6.6,0-12-5.4-12-12V12C0,5.4,5.4,0,12,0h76c6.6,0,12,5.4,12,12v116C100,134.6,94.6,140,88,140z"/>
<g>
	<path class="st1" d="M23.4,3.9v2.4c0,0.8-0.1,1.6-0.2,2.4c-0.5,3.9-2.3,7.1-4,10.1c-1.9,3.4-3.7,6.5-3.7,10.6v2.4h-4.8v-2.4
		c0-5.4,2.3-9.4,4.3-13c1.4-2.5,2.8-5,3.3-7.7H8V3.9H23.4z"/>
</g>
<g>
	<path class="st1" d="M77.2,135.7v-2.4c0-0.8,0.1-1.6,0.2-2.4c0.5-3.9,2.3-7.1,4-10.1c1.9-3.4,3.7-6.5,3.7-10.6v-2.4H90v2.4
		c0,5.4-2.3,9.4-4.3,13c-1.4,2.5-2.8,5-3.3,7.7h10.4v4.8L77.2,135.7L77.2,135.7z"/>
</g>
<g>
	<path class="st1" d="M21.8,45.7L15.2,54l-6.6-8.3l6.6-8.2L21.8,45.7z"/>
</g>
<g>
	<path class="st1" d="M91.4,94.1l-6.6,8.3l-6.6-8.3l6.6-8.2L91.4,94.1z"/>
</g>
<g>
	<path class="st1" d="M47.5,32.3l-8.8,11.1l-8.8-11.1l8.8-10.9L47.5,32.3z"/>
</g>
<g>
	<path class="st1" d="M70.1,69.9L61.3,81l-8.8-11.1L61.3,59L70.1,69.9z"/>
</g>
<g>
	<path class="st1" d="M47.5,69.9L38.7,81l-8.8-11.1L38.7,59L47.5,69.9z"/>
</g>
<g>
	<path class="st1" d="M70.1,32.3l-8.8,11.1l-8.8-11.1l8.8-10.9L70.1,32.3z"/>
</g>
<g>
	<path class="st1" d="M56.9,51.3L50,60l-6.9-8.8l6.9-8.6L56.9,51.3z"/>
</g>
<g>
	<path class="st1" d="M47.5,107.5l-8.8,11.1l-8.8-11.1l8.8-10.9L47.5,107.5z"/>
</g>
<g>
	<path class="st1" d="M70.1,107.5l-8.8,11.1l-8.8-11.1l8.8-10.9L70.1,107.5z"/>
</g>
</svg>
