<?xml version="1.0" encoding="utf-8"?>
<!-- Generator: Adobe Illustrator 24.0.1, SVG Export Plug-In . SVG Version: 6.00 Build 0)  -->
<svg version="1.1" id="Layer_1" xmlns="http://www.w3.org/2000/svg" xmlns:xlink="http://www.w3.org/1999/xlink" x="0px" y="0px"
	 viewBox="0 0 100 140" style="enable-background:new 0 0 100 140;" xml:space="preserve">
<style type="text/css">
	.st0{fill:#FFFFFF;}
	.st1{fill:#A31E25;}
	.st2{fill:none;stroke:#FFFFFF;stroke-width:0.9853;stroke-miterlimit:10;}
	.st3{fill:#FDBA63;}
	.st4{fill:#645FAA;}
	.st5{fill:#46B978;}
	.st6{fill:#F36C21;}
	.st7{fill:#1F572B;}
</style>
<path class="st0" d="M88,140H12c-6.6,0-12-5.4-12-12V12C0,5.4,5.4,0,12,0h76c6.6,0,12,5.4,12,12v116C100,134.6,94.6,140,88,140z"/>
<path class="st1" d="M84,135H16c-6,0-11-4.9-11-11V16c0-6,5-11,11-11h68c6,0,11,4.9,11,11v108C95,130,90,135,84,135z"/>
<path class="st2" d="M82.4,133.1H17.6c-5.8,0-10.6-4.7-10.6-10.6v-105c0-5.8,4.7-10.6,10.6-10.6h64.7c5.8,0,10.6,4.7,10.6,10.6v105
	C92.9,128.3,88.2,133.1,82.4,133.1z"/>
<g>
	<g>
		<g>
			<g>
				<polygon class="st3" points="48.8,119.3 48.8,107.7 60.4,107.7 				"/>
				<polygon class="st4" points="60.4,107.7 60.4,119.3 48.8,119.3 				"/>
				<path class="st3" d="M60.4,119.3v-11.6h7.9c0.3,1,0.4,1.9,0.2,2.9c0,0.2-0.1,0.5-0.2,0.7c0,0.1,0,0.1-0.1,0.2l-0.2,0.2l-0.4,0.4
					l-1.5,1.5L60.4,119.3z"/>
				<path class="st4" d="M68.3,107.7l3.8,11.6H60.4l5.8-5.8l1.5-1.5l0.4-0.4l0.2-0.2c0-0.1,0-0.1,0.1-0.2c0.1-0.2,0.1-0.5,0.2-0.7
					C68.7,109.7,68.6,108.7,68.3,107.7z"/>
				<polygon class="st3" points="48.8,131 48.8,119.3 60.4,119.3 				"/>
				<path class="st3" d="M60.4,119.3h11.7l3.7,11.3c-2.1-0.6-4.2-1.6-5.9-2.5l-1.3-0.7l-0.3-0.2l-0.2-0.2l-0.4-0.4l-1.5-1.5
					L60.4,119.3z"/>
				<path class="st4" d="M75.8,130.6C74,131,72,131,70.1,131h-3.8h-5.8H48.8l11.7-11.6l5.8,5.8l1.5,1.5l0.4,0.4l0.2,0.2l0.3,0.2
					l1.3,0.7C71.6,129,73.7,130,75.8,130.6z"/>
			</g>
			<g>
				<path class="st3" d="M25.4,118.9l6.3-11.2h5.4l-2.9,2.9l-1.5,1.5c-0.5,0.5-1.1,1-1.2,1.5c-0.5,1-1.3,1.9-2.3,2.9
					C28.2,117.4,26.9,118.3,25.4,118.9z"/>
				<path class="st4" d="M37.1,107.7v11.6h-5.8h-2.9c-1,0-2-0.1-2.9-0.4c1.4-0.6,2.7-1.5,3.7-2.5s1.8-1.9,2.3-2.9
					c0.1-0.5,0.8-1,1.2-1.5l1.5-1.5L37.1,107.7z"/>
				<polygon class="st3" points="37.1,119.3 37.1,107.7 48.8,107.7 				"/>
				<polygon class="st4" points="48.8,107.7 48.8,119.3 37.1,119.3 				"/>
				<path class="st3" d="M19.7,129.1l5.7-10.2c0.9,0.3,1.9,0.4,2.9,0.4h2.9H37l-2.9,2.9l-1.5,1.5c-0.5,0.5-0.9,1-1.7,1.5
					c-1.5,1-3.3,2-5.2,2.7C23.9,128.6,21.9,129.1,19.7,129.1z"/>
				<polygon class="st3" points="37.1,119.3 48.8,119.3 48.8,131 				"/>
				<path class="st4" d="M48.8,131H37.1h-6.3c-1.9,0-3.9,0.1-5.8-0.2c-1.8-0.3-3.6-0.8-5.3-1.6c2.1-0.1,4.2-0.5,6.1-1.3
					c1.9-0.7,3.7-1.8,5.2-2.7c0.8-0.5,1.2-1,1.7-1.5l1.5-1.5l2.9-2.9L48.8,131z"/>
			</g>
			<g>
				<path class="st3" d="M20.1,97.9h11.6v9.8c-0.5,0.1-1,0.1-1.5,0.1h-0.4c-0.1,0-0.2-0.2-0.4-0.3l-0.7-0.7l-2.9-2.9L20.1,97.9z"/>
				<path class="st4" d="M31.7,107.7l-11.6,1.9V97.9l5.8,5.8l2.9,2.9l0.7,0.7c0.1,0.1,0.2,0.3,0.4,0.3h0.4
					C30.8,107.8,31.2,107.8,31.7,107.7z"/>
				<path class="st3" d="M20.1,109.6l11.6-1.9l0,0c-1,1.9-3.1,3.4-5.3,3.8c-1.1,0.2-2.3,0.1-3.3-0.2C22,111,21.1,110.4,20.1,109.6z"
					/>
				<path class="st4" d="M31.7,107.7l-6.3,11.2c-1.8-0.6-3.4-1.9-4.4-3.7c-0.5-0.9-0.8-1.8-0.9-2.8s-0.1-1.9-0.1-2.9
					c1,0.8,1.9,1.4,3,1.7c1.1,0.3,2.2,0.4,3.3,0.2C28.7,111.1,30.7,109.6,31.7,107.7z"/>
				<polygon class="st3" points="8.5,97.9 20.1,97.9 20.1,109.6 				"/>
				<path class="st3" d="M20.1,109.6c0,1,0,1.9,0.1,2.9s0.4,1.9,0.9,2.8c0.9,1.7,2.5,3,4.4,3.7l-5.7,10.2c-2.4-3.2-3.5-7-3.4-10.5
					c0.1-1.8,0.4-3.5,1.1-5C18.1,112.1,19.1,110.7,20.1,109.6z"/>
				<path class="st4" d="M19.7,129.1c-3.3-1.5-6.2-4-8.2-7.1c-1-1.5-1.8-3.2-2.3-5c-0.5-1.7-0.8-3.6-0.8-5.5V97.9L20,109.6
					c-1,1.1-2,2.5-2.6,4c-0.7,1.5-1.1,3.2-1.1,5C16.2,122.2,17.4,125.9,19.7,129.1z"/>
			</g>
			<g>
				<polygon class="st3" points="20.1,74.6 31.7,74.6 31.7,86.3 				"/>
				<polygon class="st4" points="31.7,86.3 20.1,86.3 20.1,74.6 				"/>
				<polygon class="st3" points="20.1,86.3 31.7,86.3 31.7,97.9 				"/>
				<polygon class="st4" points="31.7,97.9 20.1,97.9 20.1,86.3 				"/>
				<polygon class="st3" points="8.5,74.6 20.1,74.6 20.1,86.3 				"/>
				<polygon class="st3" points="20.1,86.3 20.1,97.9 8.5,97.9 				"/>
				<polygon class="st4" points="8.5,97.9 8.5,74.6 20.1,86.3 				"/>
			</g>
			<g>
				<polygon class="st3" points="20.1,51.2 31.7,51.2 31.7,62.9 				"/>
				<polygon class="st4" points="31.7,62.9 20.1,62.9 20.1,51.2 				"/>
				<polygon class="st3" points="20.1,62.9 31.7,62.9 31.7,74.6 				"/>
				<polygon class="st4" points="31.7,74.6 20.1,74.6 20.1,62.9 				"/>
				<polygon class="st3" points="8.5,51.2 20.1,51.2 20.1,62.9 				"/>
				<polygon class="st3" points="20.1,62.9 20.1,74.6 8.5,74.6 				"/>
				<polygon class="st4" points="8.5,74.6 8.5,51.2 20.1,62.9 				"/>
			</g>
			<g>
				<path class="st3" d="M20.1,27.9l11.6,4.4v7.3l-5.8-5.8l-1.5-1.5c-0.5-0.3-1-0.7-1.5-1.1C22.1,30.3,21,29.2,20.1,27.9z"/>
				<path class="st4" d="M31.7,39.6H20.1c0-3.9,0-7.8,0-11.7c0.9,1.3,1.9,2.4,2.9,3.3c0.5,0.4,1,0.8,1.5,1.1l1.5,1.5L31.7,39.6z"/>
				<polygon class="st3" points="20.1,39.6 31.7,39.6 31.7,51.2 				"/>
				<polygon class="st4" points="31.7,51.2 20.1,51.2 20.1,39.6 				"/>
				<path class="st3" d="M9.1,23.7l11,4.2c-0.1,3.9,0,7.8,0,11.7l-5.8-5.8l-1.5-1.5c-0.5-0.8-1-1.6-1.5-2.6
					c-0.5-0.9-0.9-1.9-1.4-2.9C9.7,25.8,9.3,24.8,9.1,23.7z"/>
				<polygon class="st3" points="20.1,39.6 20.1,51.2 8.5,51.2 				"/>
				<path class="st4" d="M8.5,51.2V39.6v-5.8v-4.4c0-1,0.1-1.9,0.1-2.9c0.1-0.9,0.3-1.9,0.5-2.7c0.2,1.1,0.6,2.1,0.9,3.1
					c0.4,1,0.9,2,1.4,2.9s1,1.8,1.5,2.6l1.5,1.5l5.8,5.8L8.5,51.2z"/>
			</g>
			<g>
				<path class="st3" d="M39.6,20.7v11.6h-7.9c-0.3-1-0.4-1.9-0.2-2.9c0-0.2,0.1-0.5,0.2-0.7c0-0.1,0-0.1,0.1-0.2l0.2-0.2l0.4-0.4
					l1.5-1.5L39.6,20.7z"/>
				<path class="st4" d="M31.7,32.3l-3.8-11.6h11.7l-5.8,5.8L32.3,28l-0.4,0.4l-0.2,0.2c0,0.1,0,0.1-0.1,0.2
					c-0.1,0.2-0.1,0.5-0.2,0.7C31.3,30.3,31.4,31.3,31.7,32.3z"/>
				<path class="st3" d="M27.9,20.7l3.8,11.6l0,0c-1.9-0.7-3.8-2.5-4.6-4.8C26.3,25.3,26.6,22.6,27.9,20.7z"/>
				<path class="st4" d="M31.7,32.3l-11.6-4.4c0.1-1.9,1-3.8,2.5-5.1c1.4-1.3,3.3-2.1,5.3-2.1c-1.3,1.9-1.6,4.6-0.7,6.9
					C28,29.8,29.8,31.6,31.7,32.3z"/>
				<path class="st3" d="M39.6,9v11.6H27.9c0.7-0.9,1.5-1.9,2.7-2.9c1.3-1,2.1-1.9,3.1-2.9L39.6,9z"/>
				<path class="st3" d="M27.9,20.7c-1.9,0-3.9,0.8-5.3,2.1c-1.4,1.3-2.3,3.2-2.5,5.1l-11-4.2c2.7-2.9,6.1-4.6,9.5-5.2
					C22,18,25.3,18.8,27.9,20.7z"/>
				<path class="st4" d="M9.1,23.7c0.9-3.6,2.8-6.8,5.5-9.4c2.7-2.5,6-4.3,9.6-5C26,9,28,9,29.9,9h3.8h5.8l-5.8,5.8
					c-1,1-1.8,1.9-3.1,2.9c-1.1,1-2,2-2.7,2.9c-2.6-1.9-5.9-2.6-9.3-2.1C15.2,19.1,11.8,20.9,9.1,23.7z"/>
			</g>
			<g>
				<polygon class="st3" points="62.9,20.7 62.9,32.3 51.2,32.3 				"/>
				<polygon class="st4" points="51.2,32.3 51.2,20.7 62.9,20.7 				"/>
				<polygon class="st3" points="51.2,20.7 51.2,32.3 39.6,32.3 				"/>
				<polygon class="st4" points="39.6,32.3 39.6,20.7 51.2,20.7 				"/>
				<polygon class="st3" points="62.9,9 62.9,20.7 51.2,20.7 				"/>
				<polygon class="st3" points="51.2,20.7 39.6,20.7 39.6,9 				"/>
				<polygon class="st4" points="39.6,9 62.9,9 51.2,20.7 				"/>
			</g>
			<g>
				<path class="st3" d="M79.9,30.4l-11.6,1.9l0,0c1-1.9,3.1-3.4,5.3-3.8c1.1-0.2,2.3-0.1,3.3,0.2C78,29,78.9,29.6,79.9,30.4z"/>
				<path class="st4" d="M68.3,32.3l6.3-11.2c1.8,0.6,3.4,1.9,4.4,3.7c0.5,0.9,0.8,1.8,0.9,2.8s0.1,1.9,0.1,2.9
					c-1-0.8-1.9-1.4-3-1.7c-1.1-0.3-2.2-0.4-3.3-0.2C71.3,28.9,69.3,30.4,68.3,32.3z"/>
				<path class="st3" d="M74.6,21.1l-6.3,11.2h-5.4l2.9-2.9l1.5-1.5c0.5-0.5,1.1-1,1.2-1.5c0.5-1,1.3-1.9,2.3-2.9
					C71.8,22.6,73.1,21.7,74.6,21.1z"/>
				<path class="st4" d="M62.9,32.3V20.7h5.8h2.9c1,0,2,0.1,2.9,0.4c-1.4,0.6-2.7,1.5-3.7,2.5s-1.8,1.9-2.3,2.9
					c-0.1,0.5-0.8,1-1.2,1.5l-1.5,1.5L62.9,32.3z"/>
				<path class="st3" d="M91.5,28.5l-11.6,1.9c0-1,0-1.9-0.1-2.9s-0.4-1.9-0.9-2.8c-0.9-1.7-2.5-3-4.4-3.7c2.8-1.1,6.1-1,9.1,0.3
					c1.5,0.6,3,1.6,4.3,2.7C89.3,25.3,90.5,26.7,91.5,28.5z"/>
				<path class="st3" d="M74.6,21.1c-0.9-0.3-1.9-0.4-2.9-0.4h-2.9H63V9l2.9,2.9l1.5,1.5c0.5,0.5,0.9,1,1.7,1.5
					C71.9,16.8,73.6,18.7,74.6,21.1z"/>
				<path class="st4" d="M62.9,9h6.3c2,0,4,0,5.8,0.3s3.6,0.8,5.3,1.6c3.3,1.5,6.2,4,8.2,7.1c1,1.5,1.8,3.2,2.3,5
					c0.5,1.7,0.8,3.6,0.8,5.5c-1-1.8-2.2-3.2-3.5-4.4c-1.3-1.2-2.8-2.1-4.3-2.7c-3-1.3-6.3-1.4-9.1-0.3c-0.9-2.3-2.7-4.3-5.6-6.2
					c-0.8-0.5-1.2-1-1.7-1.5l-1.5-1.5L62.9,9z"/>
			</g>
			<g>
				<polygon class="st3" points="79.9,53.7 68.3,53.7 68.3,42.1 				"/>
				<polygon class="st4" points="68.3,42.1 79.9,42.1 79.9,53.7 				"/>
				<path class="st3" d="M79.9,42.1H68.3v-9.8c0.5-0.1,1-0.1,1.5-0.1h0.4c0.1,0,0.2,0.2,0.4,0.3l0.7,0.7l2.9,2.9L79.9,42.1z"/>
				<path class="st4" d="M68.3,32.3l11.6-1.9v11.7l-5.8-5.8l-2.9-2.9l-0.7-0.7c-0.1-0.1-0.2-0.3-0.4-0.3h-0.4
					C69.2,32.2,68.8,32.2,68.3,32.3z"/>
				<polygon class="st3" points="91.5,53.7 79.9,53.7 79.9,42.1 				"/>
				<path class="st3" d="M79.9,42.1V30.4l11.6-1.9c-0.5,1.1-1,2-1.5,3l-0.4,0.7c-0.1,0.2-0.2,0.3-0.4,0.4l-0.7,0.7l-2.9,2.9
					L79.9,42.1z"/>
				<path class="st4" d="M91.5,28.5v25.2L79.9,42.1l5.8-5.8l2.9-2.9l0.7-0.7c0.1-0.1,0.2-0.2,0.4-0.4l0.4-0.7
					C90.5,30.5,91,29.6,91.5,28.5z"/>
			</g>
			<g>
				<polygon class="st3" points="79.9,77.1 68.3,77.1 68.3,65.4 				"/>
				<polygon class="st4" points="68.3,65.4 79.9,65.4 79.9,77.1 				"/>
				<polygon class="st3" points="79.9,65.4 68.3,65.4 68.3,53.7 				"/>
				<polygon class="st4" points="68.3,53.7 79.9,53.7 79.9,65.4 				"/>
				<polygon class="st3" points="91.5,77.1 79.9,77.1 79.9,65.4 				"/>
				<polygon class="st3" points="79.9,65.4 79.9,53.7 91.5,53.7 				"/>
				<polygon class="st4" points="91.5,53.7 91.5,77.1 79.9,65.4 				"/>
			</g>
			<g>
				<polygon class="st3" points="79.9,100.4 68.3,100.4 68.3,88.8 				"/>
				<polygon class="st4" points="68.3,88.8 79.9,88.8 79.9,100.4 				"/>
				<polygon class="st3" points="79.9,88.8 68.3,88.8 68.3,77.1 				"/>
				<polygon class="st4" points="68.3,77.1 79.9,77.1 79.9,88.8 				"/>
				<polygon class="st3" points="91.5,100.4 79.9,100.4 79.9,88.8 				"/>
				<polygon class="st3" points="79.9,88.8 79.9,77.1 91.5,77.1 				"/>
				<polygon class="st4" points="91.5,77.1 91.5,100.4 79.9,88.8 				"/>
			</g>
			<g>
				<path class="st3" d="M72.1,119.3l-3.8-11.6l0,0c1.9,0.7,3.8,2.5,4.6,4.8C73.7,114.7,73.4,117.4,72.1,119.3z"/>
				<path class="st4" d="M68.3,107.7l11.6,4.4c-0.1,1.9-1,3.8-2.5,5.1c-1.4,1.3-3.3,2.1-5.3,2.1c1.3-1.9,1.6-4.6,0.7-6.9
					C72,110.2,70.2,108.4,68.3,107.7z"/>
				<path class="st3" d="M79.9,112.1l-11.6-4.4v-7.3l5.8,5.8l1.5,1.5c0.5,0.3,1,0.7,1.5,1.1C77.9,109.7,79,110.8,79.9,112.1z"/>
				<path class="st4" d="M68.3,100.4h11.6c0,3.9,0,7.8,0,11.7c-0.9-1.3-1.9-2.4-2.9-3.3c-0.5-0.4-1-0.8-1.5-1.1l-1.5-1.5L68.3,100.4
					z"/>
				<path class="st3" d="M75.8,130.6l-3.7-11.3c1.9,0,3.9-0.8,5.3-2.1c1.4-1.3,2.3-3.2,2.5-5.1c1.7,2.6,2.3,6,1.6,9.3
					C80.7,124.8,78.8,128,75.8,130.6z"/>
				<path class="st3" d="M79.9,112.1c0.1-3.9,0-7.8,0-11.7h11.6l-5.8,5.8l-1.5,1.5c-0.5,0.7-1,1.3-1.5,1.8
					C81.8,110.6,80.8,111.5,79.9,112.1z"/>
				<path class="st4" d="M91.5,100.4v5.8v4.4c0,1-0.1,1.9-0.1,2.9c-0.1,0.9-0.3,1.9-0.5,2.7c-0.9,3.6-2.8,6.8-5.5,9.4
					c-2.7,2.5-6,4.3-9.6,5c3-2.6,4.9-5.8,5.6-9.2c0.7-3.3,0.2-6.7-1.6-9.3c1-0.6,2-1.5,2.9-2.6c0.5-0.5,1-1.2,1.5-1.8l1.5-1.5
					L91.5,100.4z"/>
			</g>
		</g>
	</g>
</g>
<g>
	<g>
		<path class="st5" d="M66.1,53.1h-9v26.7c0,3.9-3.2,7.1-7.1,7.1s-7.1-3.2-7.1-7.1h-9c0,8.9,7.2,16.1,16.1,16.1s16.1-7.2,16.1-16.1
			V53.1"/>
		<polyline class="st6" points="66.1,44.1 50,44.1 50,53.1 57.1,53.1 57.1,44.1 66.1,44.1 66.1,53.1 66.1,44.1 		"/>
		<polyline class="st7" points="66.1,44.1 57.1,44.1 57.1,53.1 66.1,53.1 66.1,44.1 		"/>
	</g>
</g>
</svg>
