<?xml version="1.0" encoding="utf-8"?>
<!-- Generator: Adobe Illustrator 24.0.1, SVG Export Plug-In . SVG Version: 6.00 Build 0)  -->
<svg version="1.1" id="Layer_1" xmlns="http://www.w3.org/2000/svg" xmlns:xlink="http://www.w3.org/1999/xlink" x="0px" y="0px"
	 viewBox="0 0 100 140" style="enable-background:new 0 0 100 140;" xml:space="preserve">
<style type="text/css">
	.st0{fill:#FFFFFF;stroke:#FF8896;stroke-miterlimit:10;}
	.st1{fill:#FF0000;}
</style>
<path class="st0" d="M88,140H12c-6.6,0-12-5.4-12-12V12C0,5.4,5.4,0,12,0h76c6.6,0,12,5.4,12,12v116C100,134.6,94.6,140,88,140z"/>
<g>
	<path class="st1" d="M24.4,13.6v18.7h-4.8v-9.9h-8.9v10H5.8V13.6c0-5.1,4.2-9.3,9.3-9.3S24.4,8.5,24.4,13.6z M19.5,17.5v-3.9
		c0-2.5-2-4.5-4.5-4.5s-4.5,2-4.5,4.5v3.9H19.5z"/>
</g>
<g>
	<path class="st1" d="M75.6,126.4v-18.7h4.8v9.9h8.9v-10h4.8v18.7c0,5.1-4.2,9.3-9.3,9.3C79.8,135.7,75.6,131.5,75.6,126.4z
		 M80.5,122.5v3.9c0,2.5,2,4.5,4.5,4.5s4.5-2,4.5-4.5v-3.9C89.5,122.5,80.5,122.5,80.5,122.5z"/>
</g>
<g>
	<path class="st1" d="M23,42.4c0,3.5-3,6.1-7.8,10.5c-4.8-4.4-7.8-7-7.8-10.5c0-2.3,1.6-3.7,3.8-3.7c2.1,0,3.1,1.1,4,2.8
		c0.9-1.7,1.9-2.8,4-2.8C21.4,38.7,23,40.1,23,42.4z"/>
</g>
<g>
	<path class="st1" d="M77,97.6c0-3.5,3-6.1,7.8-10.5c4.8,4.4,7.8,7,7.8,10.5c0,2.3-1.6,3.7-3.8,3.7c-2.1,0-3.1-1.1-4-2.8
		c-0.9,1.7-1.9,2.8-4,2.8C78.6,101.3,77,99.9,77,97.6z"/>
</g>
<g>
	<path class="st1" d="M60.4,65.5c0,4.7-4,8.2-10.4,14c-6.4-5.8-10.4-9.3-10.4-14c0-3.1,2.1-5,5-5c2.8,0,4.2,1.4,5.4,3.7
		c1.2-2.2,2.6-3.7,5.4-3.7C58.3,60.5,60.4,62.4,60.4,65.5z"/>
</g>
</svg>
