<?xml version="1.0" encoding="utf-8"?>
<!-- Generator: Adobe Illustrator 24.0.2, SVG Export Plug-In . SVG Version: 6.00 Build 0)  -->
<svg version="1.1" id="Layer_1" xmlns="http://www.w3.org/2000/svg" xmlns:xlink="http://www.w3.org/1999/xlink" x="0px" y="0px"
	 viewBox="0 0 100 140" style="enable-background:new 0 0 100 140;" xml:space="preserve">
<style type="text/css">
	.st0{fill:#FFFFFF;}
	.st1{fill:#FF0000;}
</style>
<path class="st0" d="M88,140H12c-6.6,0-12-5.4-12-12V12C0,5.4,5.4,0,12,0h76c6.6,0,12,5.4,12,12v116C100,134.6,94.6,140,88,140z"/>
<g>
	<path class="st1" d="M23.4,3.9v2.4c0,0.8-0.1,1.6-0.2,2.4c-0.5,3.9-2.3,7.1-4,10.1c-1.9,3.4-3.7,6.5-3.7,10.6v2.4h-4.8v-2.4
		c0-5.4,2.3-9.4,4.3-13c1.4-2.5,2.8-5,3.3-7.7H8V3.9H23.4z"/>
</g>
<g>
	<path class="st1" d="M77.2,135.7v-2.4c0-0.8,0.1-1.6,0.2-2.4c0.5-3.9,2.3-7.1,4-10.1c1.9-3.4,3.7-6.5,3.7-10.6v-2.4H90v2.4
		c0,5.4-2.3,9.4-4.3,13c-1.4,2.5-2.8,5-3.3,7.7h10.4v4.8L77.2,135.7L77.2,135.7z"/>
</g>
<g>
	<path class="st1" d="M77,97.6c0-3.5,3-6.1,7.8-10.5c4.8,4.4,7.8,7,7.8,10.5c0,2.3-1.6,3.7-3.8,3.7c-2.1,0-3.1-1.1-4-2.8
		c-0.9,1.7-1.9,2.8-4,2.8C78.6,101.3,77,99.9,77,97.6z"/>
</g>
<g>
	<path class="st1" d="M71.7,27.8c0,4.7-4,8.2-10.4,14c-6.4-5.8-10.4-9.3-10.4-14c0-3.1,2.1-5,5-5c2.8,0,4.2,1.4,5.4,3.7
		c1.2-2.2,2.6-3.7,5.4-3.7C69.6,22.8,71.7,24.7,71.7,27.8z"/>
</g>
<g>
	<path class="st1" d="M49.1,27.8c0,4.7-4,8.2-10.4,14c-6.4-5.8-10.4-9.3-10.4-14c0-3.1,2.1-5,5-5c2.8,0,4.2,1.4,5.4,3.7
		c1.2-2.2,2.6-3.7,5.4-3.7C47,22.8,49.1,24.7,49.1,27.8z"/>
</g>
<g>
	<path class="st1" d="M58.8,46c0,4-3.4,7-8.8,11.9c-5.4-5-8.8-7.9-8.8-11.9c0-2.6,1.8-4.2,4.3-4.2c2.3,0,3.5,1.2,4.5,3.1
		c1-1.9,2.2-3.1,4.5-3.1C57,41.8,58.8,43.4,58.8,46z"/>
</g>
<g>
	<path class="st1" d="M71.7,65.5c0,4.7-4,8.2-10.4,14c-6.4-5.8-10.4-9.3-10.4-14c0-3.1,2.1-5,5-5c2.8,0,4.2,1.4,5.4,3.7
		c1.2-2.2,2.6-3.7,5.4-3.7C69.6,60.5,71.7,62.4,71.7,65.5z"/>
</g>
<g>
	<path class="st1" d="M49.1,65.5c0,4.7-4,8.2-10.4,14c-6.4-5.8-10.4-9.3-10.4-14c0-3.1,2.1-5,5-5c2.8,0,4.2,1.4,5.4,3.7
		c1.2-2.2,2.6-3.7,5.4-3.7C47,60.5,49.1,62.4,49.1,65.5z"/>
</g>
<g>
	<path class="st1" d="M28.3,112.2c0-4.7,4-8.2,10.4-14c6.4,5.8,10.4,9.3,10.4,14c0,3.1-2.1,5-5,5c-2.8,0-4.2-1.4-5.4-3.7
		c-1.2,2.2-2.6,3.7-5.4,3.7C30.4,117.2,28.3,115.3,28.3,112.2z"/>
</g>
<g>
	<path class="st1" d="M50.9,112.2c0-4.7,4-8.2,10.4-14c6.4,5.8,10.4,9.3,10.4,14c0,3.1-2.1,5-5,5c-2.8,0-4.2-1.4-5.4-3.7
		c-1.2,2.2-2.6,3.7-5.4,3.7C53,117.2,50.9,115.3,50.9,112.2z"/>
</g>
<g>
	<path class="st1" d="M23,42.4c0,3.5-3,6.1-7.8,10.5c-4.8-4.4-7.8-7-7.8-10.5c0-2.3,1.6-3.7,3.8-3.7c2.1,0,3.1,1.1,4,2.8
		c0.9-1.7,1.9-2.8,4-2.8C21.4,38.7,23,40.1,23,42.4z"/>
</g>
</svg>
