<?xml version="1.0" encoding="utf-8"?>
<!-- Generator: Adobe Illustrator 24.0.2, SVG Export Plug-In . SVG Version: 6.00 Build 0)  -->
<svg version="1.1" id="Layer_1" xmlns="http://www.w3.org/2000/svg" xmlns:xlink="http://www.w3.org/1999/xlink" x="0px" y="0px"
	 viewBox="0 0 100 140" style="enable-background:new 0 0 100 140;" xml:space="preserve">
<style type="text/css">
	.st0{fill:#FFFFFF;}
	.st1{fill:#FF0000;}
</style>
<path class="st0" d="M88,140H12c-6.6,0-12-5.4-12-12V12C0,5.4,5.4,0,12,0h76c6.6,0,12,5.4,12,12v116C100,134.6,94.6,140,88,140z"/>
<g>
	<path class="st1" d="M12.1,27.5h10.5v4.8H6.9v-2.4c0-0.8,0.1-1.6,0.2-2.4c0.6-3.3,2.7-5.5,6.5-8.5c4.2-3.3,4.9-4.5,4.9-6.4
		c0-1.8-1.5-3.3-3.4-3.3s-3.4,1.5-3.4,3.3H6.9c0-4.5,3.7-8.2,8.2-8.2s8.2,3.7,8.2,8.2c0,4.6-2.8,7.2-6.7,10.3
		C13.8,25,12.6,26.2,12.1,27.5z"/>
</g>
<g>
	<path class="st1" d="M87.9,112.5H77.5v-4.8h15.7v2.4c0,0.8-0.1,1.6-0.2,2.4c-0.6,3.3-2.7,5.5-6.5,8.5c-4.2,3.3-4.9,4.5-4.9,6.4
		c0,1.8,1.5,3.3,3.4,3.3s3.4-1.5,3.4-3.3h4.8c0,4.5-3.7,8.2-8.2,8.2s-8.2-3.7-8.2-8.2c0-4.6,2.8-7.2,6.7-10.3
		C86.2,115,87.4,113.8,87.9,112.5z"/>
</g>
<g>
	<path class="st1" d="M21.8,45.7l-6.6,8.3l-6.6-8.3l6.6-8.2L21.8,45.7z"/>
</g>
<g>
	<path class="st1" d="M91.4,94.1l-6.6,8.3l-6.6-8.3l6.6-8.2L91.4,94.1z"/>
</g>
<g>
	<path class="st1" d="M58.8,107.8L50,118.9l-8.8-11.1L50,96.9L58.8,107.8z"/>
</g>
<g>
	<path class="st1" d="M58.8,32.2L50,43.4l-8.8-11.1L50,21.3L58.8,32.2z"/>
</g>
</svg>
