<?xml version="1.0" encoding="utf-8"?>
<!-- Generator: Adobe Illustrator 24.0.2, SVG Export Plug-In . SVG Version: 6.00 Build 0)  -->
<svg version="1.1" id="Layer_1" xmlns="http://www.w3.org/2000/svg" xmlns:xlink="http://www.w3.org/1999/xlink" x="0px" y="0px"
	 viewBox="0 0 100 140" style="enable-background:new 0 0 100 140;" xml:space="preserve">
<style type="text/css">
	.st0{fill:#FFFFFF;}
	.st1{fill:#1866A0;}
	.st2{fill:#45362D;stroke:#231F20;stroke-width:0.7298;stroke-miterlimit:10;}
	.st3{fill:#523F33;stroke:#231F20;stroke-width:0.7298;stroke-miterlimit:10;}
	.st4{fill:#2D2C2C;stroke:#231F20;stroke-width:0.7298;stroke-miterlimit:10;}
	.st5{fill:#FFFFFF;stroke:#231F20;stroke-width:0.3649;stroke-miterlimit:10;}
	.st6{fill:#FACCC4;stroke:#231F20;stroke-width:0.3649;stroke-miterlimit:10;}
	.st7{fill:#FBB866;stroke:#231F20;stroke-width:0.7298;stroke-miterlimit:10;}
	.st8{fill:#FACCC4;stroke:#231F20;stroke-width:0.7298;stroke-miterlimit:10;}
	.st9{fill:#E48034;}
	.st10{fill:#FDE6AB;}
	.st11{fill:#D0D2D3;}
	.st12{fill:#7F6949;}
	.st13{fill:#231F20;}
	.st14{fill:#231F20;stroke:#231F20;stroke-width:0.3649;stroke-miterlimit:10;}
	.st15{fill:#2D2C2C;stroke:#2D2C2C;stroke-width:0.4329;stroke-miterlimit:10;}
	.st16{fill:#FACCC4;}
	.st17{fill:#231F20;stroke:#231F20;stroke-width:0.7298;stroke-miterlimit:10;}
	.st18{fill:#66533A;}
	.st19{fill:#3B3327;}
	.st20{fill:#DE604D;}
	.st21{fill:#5E3034;}
	.st22{fill:#E8E5D5;}
	.st23{fill:#4A4D4E;}
	.st24{fill:#BBD0C4;}
</style>
<path class="st0" d="M88,140H12c-6.6,0-12-5.4-12-12V12C0,5.4,5.4,0,12,0h76c6.6,0,12,5.4,12,12v116C100,134.6,94.6,140,88,140z"/>
<rect x="7" y="6.9" class="st1" width="85.9" height="126.2"/>
<g>
	<path class="st2" d="M67.1,116.7c0,0,0.7,12.1-1.9,12.5c-1.9,0.3-4.2-7.3-4.2-7.3l1.7-5L67.1,116.7z"/>
	<path class="st3" d="M42,120.7c0,0,7.6,1.5,10.9,1c0,0,1.4,9.6,4.3,8.1c1.5-0.8,2.6-4.5,4.2-8.7l0.7-2c0,0,6.6-13.2-0.6-17.7
		c0,0-13.5-6.5-26.6,1.1s-1.9,18.2-1.9,18.2s1.9,8.3,4.1,8.9C40.2,130.4,42,120.7,42,120.7s0.5-1.6,0.3-2.5"/>
	<path class="st4" d="M63.7,90.7c0,0,0.8,13.4-2.1,13.4c-0.4,0-0.8-0.2-1.4-1c-3.4-5.5-3.2-6.9-3.2-6.9l1.9-5.3L63.7,90.7z"/>
	<path class="st5" d="M61.3,121"/>
	<path class="st0" d="M57.9,93c0,0,2.8,6.6,4.1,6.2c0.9-0.3,1-1.6,1.1-7.3c0,0-0.1-0.5-1.1-0.6C60.7,91.1,57.6,92.2,57.9,93z"/>
	<path class="st5" d="M54.3,100c-0.4,0.4-1.2,0.1-1.1-0.5c0.1-1.8,0.5-4.3,1.6-4.4c1.1-0.1,2.3,1.1,2.9,1.9c0.3,0.4,0.1,0.9-0.3,1
		C56.6,98.3,55.5,98.8,54.3,100z"/>
	<path class="st3" d="M53.2,100.9c0,0-0.3-7.9,1.7-8.2s3.3,0.2,5.4,3.7c0,0,5.5-1.6,9.7-0.3c0,0,2.1-4.7,5-4.2
		c1.7,0.3,2.1,4,1.8,7.7c0,0,5.9,12.4-4.2,16.6c0,0-7.6,3.2-12.4-0.4"/>
	<path class="st6" d="M58.7,97.3c0.4-0.1,0.6-0.5,0.4-0.9c-0.6-0.9-1.7-2.4-3-2.1c-1.3,0.2-1.3,2.6-1.1,4.1c0,0.5,0.6,0.7,1,0.4
		C56.5,98.3,57.4,97.7,58.7,97.3z"/>
	<path class="st4" d="M39.8,94.8c0,0,7.6,1.5,10.9,1c0,0,1.4,9.6,4.3,8.1c1.5-0.8,2.6-4.5,4.2-8.7l0.7-2c0,0,6.6-14.6-0.6-19.1
		c0,0-13.5-6.5-26.6,1.1s-1.9,19.7-1.9,19.7s1.9,8.3,4.1,8.9C38,104.5,39.8,94.8,39.8,94.8s0.5-1.6,0.3-2.5"/>
	<path class="st7" d="M63.4,63.5c0,0,0.8,13.4-2.1,13.4c-0.4,0-0.8-0.2-1.4-1c-3.4-5.5-3.2-6.9-3.2-6.9l1.9-5.3L63.4,63.5z"/>
	<path class="st0" d="M28.6,89.9c0,0,1.1,2.5,1.8,3.3c0.4,0.5,1.1,1.3,1.2,1.7c0.6,2.8,2,8.1,3.6,8.1c1.5,0,2.5-1.8,4.2-9.4
		c0-0.2,0.2-1.1-0.8-2.1c-0.6-0.6-2.5-2.4-3.7-2.8C32.9,87.9,27.8,88.5,28.6,89.9z"/>
	<path class="st5" d="M59.7,95.1"/>
	<path class="st4" d="M51.9,74.4c0,0-1.5-3.7,1.5-3.8c1.9-0.1,3.9-2.5,5.6-0.7c0,0,5.5-1.6,9.7-0.3c0,0,0.8-1.3,3.5-0.3
		c2.6,1.1,6.5-0.3,3.3,3.7c0,0,8.3,12.4-4.2,16.9c0,0-7.9,2.5-12.3,0.7"/>
	<path class="st0" d="M55.3,72.7c-1.9,2.6-1.6,9-1.5,11.4s-5,3.4-6.4,0c-2-4.6-0.5-9.1,0.1-10.7c0.2-0.4,0.5-0.8,0.9-1
		C49.4,72,51.6,71.4,55.3,72.7"/>
	<path class="st7" d="M37.8,67.5c0,0,7.6,1.5,10.9,1c0,0,1.4,9.6,4.3,8.1c1.5-0.8,2.6-4.5,4.2-8.7l0.7-2c0,0,6.6-13.5-0.6-18
		c0,0-13.5-6.5-26.6,1.1s-1.9,18.6-1.9,18.6s1.9,8.3,4.1,8.9C36,77.2,37.8,67.5,37.8,67.5s0.5-1.6,0.3-2.5"/>
	<path class="st7" d="M48.8,47.1c0,0,0.2-8.7,1.7-8.2c1.1,0.4,2.3,1.2,5.4,3.7c0,0,5.5-1.6,9.7-0.3c0,0,3-3.2,5-4.2
		c2.5-1.3,2.1,4,1.8,7.7c0,0,1.7,2.6,2.4,5.8c0.2,0.9,0.9,2.2,0.3,2.9c-1.8,2.2-1.8,6.3-6.9,8.1c0,0-7.7,3-12.3,0.7"/>
	<path class="st5" d="M57.2,67.8"/>
	<path class="st7" d="M27.7,51.7c-3.5-5.6-6.2-6.8-8.7-7.3c-2.8-0.5-5.2,0.4-7-1.2c-2.1-1.9-3.4-6.4-1.2-6.4c1.4,0,0.6,2.7,3,4.2
		c1.9,1.2,3.8,0.9,5.6,0.9c2.6,0,6.7,1.8,11.3,8.5"/>
	<path class="st4" d="M28,79.8c-1.5-1.9-5.1-6.6-5.2-13.3c0-2.4,0.7-4.6,0.2-6.2c-0.3-1.1-0.7-1.6-1.8-1.1
		c-2.6,1.4-2.7,9.6-0.3,15.2c1.8,4.3,4.6,7.3,6.5,9"/>
	<path class="st3" d="M30.8,110.5c-8.5-4.8-9.9-6.7-10.6-10.5c-0.3-1.9-0.7-3.5-1.9-5.8c-1.4-2.7-4-3.2-3.4-4.3
		c0.4-0.7,1.1-0.9,2.9,0.4c2.4,1.8,3.5,4.5,5,10c0.6,2.2,3,4.2,7.4,6.7"/>
	<path class="st8" d="M50.2,45.8c0,0,0-5.6,1-5c1.1,0.6,2.7,2.1,2.7,2.1L50.2,45.8z"/>
	<path class="st8" d="M71.8,96.4c-0.4-0.1-0.6-0.5-0.5-0.8c0.5-1,1.4-2.6,2.8-2.5c1.3,0.1,1.6,2.4,1.6,4c0,0.5-0.5,0.8-0.9,0.5
		C74.1,97.2,73.1,96.7,71.8,96.4z"/>
	<path class="st8" d="M67.4,42.3c0,0,3.8-4,3.9-2.4s0,4,0,4L67.4,42.3z"/>
	<path class="st9" d="M58.7,42.9c0,0,1.6,5,0.2,5.5c-1.4,0.6-2.9-5-2.9-5S57.2,42.9,58.7,42.9z"/>
	<path class="st9" d="M62.4,42.6c0,0,0.8,6.7-0.8,6.8c-1.6,0.1-2.1-6.7-2.1-6.7S61,42.4,62.4,42.6z"/>
	<path class="st9" d="M37.1,47.5c0,0,4.2,14.1,1.5,15.1s-6.4-13-6.4-13S33.8,47.7,37.1,47.5z"/>
	<path class="st9" d="M46.4,46.3c0,0,1.8,14.3-1,14.7c-2.8,0.4-4.2-14.1-4.2-14.1S43.1,45.8,46.4,46.3z"/>
	<ellipse transform="matrix(0.9908 -0.1356 0.1356 0.9908 -7.406 9.2239)" class="st10" cx="64" cy="59" rx="3.4" ry="2.1"/>
	
		<ellipse transform="matrix(0.9908 -0.1356 0.1356 0.9908 -14.5741 10.2419)" class="st11" cx="67.9" cy="112.1" rx="4.6" ry="2.8"/>
	<path class="st9" d="M65.6,43.1c0,0,0.8,4.7-0.6,5.3c-1.5,0.6-1.7-5.7-1.7-5.7S64.5,42.7,65.6,43.1z"/>
	<path class="st12" d="M62.7,96.7c0,0,1.4,5.1,0.1,5.6c-1.2,0.6-2.8-5.9-2.8-5.9S61.5,96.7,62.7,96.7z"/>
	<path class="st13" d="M63.2,96.7c0,0,1.4,5.1,0.1,5.6c-1.2,0.6-2.8-5.4-2.8-5.4S61.9,96.7,63.2,96.7z"/>
	<path class="st12" d="M66.6,96.4c0,0,0.8,6.8-0.8,6.9c-1.6,0.1-2.2-6.8-2.2-6.8S65.1,96.2,66.6,96.4z"/>
	<path class="st13" d="M67.1,96.4c0,0,0.8,6.8-0.8,6.9c-1.6,0.1-2.2-6.8-2.2-6.8S65.6,96.2,67.1,96.4z"/>
	<path class="st12" d="M69.6,96.5c0,0,0.3,5.2-0.8,5.8c-1.1,0.6-1.3-5.8-1.3-5.8S68.8,96.1,69.6,96.5z"/>
	<path class="st13" d="M70,96.5c0,0,0.3,5.2-0.8,5.8c-1.1,0.6-1.3-5.8-1.3-5.8S69.1,96.1,70,96.5z"/>
	<path class="st14" d="M63.3,58.3c0,0,0.7-0.5,1.4-0.1c0,0,0,0.3-0.4,0.6c0,0,0.1,1.1,0.8,1c0.6-0.1,0.7-0.3,0.7-0.3
		s0.6-0.7,0.4,0.1c-0.1,0.5-1.4,0.7-2,0c0,0-0.2,0.7-0.8,0.8c-0.6,0.1-0.9,0.1-1.1,0s-0.2-0.7,0.2-0.3c0.2,0.1,1.1,0.1,1.3-0.7
		c0.1-0.6,0-0.6,0-0.6S63.1,58.5,63.3,58.3z"/>
	<path class="st14" d="M67.4,111c0,0,0.6-0.5,1.1-0.1c0,0,0,0.3-0.3,0.6c0,0,0.1,1.1,0.6,1c0.5-0.1,0.5-0.3,0.5-0.3s0.5-0.7,0.3,0.1
		c-0.1,0.5-1.1,0.7-1.6,0c0,0-0.1,0.7-0.6,0.8s-0.7,0.1-0.8,0c-0.2-0.1-0.2-0.7,0.2-0.3c0.1,0.1,0.9,0.1,1-0.7c0.1-0.6,0-0.6,0-0.6
		S67.3,111.2,67.4,111z"/>
	<path class="st7" d="M73.8,49.9c0,0,1.1,1.2,2.3,1.3c2.1,0.2-0.2,1.5-0.2,1.5s1,0.4,0.2,1c-1.3,1.1-1.8,2-1.8,2"/>
	<path class="st7" d="M51.3,53.3c0,0-0.8,0.7-1.5,0.9c-1.3,0.4,0.1,1.1,0.1,1.1s-0.8,0.4,0,0.6c1.2,0.4,1.3,1.4,1.3,1.4"/>
	<ellipse class="st14" cx="59.3" cy="54.9" rx="0.7" ry="1.2"/>
	<path class="st9" d="M52.1,56c0,0,2.7-0.5,2.9,0.2c0.2,0.7-2.7,1.1-2.7,1.1S52.1,56.6,52.1,56z"/>
	<path class="st9" d="M52,53.7c0,0,2.7-0.1,2.9,0.6c0.1,0.7-2.8,0.7-2.8,0.7S51.9,54.3,52,53.7z"/>
	<path class="st9" d="M74,53.2c0,0-2.7-0.3-2.9,0.3c-0.2,0.7,2.8,0.9,2.8,0.9S74.1,53.9,74,53.2z"/>
	<path class="st9" d="M74,51.3c0,0-2.7,0-2.8,0.7C71,52.7,74,52.6,74,52.6S74.1,52,74,51.3z"/>
	<ellipse class="st14" cx="67.1" cy="54.3" rx="0.7" ry="1.2"/>
	<ellipse transform="matrix(0.9923 -0.1236 0.1236 0.9923 -12.6872 8.6528)" class="st14" cx="63.4" cy="106.6" rx="0.7" ry="1.2"/>
	<ellipse class="st14" cx="71.2" cy="106" rx="0.7" ry="1.2"/>
	<path class="st9" d="M14.5,41.9c0,0-0.1,0.8-1.1,1.6c0,0,1,0.3,1.5,0.3c0,0,0.8-0.8,0.7-1.5L14.5,41.9z"/>
	<path class="st9" d="M21,42.7c0,0-0.3,0.8-1,1.5c0,0,0.9,0.3,1.3,0.5c0,0,0.6-0.6,0.7-1.6L21,42.7z"/>
	<path class="st12" d="M23.7,102.5c0,0-0.8,0.8-1.5,1c0,0,0.4,0.5,0.7,0.8c0,0,0.9-0.5,1.3-1.2L23.7,102.5z"/>
	<path class="st13" d="M24.2,102.5c0,0-1.2,1.1-2.3,1.5c0,0,0.7,0.7,1.1,1.1c0,0,1.4-0.8,2-1.8L24.2,102.5z"/>
	<path class="st12" d="M22.1,99.2c0,0-0.9,0.4-1.5,0.3c0,0,0.1,0.6,0.2,0.9c0,0,0.9-0.1,1.5-0.4L22.1,99.2z"/>
	<path class="st13" d="M22.6,99.3c0,0-1.3,0.5-2.3,0.5c0,0,0.2,0.9,0.3,1.4c0,0,1.4-0.1,2.3-0.7L22.6,99.3z"/>
	<path class="st12" d="M20.8,95c0,0-0.7,0.3-1.4,0.3c0,0,0.2,0.7,0.4,1c0,0,0.8,0,1.4-0.4L20.8,95z"/>
	<path class="st13" d="M21.1,95.2c0,0-1,0.4-2,0.4c0,0,0.3,0.9,0.5,1.4c0,0,1.1,0,1.9-0.5L21.1,95.2z"/>
	<path class="st12" d="M18.5,91.3c0,0-0.5,0.5-1.2,0.7c0,0,0.4,0.4,0.7,0.7c0,0,0.6-0.3,1-0.9L18.5,91.3z"/>
	<path class="st13" d="M18.9,91.4c0,0-0.8,0.8-1.9,1.2c0,0,0.7,0.7,1.1,1.1c0,0,1-0.4,1.6-1.5L18.9,91.4z"/>
	<path class="st12" d="M26.8,105.3c0,0-0.6,0.9-1.3,1.3c0,0,0.5,0.4,0.9,0.6c0,0,0.8-0.6,1.1-1.4L26.8,105.3z"/>
	<path class="st13" d="M27.3,105.1c0,0-0.9,1.3-1.8,1.8c0,0,0.8,0.6,1.3,0.9c0,0,1.2-0.9,1.6-2L27.3,105.1z"/>
	<path class="st0" d="M63.4,72.4c0.6,0,1.5,0,2.5-0.5c0.3-0.2,0.7,0,0.8,0.3c0.8,2.8,3.8,12.4,8.2,14.9c0.2,0.1,0.2,0.3,0,0.4
		c-1.2,0.9-6,3.7-14.5,3.1c-0.2,0-0.3-0.2-0.2-0.4c0.8-1.7,4.3-9.3,2.5-17C62.6,72.8,63,72.3,63.4,72.4z"/>
	<ellipse class="st15" cx="66.1" cy="84.3" rx="1.1" ry="0.9"/>
	<path class="st14" d="M67.9,84.3c0,0-0.1,0.3-0.4,0.6c0,0,0.1,1.1,0.8,0.9c0.5-0.1,0.7-0.2,0.7-0.2s0.5-0.4,0.4,0.1
		c-0.1,0.4-1.4,0.7-2,0c0,0-0.2,0.7-0.7,0.8s-0.8,0.1-1,0c-0.2-0.1-0.1-0.6,0.2-0.3c0.2,0.1,1.1,0.1,1.2-0.6c0.1-0.6,0-0.6,0-0.6
		s-0.5-0.3-0.7-0.4C66.2,84.5,67.1,83.5,67.9,84.3z"/>
	<path class="st16" d="M66.6,84.5c0,0,0.4-0.8,1.1-0.1c0,0-0.1,0.2-0.3,0.5l-0.3,0.1C67.1,84.9,66.5,84.6,66.6,84.5z"/>
	<ellipse transform="matrix(0.1149 -0.9934 0.9934 0.1149 -25.3933 133.758)" class="st14" cx="62.4" cy="81.1" rx="1.4" ry="0.8"/>
	<ellipse transform="matrix(0.9399 -0.3415 0.3415 0.9399 -23.1158 28.7167)" class="st14" cx="70" cy="80" rx="0.7" ry="1.3"/>
	<path class="st0" d="M51.2,94.9c0,0,1,7.8,3,7.8c1.5,0,2.2-1.9,4.7-10.2c0.1-0.3,0-0.6-0.2-0.8c-0.7-0.7-3.4-1.3-5-1.3
		c-0.8,0-9.7,0.6-11,1.4c-0.8,0.5-1,1.3-0.2,1.9C43.3,94.2,51.2,94.5,51.2,94.9z"/>
	<g>
		<g>
			<path class="st13" d="M54.4,80.2c-0.2,0.4-0.3,0.9-0.3,1.4c-0.1,0.9,0.1,1.8,0.8,2.5c0.2,0.2,0.5,0.2,0.6,0
				c0.2-0.2,0.2-0.5,0-0.6c-0.1-0.1-0.1-0.1-0.2-0.2c-0.1-0.1-0.1-0.2-0.1-0.2c0,0,0-0.1,0-0.1c0,0,0,0,0,0c0,0,0-0.1-0.1-0.1
				c0-0.1,0-0.2-0.1-0.3c0,0,0-0.1,0-0.1c0-0.1,0-0.1,0,0c0,0,0,0,0-0.1c0-0.1,0-0.2,0-0.3c0-0.2,0-0.4,0-0.5c0,0,0-0.1,0,0
				c0,0,0-0.1,0-0.1c0-0.1,0-0.2,0-0.2c0-0.1,0.1-0.3,0.1-0.4c0-0.1,0.1-0.2,0.1-0.3c0.1-0.2-0.1-0.5-0.3-0.6
				C54.7,79.9,54.5,80,54.4,80.2L54.4,80.2z"/>
		</g>
	</g>
	<path class="st17" d="M60.2,96.4c0,0,0.3,1.2,4.8,0.9s4.8-0.5,4.9-1.2C69.9,96.1,66.1,94.8,60.2,96.4z"/>
	<ellipse transform="matrix(0.7071 -0.7071 0.7071 0.7071 -54.927 85.2968)" class="st14" cx="75.5" cy="109" rx="0.7" ry="2.3"/>
	
		<ellipse transform="matrix(0.7071 -0.7071 0.7071 0.7071 -60.5689 73.6726)" class="st14" cx="58.6" cy="109.9" rx="2.3" ry="0.7"/>
	<ellipse class="st12" cx="56.6" cy="127.1" rx="1.8" ry="0.3"/>
	<ellipse class="st12" cx="56.7" cy="125.7" rx="2.4" ry="0.4"/>
	<ellipse class="st12" cx="56.7" cy="124.5" rx="2.8" ry="0.4"/>
	<ellipse class="st13" cx="56.6" cy="127.3" rx="1.8" ry="0.3"/>
	<ellipse class="st13" cx="56.7" cy="125.9" rx="2.4" ry="0.4"/>
	<ellipse class="st13" cx="56.7" cy="124.7" rx="2.8" ry="0.4"/>
	<ellipse class="st12" cx="37.5" cy="127.1" rx="1.9" ry="0.4"/>
	<ellipse class="st12" cx="37.5" cy="125.7" rx="2.5" ry="0.4"/>
	<ellipse class="st12" cx="37.5" cy="124.5" rx="2.9" ry="0.4"/>
	<ellipse class="st13" cx="37.5" cy="127.3" rx="1.9" ry="0.4"/>
	<ellipse class="st13" cx="37.5" cy="125.9" rx="2.5" ry="0.4"/>
	<ellipse class="st13" cx="37.5" cy="124.7" rx="2.9" ry="0.4"/>
	<ellipse transform="matrix(0.9923 -0.1236 0.1236 0.9923 -15.0964 8.9615)" class="st18" cx="64.7" cy="126.2" rx="1.4" ry="0.3"/>
	<ellipse transform="matrix(0.9923 -0.1236 0.1236 0.9923 -14.936 8.9408)" class="st18" cx="64.6" cy="124.9" rx="1.9" ry="0.4"/>
	<ellipse transform="matrix(0.9923 -0.1236 0.1236 0.9923 -14.7881 8.913)" class="st18" cx="64.4" cy="123.7" rx="2.2" ry="0.4"/>
	<ellipse transform="matrix(0.9923 -0.1236 0.1236 0.9923 -15.1251 8.9632)" class="st13" cx="64.7" cy="126.4" rx="1.4" ry="0.3"/>
	<ellipse transform="matrix(0.9923 -0.1236 0.1236 0.9923 -14.9647 8.9426)" class="st13" cx="64.6" cy="125.1" rx="1.9" ry="0.4"/>
	<ellipse transform="matrix(0.9923 -0.1236 0.1236 0.9923 -14.8168 8.9147)" class="st13" cx="64.4" cy="123.9" rx="2.2" ry="0.4"/>
	<path class="st11" d="M43,118.3c0,0,11.5-1,10.8,1.3c-0.4,1.4-0.6,1.4-0.6,1.4s-4.5,0.6-10.5-0.7C42.7,120.3,43.1,119.3,43,118.3z"
		/>
	<path class="st12" d="M50.5,99.6c0,0,0.5,10.3,1.1,13.9c0.4,2.5-1.2,2.6-1.6,0.3c-0.4-2.3-1.5-6.4-1.1-14.3"/>
	<path class="st12" d="M47.8,99.7c0,0,0.5,8.8,1,11.9c0.3,1.9-1.1,2.2-1.4,0.2c-0.4-2-1.3-5.3-0.9-12"/>
	<path class="st12" d="M44.9,99.9c0,0,0.5,10.2,1.1,13.9c0.3,2-1.3,2.1-1.6,0.3c-0.4-2.3-1.5-6-1.1-13.8"/>
	<path class="st12" d="M42.2,100.4c0,0,0.5,8.3,1,11.5c0.3,1.9-1.1,2.2-1.4,0.2c-0.4-2-1.4-4.5-1-11.2"/>
	<path class="st13" d="M50.8,98.9c0,0,0.5,10.7,1.1,14.3c0.4,2.5-1.2,2.6-1.6,0.3c-0.4-2.3-1.5-6.8-1.1-14.7"/>
	<path class="st13" d="M48.2,98.9c0,0,0.5,9.3,1,12.5c0.3,1.9-1.1,2.2-1.4,0.2c-0.4-2-1.3-6-0.9-12.7"/>
	<path class="st13" d="M45.2,99c0,0,0.5,10.7,1.1,14.3c0.4,2.5-1.2,2.6-1.6,0.3c-0.4-2.3-1.5-6.6-1.1-14.4"/>
	<path class="st13" d="M42.5,99.4c0,0,0.5,8.9,1,12.1c0.3,1.9-1.1,2.2-1.4,0.2c-0.4-2-1.3-5.3-0.9-12"/>
	<path class="st13" d="M66.5,84.4c0,0,0.4-0.7,1.2-0.2c0,0,0,0.1,0,0.1C67.4,84.4,66.4,84.6,66.5,84.4z"/>
</g>
<g>
	<g>
		<path class="st19" d="M19.6,16.8c0,0.2-0.3,0.5-0.4,0.6c-0.3,0.1-1.7-0.8-1.8-1.2c-0.1-0.4,0.2-1.7,0.4-2.1
			c0.6-0.9,1.7-2.3,2.3-2.5c0.6-0.2,1.6,0.2,2,0.7c0,0,0.9-1.6,1.4-1.8c0.6-0.2,1.8,0.2,2.2,0.6c0,0,0.9-1.6,1.5-1.8
			c0.7-0.2,1.9,0.2,2.1,0.8c0.2,0.7,0.3,6.9,0.5,7.7c0.1,0.2,0.5,0.6,0.6,0.7c0.1,0.2-0.4,0.8-0.6,0.8c-0.2,0-1.2-0.5-1.4-1
			c-0.3-1-0.4-7-0.6-7.5c-0.1-0.2-0.4-0.4-0.6-0.3c-0.3,0.1-1.3,1.3-1.3,1.9c0.1,1.8,0.2,5.1,0.5,7.7c0,0.2,0,0.3-0.2,0.3
			c-0.4,0.1-1.1,0-1.2-0.3c-0.2-0.7-0.5-7.7-0.7-8.2c-0.1-0.2-0.5-0.4-0.7-0.4c-0.4,0.1-1.3,1.6-1.3,2.1c-0.1,1.9,0.1,4.9,0.4,7.5
			c0,0.2,0,0.3-0.2,0.3c-0.3,0.1-1.2,0.1-1.3-0.3c-0.2-0.7-0.5-8.2-0.6-8.6c-0.1-0.2-0.2-0.3-0.4-0.2c-0.2,0.1-0.9,1.2-1.4,2.2
			c0,0.1-0.1,0.5,0,0.7C18.9,15.7,19.6,16.6,19.6,16.8z"/>
		<path class="st19" d="M37.5,13.2c0.2-0.1,0.4,0,0.4,0.2c0.1,0.2,0,0.5,0,0.5c-0.3,1.6-0.6,3.1-1.6,3.4c-0.6,0.2-1.6,0-1.9-0.4
			c0,0-0.6,1.2-1.3,1.4c-0.5,0.2-1.8-0.2-2-0.9c-0.6-1.8,0-5.7,1.1-6c0.8-0.2,1.9,0.1,1.9,0.1c0.4-0.1,1.1-0.3,1.2,0.1
			c0.1,0.4,0.1,3.8,0.3,4.5c0.1,0.3,0.3,0.4,0.5,0.4c0.4-0.1,0.8-1.5,1.1-2.9C37.3,13.5,37.4,13.2,37.5,13.2z M33.1,12.2
			c-0.8,0.2-1,3.3-0.5,4.7c0.1,0.3,0.4,0.5,0.7,0.4c0.3-0.1,0.7-0.7,0.8-1.6c0.1-0.7,0-2.9-0.1-3.3C33.9,12.2,33.4,12.1,33.1,12.2z"
			/>
		<path class="st19" d="M42.9,15.3c-0.5,0.2-1.6-0.1-2-0.7L40.5,14c-0.5,1-1.1,2.4-1.5,2.5c-0.3,0.1-0.9-0.2-1-0.5
			c-0.1-0.2,0-0.3,0.2-0.4c0.7-0.5,1.4-1.6,1.8-2.4L38.8,11c-0.1-0.1-0.1-0.2-0.2-0.2c-0.1,0-0.1,0.1-0.1,0.2c0,0-0.2,1.4-0.4,2.7
			c0,0-0.1,0.4-0.2,0.5c-0.1,0-0.4,0-0.4-0.2c-0.1-0.2,0-0.5,0-0.5c0.2-1.1,0.3-2.6,0.3-2.6c0.1-0.8,0.2-1.2,0.6-1.4
			c0.3-0.1,1.2-0.1,1.4,0.3c0.3,0.6,0.8,1.3,1.1,1.8c0.4-1,0.5-2.1,0.5-2.7c0-0.2,0.1-0.3,0.2-0.4c0.4-0.1,1,0.2,1.1,0.5
			c0.1,0.3-0.7,2-1.3,3.4c0.3,0.4,0.5,0.8,0.7,1.2c0.2,0.3,0.8,0.7,1,0.6c0.4-0.1,0.6-1.2,0.9-2.7c0,0,0-0.3,0.2-0.3
			c0.2-0.1,0.4,0,0.4,0.2c0.1,0.2,0,0.5,0,0.5C44.2,13.5,43.9,14.9,42.9,15.3z"/>
	</g>
	<g>
		<g>
			<path class="st20" d="M54.7,17.3h-0.9c-0.6,0-1-0.4-1-0.9c0-0.5,0.4-1,1-1h2c0.5,0,0.9,0.4,0.9,0.9v2.9c0,0.7-0.3,1.1-0.8,1.4
				c-0.6,0.4-1.6,0.5-2.5,0.5c-3.1,0-4.4-2.3-4.4-5.1c0-2.7,1.2-5.2,4.2-5.2c0.7,0,2,0.1,2.8,0.6c0.3,0.2,0.5,0.5,0.5,0.9
				c0,0.5-0.3,1-0.9,1c-0.3,0-0.6-0.1-0.9-0.3c-0.3-0.1-0.7-0.2-1.2-0.2c-1.8,0-2.2,1.6-2.2,3.2c0,1.7,0.6,3.1,2.3,3.1
				c0.4,0,0.8-0.1,1.1-0.2V17.3z"/>
			<g>
				<path class="st21" d="M54.7,17.2c-0.6,0-1.5,0.1-1.7-0.6c-0.2-0.6,0.3-1,0.9-1.1c0.2,0,0.4,0,0.6,0c0.4,0,0.9,0,1.4,0
					c0.8,0.1,0.8,0.8,0.8,1.4c0,0.6,0,1.1,0,1.7c0,0.6,0.1,1.2-0.4,1.6c-0.7,0.7-2,0.8-2.9,0.8c-0.8,0-1.7-0.2-2.4-0.7
					c-1.3-1-1.7-2.7-1.7-4.2c0-1.6,0.4-3.4,1.8-4.3c0.7-0.5,1.5-0.7,2.4-0.7c0.9,0,1.8,0.1,2.6,0.6c0.5,0.3,0.8,1.1,0.3,1.5
					c-0.5,0.5-1.2,0-1.8-0.2c-0.7-0.2-1.5-0.2-2.1,0.2c-1.3,0.8-1.3,2.9-1,4.2c0.1,0.7,0.5,1.3,1.1,1.7c0.7,0.4,1.6,0.4,2.4,0.1
					c0,0,0.1-0.1,0.1-0.1c0-0.6,0-1.1,0-1.7c0-0.1-0.2-0.1-0.2,0c0,0.2,0,0.5,0,0.7c0,0.2,0.1,0.8,0,1c0,0-0.1,0-0.2,0
					c-0.2,0-0.3,0.1-0.5,0.1c-0.3,0-0.6,0-0.9,0c-0.5-0.1-1-0.4-1.3-0.9c-0.9-1.6-0.6-5.1,1.7-5.1c0.7,0,1.2,0.3,1.8,0.5
					c0.4,0.1,0.8,0,1.1-0.3c0.5-0.6,0.2-1.4-0.4-1.8c-0.8-0.5-1.9-0.6-2.9-0.6c-0.9,0-1.8,0.3-2.5,0.8c-1.4,1.1-1.8,3.1-1.7,4.8
					c0.1,1.7,0.7,3.4,2.2,4.3c0.9,0.5,1.9,0.6,2.9,0.5c0.9-0.1,2-0.3,2.5-1.2c0.3-0.5,0.2-1.1,0.2-1.6c0-0.7,0-1.3,0-2
					c0-0.6-0.3-1.1-1-1.2c-0.6,0-1.3,0-2,0c-0.8,0-1.4,0.7-1,1.5c0.3,0.8,1.2,0.6,1.9,0.6C54.8,17.4,54.8,17.2,54.7,17.2z"/>
			</g>
		</g>
		<g>
			<path class="st20" d="M58.5,12.1c0-0.6,0.5-1.1,1.1-1.1H64c0.5,0,1,0.4,1,1s-0.4,1-1,1h-3.4v2h2.5c0.5,0,1,0.4,1,0.9
				c0,0.5-0.4,1-1,1h-2.5V19H64c0.5,0,1,0.4,1,1c0,0.5-0.4,1-1,1h-4.5c-0.6,0-1.1-0.5-1.1-1.1V12.1z"/>
			<g>
				<path class="st21" d="M58.6,12.1c0.1-1.1,1.1-1,1.8-1c0.8,0,1.7,0,2.5,0c0.6,0,1.7-0.2,1.9,0.6c0.2,0.7-0.4,1.1-1,1.1
					c-0.3,0-0.7,0-1,0c-0.7,0-1.5,0-2.2,0c-0.1,0-0.1,0.1-0.1,0.1c0,0.7,0,1.3,0,2c0,0.1,0.1,0.1,0.1,0.1c0.5,0,1,0,1.5,0
					c0.7,0,1.8-0.1,1.8,0.8c0,1-1.1,0.8-1.8,0.8c-0.5,0-1,0-1.5,0c-0.1,0-0.1,0.1-0.1,0.1c0,0.7,0,1.5,0,2.2c0,0.1,0.1,0.1,0.1,0.1
					c1.1,0,2.3-0.1,3.4,0c1,0.1,1.1,1.5,0.1,1.7c-0.2,0-0.3,0-0.5,0c-0.7,0-1.4,0-2.2,0c-0.6,0-1.2,0-1.8,0c-0.7,0-1.1-0.5-1.1-1.2
					c0-1.3,0-2.6,0-3.9C58.6,14.5,58.6,13.3,58.6,12.1c0-0.1-0.2-0.1-0.2,0c0,2.6-0.1,5.2,0,7.8c0,0.7,0.5,1.2,1.3,1.2
					c0.7,0,1.4,0,2.1,0c0.7,0,1.5,0,2.2,0c0.8,0,1.4-0.7,1.1-1.5c-0.3-0.8-1.3-0.7-2-0.7c-0.8,0-1.6,0-2.4,0c0,0,0.1,0.1,0.1,0.1
					c0-0.7,0-1.5,0-2.2c0,0-0.1,0.1-0.1,0.1c0.7,0,1.4,0,2.1,0c0.7,0,1.5-0.2,1.5-1.1c0-0.9-0.8-1.1-1.5-1.1c-0.7,0-1.4,0-2.1,0
					c0,0,0.1,0.1,0.1,0.1c0-0.7,0-1.3,0-2c0,0-0.1,0.1-0.1,0.1c0.8,0,1.7,0,2.5,0c0.8,0,1.8,0.1,1.9-0.9c0.1-0.6-0.3-1.1-0.9-1.2
					c-0.2,0-0.5,0-0.7,0c-1,0-2.1,0-3.1,0c-0.3,0-0.6,0-0.9,0c-0.7,0-1.1,0.5-1.1,1.2C58.3,12.2,58.6,12.2,58.6,12.1z"/>
			</g>
		</g>
		<g>
			<path class="st20" d="M66.5,12c0-0.6,0.5-1.1,1.2-1.1c0.5,0,0.9,0.2,1.2,0.7l3,5.1h0.1V12c0-0.6,0.5-1.1,1.1-1.1s1.1,0.5,1.1,1.1
				v8c0,0.6-0.4,1.1-1.2,1.1c-0.5,0-0.9-0.2-1.2-0.7l-3-5h-0.1V20c0,0.6-0.5,1.1-1.1,1.1c-0.6,0-1.1-0.5-1.1-1.1V12z"/>
			<g>
				<path class="st21" d="M66.6,12c0.1-1.2,1.6-1.2,2.1-0.4c0.1,0.1,0.1,0.2,0.2,0.3c0.4,0.6,0.8,1.3,1.1,1.9
					c0.4,0.7,0.9,1.4,1.3,2.2c0.1,0.2,0.3,0.8,0.6,0.8c0.1,0,0.1-0.1,0.1-0.1c0-1.5,0-3,0-4.5c0-0.5,0.1-0.9,0.6-1.1
					c0.7-0.3,1.3,0.3,1.3,1c0,0.6,0,1.2,0,1.8c0,1.8,0,3.6,0,5.5c0,0.2,0,0.4,0,0.6c0,0.7-0.5,1.1-1.2,1c-0.8-0.1-1.2-1-1.6-1.6
					c-0.5-0.9-1.1-1.8-1.6-2.7c-0.2-0.3-0.4-0.7-0.6-1c-0.1-0.1-0.1-0.3-0.3-0.3c-0.1,0-0.1,0.1-0.1,0.1c0,0.9,0,1.9,0,2.8
					c0,0.5,0,1,0,1.6c0,0.1,0,0.1,0,0.2c-0.1,0.8-1,1.3-1.7,0.7c-0.5-0.5-0.3-1.7-0.3-2.4c0-1.3,0-2.5,0-3.8
					C66.6,13.6,66.6,12.8,66.6,12c0-0.1-0.2-0.1-0.2,0c0,2.2,0,4.4,0,6.6c0,0.8-0.2,1.9,0.6,2.4c0.7,0.4,1.5,0,1.7-0.8
					c0.1-0.4,0-0.8,0-1.1c0-1.2,0-2.5,0-3.7c0,0-0.1,0.1-0.1,0.1c0,0,0-0.1,0,0c0.1,0.1,0.1,0.2,0.2,0.3c0.2,0.4,0.5,0.8,0.7,1.2
					c0.5,0.9,1.1,1.8,1.6,2.7c0.4,0.7,0.8,1.4,1.7,1.4c0.9,0,1.3-0.7,1.3-1.5c0-1.9,0-3.9,0-5.8c0-0.6,0-1.2,0-1.8
					c-0.1-1.1-1.5-1.7-2.2-0.7c-0.2,0.3-0.2,0.7-0.2,1.1c0,0.5,0,1.1,0,1.6c0,0.9,0,1.8,0,2.7c0,0,0.1-0.1,0.1-0.1c0,0,0.1,0.1,0,0
					c-0.1-0.1-0.1-0.2-0.2-0.3c-0.2-0.3-0.4-0.6-0.6-1c-0.5-0.9-1-1.7-1.5-2.6c-0.3-0.5-0.5-1.1-0.9-1.5c-0.8-0.9-2.3-0.5-2.4,0.7
					C66.3,12.1,66.6,12.1,66.6,12z"/>
			</g>
		</g>
		<g>
			<path class="st20" d="M76.1,12.1c0-0.6,0.5-1.1,1.1-1.1h4.5c0.5,0,1,0.4,1,1s-0.4,1-1,1h-3.4v2h2.5c0.5,0,1,0.4,1,0.9
				c0,0.5-0.4,1-1,1h-2.5V19h3.4c0.5,0,1,0.4,1,1c0,0.5-0.4,1-1,1h-4.5c-0.6,0-1.1-0.5-1.1-1.1V12.1z"/>
			<g>
				<path class="st21" d="M76.2,12.1c0.1-1.1,1.1-1,1.8-1c0.8,0,1.7,0,2.5,0c0.6,0,1.7-0.2,1.9,0.6c0.2,0.7-0.4,1.1-1,1.1
					c-0.3,0-0.7,0-1,0c-0.7,0-1.5,0-2.2,0c-0.1,0-0.1,0.1-0.1,0.1c0,0.7,0,1.3,0,2c0,0.1,0.1,0.1,0.1,0.1c0.5,0,1,0,1.5,0
					c0.7,0,1.8-0.1,1.8,0.8c0,1-1.1,0.8-1.8,0.8c-0.5,0-1,0-1.5,0c-0.1,0-0.1,0.1-0.1,0.1c0,0.7,0,1.5,0,2.2c0,0.1,0.1,0.1,0.1,0.1
					c1.1,0,2.3-0.1,3.4,0c1,0.1,1.1,1.5,0.1,1.7c-0.2,0-0.3,0-0.5,0c-0.7,0-1.4,0-2.2,0c-0.6,0-1.2,0-1.8,0c-0.7,0-1.1-0.5-1.1-1.2
					c0-1.3,0-2.6,0-3.9C76.2,14.5,76.2,13.3,76.2,12.1c0-0.1-0.2-0.1-0.2,0c0,2.6-0.1,5.2,0,7.8c0,0.7,0.5,1.2,1.3,1.2
					c0.7,0,1.4,0,2.1,0c0.7,0,1.5,0,2.2,0c0.8,0,1.4-0.7,1.1-1.5c-0.3-0.8-1.3-0.7-2-0.7c-0.8,0-1.6,0-2.4,0c0,0,0.1,0.1,0.1,0.1
					c0-0.7,0-1.5,0-2.2c0,0-0.1,0.1-0.1,0.1c0.7,0,1.4,0,2.1,0c0.7,0,1.5-0.2,1.5-1.1c0-0.9-0.8-1.1-1.5-1.1c-0.7,0-1.4,0-2.1,0
					c0,0,0.1,0.1,0.1,0.1c0-0.7,0-1.3,0-2c0,0-0.1,0.1-0.1,0.1c0.8,0,1.7,0,2.5,0c0.8,0,1.8,0.1,1.9-0.9c0.1-0.6-0.3-1.1-0.9-1.2
					c-0.2,0-0.5,0-0.7,0c-1,0-2.1,0-3.1,0c-0.3,0-0.6,0-0.9,0c-0.7,0-1.1,0.5-1.1,1.2C75.9,12.2,76.2,12.2,76.2,12.1z"/>
			</g>
		</g>
	</g>
	<g>
		<g>
			<path class="st19" d="M36.7,20.7c1.1-0.7,2.3-1.3,3.5-1.8c0.3-0.1,0.6-0.3,0.9-0.4c0.2-0.1,0.3-0.1,0.5-0.2
				c0.3-0.1-0.1,0,0.2-0.1c0.7-0.2,1.3-0.5,2-0.7c0.3-0.1,1.3-0.5,0.5-0.8c-0.7-0.2-1.8,0-2.5,0.2c-2.9,0.9-5.7,2.1-8.3,3.7
				c-0.2,0.1-0.3,0.3-0.1,0.4c0.2,0.2,0.7,0.2,0.9,0.2C35.1,21.3,36,21.2,36.7,20.7L36.7,20.7z"/>
		</g>
	</g>
	<g>
		<g>
			<g>
				<path class="st22" d="M18.9,24.3c0-0.3,0-1.1,0.8-1.1h1.7c0.3,0,0.8,0.1,0.9,0.6c0.1,0.5,1.5,5.2,1.5,5.2H24
					c0,0,1.5-4.9,1.6-5.3c0.1-0.6,0.6-0.6,1-0.6h1.7c0.9,0,0.8,0.7,0.8,1.3c0.1,0.9,0.5,6.1,0.6,7.5c0,0.6,0.3,1.2-0.8,1.2h-0.8
					c-0.9,0-0.8-0.5-0.8-1.1c-0.1-0.7-0.3-5-0.4-6.2h-0.1c-0.2,0.9-1.4,4.6-1.5,5.2c-0.1,0.4-0.4,0.5-0.6,0.5h-1.4
					c-0.4,0-0.7-0.3-0.7-0.5c-0.2-0.7-1.3-4.4-1.5-5.2h-0.1l-0.2,6.2c0,0.6,0.1,1-0.8,1H19c-0.8,0-0.9-0.4-0.8-1
					C18.3,30.8,18.8,25,18.9,24.3z"/>
				<g>
					<path class="st23" d="M19,24.3c0-0.3,0-0.6,0.2-0.8c0.2-0.2,0.4-0.2,0.6-0.2c0.4,0,0.8,0,1.2,0c0.5,0,0.9,0,1.1,0.6
						c0.1,0.3,0.2,0.5,0.2,0.8c0.4,1.5,0.9,2.9,1.3,4.4c0,0,0.1,0.1,0.1,0.1c0,0,0.1,0,0.1,0c0.1,0,0.1,0,0.1-0.1
						c0.5-1.4,0.9-2.9,1.4-4.3c0.1-0.3,0.2-0.5,0.3-0.8c0.2-0.6,0.5-0.7,1-0.7c0.4,0,0.8,0,1.2,0c0.1,0,0.3,0,0.4,0
						c0.5,0,0.7,0.3,0.7,0.8c0.2,1.9,0.3,3.9,0.5,5.8c0.1,0.8,0.2,1.7,0.2,2.6c0,0.7-0.7,0.5-1.2,0.5c-0.2,0-0.5,0-0.7,0
						c-0.4-0.1-0.4-0.6-0.4-0.9c-0.1-2.1-0.2-4.2-0.4-6.2c0-0.1,0-0.1-0.1-0.1c0,0-0.1,0-0.1,0c-0.1,0-0.1,0-0.1,0.1
						c-0.3,1.2-0.7,2.3-1,3.5c-0.1,0.5-0.3,1-0.4,1.5c-0.1,0.3-0.2,0.6-0.6,0.7c-0.2,0-0.4,0-0.7,0c-0.2,0-0.4,0-0.7,0
						c-0.5-0.1-0.6-0.3-0.7-0.7c-0.2-0.5-0.3-1-0.4-1.5c-0.3-1.1-0.7-2.2-1-3.4c0,0-0.1-0.1-0.1-0.1c0,0-0.1,0-0.1,0
						c-0.1,0-0.1,0.1-0.1,0.1c-0.1,2-0.2,4-0.2,6c0,0.1,0,0.1,0,0.2c0,0.2,0,0.3,0,0.5C20.5,33,20.2,33,19.9,33c-0.2,0-0.5,0-0.8,0
						c-0.6,0-0.9-0.2-0.9-0.8c0.1-1.3,0.3-2.6,0.4-3.9C18.8,27,18.9,25.6,19,24.3c0-0.1-0.2-0.1-0.2,0c-0.3,2.6-0.5,5.3-0.8,7.9
						c-0.1,0.7,0.2,1.1,1,1.1c0.4,0,1.2,0.1,1.6-0.2c0.3-0.3,0.2-0.7,0.2-1.1c0-0.4,0-0.9,0.1-1.3c0.1-1.3,0.1-2.7,0.2-4
						c0-0.2,0-0.4,0-0.6c0-0.1,0.1-0.4-0.1-0.1c0,0,0-0.1,0,0.1c0,0.1,0,0.1,0.1,0.2c0,0.1,0.1,0.2,0.1,0.4c0.1,0.4,0.2,0.8,0.3,1.2
						c0.2,0.8,0.5,1.6,0.7,2.4c0.1,0.4,0.2,1.1,0.6,1.4c0.4,0.3,1.2,0.2,1.7,0.2c0.6,0,0.9-0.2,1-0.7c0.4-1.4,0.8-2.8,1.3-4.2
						c0.1-0.2,0.2-0.5,0.2-0.8c0-0.1-0.1,0-0.1-0.1c0,0,0,0.1,0,0.2c0,0.2,0,0.4,0,0.5c0.1,0.8,0.1,1.6,0.1,2.4
						c0,0.8,0.1,1.6,0.1,2.4c0,0.4,0,1.1,0.1,1.5c0.3,0.5,1,0.4,1.5,0.4c0.5,0,1.1,0,1.1-0.6c0.1-0.5-0.1-1.2-0.2-1.8
						c-0.1-0.8-0.1-1.7-0.2-2.5c-0.1-1.4-0.3-2.7-0.3-4.1c0-0.6-0.2-1.1-0.9-1.2c-0.5,0-1.1,0-1.6,0c-0.5,0-1,0-1.2,0.6
						c-0.2,0.4-0.3,0.9-0.4,1.3c-0.4,1.3-0.8,2.5-1.2,3.8c0,0.1-0.1,0.2-0.1,0.3c0-0.2,0.1,0.1,0.1,0c0-0.1,0-0.2-0.1-0.2
						c-0.2-0.6-0.3-1.1-0.5-1.7c-0.2-0.7-0.4-1.4-0.6-2.1c-0.1-0.4-0.2-0.9-0.4-1.3c-0.2-0.5-0.7-0.6-1.2-0.6c-0.5,0-1.1-0.1-1.6,0
						c-0.6,0.1-0.7,0.7-0.7,1.2C18.8,24.4,19,24.4,19,24.3z"/>
				</g>
			</g>
			<g>
				<path class="st22" d="M31.1,32c0.4-1.4,2.2-7.3,2.3-7.8c0.1-0.6,0.2-1,1.2-1h1.8c0.8,0,1,0.4,1.2,1c0.1,0.5,1.9,6.9,2.1,7.8
					c0.1,0.6,0.2,1.2-0.5,1.2h-0.8c-0.9,0-0.9-0.6-1-0.9C37.3,32,37.2,31.6,37,31h-3.1c-0.2,0.6-0.3,1-0.4,1.2c-0.1,0.6-0.2,1-0.9,1
					h-1.1C31,33.1,30.9,32.6,31.1,32z M36.6,29.3c-0.5-1.8-1-3.9-1.1-4.5h-0.1c-0.1,0.7-0.7,2.7-1.2,4.5H36.6z"/>
				<g>
					<path class="st23" d="M31.2,32.1c0.5-1.7,1-3.5,1.6-5.2c0.2-0.8,0.5-1.5,0.7-2.3c0.1-0.3,0.1-0.5,0.2-0.8
						c0.2-0.5,0.7-0.5,1.2-0.5c0.7,0,2.1-0.2,2.5,0.4c0.3,0.5,0.4,1.2,0.5,1.7c0.5,1.8,1,3.6,1.5,5.4c0.1,0.3,0.2,0.6,0.3,1
						c0,0.2,0.1,0.3,0.1,0.5c0.1,0.4-0.1,0.7-0.6,0.7c-0.5,0-1.2,0.1-1.4-0.3c-0.1-0.2-0.1-0.4-0.2-0.6c-0.1-0.4-0.2-0.8-0.4-1.1
						c0,0-0.1-0.1-0.1-0.1c-1,0-2,0-3.1,0c-0.1,0-0.1,0-0.1,0.1c-0.1,0.4-0.3,0.8-0.4,1.2c-0.1,0.5-0.2,0.8-0.8,0.8
						c-0.3,0-0.6,0-0.9,0c-0.1,0-0.2,0-0.2,0C31,33,31.1,32.5,31.2,32.1c0-0.1-0.2-0.2-0.2-0.1c-0.1,0.6-0.1,1.2,0.6,1.2
						c0.4,0,1.2,0.1,1.6-0.1c0.3-0.1,0.4-0.4,0.4-0.6c0.1-0.4,0.2-0.8,0.3-1.2c0-0.2,0-0.2,0.1-0.2c0,0,0.2,0,0.2,0
						c0.3,0,0.6,0,0.9,0c0.3,0,0.7,0,1,0c0.2,0,0.5-0.1,0.7,0c0.2,0.1-0.1-0.1,0.1,0.1c0.1,0.2,0.2,0.5,0.2,0.7
						c0.1,0.3,0.1,0.5,0.3,0.8c0.3,0.6,0.9,0.5,1.5,0.5c0.5,0,1-0.1,1-0.7c0-0.5-0.2-1-0.3-1.4c-0.2-0.6-0.3-1.2-0.5-1.9
						c-0.4-1.4-0.8-2.8-1.2-4.2c-0.1-0.4-0.2-0.8-0.3-1.1c-0.2-0.6-0.6-0.8-1.3-0.8c-0.6,0-1.1,0-1.7,0c-0.6,0-1,0.1-1.3,0.7
						c-0.2,0.4-0.3,0.9-0.4,1.4c-0.2,0.8-0.5,1.5-0.7,2.3c-0.5,1.5-0.9,3-1.4,4.5C30.9,32.2,31.1,32.2,31.2,32.1z"/>
					<path class="st23" d="M36.7,29.3c-0.4-1.5-0.8-3-1.1-4.5c0,0-0.1-0.1-0.1-0.1c0,0-0.1,0-0.1,0c0,0-0.1,0-0.1,0.1
						c-0.3,1.5-0.8,3-1.2,4.5c0,0.1,0,0.1,0.1,0.1c0.8,0,1.6,0,2.4,0c0.1,0,0.1-0.2,0-0.2c-0.8,0-1.6,0-2.4,0c0,0,0.1,0.1,0.1,0.1
						c0.4-1.5,0.8-3,1.2-4.5c0,0-0.1,0.1-0.1,0.1c0,0,0.1,0,0.1,0c0,0-0.1-0.1-0.1-0.1c0.3,1.5,0.8,3,1.1,4.5
						C36.5,29.5,36.8,29.4,36.7,29.3z"/>
				</g>
			</g>
			<g>
				<path class="st22" d="M41.3,24.6c0-0.6-0.2-1.4,0.9-1.4h3c2.5,0,3.9,1.4,3.8,3.4c0,1.4-0.8,2.3-1.8,2.8l1.2,1.6
					c0.3,0.4,0.5,0.5,0.9,0.5c0.3,1.4-0.3,1.9-1.3,1.9c-0.9,0-1.3-0.5-1.7-1.2L45,29.8h-1.2c0,0.4,0,1.8,0,2.3c0.1,0.8-0.1,1-0.8,1
					h-0.9c-0.8,0-0.9-0.7-0.8-1.3C41.3,30.5,41.3,25.1,41.3,24.6z M44.9,28.2c1.1,0,1.7-0.5,1.7-1.6c0-0.8-0.4-1.6-1.7-1.6h-1.2
					c0,0.8,0,2.7,0,3.2H44.9z"/>
				<g>
					<path class="st23" d="M41.4,24.6c0-0.7-0.1-1.3,0.8-1.3c0.3,0,0.6,0,0.9,0c0.8,0,1.6,0,2.4,0c1.4,0.1,2.8,0.7,3.2,2.1
						c0.5,1.6-0.1,3.2-1.6,3.9c-0.1,0-0.1,0.1,0,0.2c0.4,0.5,0.8,1,1.1,1.5c0.2,0.3,0.4,0.5,0.7,0.5c0.1,0,0.2,0,0.3,0.1
						c0.1,0.1,0.1,0.5,0,0.6c0,0.3-0.1,0.6-0.4,0.8c-0.5,0.3-1.3,0.3-1.7,0c-0.4-0.2-0.6-0.6-0.8-1c-0.4-0.6-0.8-1.3-1.2-1.9
						c-0.1-0.2-0.1-0.3-0.3-0.3c-0.3-0.1-0.8,0-1.1,0c-0.1,0-0.1,0.1-0.1,0.1c0,0.5,0,1,0,1.4c0,0.4,0.2,1.2-0.1,1.5
						c-0.2,0.3-0.9,0.2-1.2,0.2c-0.2,0-0.4,0-0.6-0.1c-0.3-0.1-0.4-0.5-0.4-0.8c-0.1-1.8,0.1-3.6,0.1-5.4
						C41.4,26,41.4,25.3,41.4,24.6c0-0.1-0.2-0.1-0.2,0c0.1,1.9,0,3.9,0,5.8c0,0.4,0,0.9,0,1.3c0,0.4,0,0.9,0.2,1.2
						c0.3,0.4,0.7,0.3,1.1,0.3c0.4,0,0.8,0.1,1.1-0.1c0.4-0.3,0.3-0.9,0.3-1.3c0-0.7,0-1.3,0-2c0,0-0.1,0.1-0.1,0.1
						c0.3,0,0.7,0.1,1,0c0.1,0,0.2,0.1,0.1-0.1c0,0,0,0,0,0.1c0.1,0.1,0.1,0.2,0.2,0.4c0.4,0.6,0.8,1.2,1.1,1.9
						c0.5,0.9,1.2,1.4,2.3,1.2c1-0.2,1.1-1.1,0.9-2c0,0-0.1-0.1-0.1-0.1c-0.7,0-0.9-0.5-1.3-1c-0.2-0.3-0.5-0.7-0.7-1
						c0,0.1,0,0.1,0,0.2c1.2-0.6,1.9-1.7,1.9-3c0-1-0.4-2-1.3-2.6C47,23.2,46,23.1,45,23.1c-0.9,0-1.7,0-2.6,0c-0.3,0-0.7,0-1,0.2
						c-0.4,0.3-0.3,0.9-0.3,1.3C41.2,24.8,41.4,24.8,41.4,24.6z"/>
					<path class="st23" d="M44.9,28.3c0.5,0,1-0.1,1.4-0.5c0.4-0.4,0.5-0.9,0.4-1.4c0-0.5-0.2-0.9-0.6-1.2c-0.4-0.3-0.8-0.3-1.3-0.3
						c-0.4,0-0.7,0-1.1,0c-0.1,0-0.1,0.1-0.1,0.1c0,1.1,0,2.2,0,3.2c0,0.1,0.1,0.1,0.1,0.1C44.1,28.3,44.5,28.3,44.9,28.3
						c0.1,0,0.1-0.2,0-0.2c-0.4,0-0.8,0-1.2,0c0,0,0.1,0.1,0.1,0.1c0-1.1,0-2.2,0-3.2c0,0-0.1,0.1-0.1,0.1c0.3,0,0.6,0,0.8,0
						c0.4,0,0.7,0,1.1,0.1c0.9,0.3,1.1,1.5,0.6,2.3c-0.3,0.5-0.8,0.6-1.4,0.6C44.8,28.1,44.8,28.3,44.9,28.3z"/>
				</g>
			</g>
			<g>
				<path class="st22" d="M51,31.2c0-1.8,0-5.1,0-6.1c0-0.4-0.1-0.9,0-1.3c0-0.3,0.2-0.6,0.8-0.6h1c0.7,0,0.8,0.5,0.8,0.9
					c0,0.2,0,0.4,0,0.8c0,1.2-0.1,4.7-0.1,6.2c1,0,2.7,0,3.2,0c0.5-0.1,0.8,0.3,0.8,0.7c0,0.2,0,0.5,0,0.7c0,0.5-0.1,0.6-0.7,0.6
					h-4.8c-0.7,0-0.8-0.5-0.8-0.9C50.9,32,51,31.6,51,31.2z"/>
				<g>
					<path class="st23" d="M51.1,31.2c0.1-2.3,0.1-4.7,0-7c0-0.5,0.1-0.9,0.7-0.9c0.2,0,0.3,0,0.5,0c0.2,0,0.3,0,0.5,0
						c0.5,0,0.6,0.3,0.7,0.7c0.1,0.5,0,1,0,1.5c0,0.6,0,1.1,0,1.7c0,1.3,0,2.6,0,3.9c0,0.1,0.1,0.1,0.1,0.1c1,0,2,0,3.1,0
						c0.4,0,0.7,0.1,0.7,0.5c0,0.3,0.1,0.8,0,1.1c-0.1,0.3-0.5,0.3-0.8,0.3c-1.4,0-2.8,0-4.1,0c-0.2,0-0.4,0-0.5,0
						C50.9,33,51.1,31.9,51.1,31.2c0-0.1-0.2-0.1-0.2,0c0,0.9-0.1,2,1.1,2c0.8,0,1.7,0,2.5,0c0.7,0,1.4,0,2.2,0c0.3,0,0.7,0,0.8-0.4
						c0.1-0.3,0.1-0.6,0.1-0.9c0-0.3,0-0.6-0.2-0.8c-0.3-0.4-1-0.2-1.4-0.2c-0.8,0-1.6,0-2.4,0c0,0,0.1,0.1,0.1,0.1c0-1.3,0-2.7,0-4
						c0-0.6,0-1.3,0-1.9c0-0.5,0.1-1.1-0.1-1.6c-0.2-0.4-0.5-0.5-1-0.5c-0.4,0-0.9-0.1-1.3,0.1c-0.6,0.2-0.4,1-0.4,1.5
						c0,0.6,0,1.1,0,1.7c0,1.6,0,3.3,0,4.9C50.8,31.4,51.1,31.4,51.1,31.2z"/>
				</g>
			</g>
			<g>
				<path class="st22" d="M62.7,23.1c2.9,0,4.6,2.2,4.6,5.1c0,2.9-1.5,5.1-4.5,5.1c-3.1,0-4.6-2.2-4.6-5.1
					C58.2,25.3,59.7,23.1,62.7,23.1z M64.7,28.2c0-1.6-0.5-3-2-3c-1.6,0-2,1.4-2,3c0,1.6,0.4,3.1,2,3.1
					C64.3,31.2,64.7,29.7,64.7,28.2z"/>
				<g>
					<path class="st23" d="M62.7,23.2c2.1,0,3.8,1.3,4.3,3.4c0.4,1.8,0.1,4.2-1.3,5.5c-1.4,1.3-4,1.4-5.5,0.3
						c-1.6-1.2-2-3.4-1.7-5.3c0.1-1,0.5-2,1.2-2.8C60.5,23.5,61.6,23.2,62.7,23.2c0.1,0,0.1-0.2,0-0.2c-2.2,0-3.8,1.3-4.4,3.4
						c-0.5,1.9-0.3,4.4,1.1,5.8c1.4,1.4,4,1.7,5.7,0.6c1.8-1.1,2.4-3.6,2.1-5.6c-0.1-1.1-0.6-2.2-1.4-3c-0.9-0.8-2-1.2-3.2-1.2
						C62.6,23,62.6,23.2,62.7,23.2z"/>
					<path class="st23" d="M64.8,28.2c0-1-0.2-2.5-1.2-3c-1-0.5-2.2,0-2.6,1c-0.2,0.5-0.3,1.1-0.3,1.7c0,0.6,0,1.2,0.2,1.8
						c0.1,0.5,0.4,1,0.8,1.3c0.5,0.3,1.1,0.4,1.6,0.3C64.6,31,64.8,29.3,64.8,28.2c0-0.1-0.2-0.1-0.2,0c0,0.9-0.1,2.2-1,2.7
						c-0.5,0.3-1.1,0.3-1.6,0c-0.4-0.2-0.7-0.6-0.9-1.1c-0.6-1.5-0.4-5.2,2.1-4.6c1.2,0.3,1.4,1.8,1.4,2.9
						C64.6,28.3,64.8,28.3,64.8,28.2z"/>
				</g>
			</g>
			<g>
				<path class="st22" d="M68.3,24.5c-0.1-0.6-0.2-1.2,0.6-1.2h0.8c0.8,0,1,0.7,1,0.9l1.3,7h0.1c0.3-1.6,1.2-6.4,1.4-6.9
					c0.1-0.6,0.2-1,1-1H76c0.8,0,0.9,0.7,1,1c0.2,1,1.1,5.7,1.4,6.9h0.1c0.2-1.5,1.1-6.5,1.2-7c0.1-0.6,0.2-1,0.9-1h1.1
					c0.6,0,0.6,0.6,0.5,1.2c-0.3,1.5-1.6,6.7-1.8,7.3c-0.1,0.6-0.2,1.4-1.3,1.4h-1.5c-0.5,0-1-0.2-1.1-0.9c-0.1-0.7-1.1-5.5-1.3-6.8
					h-0.1c-0.3,1.6-1.2,6-1.3,6.8c-0.1,0.7-0.5,0.9-1.1,0.9h-1.6c-0.9,0-1.1-0.7-1.2-1.3C69.8,31.2,68.5,25.4,68.3,24.5z"/>
				<g>
					<path class="st23" d="M68.4,24.4c-0.1-0.5-0.2-1,0.5-1.1c0.2,0,0.5,0,0.7,0c0.6,0,0.9,0.3,1,0.9c0.1,0.7,0.3,1.4,0.4,2
						c0.3,1.6,0.6,3.2,0.9,4.9c0,0,0.1,0.1,0.1,0.1c0,0,0,0,0.1,0c0,0,0.1,0,0.1-0.1c0.4-2.3,0.9-4.6,1.4-6.9
						c0.1-0.5,0.2-0.9,0.9-0.9c0.2,0,0.3,0,0.5,0c0.6,0,1.4-0.1,1.7,0.4c0.2,0.4,0.2,0.9,0.3,1.3c0.1,0.6,0.2,1.2,0.4,1.9
						c0.3,1.4,0.6,2.8,0.9,4.2c0,0,0.1,0.1,0.1,0.1c0,0,0.1,0,0.1,0c0,0,0.1,0,0.1-0.1c0.3-2,0.7-4.1,1.1-6.1c0-0.3,0.1-0.6,0.1-0.8
						c0-0.2,0.1-0.5,0.2-0.7c0.2-0.3,0.6-0.3,0.9-0.3c0.4,0,1.1-0.1,1.3,0.3c0.2,0.4-0.1,1.1-0.2,1.5c-0.5,2-1,4.1-1.5,6.1
						c-0.1,0.3-0.1,0.6-0.2,0.9C80,32.9,79.5,33,78.9,33c-0.4,0-0.8,0-1.1,0c-0.7,0-0.9-0.4-1.1-1.1c-0.4-2.2-0.8-4.4-1.3-6.6
						c0,0-0.1-0.1-0.1-0.1c0,0,0,0-0.1,0c0,0-0.1,0-0.1,0.1c-0.3,1.5-0.6,2.9-0.9,4.4c-0.1,0.7-0.3,1.3-0.4,2c0,0.2-0.1,0.4-0.1,0.6
						c-0.2,0.5-0.5,0.7-1,0.7c-0.5,0-1,0-1.5,0c-0.9-0.1-1-0.8-1.2-1.5c-0.3-1.2-0.6-2.3-0.8-3.5C68.9,26.9,68.6,25.7,68.4,24.4
						c0-0.1-0.2-0.1-0.2,0.1c0.2,1.4,0.6,2.7,0.9,4.1c0.3,1.2,0.5,2.6,0.9,3.8c0.2,0.6,0.7,0.8,1.3,0.8c0.6,0,1.3,0.1,1.9,0
						c0.7-0.2,0.7-0.8,0.9-1.4c0.2-0.8,0.3-1.6,0.5-2.5c0.2-1,0.4-1.9,0.6-2.9c0-0.2,0.1-0.4,0.1-0.6c0-0.1,0.1-0.2,0.1-0.3
						c0,0-0.1-0.1-0.1-0.1c0,0.2,0.1,0.7,0.2,0.9c0.4,1.7,0.7,3.4,1,5.1c0.1,0.5,0.1,1.1,0.6,1.5c0.5,0.3,1.2,0.2,1.7,0.2
						c0.6,0,1.2,0.1,1.6-0.4c0.3-0.4,0.4-1.1,0.5-1.6c0.4-1.6,0.8-3.3,1.2-4.9c0.2-0.8,1.2-3.1-0.2-3.2c-0.5,0-1.3-0.1-1.7,0.2
						c-0.4,0.3-0.4,0.9-0.5,1.3c-0.3,1.7-0.6,3.3-0.9,5c-0.1,0.4-0.1,0.8-0.2,1.1c0,0.1-0.1,0.3-0.1,0.4c0,0,0.1,0,0.1,0
						c0-0.1,0-0.2-0.1-0.3c-0.1-0.8-0.3-1.6-0.5-2.3c-0.3-1.5-0.5-3-0.9-4.5c-0.2-0.6-0.5-0.9-1.1-0.9c-0.5,0-1.3-0.1-1.8,0
						c-0.6,0.2-0.6,0.7-0.7,1.2c-0.1,0.6-0.3,1.3-0.4,1.9c-0.2,0.9-0.4,1.9-0.6,2.8c-0.1,0.4-0.2,0.8-0.2,1.2c0,0.1-0.1,0.3-0.1,0.5
						c0,0.1,0,0.1,0,0.2c0,0,0.2,0,0.1,0.1c0.1-0.2-0.2-0.9-0.2-1.1c-0.1-0.7-0.3-1.4-0.4-2.1c-0.2-1.2-0.5-2.5-0.7-3.7
						c-0.1-0.4-0.1-0.7-0.5-1C70,23,69.2,23,68.7,23.1c-0.7,0.1-0.6,0.8-0.5,1.4C68.2,24.6,68.4,24.6,68.4,24.4z"/>
				</g>
			</g>
		</g>
		<g>
			<g>
				<path class="st24" d="M19.4,23.2c-0.6,0.3-0.6,1.1-0.7,1.7c-0.1,0.9-0.1,1.7-0.1,2.6c-0.2,1.7-0.5,3.4-0.5,5.1
					c0,0.6,0.9,0.6,0.9,0c0-1.5,0.3-3,0.5-4.4c0.1-0.7,0.1-1.5,0.2-2.2c0-0.3,0-0.7,0.1-1c0-0.2,0-0.8,0.2-0.9
					C20.4,23.7,19.9,22.9,19.4,23.2L19.4,23.2z"/>
			</g>
		</g>
		<g>
			<g>
				<path class="st24" d="M32,32.6c-0.1-0.7,0.2-1.3,0.4-1.9c0.2-0.7,0.4-1.4,0.7-2.1c0.5-1.6,0.9-3.2,1.6-4.7
					c0.2-0.5-0.7-0.8-0.9-0.2c-0.6,1.6-1.1,3.2-1.6,4.8c-0.2,0.7-0.4,1.4-0.6,2.1c0,0.2-0.1,0.3-0.2,0.5c0.1-0.2,0,0-0.1,0.1
					c-0.1,0.2-0.1,0.3-0.2,0.5c-0.1,0.3-0.1,0.7-0.1,1C31.1,33.2,32,33.2,32,32.6L32,32.6z"/>
			</g>
		</g>
		<g>
			<g>
				<path class="st24" d="M38.4,32.3c0-0.1-0.1-0.1-0.1-0.2c0,0,0-0.1,0,0c0,0.1,0,0,0,0c0-0.1,0-0.1-0.1-0.2
					c-0.1-0.2-0.1-0.4-0.2-0.6c0-0.1-0.1-0.3-0.1-0.4c-0.1-0.3-0.3-0.5-0.5-0.6c-0.2-0.1-0.4-0.1-0.6-0.1c-0.2,0-0.4,0-0.6,0
					c-0.2,0-0.5,0.2-0.5,0.5c0,0.2,0.2,0.5,0.5,0.5c0.2,0,0.3,0,0.5,0c0.1,0,0.2,0,0.2,0c0,0,0.1,0,0.1,0c0,0,0.1,0,0.1,0
					c0,0-0.1,0,0,0c0,0,0,0,0,0c0,0,0,0-0.1,0c0,0,0,0,0,0c0,0-0.1-0.1,0,0c0,0,0.1,0.1,0,0c-0.1-0.1,0,0.1,0,0c0-0.1,0,0,0,0
					c0,0,0,0,0,0.1c0.1,0.3,0.2,0.7,0.3,1c0.1,0.2,0.1,0.4,0.3,0.6c0.1,0.2,0.4,0.3,0.6,0.2C38.4,32.8,38.6,32.5,38.4,32.3
					L38.4,32.3z"/>
			</g>
		</g>
		<g>
			<g>
				<path class="st24" d="M41.9,23.2c-0.8,0.3-0.6,1.2-0.6,1.8c0,0.9,0,1.8,0,2.7c0,0.9,0,1.8,0,2.7c0,0.8-0.2,1.7,0.2,2.4
					c0.3,0.5,1.1,0.1,0.8-0.5c-0.1-0.3-0.1-0.6-0.1-0.9c0-0.4,0-0.7,0-1.1c0-0.7,0-1.5,0-2.2c0-0.7,0-1.4,0-2.2c0-0.4,0-0.7,0-1.1
					c0-0.2,0-0.4,0-0.5c0-0.1,0.1-0.4-0.1-0.3C42.7,23.9,42.5,23,41.9,23.2L41.9,23.2z"/>
			</g>
		</g>
		<g>
			<g>
				<path class="st24" d="M51.1,23.6C51,24.5,51,25.3,51,26.2c0,0.8,0,1.7,0,2.5c0,0.9,0,1.7,0,2.6c0,0.7-0.1,1.6,0.7,1.9
					c0.5,0.2,0.8-0.7,0.2-0.9c-0.1,0,0-0.9,0-1c0-0.3,0-0.7,0-1c0-0.7,0-1.4,0-2.1c0-0.7,0-1.4,0-2.1c0-0.7,0-1.5,0.1-2.2
					C52.1,23.3,51.2,23,51.1,23.6L51.1,23.6z"/>
			</g>
		</g>
		<g>
			<g>
				<path class="st24" d="M59.7,24.1c-0.2,0.3-0.5,0.4-0.7,0.7c-0.2,0.3-0.3,0.7-0.4,1.1c-0.3,0.9-0.4,1.8-0.4,2.8
					c0,0.4,0,0.9,0.1,1.3c0.1,0.4,0.3,0.7,0.4,1c0.4,0.7,0.9,1.2,1.5,1.7c0.5,0.3,1-0.5,0.5-0.8c-0.5-0.3-0.9-0.8-1.2-1.4
					c-0.4-0.7-0.4-1.4-0.4-2.2c0-0.8,0.1-1.5,0.4-2.3c0.1-0.3,0.2-0.7,0.4-0.9c0.2-0.2,0.5-0.4,0.6-0.6
					C60.9,24.1,60.1,23.7,59.7,24.1L59.7,24.1z"/>
			</g>
		</g>
		<g>
			<g>
				<path class="st24" d="M68.3,23.6c-0.2,0.8,0.2,1.8,0.3,2.6c0.2,0.9,0.4,1.8,0.6,2.7c0.2,0.9,0.4,1.8,0.6,2.7
					c0.2,0.6,0.2,1.5,1,1.7c0.6,0.1,0.8-0.7,0.2-0.9c-0.2,0-0.2-0.6-0.3-0.8c-0.1-0.4-0.2-0.8-0.3-1.1c-0.2-0.7-0.3-1.4-0.5-2.2
					c-0.2-0.7-0.3-1.5-0.5-2.2c-0.1-0.3-0.1-0.7-0.2-1c-0.1-0.4-0.3-0.8-0.2-1.2C69.4,23.3,68.5,23,68.3,23.6L68.3,23.6z"/>
			</g>
		</g>
		<g>
			<g>
				<path class="st24" d="M75.4,26.2c0.2,1.3,0.6,2.6,0.8,3.9c0.1,0.6,0.2,1.2,0.3,1.8c0.1,0.5,0.3,1,0.7,1.3c0.5,0.3,1-0.5,0.5-0.8
					c-0.3-0.2-0.3-0.8-0.4-1.1c-0.1-0.6-0.2-1.2-0.3-1.8c-0.2-1.2-0.5-2.3-0.7-3.5C76.2,25.3,75.3,25.6,75.4,26.2L75.4,26.2z"/>
			</g>
		</g>
		<g>
			<g>
				<g>
					<path class="st23" d="M19,24.3c0-0.3,0-0.6,0.2-0.8c0.2-0.2,0.4-0.2,0.6-0.2c0.4,0,0.8,0,1.2,0c0.5,0,0.9,0,1.1,0.6
						c0.1,0.3,0.2,0.5,0.2,0.8c0.4,1.5,0.9,2.9,1.3,4.4c0,0,0.1,0.1,0.1,0.1c0,0,0.1,0,0.1,0c0.1,0,0.1,0,0.1-0.1
						c0.5-1.4,0.9-2.9,1.4-4.3c0.1-0.3,0.2-0.5,0.3-0.8c0.2-0.6,0.5-0.7,1-0.7c0.4,0,0.8,0,1.2,0c0.1,0,0.3,0,0.4,0
						c0.5,0,0.7,0.3,0.7,0.8c0.2,1.9,0.3,3.9,0.5,5.8c0.1,0.8,0.2,1.7,0.2,2.6c0,0.7-0.7,0.5-1.2,0.5c-0.2,0-0.5,0-0.7,0
						c-0.4-0.1-0.4-0.6-0.4-0.9c-0.1-2.1-0.2-4.2-0.4-6.2c0-0.1,0-0.1-0.1-0.1c0,0-0.1,0-0.1,0c-0.1,0-0.1,0-0.1,0.1
						c-0.3,1.2-0.7,2.3-1,3.5c-0.1,0.5-0.3,1-0.4,1.5c-0.1,0.3-0.2,0.6-0.6,0.7c-0.2,0-0.4,0-0.7,0c-0.2,0-0.4,0-0.7,0
						c-0.5-0.1-0.6-0.3-0.7-0.7c-0.2-0.5-0.3-1-0.4-1.5c-0.3-1.1-0.7-2.2-1-3.4c0,0-0.1-0.1-0.1-0.1c0,0-0.1,0-0.1,0
						c-0.1,0-0.1,0.1-0.1,0.1c-0.1,2-0.2,4-0.2,6c0,0.1,0,0.1,0,0.2c0,0.2,0,0.3,0,0.5C20.5,33,20.2,33,19.9,33c-0.2,0-0.5,0-0.8,0
						c-0.6,0-0.9-0.2-0.9-0.8c0.1-1.3,0.3-2.6,0.4-3.9C18.8,27,18.9,25.6,19,24.3c0-0.1-0.2-0.1-0.2,0c-0.3,2.6-0.5,5.3-0.8,7.9
						c-0.1,0.7,0.2,1.1,1,1.1c0.4,0,1.2,0.1,1.6-0.2c0.3-0.3,0.2-0.7,0.2-1.1c0-0.4,0-0.9,0.1-1.3c0.1-1.3,0.1-2.7,0.2-4
						c0-0.2,0-0.4,0-0.6c0-0.1,0.1-0.4-0.1-0.1c0,0,0-0.1,0,0.1c0,0.1,0,0.1,0.1,0.2c0,0.1,0.1,0.2,0.1,0.4c0.1,0.4,0.2,0.8,0.3,1.2
						c0.2,0.8,0.5,1.6,0.7,2.4c0.1,0.4,0.2,1.1,0.6,1.4c0.4,0.3,1.2,0.2,1.7,0.2c0.6,0,0.9-0.2,1-0.7c0.4-1.4,0.8-2.8,1.3-4.2
						c0.1-0.2,0.2-0.5,0.2-0.8c0-0.1-0.1,0-0.1-0.1c0,0,0,0.1,0,0.2c0,0.2,0,0.4,0,0.5c0.1,0.8,0.1,1.6,0.1,2.4
						c0,0.8,0.1,1.6,0.1,2.4c0,0.4,0,1.1,0.1,1.5c0.3,0.5,1,0.4,1.5,0.4c0.5,0,1.1,0,1.1-0.6c0.1-0.5-0.1-1.2-0.2-1.8
						c-0.1-0.8-0.1-1.7-0.2-2.5c-0.1-1.4-0.3-2.7-0.3-4.1c0-0.6-0.2-1.1-0.9-1.2c-0.5,0-1.1,0-1.6,0c-0.5,0-1,0-1.2,0.6
						c-0.2,0.4-0.3,0.9-0.4,1.3c-0.4,1.3-0.8,2.5-1.2,3.8c0,0.1-0.1,0.2-0.1,0.3c0-0.2,0.1,0.1,0.1,0c0-0.1,0-0.2-0.1-0.2
						c-0.2-0.6-0.3-1.1-0.5-1.7c-0.2-0.7-0.4-1.4-0.6-2.1c-0.1-0.4-0.2-0.9-0.4-1.3c-0.2-0.5-0.7-0.6-1.2-0.6c-0.5,0-1.1-0.1-1.6,0
						c-0.6,0.1-0.7,0.7-0.7,1.2C18.8,24.4,19,24.4,19,24.3z"/>
				</g>
			</g>
			<g>
				<g>
					<path class="st23" d="M31.2,32.1c0.5-1.7,1-3.5,1.6-5.2c0.2-0.8,0.5-1.5,0.7-2.3c0.1-0.3,0.1-0.5,0.2-0.8
						c0.2-0.5,0.7-0.5,1.2-0.5c0.7,0,2.1-0.2,2.5,0.4c0.3,0.5,0.4,1.2,0.5,1.7c0.5,1.8,1,3.6,1.5,5.4c0.1,0.3,0.2,0.6,0.3,1
						c0,0.2,0.1,0.3,0.1,0.5c0.1,0.4-0.1,0.7-0.6,0.7c-0.5,0-1.2,0.1-1.4-0.3c-0.1-0.2-0.1-0.4-0.2-0.6c-0.1-0.4-0.2-0.8-0.4-1.1
						c0,0-0.1-0.1-0.1-0.1c-1,0-2,0-3.1,0c-0.1,0-0.1,0-0.1,0.1c-0.1,0.4-0.3,0.8-0.4,1.2c-0.1,0.5-0.2,0.8-0.8,0.8
						c-0.3,0-0.6,0-0.9,0c-0.1,0-0.2,0-0.2,0C31,33,31.1,32.5,31.2,32.1c0-0.1-0.2-0.2-0.2-0.1c-0.1,0.6-0.1,1.2,0.6,1.2
						c0.4,0,1.2,0.1,1.6-0.1c0.3-0.1,0.4-0.4,0.4-0.6c0.1-0.4,0.2-0.8,0.3-1.2c0-0.2,0-0.2,0.1-0.2c0,0,0.2,0,0.2,0
						c0.3,0,0.6,0,0.9,0c0.3,0,0.7,0,1,0c0.2,0,0.5-0.1,0.7,0c0.2,0.1-0.1-0.1,0.1,0.1c0.1,0.2,0.2,0.5,0.2,0.7
						c0.1,0.3,0.1,0.5,0.3,0.8c0.3,0.6,0.9,0.5,1.5,0.5c0.5,0,1-0.1,1-0.7c0-0.5-0.2-1-0.3-1.4c-0.2-0.6-0.3-1.2-0.5-1.9
						c-0.4-1.4-0.8-2.8-1.2-4.2c-0.1-0.4-0.2-0.8-0.3-1.1c-0.2-0.6-0.6-0.8-1.3-0.8c-0.6,0-1.1,0-1.7,0c-0.6,0-1,0.1-1.3,0.7
						c-0.2,0.4-0.3,0.9-0.4,1.4c-0.2,0.8-0.5,1.5-0.7,2.3c-0.5,1.5-0.9,3-1.4,4.5C30.9,32.2,31.1,32.2,31.2,32.1z"/>
					<path class="st23" d="M36.7,29.3c-0.4-1.5-0.8-3-1.1-4.5c0,0-0.1-0.1-0.1-0.1c0,0-0.1,0-0.1,0c0,0-0.1,0-0.1,0.1
						c-0.3,1.5-0.8,3-1.2,4.5c0,0.1,0,0.1,0.1,0.1c0.8,0,1.6,0,2.4,0c0.1,0,0.1-0.2,0-0.2c-0.8,0-1.6,0-2.4,0c0,0,0.1,0.1,0.1,0.1
						c0.4-1.5,0.8-3,1.2-4.5c0,0-0.1,0.1-0.1,0.1c0,0,0.1,0,0.1,0c0,0-0.1-0.1-0.1-0.1c0.3,1.5,0.8,3,1.1,4.5
						C36.5,29.5,36.8,29.4,36.7,29.3z"/>
				</g>
			</g>
			<g>
				<g>
					<path class="st23" d="M41.4,24.6c0-0.7-0.1-1.3,0.8-1.3c0.3,0,0.6,0,0.9,0c0.8,0,1.6,0,2.4,0c1.4,0.1,2.8,0.7,3.2,2.1
						c0.5,1.6-0.1,3.2-1.6,3.9c-0.1,0-0.1,0.1,0,0.2c0.4,0.5,0.8,1,1.1,1.5c0.2,0.3,0.4,0.5,0.7,0.5c0.1,0,0.2,0,0.3,0.1
						c0.1,0.1,0.1,0.5,0,0.6c0,0.3-0.1,0.6-0.4,0.8c-0.5,0.3-1.3,0.3-1.7,0c-0.4-0.2-0.6-0.6-0.8-1c-0.4-0.6-0.8-1.3-1.2-1.9
						c-0.1-0.2-0.1-0.3-0.3-0.3c-0.3-0.1-0.8,0-1.1,0c-0.1,0-0.1,0.1-0.1,0.1c0,0.5,0,1,0,1.4c0,0.4,0.2,1.2-0.1,1.5
						c-0.2,0.3-0.9,0.2-1.2,0.2c-0.2,0-0.4,0-0.6-0.1c-0.3-0.1-0.4-0.5-0.4-0.8c-0.1-1.8,0.1-3.6,0.1-5.4
						C41.4,26,41.4,25.3,41.4,24.6c0-0.1-0.2-0.1-0.2,0c0.1,1.9,0,3.9,0,5.8c0,0.4,0,0.9,0,1.3c0,0.4,0,0.9,0.2,1.2
						c0.3,0.4,0.7,0.3,1.1,0.3c0.4,0,0.8,0.1,1.1-0.1c0.4-0.3,0.3-0.9,0.3-1.3c0-0.7,0-1.3,0-2c0,0-0.1,0.1-0.1,0.1
						c0.3,0,0.7,0.1,1,0c0.1,0,0.2,0.1,0.1-0.1c0,0,0,0,0,0.1c0.1,0.1,0.1,0.2,0.2,0.4c0.4,0.6,0.8,1.2,1.1,1.9
						c0.5,0.9,1.2,1.4,2.3,1.2c1-0.2,1.1-1.1,0.9-2c0,0-0.1-0.1-0.1-0.1c-0.7,0-0.9-0.5-1.3-1c-0.2-0.3-0.5-0.7-0.7-1
						c0,0.1,0,0.1,0,0.2c1.2-0.6,1.9-1.7,1.9-3c0-1-0.4-2-1.3-2.6C47,23.2,46,23.1,45,23.1c-0.9,0-1.7,0-2.6,0c-0.3,0-0.7,0-1,0.2
						c-0.4,0.3-0.3,0.9-0.3,1.3C41.2,24.8,41.4,24.8,41.4,24.6z"/>
					<path class="st23" d="M44.9,28.3c0.5,0,1-0.1,1.4-0.5c0.4-0.4,0.5-0.9,0.4-1.4c0-0.5-0.2-0.9-0.6-1.2c-0.4-0.3-0.8-0.3-1.3-0.3
						c-0.4,0-0.7,0-1.1,0c-0.1,0-0.1,0.1-0.1,0.1c0,1.1,0,2.2,0,3.2c0,0.1,0.1,0.1,0.1,0.1C44.1,28.3,44.5,28.3,44.9,28.3
						c0.1,0,0.1-0.2,0-0.2c-0.4,0-0.8,0-1.2,0c0,0,0.1,0.1,0.1,0.1c0-1.1,0-2.2,0-3.2c0,0-0.1,0.1-0.1,0.1c0.3,0,0.6,0,0.8,0
						c0.4,0,0.7,0,1.1,0.1c0.9,0.3,1.1,1.5,0.6,2.3c-0.3,0.5-0.8,0.6-1.4,0.6C44.8,28.1,44.8,28.3,44.9,28.3z"/>
				</g>
			</g>
			<g>
				<g>
					<path class="st23" d="M51.1,31.2c0.1-2.3,0.1-4.7,0-7c0-0.5,0.1-0.9,0.7-0.9c0.2,0,0.3,0,0.5,0c0.2,0,0.3,0,0.5,0
						c0.5,0,0.6,0.3,0.7,0.7c0.1,0.5,0,1,0,1.5c0,0.6,0,1.1,0,1.7c0,1.3,0,2.6,0,3.9c0,0.1,0.1,0.1,0.1,0.1c1,0,2,0,3.1,0
						c0.4,0,0.7,0.1,0.7,0.5c0,0.3,0.1,0.8,0,1.1c-0.1,0.3-0.5,0.3-0.8,0.3c-1.4,0-2.8,0-4.1,0c-0.2,0-0.4,0-0.5,0
						C50.9,33,51.1,31.9,51.1,31.2c0-0.1-0.2-0.1-0.2,0c0,0.9-0.1,2,1.1,2c0.8,0,1.7,0,2.5,0c0.7,0,1.4,0,2.2,0c0.3,0,0.7,0,0.8-0.4
						c0.1-0.3,0.1-0.6,0.1-0.9c0-0.3,0-0.6-0.2-0.8c-0.3-0.4-1-0.2-1.4-0.2c-0.8,0-1.6,0-2.4,0c0,0,0.1,0.1,0.1,0.1c0-1.3,0-2.7,0-4
						c0-0.6,0-1.3,0-1.9c0-0.5,0.1-1.1-0.1-1.6c-0.2-0.4-0.5-0.5-1-0.5c-0.4,0-0.9-0.1-1.3,0.1c-0.6,0.2-0.4,1-0.4,1.5
						c0,0.6,0,1.1,0,1.7c0,1.6,0,3.3,0,4.9C50.8,31.4,51.1,31.4,51.1,31.2z"/>
				</g>
			</g>
			<g>
				<g>
					<path class="st23" d="M62.7,23.2c2.1,0,3.8,1.3,4.3,3.4c0.4,1.8,0.1,4.2-1.3,5.5c-1.4,1.3-4,1.4-5.5,0.3
						c-1.6-1.2-2-3.4-1.7-5.3c0.1-1,0.5-2,1.2-2.8C60.5,23.5,61.6,23.2,62.7,23.2c0.1,0,0.1-0.2,0-0.2c-2.2,0-3.8,1.3-4.4,3.4
						c-0.5,1.9-0.3,4.4,1.1,5.8c1.4,1.4,4,1.7,5.7,0.6c1.8-1.1,2.4-3.6,2.1-5.6c-0.1-1.1-0.6-2.2-1.4-3c-0.9-0.8-2-1.2-3.2-1.2
						C62.6,23,62.6,23.2,62.7,23.2z"/>
					<path class="st23" d="M64.8,28.2c0-1-0.2-2.5-1.2-3c-1-0.5-2.2,0-2.6,1c-0.2,0.5-0.3,1.1-0.3,1.7c0,0.6,0,1.2,0.2,1.8
						c0.1,0.5,0.4,1,0.8,1.3c0.5,0.3,1.1,0.4,1.6,0.3C64.6,31,64.8,29.3,64.8,28.2c0-0.1-0.2-0.1-0.2,0c0,0.9-0.1,2.2-1,2.7
						c-0.5,0.3-1.1,0.3-1.6,0c-0.4-0.2-0.7-0.6-0.9-1.1c-0.6-1.5-0.4-5.2,2.1-4.6c1.2,0.3,1.4,1.8,1.4,2.9
						C64.6,28.3,64.8,28.3,64.8,28.2z"/>
				</g>
			</g>
			<g>
				<g>
					<path class="st23" d="M68.4,24.4c-0.1-0.5-0.2-1,0.5-1.1c0.2,0,0.5,0,0.7,0c0.6,0,0.9,0.3,1,0.9c0.1,0.7,0.3,1.4,0.4,2
						c0.3,1.6,0.6,3.2,0.9,4.9c0,0,0.1,0.1,0.1,0.1c0,0,0,0,0.1,0c0,0,0.1,0,0.1-0.1c0.4-2.3,0.9-4.6,1.4-6.9
						c0.1-0.5,0.2-0.9,0.9-0.9c0.2,0,0.3,0,0.5,0c0.6,0,1.4-0.1,1.7,0.4c0.2,0.4,0.2,0.9,0.3,1.3c0.1,0.6,0.2,1.2,0.4,1.9
						c0.3,1.4,0.6,2.8,0.9,4.2c0,0,0.1,0.1,0.1,0.1c0,0,0.1,0,0.1,0c0,0,0.1,0,0.1-0.1c0.3-2,0.7-4.1,1.1-6.1c0-0.3,0.1-0.6,0.1-0.8
						c0-0.2,0.1-0.5,0.2-0.7c0.2-0.3,0.6-0.3,0.9-0.3c0.4,0,1.1-0.1,1.3,0.3c0.2,0.4-0.1,1.1-0.2,1.5c-0.5,2-1,4.1-1.5,6.1
						c-0.1,0.3-0.1,0.6-0.2,0.9C80,32.9,79.5,33,78.9,33c-0.4,0-0.8,0-1.1,0c-0.7,0-0.9-0.4-1.1-1.1c-0.4-2.2-0.8-4.4-1.3-6.6
						c0,0-0.1-0.1-0.1-0.1c0,0,0,0-0.1,0c0,0-0.1,0-0.1,0.1c-0.3,1.5-0.6,2.9-0.9,4.4c-0.1,0.7-0.3,1.3-0.4,2c0,0.2-0.1,0.4-0.1,0.6
						c-0.2,0.5-0.5,0.7-1,0.7c-0.5,0-1,0-1.5,0c-0.9-0.1-1-0.8-1.2-1.5c-0.3-1.2-0.6-2.3-0.8-3.5C68.9,26.9,68.6,25.7,68.4,24.4
						c0-0.1-0.2-0.1-0.2,0.1c0.2,1.4,0.6,2.7,0.9,4.1c0.3,1.2,0.5,2.6,0.9,3.8c0.2,0.6,0.7,0.8,1.3,0.8c0.6,0,1.3,0.1,1.9,0
						c0.7-0.2,0.7-0.8,0.9-1.4c0.2-0.8,0.3-1.6,0.5-2.5c0.2-1,0.4-1.9,0.6-2.9c0-0.2,0.1-0.4,0.1-0.6c0-0.1,0.1-0.2,0.1-0.3
						c0,0-0.1-0.1-0.1-0.1c0,0.2,0.1,0.7,0.2,0.9c0.4,1.7,0.7,3.4,1,5.1c0.1,0.5,0.1,1.1,0.6,1.5c0.5,0.3,1.2,0.2,1.7,0.2
						c0.6,0,1.2,0.1,1.6-0.4c0.3-0.4,0.4-1.1,0.5-1.6c0.4-1.6,0.8-3.3,1.2-4.9c0.2-0.8,1.2-3.1-0.2-3.2c-0.5,0-1.3-0.1-1.7,0.2
						c-0.4,0.3-0.4,0.9-0.5,1.3c-0.3,1.7-0.6,3.3-0.9,5c-0.1,0.4-0.1,0.8-0.2,1.1c0,0.1-0.1,0.3-0.1,0.4c0,0,0.1,0,0.1,0
						c0-0.1,0-0.2-0.1-0.3c-0.1-0.8-0.3-1.6-0.5-2.3c-0.3-1.5-0.5-3-0.9-4.5c-0.2-0.6-0.5-0.9-1.1-0.9c-0.5,0-1.3-0.1-1.8,0
						c-0.6,0.2-0.6,0.7-0.7,1.2c-0.1,0.6-0.3,1.3-0.4,1.9c-0.2,0.9-0.4,1.9-0.6,2.8c-0.1,0.4-0.2,0.8-0.2,1.2c0,0.1-0.1,0.3-0.1,0.5
						c0,0.1,0,0.1,0,0.2c0,0,0.2,0,0.1,0.1c0.1-0.2-0.2-0.9-0.2-1.1c-0.1-0.7-0.3-1.4-0.4-2.1c-0.2-1.2-0.5-2.5-0.7-3.7
						c-0.1-0.4-0.1-0.7-0.5-1C70,23,69.2,23,68.7,23.1c-0.7,0.1-0.6,0.8-0.5,1.4C68.2,24.6,68.4,24.6,68.4,24.4z"/>
				</g>
			</g>
		</g>
	</g>
</g>
<g>
	<path class="st0" d="M69.9,128.7c0,0.5-0.4,1-1,1h-0.4v1.4H68v-2.7h-0.2v-0.6h1.2C69.4,127.8,69.9,128.2,69.9,128.7z M69.3,128.7
		c0-0.2-0.2-0.4-0.4-0.4h-0.4v0.8h0.4C69.1,129.1,69.3,129,69.3,128.7z"/>
	<path class="st0" d="M70.2,131.1v-3.3h0.6v3.3H70.2z"/>
	<path class="st0" d="M73.1,129v2.1h-0.6v-0.1c-0.4,0.2-1,0.1-1.3-0.3c-0.3-0.4-0.3-0.9,0-1.3c0.3-0.4,0.8-0.5,1.3-0.3V129H73.1z
		 M72.5,130c0-0.3-0.2-0.5-0.5-0.5c-0.3,0-0.5,0.2-0.5,0.5s0.2,0.5,0.5,0.5C72.3,130.5,72.5,130.3,72.5,130z"/>
	<path class="st0" d="M75.3,129v2.5c0,0.5-0.4,0.9-0.9,0.9c-0.5,0-0.9-0.4-0.9-0.9H74c0,0.2,0.2,0.3,0.3,0.3c0.2,0,0.3-0.2,0.3-0.3
		V131c-0.3,0.1-0.6,0.1-0.8-0.1c-0.3-0.2-0.4-0.4-0.4-0.7V129H74v1.2c0,0.2,0.2,0.3,0.3,0.3c0.2,0,0.3-0.2,0.3-0.3V129H75.3z"/>
	<path class="st0" d="M75.7,128.4v-0.6h0.6v0.6H75.7z M75.7,131.1V129h0.6v2.1H75.7z"/>
	<path class="st0" d="M78.4,129.9v1.2h-0.6v-1.2c0-0.2-0.2-0.3-0.3-0.3c-0.2,0-0.3,0.2-0.3,0.3v1.2h-0.6V129h0.6v0.1
		c0.1,0,0.2-0.1,0.3-0.1C78,129,78.4,129.4,78.4,129.9z"/>
	<path class="st0" d="M81.1,129v0.6h-0.3v0.5c0,0.3-0.1,0.5-0.3,0.7c-0.2,0.2-0.5,0.3-0.7,0.3h-0.4c0,0-0.1,0-0.1,0.1
		c0,0,0,0.1,0.1,0.1h0.7c0.4,0,0.7,0.3,0.7,0.7s-0.3,0.7-0.7,0.7h-0.7V132h0.7c0,0,0.1,0,0.1-0.1s0-0.1-0.1-0.1h-0.7
		c-0.3,0-0.5-0.2-0.6-0.4c-0.1-0.3,0-0.5,0.2-0.7c-0.3-0.4-0.3-1,0.1-1.3c0.4-0.4,0.9-0.4,1.3-0.1c0,0,0,0,0,0
		c0.1-0.1,0.2-0.2,0.4-0.2H81.1z M79.3,130c0,0.2,0.1,0.4,0.3,0.4c0.2,0.1,0.4,0,0.5-0.1c0.1-0.1,0.2-0.3,0.1-0.5
		c-0.1-0.2-0.2-0.3-0.4-0.3C79.5,129.6,79.3,129.8,79.3,130z"/>
	<path class="st0" d="M84,130.4l0.4,0.4c-0.4,0.4-1.1,0.4-1.5,0c-0.4-0.4-0.4-1.1,0-1.5c0.4-0.4,1.1-0.4,1.5,0l-0.4,0.4
		c-0.1-0.1-0.4-0.2-0.6-0.1c-0.2,0.1-0.3,0.3-0.2,0.5c0.1,0.2,0.2,0.3,0.4,0.3C83.8,130.5,84,130.4,84,130.4z"/>
	<path class="st0" d="M86.6,129v2.1h-0.6v-0.1c-0.4,0.2-1,0.1-1.3-0.3c-0.3-0.4-0.3-0.9,0-1.3c0.3-0.4,0.8-0.5,1.3-0.3V129H86.6z
		 M86.1,130c0-0.3-0.2-0.5-0.5-0.5s-0.5,0.2-0.5,0.5s0.2,0.5,0.5,0.5C85.8,130.5,86.1,130.3,86.1,130z"/>
	<path class="st0" d="M88.3,129.2l-0.4,0.4c-0.1-0.1-0.1-0.1-0.2,0c-0.1,0-0.1,0.1-0.1,0.2v1.3H87V129h0.6v0c0.1,0,0.1,0,0.2,0
		C88,129,88.2,129.1,88.3,129.2z"/>
	<path class="st0" d="M90.4,127.8v3.3h-0.6v-0.1c-0.4,0.2-1,0.1-1.3-0.3c-0.3-0.4-0.3-0.9,0-1.3c0.3-0.4,0.8-0.5,1.3-0.3v-1.3H90.4z
		 M89.8,130c0-0.3-0.2-0.5-0.5-0.5s-0.5,0.2-0.5,0.5c0,0.3,0.2,0.5,0.5,0.5C89.6,130.5,89.8,130.3,89.8,130z"/>
	<path class="st0" d="M92.3,130.6c-0.1,0.2-0.3,0.4-0.6,0.4h-0.8v-0.6h0.8c0.1,0,0.1,0,0.1-0.1c0,0,0-0.1-0.1-0.1h-0.3
		c-0.4,0-0.7-0.3-0.7-0.7c0-0.4,0.3-0.7,0.7-0.7h0.8v0.6h-0.8c-0.1,0-0.1,0-0.1,0.1c0,0,0,0.1,0.1,0.1h0.3c0.2,0,0.3,0.1,0.5,0.2
		C92.3,130.1,92.4,130.4,92.3,130.6z"/>
</g>
</svg>
