<?xml version="1.0" encoding="utf-8"?>
<!-- Generator: Adobe Illustrator 24.0.1, SVG Export Plug-In . SVG Version: 6.00 Build 0)  -->
<svg version="1.1" id="Layer_1" xmlns="http://www.w3.org/2000/svg" xmlns:xlink="http://www.w3.org/1999/xlink" x="0px" y="0px"
	 viewBox="0 0 100 140" style="enable-background:new 0 0 100 140;" xml:space="preserve">
<style type="text/css">
	.st0{fill:#FFFFFF;stroke:#4C4C4C;stroke-miterlimit:10;}
</style>
<path class="st0" d="M88,140H12c-6.6,0-12-5.4-12-12V12C0,5.4,5.4,0,12,0h76c6.6,0,12,5.4,12,12v116C100,134.6,94.6,140,88,140z"/>
<g>
	<path d="M24.4,13.6v18.7h-4.8v-9.9h-8.9v10H5.8V13.6c0-5.1,4.2-9.3,9.3-9.3S24.4,8.5,24.4,13.6z M19.5,17.5v-3.9
		c0-2.5-2-4.5-4.5-4.5s-4.5,2-4.5,4.5v3.9H19.5z"/>
</g>
<g>
	<path d="M9.1,52.6c3.5,0,5.5-0.5,5.5-4.6c-0.8,1.4-1.8,2-3.2,2c-2,0-3.4-1.4-3.4-3.4s1.3-3.2,3.2-3.2c0.9,0,1.2,0.1,2,0.4
		c-0.8-0.7-1.6-1.5-1.6-3c0-1.9,1.4-3.2,3.6-3.2s3.6,1.3,3.6,3.2c0,1.5-0.8,2.3-1.6,3c0.8-0.3,1.1-0.4,2-0.4c1.9,0,3.2,1.3,3.2,3.2
		c0,2-1.5,3.4-3.4,3.4c-1.4,0-2.4-0.6-3.2-2c0,4.1,2,4.6,5.5,4.6l0.6,1.4H8.5L9.1,52.6z"/>
</g>
<g>
	<path d="M42,79.1c4.6,0,7.3-0.7,7.3-6.2c-1.1,1.8-2.4,2.6-4.3,2.6c-2.6,0-4.6-1.8-4.6-4.6c0-2.6,1.8-4.3,4.3-4.3
		c1.2,0,1.6,0.1,2.7,0.6c-1.1-0.9-2.2-2-2.2-4c0-2.6,1.9-4.2,4.8-4.2s4.8,1.7,4.8,4.2c0,2-1.1,3.1-2.2,4c1-0.4,1.5-0.6,2.7-0.6
		c2.5,0,4.3,1.7,4.3,4.3c0,2.7-2,4.6-4.6,4.6c-1.9,0-3.2-0.8-4.3-2.6c0,5.5,2.7,6.2,7.3,6.2l0.8,1.8H41.2L42,79.1z"/>
</g>
<g>
	<path d="M75.6,126.4v-18.7h4.8v9.9h8.9v-10h4.8v18.7c0,5.1-4.2,9.3-9.3,9.3C79.8,135.7,75.6,131.5,75.6,126.4z M80.5,122.5v3.9
		c0,2.5,2,4.5,4.5,4.5s4.5-2,4.5-4.5v-3.9C89.5,122.5,80.5,122.5,80.5,122.5z"/>
</g>
<g>
	<path d="M90.9,87.4c-3.5,0-5.5,0.5-5.5,4.6c0.8-1.4,1.8-2,3.2-2c2,0,3.4,1.4,3.4,3.4s-1.3,3.2-3.2,3.2c-0.9,0-1.2-0.1-2-0.4
		c0.8,0.7,1.6,1.5,1.6,3c0,1.9-1.4,3.2-3.6,3.2s-3.6-1.3-3.6-3.2c0-1.5,0.8-2.3,1.6-3c-0.8,0.3-1.1,0.4-2,0.4
		c-1.9,0-3.2-1.3-3.2-3.2c0-2,1.5-3.4,3.4-3.4c1.4,0,2.4,0.6,3.2,2c0-4.1-2-4.6-5.5-4.6L78.1,86h13.2L90.9,87.4z"/>
</g>
</svg>
