<?xml version="1.0" encoding="utf-8"?>
<!-- Generator: Adobe Illustrator 24.0.1, SVG Export Plug-In . SVG Version: 6.00 Build 0)  -->
<svg version="1.1" id="Layer_1" xmlns="http://www.w3.org/2000/svg" xmlns:xlink="http://www.w3.org/1999/xlink" x="0px" y="0px"
	 viewBox="0 0 100 140" style="enable-background:new 0 0 100 140;" xml:space="preserve">
<style type="text/css">
	.st0{fill:#FFFFFF;}
	.st1{fill:#1866A0;}
	.st2{fill:none;}
	.st3{fill-rule:evenodd;clip-rule:evenodd;fill:#EDF5FA;}
	.st4{fill:#EAF4F9;}
</style>
<path class="st0" d="M88,140H12c-6.6,0-12-5.4-12-12V12C0,5.4,5.4,0,12,0h76c6.6,0,12,5.4,12,12v116C100,134.6,94.6,140,88,140z"/>
<path class="st1" d="M10,5h80c2.4,0,4.3,1.9,4.3,4.3v121.5c0,2.4-1.9,4.3-4.3,4.3H10c-2.4,0-4.3-1.9-4.3-4.3V9.3C5.8,6.9,7.7,5,10,5
	z"/>
<g>
	<g>
		<g>
			<g>
				<g>
					<polygon class="st2" points="67.7,52.2 65.7,66 75.4,76 95.7,56.2 					"/>
					<polygon class="st3" points="70.6,71 70.5,70.8 70.3,70.7 70.2,70.6 70.1,70.4 70,70.3 70,70.1 69.9,69.9 69.8,69.8 69.7,69.6 
						69.7,69.4 69.6,69.2 69.6,69 69.6,68.8 69.5,68.7 69.5,68.5 69.5,68.3 69.5,68 69.5,67.8 69.5,67.4 69.5,67 69.6,66.5 69.7,66 
						69.8,65.5 69.9,65.1 70.1,64.6 69.7,64.2 69.3,63.9 68.9,63.6 68.5,63.3 68.2,62.9 67.9,62.6 67.7,62.3 67.5,62.1 67.4,61.9 
						67.3,61.7 67.2,61.6 67.1,61.4 67,61.2 67,61 66.9,60.9 66.8,60.7 66.8,60.5 66.8,60.3 66.7,60.2 66.7,60 66.7,59.8 66.7,59.6 
						66.7,59.4 66.7,59.3 66.7,59.1 66.7,58.9 66.8,58.7 66.8,58.6 66.9,58.4 67,58.2 67,58 67.1,57.9 67.2,57.7 67.3,57.6 
						67.4,57.4 67.5,57.3 67.6,57.1 67.8,57 67.9,56.8 68.1,56.7 68.2,56.5 68.4,56.4 68.5,56.3 68.9,56 69.3,55.8 69.7,55.6 
						70.1,55.4 70.5,55.2 71,55 71.5,54.8 72,54.6 72.6,54.5 73.1,54.4 73.7,54.2 74.3,54.2 74.9,54.1 75.5,54 76.2,54 76.8,53.9 
						77.5,53.9 78.2,53.9 78.9,53.9 79.6,54 80.3,54 81,54.1 81.7,54.2 82.4,54.3 83.1,54.5 83.8,54.6 84.5,54.8 85.2,54.9 
						85.8,55.1 86.4,55.3 87.1,55.5 87.7,55.8 88.2,56 88.8,56.3 89.3,56.5 89.9,56.8 90.4,57.1 90.8,57.4 91.3,57.7 91.1,58.2 
						90.9,58.7 90.7,59.2 90.4,59.7 90.1,60.3 89.8,60.8 89.5,61.3 89.1,61.9 88.7,62.4 88.4,62.9 87.9,63.5 87.5,64 87.1,64.5 
						86.6,65.1 86.1,65.6 85.6,66.1 85,66.6 84.5,67.1 84,67.5 83.4,68 82.9,68.4 82.3,68.8 81.8,69.2 81.2,69.5 80.7,69.9 
						80.2,70.2 79.6,70.5 79.1,70.8 78.5,71 78,71.2 77.5,71.4 77,71.6 76.5,71.8 76,71.9 75.5,72 75,72.1 74.6,72.1 74.1,72.2 
						73.7,72.2 73.5,72.2 73.3,72.1 73.1,72.1 72.9,72.1 72.7,72.1 72.5,72 72.3,72 72.1,71.9 71.9,71.8 71.8,71.8 71.6,71.7 
						71.4,71.6 71.3,71.5 71.1,71.4 71,71.3 70.8,71.2 70.7,71.1 					"/>
				</g>
			</g>
			<g>
				<g>
					<polygon class="st2" points="63.1,68.5 72.8,78.5 59.1,80.9 57.9,73.6 					"/>
					<polygon class="st3" points="66,79.7 66.3,79.6 66.7,79.5 67,79.5 67.3,79.4 67.7,79.3 68,79.2 68.3,79.1 68.6,78.9 68.9,78.8 
						69.2,78.7 69.4,78.5 69.7,78.4 70,78.3 70.2,78.1 70.4,78 70.6,77.8 70.6,77.5 70.5,77.3 70.4,77 70.2,76.7 70.1,76.5 70,76.2 
						69.8,75.9 69.7,75.7 69.5,75.4 69.3,75.1 69.1,74.8 68.9,74.6 68.7,74.3 68.5,74 68.2,73.8 68,73.5 67.7,73.3 67.5,73 
						67.2,72.8 66.9,72.6 66.7,72.3 66.4,72.1 66.1,71.9 65.9,71.8 65.6,71.6 65.3,71.4 65.1,71.3 64.8,71.2 64.5,71 64.3,70.9 
						64,70.8 63.8,70.7 63.5,70.7 63.3,70.6 63,70.5 62.8,70.5 62.5,70.5 62.3,70.5 62.1,70.5 61.9,70.5 61.7,70.5 61.5,70.5 
						61.3,70.6 61.1,70.7 60.9,70.7 60.8,70.8 60.7,70.9 60.6,71 60.6,71 60.5,71.1 60.4,71.1 60.4,71.2 60.3,71.3 60.2,71.4 
						60.1,71.5 60.1,71.7 60,71.9 59.9,72.1 59.9,72.3 59.8,72.5 59.8,72.7 59.8,72.9 59.8,73.1 59.8,73.4 59.9,73.6 59.9,73.8 
						60,74.1 60.1,74.3 59.8,74.5 59.7,74.7 59.5,74.9 59.3,75 59.2,75.2 59,75.4 58.9,75.6 58.8,75.7 58.7,75.9 58.6,76.1 
						58.5,76.3 58.5,76.5 58.5,76.7 58.5,76.8 58.4,76.9 58.4,77 58.5,77.1 58.5,77.2 58.5,77.2 58.5,77.3 58.5,77.4 58.5,77.5 
						58.6,77.6 58.6,77.7 58.7,77.8 58.7,78 58.8,78.1 59,78.3 59.1,78.4 59.3,78.6 59.4,78.7 59.6,78.8 59.8,79 60,79.1 60.2,79.2 
						60.4,79.3 60.7,79.4 60.9,79.5 61.2,79.5 61.5,79.6 61.7,79.7 62,79.7 62.3,79.8 62.6,79.8 62.9,79.8 63.2,79.9 63.6,79.9 
						63.9,79.9 64.2,79.9 64.6,79.8 64.9,79.8 65.3,79.8 65.6,79.7 					"/>
				</g>
			</g>
			<g>
				<g>
					<polygon class="st2" points="73.5,82.1 59.7,84.5 53.2,96.8 78.2,109.9 					"/>
					<polygon class="st3" points="56.5,90.6 56.6,90.5 56.7,90.3 56.8,90.2 56.9,90 57,89.9 57.1,89.8 57.2,89.6 57.4,89.5 
						57.5,89.4 57.7,89.3 57.8,89.2 58,89.1 58.2,89 58.3,88.9 58.5,88.8 58.7,88.7 58.9,88.7 59.1,88.6 59.5,88.5 60,88.4 
						60.4,88.3 60.9,88.2 61.4,88.2 61.9,88.2 62.4,88.2 62.6,87.7 62.8,87.2 62.9,86.7 63.2,86.3 63.4,85.9 63.6,85.5 63.8,85.2 
						64,85 64.1,84.8 64.2,84.7 64.4,84.5 64.5,84.4 64.6,84.2 64.8,84.1 64.9,84 65.1,83.9 65.2,83.8 65.4,83.7 65.6,83.6 
						65.7,83.5 65.9,83.5 66.1,83.4 66.2,83.4 66.4,83.3 66.6,83.3 66.8,83.2 66.9,83.2 67.1,83.2 67.3,83.2 67.5,83.2 67.7,83.3 
						67.8,83.3 68,83.3 68.2,83.4 68.4,83.4 68.6,83.5 68.7,83.5 68.9,83.6 69.1,83.7 69.3,83.8 69.4,83.9 69.6,84 69.8,84.1 
						70.1,84.4 70.5,84.7 70.8,85 71.2,85.3 71.5,85.7 71.8,86.1 72.1,86.5 72.5,87 72.8,87.4 73.1,87.9 73.3,88.4 73.6,89 
						73.9,89.5 74.1,90.1 74.4,90.7 74.6,91.3 74.8,91.9 75,92.6 75.2,93.2 75.4,93.9 75.6,94.6 75.7,95.3 75.8,96 76,96.7 
						76.1,97.4 76.1,98.2 76.2,98.8 76.2,99.5 76.2,100.2 76.2,100.9 76.2,101.5 76.2,102.2 76.2,102.8 76.1,103.4 76,104 
						75.9,104.6 75.8,105.1 75.7,105.7 75.5,106.2 75,106.2 74.4,106.1 73.9,106.1 73.3,106 72.7,105.9 72.1,105.8 71.5,105.6 
						70.9,105.4 70.2,105.3 69.6,105 69,104.8 68.3,104.6 67.7,104.3 67,104 66.4,103.7 65.7,103.4 65.1,103 64.5,102.7 63.9,102.3 
						63.3,101.9 62.7,101.5 62.2,101.1 61.6,100.7 61.1,100.3 60.6,99.9 60.2,99.5 59.7,99.1 59.3,98.6 58.9,98.2 58.5,97.8 
						58.2,97.3 57.8,96.9 57.5,96.5 57.3,96 57,95.6 56.8,95.2 56.6,94.8 56.4,94.4 56.3,93.9 56.2,93.7 56.2,93.5 56.1,93.3 
						56.1,93.1 56.1,92.9 56.1,92.8 56.1,92.6 56.1,92.4 56.1,92.2 56.1,92 56.1,91.8 56.1,91.6 56.2,91.5 56.2,91.3 56.3,91.1 
						56.3,90.9 56.4,90.8 					"/>
				</g>
			</g>
			<g>
				<g>
					<polygon class="st2" points="56.5,82.8 50,95.1 43.5,82.8 50,79.3 					"/>
					<polygon class="st3" points="46.8,88.9 46.9,89.2 47.1,89.5 47.3,89.8 47.5,90.1 47.7,90.4 47.9,90.7 48.1,90.9 48.3,91.2 
						48.5,91.4 48.7,91.7 48.9,91.9 49.1,92.1 49.3,92.3 49.6,92.5 49.8,92.6 50,92.8 50.2,92.6 50.4,92.5 50.7,92.3 50.9,92.1 
						51.1,91.9 51.3,91.7 51.5,91.4 51.7,91.2 51.9,90.9 52.1,90.7 52.3,90.4 52.5,90.1 52.7,89.8 52.9,89.5 53.1,89.2 53.2,88.9 
						53.4,88.6 53.6,88.3 53.7,88 53.8,87.6 54,87.3 54.1,87 54.2,86.7 54.3,86.4 54.3,86.1 54.4,85.8 54.5,85.5 54.5,85.2 
						54.5,84.9 54.6,84.6 54.6,84.3 54.6,84.1 54.6,83.8 54.6,83.5 54.5,83.3 54.5,83.1 54.5,82.8 54.4,82.6 54.3,82.4 54.3,82.2 
						54.2,82 54.1,81.8 54,81.7 53.8,81.5 53.7,81.4 53.6,81.3 53.5,81.2 53.4,81.1 53.3,81.1 53.2,81 53.2,81 53.1,81 53,80.9 
						52.9,80.9 52.7,80.9 52.5,80.8 52.3,80.8 52.1,80.8 51.9,80.8 51.7,80.9 51.5,80.9 51.3,81 51.1,81.1 50.9,81.2 50.7,81.3 
						50.4,81.4 50.2,81.5 50,81.7 49.8,81.5 49.6,81.4 49.3,81.3 49.1,81.2 48.9,81.1 48.7,81 48.5,80.9 48.3,80.9 48.1,80.8 
						47.9,80.8 47.7,80.8 47.5,80.8 47.3,80.9 47.2,80.9 47.1,80.9 47,80.9 46.9,81 46.8,81 46.8,81 46.7,81.1 46.6,81.1 46.5,81.2 
						46.4,81.3 46.4,81.3 46.3,81.4 46.2,81.5 46,81.7 45.9,81.8 45.8,82 45.7,82.2 45.7,82.4 45.6,82.6 45.5,82.8 45.5,83.1 
						45.5,83.3 45.4,83.5 45.4,83.8 45.4,84.1 45.4,84.3 45.4,84.6 45.5,84.9 45.5,85.2 45.5,85.5 45.6,85.8 45.7,86.1 45.7,86.4 
						45.8,86.7 45.9,87 46,87.3 46.2,87.6 46.3,88 46.4,88.3 46.6,88.6 					"/>
				</g>
			</g>
			<g>
				<g>
					<polygon class="st2" points="46.8,96.8 40.3,84.5 26.5,82.1 21.8,109.9 					"/>
					<polygon class="st3" points="33.4,83.3 33.6,83.3 33.8,83.4 33.9,83.4 34.1,83.5 34.3,83.5 34.4,83.6 34.6,83.7 34.8,83.8 
						34.9,83.9 35.1,84 35.2,84.1 35.4,84.2 35.5,84.4 35.6,84.5 35.8,84.7 35.9,84.8 36,85 36.2,85.2 36.4,85.5 36.6,85.9 
						36.8,86.3 37.1,86.7 37.2,87.2 37.4,87.7 37.6,88.2 38.1,88.2 38.6,88.2 39.1,88.2 39.6,88.3 40,88.4 40.5,88.5 40.9,88.6 
						41.1,88.7 41.3,88.7 41.5,88.8 41.7,88.9 41.8,89 42,89.1 42.2,89.2 42.3,89.3 42.5,89.4 42.6,89.5 42.8,89.6 42.9,89.8 
						43,89.9 43.1,90 43.2,90.2 43.3,90.3 43.4,90.5 43.5,90.6 43.6,90.8 43.7,90.9 43.7,91.1 43.8,91.3 43.8,91.5 43.9,91.6 
						43.9,91.8 43.9,92 43.9,92.2 43.9,92.4 43.9,92.6 43.9,92.8 43.9,92.9 43.9,93.1 43.9,93.3 43.8,93.5 43.8,93.7 43.7,93.9 
						43.6,94.4 43.4,94.8 43.2,95.2 43,95.6 42.7,96 42.5,96.5 42.2,96.9 41.8,97.3 41.5,97.8 41.1,98.2 40.7,98.6 40.3,99.1 
						39.8,99.5 39.4,99.9 38.9,100.3 38.4,100.7 37.8,101.1 37.3,101.5 36.7,101.9 36.1,102.3 35.5,102.7 34.9,103 34.3,103.4 
						33.6,103.7 33,104 32.3,104.3 31.7,104.6 31,104.8 30.4,105 29.8,105.3 29.1,105.4 28.5,105.6 27.9,105.8 27.3,105.9 26.7,106 
						26.1,106.1 25.6,106.1 25,106.2 24.5,106.2 24.3,105.7 24.2,105.1 24.1,104.6 24,104 23.9,103.4 23.8,102.8 23.8,102.2 
						23.8,101.5 23.8,100.9 23.8,100.2 23.8,99.5 23.8,98.8 23.9,98.2 23.9,97.4 24,96.7 24.2,96 24.3,95.3 24.4,94.6 24.6,93.9 
						24.8,93.2 25,92.6 25.2,91.9 25.4,91.3 25.6,90.7 25.9,90.1 26.1,89.5 26.4,89 26.7,88.4 26.9,87.9 27.2,87.4 27.5,87 
						27.9,86.5 28.2,86.1 28.5,85.7 28.8,85.3 29.2,85 29.5,84.7 29.9,84.4 30.2,84.1 30.4,84 30.6,83.9 30.7,83.8 30.9,83.7 
						31.1,83.6 31.3,83.5 31.4,83.5 31.6,83.4 31.8,83.4 32,83.3 32.2,83.3 32.3,83.3 32.5,83.2 32.7,83.2 32.9,83.2 33.1,83.2 
						33.2,83.2 					"/>
				</g>
			</g>
			<g>
				<g>
					<polygon class="st2" points="40.9,80.9 27.2,78.5 36.9,68.5 42.1,73.6 					"/>
					<polygon class="st3" points="32,73.5 31.8,73.8 31.5,74 31.3,74.3 31.1,74.6 30.9,74.8 30.7,75.1 30.5,75.4 30.3,75.7 
						30.2,75.9 30,76.2 29.9,76.5 29.8,76.7 29.6,77 29.5,77.3 29.4,77.5 29.4,77.8 29.6,78 29.8,78.1 30,78.3 30.3,78.4 30.6,78.5 
						30.8,78.7 31.1,78.8 31.4,78.9 31.7,79.1 32,79.2 32.3,79.3 32.7,79.4 33,79.5 33.3,79.5 33.7,79.6 34,79.7 34.4,79.7 
						34.7,79.8 35.1,79.8 35.4,79.8 35.8,79.9 36.1,79.9 36.4,79.9 36.8,79.9 37.1,79.8 37.4,79.8 37.7,79.8 38,79.7 38.3,79.7 
						38.5,79.6 38.8,79.5 39.1,79.5 39.3,79.4 39.6,79.3 39.8,79.2 40,79.1 40.2,79 40.4,78.8 40.6,78.7 40.7,78.6 40.9,78.4 
						41,78.3 41.2,78.1 41.3,78 41.3,77.8 41.4,77.6 41.5,77.5 41.5,77.4 41.5,77.3 41.5,77.2 41.5,77.2 41.5,77.1 41.6,77 
						41.6,76.9 41.5,76.7 41.5,76.5 41.5,76.3 41.4,76.1 41.3,75.9 41.2,75.7 41.1,75.6 41,75.4 40.8,75.2 40.7,75 40.5,74.9 
						40.3,74.7 40.2,74.5 39.9,74.3 40,74.1 40.1,73.8 40.1,73.6 40.2,73.4 40.2,73.1 40.2,72.9 40.2,72.7 40.2,72.5 40.1,72.3 
						40.1,72.1 40,71.9 39.9,71.7 39.9,71.5 39.8,71.4 39.8,71.4 39.7,71.3 39.6,71.2 39.6,71.1 39.5,71.1 39.4,71 39.4,71 
						39.3,70.9 39.2,70.8 39.1,70.8 39.1,70.7 38.9,70.7 38.7,70.6 38.5,70.5 38.3,70.5 38.1,70.5 37.9,70.5 37.7,70.5 37.5,70.5 
						37.2,70.5 37,70.5 36.7,70.6 36.5,70.7 36.2,70.7 36,70.8 35.7,70.9 35.5,71 35.2,71.2 34.9,71.3 34.7,71.4 34.4,71.6 
						34.1,71.8 33.9,71.9 33.6,72.1 33.3,72.3 33.1,72.6 32.8,72.8 32.5,73 32.3,73.3 					"/>
				</g>
			</g>
			<g>
				<g>
					<polygon class="st2" points="24.6,76 34.3,66 32.3,52.2 4.3,56.2 					"/>
					<polygon class="st3" points="33.3,59.1 33.3,59.3 33.3,59.4 33.3,59.6 33.3,59.8 33.3,60 33.3,60.2 33.2,60.3 33.2,60.5 
						33.2,60.7 33.1,60.9 33,61 33,61.2 32.9,61.4 32.8,61.6 32.7,61.7 32.6,61.9 32.5,62.1 32.3,62.3 32.1,62.6 31.8,62.9 
						31.5,63.3 31.1,63.6 30.7,63.9 30.3,64.2 29.9,64.5 30.1,65 30.2,65.5 30.3,66 30.4,66.5 30.5,67 30.5,67.4 30.5,67.8 30.5,68 
						30.5,68.3 30.5,68.5 30.5,68.7 30.4,68.8 30.4,69 30.4,69.2 30.3,69.4 30.3,69.6 30.2,69.8 30.1,69.9 30,70.1 30,70.3 
						29.9,70.4 29.8,70.6 29.7,70.7 29.5,70.8 29.4,71 29.3,71.1 29.2,71.2 29,71.3 28.9,71.4 28.7,71.5 28.6,71.6 28.4,71.7 
						28.2,71.8 28.1,71.8 27.9,71.9 27.7,72 27.5,72 27.3,72.1 27.1,72.1 26.9,72.1 26.7,72.1 26.5,72.2 26.3,72.2 25.9,72.2 
						25.4,72.1 25,72.1 24.5,72 24,71.9 23.5,71.8 23,71.6 22.5,71.4 22,71.2 21.5,71 20.9,70.8 20.4,70.5 19.8,70.2 19.3,69.9 
						18.8,69.5 18.2,69.2 17.7,68.8 17.1,68.4 16.6,68 16,67.5 15.5,67.1 15,66.6 14.4,66.1 13.9,65.6 13.4,65.1 12.9,64.5 12.5,64 
						12.1,63.5 11.6,62.9 11.3,62.4 10.9,61.9 10.5,61.3 10.2,60.8 9.9,60.3 9.6,59.7 9.3,59.2 9.1,58.7 8.9,58.2 8.7,57.7 
						9.2,57.4 9.6,57.1 10.1,56.8 10.7,56.5 11.2,56.3 11.8,56 12.3,55.8 12.9,55.5 13.6,55.3 14.2,55.1 14.8,54.9 15.5,54.8 
						16.2,54.6 16.9,54.5 17.6,54.3 18.3,54.2 19,54.1 19.7,54 20.4,54 21.1,53.9 21.8,53.9 22.5,53.9 23.2,53.9 23.8,54 24.5,54 
						25.1,54.1 25.7,54.2 26.3,54.2 26.9,54.4 27.4,54.5 28,54.6 28.5,54.8 29,55 29.5,55.2 29.9,55.4 30.3,55.6 30.7,55.8 31.1,56 
						31.5,56.3 31.6,56.4 31.8,56.5 31.9,56.7 32.1,56.8 32.2,57 32.4,57.1 32.5,57.3 32.6,57.4 32.7,57.6 32.8,57.7 32.9,57.9 
						33,58 33,58.2 33.1,58.4 33.2,58.6 33.2,58.7 33.3,58.9 					"/>
				</g>
			</g>
			<g>
				<g>
					<polygon class="st2" points="37.9,65.5 35.9,51.7 48.4,57.8 45.1,64.4 					"/>
					<polygon class="st3" points="42.1,54.7 41.8,54.6 41.5,54.4 41.2,54.3 40.8,54.2 40.5,54.1 40.2,54 39.9,53.9 39.6,53.8 
						39.3,53.7 39,53.7 38.7,53.6 38.4,53.6 38.1,53.5 37.8,53.5 37.5,53.5 37.2,53.5 37.2,53.8 37.1,54 37,54.3 36.9,54.6 
						36.9,54.9 36.8,55.2 36.8,55.5 36.8,55.8 36.8,56.1 36.8,56.5 36.7,56.8 36.8,57.2 36.8,57.5 36.8,57.8 36.8,58.2 36.9,58.6 
						36.9,58.9 37,59.3 37.1,59.6 37.2,59.9 37.3,60.3 37.3,60.6 37.5,60.9 37.6,61.2 37.7,61.5 37.8,61.8 37.9,62.1 38.1,62.3 
						38.2,62.6 38.4,62.8 38.5,63.1 38.7,63.3 38.8,63.5 39,63.7 39.1,63.9 39.3,64 39.5,64.2 39.7,64.3 39.8,64.5 40,64.6 
						40.2,64.7 40.4,64.8 40.6,64.8 40.8,64.9 41,64.9 41.1,64.9 41.2,64.9 41.3,64.9 41.4,64.9 41.5,64.9 41.6,64.9 41.7,64.9 
						41.8,64.9 41.9,64.8 42.1,64.8 42.2,64.7 42.4,64.6 42.5,64.5 42.7,64.3 42.8,64.2 43,64 43.1,63.8 43.3,63.7 43.4,63.5 
						43.5,63.2 43.6,63 43.7,62.8 43.8,62.5 44.1,62.5 44.3,62.5 44.6,62.5 44.8,62.4 45,62.4 45.2,62.3 45.4,62.2 45.6,62.1 
						45.8,62.1 46,62 46.2,61.8 46.3,61.7 46.4,61.6 46.5,61.5 46.6,61.4 46.6,61.4 46.7,61.3 46.7,61.2 46.8,61.1 46.8,61 
						46.8,60.9 46.9,60.8 46.9,60.8 46.9,60.7 46.9,60.6 47,60.4 47,60.2 47,60 46.9,59.8 46.9,59.6 46.9,59.4 46.8,59.2 46.7,59 
						46.6,58.7 46.5,58.5 46.4,58.3 46.2,58.1 46.1,57.9 45.9,57.7 45.7,57.5 45.6,57.2 45.4,57 45.1,56.8 44.9,56.6 44.7,56.4 
						44.4,56.2 44.2,56 43.9,55.8 43.6,55.6 43.4,55.4 43.1,55.2 42.8,55.1 42.5,54.9 					"/>
				</g>
			</g>
			<g>
				<g>
					<polygon class="st2" points="37.5,48.4 50,54.6 62.5,48.4 50,23 					"/>
					<polygon class="st3" points="56.3,51.5 56.1,51.5 55.9,51.6 55.8,51.7 55.6,51.7 55.4,51.8 55.2,51.8 55,51.8 54.9,51.8 
						54.7,51.8 54.5,51.8 54.3,51.8 54.1,51.8 53.9,51.8 53.7,51.8 53.5,51.7 53.3,51.7 53.1,51.6 52.9,51.6 52.5,51.4 52.1,51.2 
						51.7,51 51.3,50.8 50.8,50.5 50.4,50.3 50,49.9 49.6,50.3 49.2,50.5 48.7,50.8 48.3,51 47.9,51.2 47.5,51.4 47.1,51.6 
						46.9,51.6 46.7,51.7 46.5,51.7 46.3,51.8 46.1,51.8 45.9,51.8 45.7,51.8 45.5,51.8 45.3,51.8 45.1,51.8 45,51.8 44.8,51.8 
						44.6,51.8 44.4,51.7 44.2,51.7 44.1,51.6 43.9,51.5 43.7,51.5 43.6,51.4 43.4,51.3 43.3,51.2 43.1,51.1 43,51 42.9,50.9 
						42.7,50.7 42.6,50.6 42.5,50.5 42.4,50.3 42.3,50.1 42.2,50 42.1,49.8 42,49.6 41.9,49.5 41.8,49.3 41.7,49.1 41.7,48.9 
						41.5,48.5 41.4,48 41.3,47.6 41.2,47.1 41.2,46.6 41.2,46.1 41.2,45.6 41.2,45 41.2,44.5 41.2,43.9 41.3,43.3 41.4,42.7 
						41.5,42.1 41.7,41.5 41.8,40.9 42,40.3 42.2,39.6 42.4,39 42.6,38.3 42.9,37.7 43.1,37 43.4,36.4 43.7,35.7 44.1,35.1 
						44.4,34.4 44.8,33.8 45.1,33.2 45.5,32.6 45.9,32.1 46.3,31.5 46.7,31 47.1,30.5 47.5,30.1 47.9,29.6 48.3,29.2 48.7,28.8 
						49.2,28.4 49.6,28 50,27.7 50.4,28 50.8,28.4 51.3,28.8 51.7,29.2 52.1,29.6 52.5,30.1 52.9,30.5 53.3,31 53.7,31.5 54.1,32.1 
						54.5,32.6 54.9,33.2 55.2,33.8 55.6,34.4 55.9,35.1 56.3,35.7 56.6,36.4 56.9,37 57.1,37.7 57.4,38.3 57.6,39 57.8,39.6 
						58,40.3 58.2,40.9 58.3,41.5 58.5,42.1 58.6,42.7 58.7,43.3 58.8,43.9 58.8,44.5 58.8,45 58.8,45.6 58.8,46.1 58.8,46.6 
						58.8,47.1 58.7,47.6 58.6,48 58.5,48.5 58.3,48.9 58.3,49.1 58.2,49.3 58.1,49.5 58,49.6 57.9,49.8 57.8,50 57.7,50.1 
						57.6,50.3 57.5,50.5 57.4,50.6 57.3,50.7 57.1,50.9 57,51 56.9,51.1 56.7,51.2 56.6,51.3 56.4,51.4 					"/>
				</g>
			</g>
			<g>
				<g>
					<polygon class="st2" points="51.6,57.8 64.1,51.7 62.1,65.5 54.9,64.4 					"/>
					<polygon class="st3" points="63.1,58.6 63.2,58.2 63.2,57.8 63.2,57.5 63.2,57.2 63.3,56.8 63.2,56.5 63.2,56.1 63.2,55.8 
						63.2,55.5 63.2,55.2 63.1,54.9 63.1,54.6 63,54.3 62.9,54 62.8,53.8 62.8,53.5 62.5,53.5 62.2,53.5 61.9,53.5 61.6,53.6 
						61.3,53.6 61,53.7 60.7,53.7 60.4,53.8 60.1,53.9 59.8,54 59.5,54.1 59.2,54.2 58.8,54.3 58.5,54.4 58.2,54.6 57.9,54.7 
						57.5,54.9 57.2,55.1 56.9,55.2 56.6,55.4 56.4,55.6 56.1,55.8 55.8,56 55.6,56.2 55.3,56.4 55.1,56.6 54.9,56.8 54.6,57 
						54.4,57.2 54.3,57.5 54.1,57.7 53.9,57.9 53.8,58.1 53.6,58.3 53.5,58.5 53.4,58.7 53.3,59 53.2,59.2 53.1,59.4 53.1,59.6 
						53.1,59.8 53,60 53,60.2 53,60.4 53.1,60.6 53.1,60.8 53.1,60.8 53.2,60.9 53.2,61 53.2,61.1 53.3,61.2 53.3,61.3 53.4,61.4 
						53.4,61.4 53.6,61.6 53.7,61.7 53.8,61.8 54,61.9 54.2,62.1 54.4,62.1 54.6,62.2 54.8,62.3 55,62.4 55.2,62.4 55.4,62.5 
						55.7,62.5 55.9,62.5 56.2,62.5 56.3,62.8 56.4,63 56.5,63.2 56.6,63.5 56.7,63.7 56.9,63.8 57,64 57.2,64.2 57.3,64.3 
						57.5,64.5 57.6,64.6 57.8,64.7 57.9,64.8 58,64.8 58.1,64.8 58.2,64.9 58.3,64.9 58.4,64.9 58.5,64.9 58.6,64.9 58.7,64.9 
						58.8,64.9 58.9,64.9 59,64.9 59,64.9 59.2,64.9 59.4,64.8 59.6,64.8 59.8,64.7 60,64.6 60.2,64.5 60.3,64.3 60.5,64.2 60.7,64 
						60.9,63.9 61,63.7 61.2,63.5 61.3,63.3 61.5,63.1 61.6,62.8 61.8,62.6 61.9,62.3 62.1,62.1 62.2,61.8 62.3,61.5 62.4,61.2 
						62.5,60.9 62.7,60.6 62.7,60.3 62.8,59.9 62.9,59.6 63,59.3 63.1,58.9 					"/>
				</g>
			</g>
		</g>
	</g>
</g>
<g>
	<g>
		<g>
			<g>
				<g>
					<g>
						<g>
							<path class="st4" d="M86.9,74.9c0.4-0.4,0.3-0.9,0-1.2c-0.3-0.2-0.7,0-0.9,0.1c-0.2,0.2-0.2,0.4-0.1,0.5
								c0.1,0.1,0.3,0.1,0.4,0c0.1-0.1,0-0.3,0.1-0.2c0.1,0.1,0,0.2,0,0.3c-0.2,0.2-0.4,0.2-0.5,0c-0.1-0.1-0.1-0.3,0.1-0.6
								c0.5-0.5,1,0.1,2.2-1.2l-0.1,1.1l0.3,0.1l0.4,0l0.3-0.1c0.1-1.6,0.2-3.2,0.2-4.8c0.5,0.9,1.1,1.5,1.5,1.9
								c0.9,0.9,1.3,1.8,1.6,2.5c0.1,0.3,0.2,0.6,0.2,0.8c0,0.2,0,0.3,0,0.3c0.5-0.9,0.3-1.8-0.1-2.5c-0.4-0.7-0.9-1.1-0.9-1.1
								s0.5,0.3,1.2,0.4c0.7,0.1,1.6-0.1,2.5-1.1c1.4-1.4,0.5-3.9,0.5-3.9s0.1,1-1,2.2c-1.1,1.1-1.9-1-3.3,0.2
								c-0.5,0.4-0.5,1-0.2,1.2c0.5,0.4,0.7,0.1,0.7,0.1c0,0.4-0.3,0.4-0.5,0.3c-0.2-0.1-0.4-0.3-0.4-0.3C90,69,89.4,68,89.2,66.8
								v-6.4l-0.3-0.1h-0.4l-0.3,0.1v4.9c0,0.3,0,0.6,0,0.8c0,2,0,4-0.1,6c-0.1,0.1-0.1,0.2-0.2,0.2c-1.4,1.7-2,0.6-3.2,1.3
								c-0.6,0.3-0.6,0.9-0.6,0.9C84.9,73.8,85.9,75.9,86.9,74.9z"/>
							<path class="st2" d="M84.5,60.2v6.1v3l0,0.8l0,0.7l-0.1,1.4c-0.2,3.6-0.9,7.2-2.3,10.5c0.2,0.4,0.4,0.8,0.6,1.2l0.5,1.2
								c0.3,0.8,0.6,1.7,0.9,2.6c0.3,0.9,0.5,1.8,0.7,2.8c0.2,0.9,0.4,1.9,0.5,2.9c2.5-3.7,4.3-7.8,5.5-12.1
								c0.3-1.1,0.6-2.1,0.8-3.2l0.5-3.3c0.1-1.1,0.1-2.2,0.2-3.3c0-0.5,0.1-1.1,0.1-1.6v-1.5L84.5,60.2z"/>
							<rect x="81.4" y="47.4" class="st2" width="11.5" height="15.3"/>
						</g>
						<g>
							<g>
								<path class="st4" d="M90.1,62.3c-0.3-0.4-0.2-0.9,0.2-1.2c0.3-0.2,0.7,0,0.9,0.2c0.2,0.2,0.1,0.4,0,0.5
									c-0.1,0.1-0.3,0-0.4-0.1c-0.1-0.1,0-0.3-0.1-0.3c-0.1,0.1-0.1,0.2,0,0.3c0.1,0.2,0.4,0.2,0.5,0.1c0.2-0.1,0.2-0.4,0-0.6
									c-0.4-0.6-1,0-2.1-1.4V61l-0.3,0.1h-0.4L88.2,61v-4.8c-0.5,0.9-1.2,1.5-1.6,1.9c-1.8,1.7-2,3.2-2,3.2
									c-0.9-1.7,1.2-3.3,1.2-3.3s-1.9,1-3.6-0.7c-1.4-1.4-0.5-3.9-0.5-3.9s-0.1,1,1,2.2c1.1,1.1,1.9-1,3.3,0.2
									c0.5,0.4,0.5,1,0.2,1.2c-0.5,0.4-0.7,0.1-0.7,0.1c0.1,0.8,0.9,0,0.9,0c0.9-0.8,1.5-1.9,1.7-3.1v-6.4l0.3-0.1h0.4l0.3,0.1
									v4.9c0,0.3,0,0.6,0,0.8v6.1c0,0.1,0.1,0.2,0.2,0.2c1.3,1.8,2,0.7,3.1,1.6c0.6,0.5,0.5,1.1,0.5,1.1
									C92.3,61.4,91,63.5,90.1,62.3z"/>
							</g>
						</g>
					</g>
					<g>
						<g>
							<path class="st4" d="M77,95.7c0.5-0.1,0.7-0.6,0.7-1c-0.1-0.3-0.5-0.4-0.8-0.4c-0.2,0-0.4,0.2-0.4,0.3c0,0.1,0.2,0.2,0.4,0.2
								c0.2,0,0.2-0.2,0.2-0.1c0,0.1-0.1,0.2-0.2,0.2c-0.2,0-0.4-0.1-0.4-0.3c0-0.2,0.1-0.4,0.4-0.4c0.7-0.1,0.8,0.7,2.5,0.3
								l-0.8,0.8l0.1,0.3l0.3,0.3l0.3,0.1c1.1-1.1,2-2.5,3-3.8c-0.1,1,0,1.9,0.1,2.5c0.2,1.3,0.1,2.3-0.2,2.9c-0.2,0.7-0.5,1-0.5,1
								c1-0.4,1.4-1.2,1.5-2.1c0.1-0.8-0.1-1.5-0.1-1.5s0.2,0.5,0.7,1c0.5,0.5,1.3,0.9,2.6,0.6c1-0.2,1.8-1.1,2.3-2
								c0.5-0.9,0.7-1.6,0.7-1.6s-0.6,1.1-2.2,1.6c-1.6,0.5-1-2-2.9-1.7c-0.7,0.1-1,0.6-0.9,0.9c0.1,0.6,0.5,0.5,0.5,0.5
								c-0.6,0.7-0.8-0.5-0.8-0.5c-0.1-0.6-0.1-1.2-0.1-1.8c0-0.6,0.2-1.2,0.4-1.8l0.8-1.4c0.3-0.5,0.5-1,0.7-1.5l0.7-1.5l0.4-0.7
								l0.3-0.8l-0.2-0.2l-0.4-0.1l-0.3,0c-0.2,0.8-0.6,1.5-1,2.2c-0.4,0.7-0.7,1.5-1.1,2.1c-0.2,0.2-0.3,0.5-0.4,0.7
								c-0.5,0.8-1,1.7-1.6,2.5l-1.8,2.4c-0.1,0-0.2,0.1-0.3,0.1c-2.2,0.5-2-0.7-3.4-0.9c-0.7-0.1-1,0.4-1,0.4
								C76,93.6,75.6,95.9,77,95.7z"/>
							<path class="st2" d="M82.1,82.6c-1.3,3.3-3.2,6.5-5.5,9.3c-2.3,2.8-5.1,5.2-8.1,7.1c-0.3,1.7-0.7,3.6-1.4,5.3
								c-0.3,0.9-0.7,1.8-1,2.7c-0.4,0.9-0.8,1.7-1.3,2.6l1.6-0.6c0.5-0.2,1-0.5,1.5-0.7l1.5-0.7c0.5-0.2,1-0.5,1.5-0.8l2.8-1.7
								l2.7-2c3.5-2.8,6.5-6.1,9-9.8c-0.2-1-0.3-2-0.5-2.9c-0.2-0.9-0.4-1.8-0.7-2.8c-0.3-0.9-0.6-1.8-0.9-2.6l-0.5-1.2
								C82.5,83.5,82.3,83,82.1,82.6z"/>
							<path class="st2" d="M92.8,71.9c-0.2,5.6-1.6,11.2-4,16.3l-10.4-4.9c1.8-3.7,2.8-7.8,2.9-11.9L92.8,71.9z"/>
						</g>
						<g>
							<g>
								<path class="st4" d="M86.5,86.7c-0.1-0.5,0.3-0.9,0.7-1.1c0.3-0.1,0.6,0.3,0.7,0.5c0.1,0.2-0.1,0.5-0.2,0.5
									c-0.1,0-0.3-0.1-0.3-0.3c0-0.2,0.2-0.3,0.1-0.3c-0.1,0-0.2,0.2-0.1,0.3c0,0.3,0.2,0.4,0.4,0.3c0.2-0.1,0.3-0.3,0.3-0.6
									c-0.2-0.7-0.9-0.5-1.4-2.2l-0.4,1.1l-0.3,0l-0.4-0.2l-0.2-0.2l0.8-2.2l0.4-1.1l0.3-1.1c-0.4,0.3-0.7,0.6-1.1,0.8
									c-0.4,0.2-0.7,0.4-1,0.5c-1.1,0.4-1.9,0.9-2.3,1.3c-0.2,0.2-0.4,0.4-0.5,0.5c-0.1,0.1-0.1,0.2-0.1,0.2
									c-0.2-0.9,0.3-1.5,0.9-1.8c0.6-0.4,1.2-0.6,1.2-0.6s-0.5,0.1-1.2-0.1c-0.7-0.2-1.5-0.6-2.1-1.6c-0.5-0.7-0.4-1.5-0.2-2.2
									c0.1-0.3,0.3-0.6,0.4-0.8c0.1-0.2,0.2-0.3,0.2-0.3s0,0.2,0,0.5c0,0.3,0.2,0.8,0.6,1.4c0.8,1.2,2.1-0.4,3.2,1
									c0.4,0.5,0.2,1,0,1.1c-0.5,0.3-0.7-0.1-0.7-0.1C83.9,81,85,80.5,85,80.5c1.1-0.5,1.9-1.3,2.4-2.4c0.4-2.1,0.8-4.2,0.8-6.3
									l0.3-0.1l0.4,0l0.3,0.1c-0.1,0.8-0.1,1.6-0.2,2.4l-0.4,2.4c0,0.3-0.1,0.6-0.1,0.8c-0.2,1-0.5,2-0.7,3c-0.2,1-0.6,2-0.9,2.9
									c0,0.1,0,0.2,0.1,0.3c0.6,2.2,1.6,1.4,2.3,2.7c0.3,0.7-0.1,1.3-0.1,1.3C88.9,86.7,86.7,88.2,86.5,86.7z"/>
							</g>
						</g>
					</g>
				</g>
			</g>
			<g>
				<g>
					<g>
						<g>
							<path class="st4" d="M77,95.7c0.5-0.1,0.7-0.6,0.7-1c-0.1-0.3-0.5-0.4-0.8-0.4c-0.2,0-0.4,0.2-0.4,0.3c0,0.1,0.2,0.2,0.4,0.2
								c0.2,0,0.2-0.2,0.2-0.1c0,0.1-0.1,0.2-0.2,0.2c-0.2,0-0.4-0.1-0.4-0.3c0-0.2,0.1-0.4,0.4-0.4c0.7-0.1,0.8,0.7,2.5,0.3
								l-0.8,0.8l0.1,0.3l0.3,0.3l0.3,0.1c1.1-1.1,2-2.5,3-3.8c-0.1,1,0,1.9,0.1,2.5c0.2,1.3,0.1,2.3-0.2,2.9c-0.2,0.7-0.5,1-0.5,1
								c1-0.4,1.4-1.2,1.5-2.1c0.1-0.8-0.1-1.5-0.1-1.5s0.2,0.5,0.7,1c0.5,0.5,1.3,0.9,2.6,0.6c1-0.2,1.8-1.1,2.3-2
								c0.5-0.9,0.7-1.6,0.7-1.6s-0.6,1.1-2.2,1.6c-1.6,0.5-1-2-2.9-1.7c-0.7,0.1-1,0.6-0.9,0.9c0.1,0.6,0.5,0.5,0.5,0.5
								c-0.6,0.7-0.8-0.5-0.8-0.5c-0.1-0.6-0.1-1.2-0.1-1.8c0-0.6,0.2-1.2,0.4-1.8l0.8-1.4c0.3-0.5,0.5-1,0.7-1.5l0.7-1.5l0.4-0.7
								l0.3-0.8l-0.2-0.2l-0.4-0.1l-0.3,0c-0.2,0.8-0.6,1.5-1,2.2c-0.4,0.7-0.7,1.5-1.1,2.2c-0.2,0.2-0.3,0.5-0.4,0.7
								c-0.5,0.8-1,1.7-1.6,2.5l-1.8,2.4c-0.1,0-0.2,0.1-0.3,0.1c-2.2,0.5-2-0.7-3.4-0.9c-0.7-0.1-1,0.4-1,0.4
								C76,93.6,75.6,95.9,77,95.7z"/>
							<path class="st2" d="M82.1,82.6c-1.3,3.3-3.2,6.5-5.5,9.3c-2.3,2.8-5.1,5.2-8.1,7.1c-0.3,1.7-0.7,3.6-1.4,5.3
								c-0.3,0.9-0.7,1.8-1,2.7c-0.4,0.9-0.8,1.7-1.3,2.6l1.6-0.6c0.5-0.2,1-0.5,1.5-0.7l1.5-0.7c0.5-0.2,1-0.5,1.5-0.8l2.8-1.7
								l2.7-2c3.5-2.8,6.5-6.1,9-9.8c-0.2-1-0.3-2-0.5-2.9c-0.2-0.9-0.4-1.8-0.7-2.8c-0.3-0.9-0.6-1.8-0.9-2.6l-0.5-1.2
								C82.5,83.5,82.3,83,82.1,82.6z"/>
							<path class="st2" d="M92.8,71.9c-0.2,5.6-1.6,11.2-4,16.3l-10.4-4.9c1.8-3.7,2.8-7.8,2.9-11.9L92.8,71.9z"/>
						</g>
						<g>
							<g>
								<path class="st4" d="M86.5,86.7c-0.1-0.5,0.3-0.9,0.7-1.1c0.3-0.1,0.6,0.3,0.7,0.5c0.1,0.2-0.1,0.5-0.2,0.5
									c-0.1,0-0.3-0.1-0.3-0.3c0-0.2,0.2-0.3,0.1-0.3c-0.1,0-0.2,0.2-0.1,0.3c0,0.3,0.2,0.4,0.4,0.3c0.2-0.1,0.3-0.3,0.3-0.6
									c-0.2-0.7-0.9-0.5-1.4-2.2l-0.4,1.1l-0.3,0l-0.4-0.2l-0.2-0.2l0.8-2.2l0.4-1.1l0.3-1.1c-0.4,0.3-0.7,0.6-1.1,0.8
									c-0.4,0.2-0.7,0.4-1,0.5c-1.1,0.4-1.9,0.9-2.3,1.3c-0.2,0.2-0.4,0.4-0.5,0.5c-0.1,0.1-0.1,0.2-0.1,0.2
									c-0.2-0.9,0.3-1.5,0.9-1.8c0.6-0.4,1.2-0.6,1.2-0.6s-0.5,0.1-1.2-0.1c-0.7-0.2-1.5-0.6-2.1-1.6c-0.5-0.7-0.4-1.5-0.2-2.2
									c0.1-0.3,0.3-0.6,0.4-0.8c0.1-0.2,0.2-0.3,0.2-0.3s0,0.2,0,0.5c0,0.3,0.2,0.8,0.6,1.4c0.8,1.2,2.1-0.4,3.2,1
									c0.4,0.5,0.2,1,0,1.1c-0.5,0.3-0.7-0.1-0.7-0.1C83.9,81,85,80.5,85,80.5c1.1-0.5,1.9-1.3,2.4-2.4c0.4-2.1,0.8-4.2,0.8-6.3
									l0.3-0.1l0.4,0l0.3,0.1c-0.1,0.8-0.1,1.6-0.2,2.4l-0.4,2.4c0,0.3-0.1,0.6-0.1,0.8c-0.2,1-0.5,2-0.7,3c-0.2,1-0.6,2-0.9,2.9
									c0,0.1,0,0.2,0.1,0.3c0.6,2.2,1.6,1.4,2.3,2.7c0.3,0.7-0.1,1.3-0.1,1.3C88.9,86.7,86.7,88.2,86.5,86.7z"/>
							</g>
						</g>
					</g>
					<g>
						<g>
							<path class="st4" d="M56.8,106.7c0.5,0.2,0.9,0,1.1-0.4c0.1-0.3-0.2-0.7-0.4-0.8c-0.2-0.1-0.4-0.1-0.5,0.1
								c-0.1,0.1,0,0.3,0.2,0.4c0.1,0.1,0.3-0.1,0.3,0c0,0.1-0.2,0.1-0.3,0c-0.2-0.1-0.3-0.3-0.2-0.5c0.1-0.2,0.3-0.2,0.6-0.1
								c0.6,0.3,0.2,1,1.8,1.7l-1.1,0.3l0,0.3l0.1,0.4l0.2,0.2c1.6-0.4,3.1-0.7,4.6-1.3c-0.7,0.8-1.1,1.6-1.4,2.1
								c-0.6,1.1-1.3,1.8-1.9,2.2c-0.6,0.4-0.9,0.6-0.9,0.6c1,0.2,1.8-0.3,2.4-0.9c0.6-0.6,0.8-1.2,0.8-1.2s-0.1,0.5,0,1.2
								c0.1,0.7,0.6,1.5,1.8,2c1,0.4,2.1,0.1,3-0.3c0.4-0.2,0.8-0.4,1.1-0.6c0.3-0.2,0.4-0.3,0.4-0.3s-0.3,0.2-0.7,0.2
								c-0.5,0-1.2,0-2-0.3c-1.6-0.6,0.4-2.2-1.4-3c-0.6-0.3-1.1-0.1-1.3,0.2c-0.3,0.6,0.1,0.7,0.1,0.7c-0.8,0.2-0.3-0.9-0.3-0.9
								c0.5-1.2,1.3-2.1,2.4-2.7l2.9-1.4c1-0.5,1.9-1.1,2.8-1.6l-0.1-0.3l-0.2-0.3l-0.2-0.2l-2.1,1.2c-0.7,0.4-1.4,0.7-2.2,1.1
								c-0.3,0.1-0.5,0.2-0.7,0.3c-0.4,0.2-0.9,0.4-1.4,0.6l-1.4,0.5l-1.4,0.5l-1.4,0.4c-0.1,0-0.2-0.1-0.3-0.1
								c-2-0.8-1.2-1.7-2.2-2.6c-0.3-0.2-0.5-0.3-0.7-0.3c-0.2,0-0.3,0-0.3,0C57.2,104.4,55.5,106,56.8,106.7z"/>
							<path class="st2" d="M68.5,99.1c-3,2-6.4,3.4-9.9,4.3c-1.7,0.5-3.5,0.7-5.3,1l-2.7,0.1c-0.5,0-0.9,0-1.4,0l-1.4-0.1
								c-0.6,0.6-1.3,1.3-2,1.8c-0.7,0.6-1.4,1.1-2.2,1.7c-1.6,1.2-3.2,2-5,2.9c4.3,1.3,8.7,1.7,13.2,1.5l1.7-0.1l0.8,0l0.8-0.1
								l3.3-0.5c2.2-0.5,4.3-1,6.4-1.9c0.5-0.9,0.9-1.7,1.3-2.6c0.4-0.9,0.7-1.8,1-2.7C67.8,102.7,68.2,100.8,68.5,99.1z"/>
							<path class="st2" d="M83.6,96.7c-3.5,4.4-7.9,8.1-12.8,10.9l-5.6-10.1c3.6-2,6.8-4.7,9.4-8L83.6,96.7z"/>
						</g>
						<g>
							<g>
								<path class="st4" d="M69.7,104.9c0.2-0.5,0.7-0.6,1.2-0.5c0.3,0.1,0.3,0.6,0.3,0.9c-0.1,0.2-0.3,0.4-0.5,0.3
									c-0.1,0-0.2-0.2-0.1-0.4c0.1-0.2,0.3-0.2,0.2-0.2c-0.1,0-0.2,0.1-0.3,0.2c-0.1,0.2,0,0.4,0.2,0.5c0.2,0.1,0.4,0,0.6-0.3
									c0.3-0.7-0.5-0.9,0.2-2.5l-1,0.6l-0.2-0.2l-0.2-0.3l-0.1-0.3c1.4-0.8,2.6-1.7,3.9-2.7c-1,0.1-1.9,0-2.4-0.2
									c-0.6-0.1-1.1-0.2-1.5-0.2c-0.4-0.1-0.8-0.1-1.1,0c-0.6,0-0.9,0.2-0.9,0.2c0.4-0.8,1.2-0.9,1.9-0.9c0.7,0,1.3,0.2,1.3,0.2
									s-0.5-0.2-0.9-0.8c-0.4-0.5-0.8-1.4-0.8-2.5c0-0.9,0.6-1.4,1.1-1.8c0.5-0.4,1.1-0.6,1.1-0.6s-0.6,0.5-0.6,2
									c-0.1,0.7,0.4,0.9,0.9,1.2c0.5,0.3,1,0.5,1,1.4c0,0.6-0.4,0.9-0.7,0.8c-0.6-0.1-0.5-0.5-0.5-0.5C71,98.8,72.1,99,72.1,99
									c0.6,0.1,1.2,0.2,1.8,0.1c0.6-0.1,1.1-0.3,1.6-0.7c1.6-1.4,3-3,4.4-4.6l0.3,0.1l0.3,0.2l0.2,0.3c-0.5,0.7-1.1,1.2-1.6,1.9
									c-0.6,0.6-1.1,1.2-1.7,1.8c-0.2,0.2-0.4,0.4-0.6,0.6l-1.1,1c-0.4,0.4-0.8,0.7-1.2,1l-2.5,1.8c0,0.1-0.1,0.2-0.1,0.3
									c-0.9,2.1,0.4,2.1,0.2,3.5c-0.1,0.8-0.8,1.1-0.8,1.1C71.6,106.3,69,106.4,69.7,104.9z"/>
							</g>
						</g>
					</g>
				</g>
			</g>
			<g>
				<g>
					<g>
						<g>
							<path class="st4" d="M56.8,106.7c0.5,0.2,0.9,0,1.1-0.4c0.1-0.3-0.2-0.7-0.4-0.8c-0.2-0.1-0.4-0.1-0.5,0.1
								c-0.1,0.1,0,0.3,0.2,0.4c0.1,0.1,0.3-0.1,0.3,0c0,0.1-0.2,0.1-0.3,0c-0.2-0.1-0.3-0.3-0.2-0.5c0.1-0.2,0.3-0.2,0.6-0.1
								c0.6,0.3,0.2,1,1.8,1.7l-1.1,0.3l0,0.3l0.1,0.4l0.2,0.2c1.6-0.4,3.1-0.7,4.6-1.3c-0.7,0.8-1.1,1.6-1.4,2.1
								c-0.6,1.1-1.3,1.8-1.9,2.2c-0.6,0.4-0.9,0.6-0.9,0.6c1,0.2,1.8-0.3,2.4-0.9c0.6-0.6,0.8-1.2,0.8-1.2s-0.1,0.5,0,1.2
								c0.1,0.7,0.6,1.5,1.8,2c1,0.4,2.1,0.1,3-0.3c0.4-0.2,0.8-0.4,1.1-0.6c0.3-0.2,0.4-0.3,0.4-0.3s-0.3,0.2-0.7,0.2
								c-0.5,0-1.2,0-2-0.3c-1.6-0.6,0.4-2.2-1.4-3c-0.6-0.3-1.1-0.1-1.3,0.2c-0.3,0.6,0.1,0.7,0.1,0.7c-0.8,0.2-0.3-0.9-0.3-0.9
								c0.5-1.2,1.3-2.1,2.4-2.7l2.9-1.4c1-0.5,1.9-1.1,2.8-1.6l-0.1-0.3l-0.2-0.3l-0.2-0.2l-2.1,1.2c-0.7,0.4-1.4,0.7-2.2,1.1
								c-0.3,0.1-0.5,0.2-0.7,0.3c-0.4,0.2-0.9,0.4-1.4,0.6l-1.4,0.5l-1.4,0.5l-1.4,0.4c-0.1,0-0.2-0.1-0.3-0.1
								c-2-0.8-1.2-1.7-2.2-2.6c-0.3-0.2-0.5-0.3-0.7-0.3c-0.2,0-0.3,0-0.3,0C57.2,104.4,55.5,106,56.8,106.7z"/>
							<path class="st2" d="M68.5,99.1c-3,2-6.4,3.4-9.9,4.3c-1.7,0.5-3.5,0.7-5.3,1l-2.7,0.1c-0.5,0-0.9,0-1.4,0l-1.4-0.1
								c-0.6,0.6-1.3,1.3-2,1.8c-0.7,0.6-1.4,1.1-2.2,1.7c-1.6,1.2-3.2,2-5,2.9c4.3,1.3,8.7,1.7,13.2,1.5l1.7-0.1l0.8,0l0.8-0.1
								l3.3-0.5c2.2-0.5,4.3-1,6.4-1.9c0.5-0.9,0.9-1.7,1.3-2.6c0.4-0.9,0.7-1.8,1-2.7C67.8,102.7,68.2,100.8,68.5,99.1z"/>
							<path class="st2" d="M83.6,96.7c-3.5,4.4-7.9,8.1-12.8,10.9l-5.6-10.1c3.6-2,6.8-4.7,9.4-8L83.6,96.7z"/>
						</g>
						<g>
							<g>
								<path class="st4" d="M69.7,104.9c0.2-0.5,0.7-0.6,1.2-0.5c0.3,0.1,0.3,0.6,0.3,0.9c-0.1,0.2-0.3,0.4-0.5,0.3
									c-0.1,0-0.2-0.2-0.1-0.4c0.1-0.2,0.3-0.2,0.2-0.2c-0.1,0-0.2,0.1-0.3,0.2c-0.1,0.2,0,0.4,0.2,0.5c0.2,0.1,0.4,0,0.6-0.3
									c0.3-0.7-0.5-0.9,0.2-2.5l-1,0.6l-0.2-0.2l-0.2-0.3l-0.1-0.3c1.4-0.8,2.6-1.7,3.9-2.7c-1,0.1-1.9,0-2.4-0.2
									c-0.6-0.1-1.1-0.2-1.5-0.2c-0.4-0.1-0.8-0.1-1.1,0c-0.6,0-0.9,0.2-0.9,0.2c0.4-0.8,1.2-0.9,1.9-0.9c0.7,0,1.3,0.2,1.3,0.2
									s-0.5-0.2-0.9-0.8c-0.4-0.5-0.8-1.4-0.8-2.5c0-0.9,0.6-1.4,1.1-1.8c0.5-0.4,1.1-0.6,1.1-0.6s-0.6,0.5-0.6,2
									c-0.1,0.7,0.4,0.9,0.9,1.2c0.5,0.3,1,0.5,1,1.4c0,0.6-0.4,0.9-0.7,0.8c-0.6-0.1-0.5-0.5-0.5-0.5C71,98.8,72.1,99,72.1,99
									c0.6,0.1,1.2,0.2,1.8,0.1c0.6-0.1,1.1-0.3,1.6-0.7c1.6-1.4,3-3,4.4-4.6l0.3,0.1l0.3,0.2l0.2,0.3c-0.5,0.7-1.1,1.2-1.6,1.9
									c-0.6,0.6-1.1,1.2-1.7,1.8c-0.2,0.2-0.4,0.4-0.6,0.6l-1.1,1c-0.4,0.4-0.8,0.7-1.2,1l-2.5,1.8c0,0.1-0.1,0.2-0.1,0.3
									c-0.9,2.1,0.4,2.1,0.2,3.5c-0.1,0.8-0.8,1.1-0.8,1.1C71.6,106.3,69,106.4,69.7,104.9z"/>
							</g>
						</g>
					</g>
					<g>
						<g>
							<path class="st4" d="M33.9,103.6c0.2,0.5,0.8,0.5,1.1,0.3c0.3-0.2,0.3-0.6,0.2-0.9c-0.1-0.2-0.3-0.3-0.4-0.2
								c-0.1,0.1-0.2,0.3-0.1,0.4c0.1,0.1,0.3,0.1,0.2,0.2c-0.1,0-0.2,0-0.3-0.1c-0.1-0.2-0.1-0.4,0.1-0.5c0.2-0.1,0.4,0,0.5,0.3
								c0.2,0.3,0.1,0.5,0,0.9c0,0.4,0,0.8,0.4,1.6c-0.4-0.1-0.7-0.3-1-0.4l-0.2,0.2l-0.2,0.4l0,0.3c0.7,0.4,1.5,0.6,2.2,0.9
								c0.8,0.3,1.5,0.6,2.3,0.8c-1,0.3-1.8,0.6-2.3,0.9c-1.1,0.6-2.1,0.7-2.8,0.8c-0.7,0-1.1-0.1-1.1-0.1c0.6,0.9,1.7,0.9,2.4,0.7
								c0.8-0.1,1.4-0.5,1.4-0.5s-0.4,0.4-0.7,1c-0.3,0.6-0.4,1.6,0.3,2.7c0.5,1,1.7,1.3,2.6,1.5c1,0.2,1.7,0.2,1.7,0.2
								s-1.2-0.3-2.2-1.6c-1-1.3,1.6-1.5,0.7-3.2c-0.3-0.6-0.9-0.7-1.2-0.6c-0.6,0.3-0.3,0.6-0.3,0.6c-0.8-0.4,0.3-0.9,0.3-0.9
								c1.1-0.6,2.3-0.9,3.5-0.8c1,0.3,2.1,0.4,3.2,0.6l1.6,0.2c0.5,0.1,1.1,0.1,1.6,0.1l0.1-0.3l0-0.4l-0.1-0.3
								c-1.6,0-3.2-0.4-4.8-0.6c-0.3-0.1-0.5-0.1-0.8-0.1l-2.9-0.7c-1-0.2-1.9-0.7-2.8-1c-0.1-0.1-0.1-0.1-0.2-0.2
								c-0.6-0.9-0.6-1.4-0.4-1.9c0.1-0.5,0.3-0.8,0.2-1.5c-0.1-0.7-0.7-0.9-0.7-0.9C35.6,102,33.3,102.3,33.9,103.6z"/>
							<path class="st2" d="M47.9,104.4c-7.2-0.3-14.2-3.2-19.9-7.8c-1.7,0.2-3.6,0.3-5.5,0.3c-0.9,0-1.9-0.1-2.8-0.2
								c-1-0.1-2-0.2-2.9-0.4c2.8,3.5,6.1,6.5,9.8,9c3.7,2.5,7.8,4.3,12.1,5.5c1.8-0.9,3.4-1.8,5-2.9c0.8-0.5,1.5-1.1,2.2-1.7
								C46.6,105.7,47.3,105,47.9,104.4z"/>
							<path class="st2" d="M61.5,111.3c-5.5,1.5-11.2,1.9-16.8,1.2l1.4-11.4c4.1,0.5,8.3,0.2,12.3-0.9L61.5,111.3z"/>
						</g>
						<g>
							<g>
								<path class="st4" d="M45.4,109.8c0.5-0.2,1-0.1,1.2,0.3c0.2,0.3-0.1,0.7-0.3,0.9c-0.2,0.1-0.5,0.1-0.6,0
									c-0.1-0.1,0-0.3,0.1-0.4c0.2-0.1,0.3,0,0.3-0.1c0-0.1-0.2-0.1-0.3,0c-0.2,0.1-0.3,0.3-0.2,0.5c0.1,0.2,0.4,0.2,0.7,0
									c0.6-0.4,0.2-1,1.6-2l-1.2-0.1l-0.1-0.3l0-0.4l0.1-0.3c1.6,0.1,3.1,0.2,4.7,0.1c-0.9-0.5-1.5-1.1-1.9-1.5
									c-0.8-1-1.5-1.5-2-1.8c-0.5-0.3-0.8-0.4-0.8-0.4c0.8-0.4,1.5-0.1,2,0.3c0.5,0.4,0.9,1,0.9,1s-0.2-0.5-0.3-1.2
									c0-0.7,0.1-1.6,0.8-2.5c1.1-1.4,3.2-0.6,3.2-0.7c0,0-0.2,0-0.5,0.2c-0.3,0.1-0.7,0.4-1.2,1c-0.9,1.1,1,1.9,0,3.3
									c-0.4,0.5-0.9,0.5-1.1,0.3c-0.4-0.4-0.1-0.7-0.1-0.7c-0.7,0.1,0,0.9,0,0.9c0.8,0.9,1.9,1.4,3.1,1.6l3.1-0.5
									c0.5-0.1,1-0.2,1.6-0.3l1.5-0.4l0.2,0.2l0.1,0.4l0,0.3l-2.4,0.6l-2.4,0.4c-0.3,0.1-0.6,0.1-0.8,0.1L54,109l-0.8,0l-1.5,0.1
									l-1.5,0.1c-0.5,0-1,0-1.5-0.1c-0.1,0-0.2,0.1-0.2,0.1c-1.9,1.2-0.9,1.9-1.9,3c-0.3,0.3-0.6,0.4-0.8,0.4c-0.2,0-0.4,0-0.4,0
									C46.1,112.2,44,110.5,45.4,109.8z"/>
							</g>
						</g>
					</g>
				</g>
			</g>
			<g>
				<g>
					<g>
						<g>
							<path class="st4" d="M33.9,103.6c0.2,0.5,0.8,0.5,1.1,0.3c0.3-0.2,0.3-0.6,0.2-0.9c-0.1-0.2-0.3-0.3-0.4-0.2
								c-0.1,0.1-0.2,0.3-0.1,0.4c0.1,0.1,0.3,0.1,0.2,0.2c-0.1,0-0.2,0-0.3-0.1c-0.1-0.2-0.1-0.4,0.1-0.5c0.2-0.1,0.4,0,0.5,0.3
								c0.2,0.3,0.1,0.5,0,0.9c0,0.4,0,0.8,0.4,1.6c-0.4-0.1-0.7-0.3-1-0.4l-0.2,0.2l-0.2,0.4l0,0.3c0.7,0.4,1.5,0.6,2.2,0.9
								c0.8,0.3,1.5,0.6,2.3,0.8c-1,0.3-1.8,0.6-2.3,0.9c-1.1,0.6-2.1,0.7-2.8,0.8c-0.7,0-1.1-0.1-1.1-0.1c0.6,0.9,1.7,0.9,2.4,0.7
								c0.8-0.1,1.4-0.5,1.4-0.5s-0.4,0.4-0.7,1c-0.3,0.6-0.4,1.6,0.3,2.7c0.5,1,1.7,1.3,2.6,1.5c1,0.2,1.7,0.2,1.7,0.2
								s-1.2-0.3-2.2-1.6c-1-1.3,1.6-1.5,0.7-3.2c-0.3-0.6-0.9-0.7-1.2-0.6c-0.6,0.3-0.3,0.6-0.3,0.6c-0.8-0.4,0.3-0.9,0.3-0.9
								c1.1-0.6,2.3-0.9,3.5-0.8c1,0.3,2.1,0.4,3.2,0.6l1.6,0.2c0.5,0.1,1.1,0.1,1.6,0.1l0.1-0.3l0-0.4l-0.1-0.3
								c-1.6,0-3.2-0.4-4.8-0.6c-0.3-0.1-0.5-0.1-0.8-0.1l-2.9-0.7c-1-0.2-1.9-0.7-2.8-1c-0.1-0.1-0.1-0.1-0.2-0.2
								c-0.6-0.9-0.6-1.4-0.4-1.9c0.1-0.5,0.3-0.8,0.2-1.5c-0.1-0.7-0.7-0.9-0.7-0.9C35.6,102,33.3,102.3,33.9,103.6z"/>
							<path class="st2" d="M47.9,104.4c-7.2-0.3-14.2-3.2-19.9-7.8c-1.7,0.2-3.6,0.3-5.5,0.3c-0.9,0-1.9-0.1-2.8-0.2
								c-1-0.1-2-0.2-2.9-0.4c2.8,3.5,6.1,6.5,9.8,9c3.7,2.5,7.8,4.3,12.1,5.5c1.8-0.9,3.4-1.8,5-2.9c0.8-0.5,1.5-1.1,2.2-1.7
								C46.6,105.7,47.3,105,47.9,104.4z"/>
							<path class="st2" d="M61.5,111.3c-5.5,1.5-11.2,1.9-16.8,1.2l1.4-11.4c4.1,0.5,8.3,0.2,12.3-0.9L61.5,111.3z"/>
						</g>
						<g>
							<g>
								<path class="st4" d="M45.4,109.8c0.5-0.2,1-0.1,1.2,0.3c0.2,0.3-0.1,0.7-0.3,0.9c-0.2,0.1-0.5,0.1-0.6,0
									c-0.1-0.1,0-0.3,0.1-0.4c0.2-0.1,0.3,0,0.3-0.1c0-0.1-0.2-0.1-0.3,0c-0.2,0.1-0.3,0.3-0.2,0.5c0.1,0.2,0.4,0.2,0.7,0
									c0.6-0.4,0.2-1,1.6-2l-1.2-0.1l-0.1-0.3l0-0.4l0.1-0.3c1.6,0.1,3.1,0.2,4.7,0.1c-0.9-0.5-1.5-1.1-1.9-1.5
									c-0.8-1-1.5-1.5-2-1.8c-0.5-0.3-0.8-0.4-0.8-0.4c0.8-0.4,1.5-0.1,2,0.3c0.5,0.4,0.9,1,0.9,1s-0.2-0.5-0.3-1.2
									c0-0.7,0.1-1.6,0.8-2.5c1.1-1.4,3.2-0.6,3.2-0.7c0,0-0.2,0-0.5,0.2c-0.3,0.1-0.7,0.4-1.2,1c-0.9,1.1,1,1.9,0,3.3
									c-0.4,0.5-0.9,0.5-1.1,0.3c-0.4-0.4-0.1-0.7-0.1-0.7c-0.7,0.1,0,0.9,0,0.9c0.8,0.9,1.9,1.4,3.1,1.6l3.1-0.5
									c0.5-0.1,1-0.2,1.6-0.3l1.5-0.4l0.2,0.2l0.1,0.4l0,0.3l-2.4,0.6l-2.4,0.4c-0.3,0.1-0.6,0.1-0.8,0.1L54,109l-0.8,0l-1.5,0.1
									l-1.5,0.1c-0.5,0-1,0-1.5-0.1c-0.1,0-0.2,0.1-0.2,0.1c-1.9,1.2-0.9,1.9-1.9,3c-0.3,0.3-0.6,0.4-0.8,0.4c-0.2,0-0.4,0-0.4,0
									C46.1,112.2,44,110.5,45.4,109.8z"/>
							</g>
						</g>
					</g>
					<g>
						<g>
							<path class="st4" d="M17.2,87.8c-0.1,0.5,0.3,0.9,0.7,0.9c0.4,0,0.6-0.4,0.7-0.6c0-0.2-0.1-0.4-0.2-0.4
								c-0.1,0-0.3,0.1-0.3,0.3c0,0.2,0.2,0.3,0.1,0.3c-0.1,0-0.2-0.1-0.2-0.3c0-0.2,0.2-0.4,0.4-0.3c0.2,0,0.3,0.2,0.3,0.5
								c-0.1,0.7-0.9,0.5-1.1,2.3l-0.6-1l-0.3,0l-0.3,0.2l-0.2,0.2l1.3,2.1l1.4,1.9c-0.9-0.4-1.8-0.5-2.5-0.6
								c-1.3-0.2-2.1-0.7-2.7-1.1c-0.6-0.4-0.8-0.7-0.8-0.7c0.1,1,0.8,1.7,1.5,2c0.3,0.2,0.7,0.3,1,0.3c0.3,0.1,0.4,0.1,0.4,0.1
								s-0.6,0.1-1.2,0.4c-0.6,0.4-1.2,1-1.3,2.3c-0.1,1,0.5,2.1,1.2,2.8c0.7,0.7,1.4,1.1,1.4,1.1s-0.2-0.2-0.4-0.6
								c-0.2-0.4-0.5-1.1-0.4-1.9c0.1-1.7,2.2-0.3,2.5-2.2c0.1-0.7-0.2-1.1-0.6-1.2c-0.7-0.1-0.6,0.3-0.6,0.3
								C15.8,94,17,94.2,17,94.2c0.6,0.1,1.2,0.2,1.8,0.5c0.3,0.1,0.5,0.3,0.8,0.4c0.3,0.1,0.5,0.3,0.8,0.5c0.7,0.8,1.4,1.6,2.2,2.4
								l2.4,2.2l0.3-0.1l0.2-0.3l0.1-0.3l-1.8-1.6L22.9,97l-0.8-0.9c-0.2-0.2-0.4-0.4-0.5-0.6l-1-1.1c-0.3-0.4-0.6-0.8-0.9-1.2
								l-0.9-1.2c-0.3-0.4-0.6-0.8-0.8-1.2c0-0.1,0-0.2,0-0.3c0.2-2.2,1.3-1.6,1.9-2.9c0.3-0.6-0.1-1.1-0.1-1.1
								C19.6,87,19,86.9,18.5,87C17.9,87,17.3,87,17.2,87.8z"/>
							<path class="st2" d="M28,96.6c-5.5-4.7-9.7-11-11.4-18c-0.8-0.4-1.6-0.9-2.4-1.4c-0.7-0.5-1.5-1-2.2-1.6
								c-0.7-0.6-1.5-1.2-2.2-1.8c-0.7-0.6-1.4-1.3-2.1-2l0.1,1.7l0,0.8l0.1,0.8l0.5,3.3c0.5,2.2,1,4.3,1.9,6.4l0.6,1.6
								c0.2,0.5,0.5,1,0.7,1.5l0.7,1.5c0.2,0.5,0.5,1,0.8,1.5l1.7,2.8l2,2.7c0.9,0.2,2,0.3,2.9,0.4c1,0.1,1.9,0.1,2.8,0.2
								C24.5,97,26.3,96.8,28,96.6z"/>
							<path class="st2" d="M35,110.2c-5.3-2-10.2-5-14.3-8.9l7.9-8.4c3,2.8,6.6,5.1,10.5,6.5L35,110.2z"/>
						</g>
						<g>
							<g>
								<path class="st4" d="M22.9,99.5c0.5,0.1,0.8,0.5,0.8,1c0,0.4-0.5,0.5-0.7,0.5c-0.2,0-0.4-0.2-0.4-0.4c0-0.2,0.2-0.3,0.3-0.2
									c0.2,0,0.3,0.2,0.3,0.1c0-0.1-0.1-0.2-0.3-0.2c-0.3,0-0.4,0.1-0.4,0.3c0,0.2,0.1,0.4,0.5,0.5c0.7,0.1,0.7-0.7,2.5-0.6
									c-0.3-0.2-0.6-0.5-0.9-0.8l0.1-0.3l0.3-0.3l0.3-0.1c0.6,0.6,1.2,1,1.8,1.5c0.6,0.5,1.2,1,1.9,1.4c-0.4-0.9-0.5-1.8-0.6-2.4
									c-0.1-1.2-0.3-2-0.6-2.6c-0.2-0.6-0.4-0.8-0.4-0.8c0.8,0.2,1.2,0.8,1.4,1.5c0.2,0.7,0.2,1.3,0.2,1.3s0.1-0.5,0.5-1.1
									c0.4-0.6,1.1-1.2,2.1-1.5c0.8-0.2,1.6,0.1,2.1,0.5c0.5,0.4,0.9,0.9,0.9,0.9s-0.7-0.5-2.1,0c-1.4,0.4-0.2,2.1-1.9,2.7
									c-0.6,0.2-1-0.1-1.1-0.4c-0.1-0.6,0.3-0.6,0.3-0.6c-0.6-0.4-0.5,0.8-0.5,0.8c0.1,1.2,0.7,2.2,1.6,3c0.9,0.6,1.9,1,2.8,1.5
									l1.4,0.7c0.5,0.2,1,0.4,1.5,0.6l0,0.3l-0.1,0.4l-0.2,0.2c-1.6-0.5-3-1.3-4.5-2c-0.3-0.1-0.5-0.2-0.7-0.4l-2.6-1.6
									c-0.9-0.6-1.6-1.2-2.5-1.8c-0.1,0-0.2,0-0.3,0c-1.2,0-1.6,0.2-2,0.5c-0.4,0.3-0.6,0.7-1.3,0.8c-0.8,0.1-1.2-0.5-1.2-0.5
									C22.1,101.8,21.3,99.3,22.9,99.5z"/>
							</g>
						</g>
					</g>
				</g>
			</g>
			<g>
				<g>
					<g>
						<g>
							<path class="st4" d="M17.2,87.8c-0.1,0.5,0.3,0.9,0.7,0.9c0.4,0,0.6-0.4,0.7-0.6c0-0.2-0.1-0.4-0.2-0.4
								c-0.1,0-0.3,0.1-0.3,0.3c0,0.2,0.2,0.3,0.1,0.3c-0.1,0-0.2-0.1-0.2-0.3c0-0.2,0.2-0.4,0.4-0.3c0.2,0,0.3,0.2,0.3,0.5
								c-0.1,0.7-0.9,0.5-1.1,2.3l-0.6-1l-0.3,0l-0.3,0.2l-0.2,0.2l1.3,2.1l1.4,1.9c-0.9-0.4-1.8-0.5-2.5-0.6
								c-1.3-0.2-2.1-0.7-2.7-1.1c-0.6-0.4-0.8-0.7-0.8-0.7c0.1,1,0.8,1.7,1.5,2c0.3,0.2,0.7,0.3,1,0.3c0.3,0.1,0.4,0.1,0.4,0.1
								s-0.6,0.1-1.2,0.4c-0.6,0.4-1.2,1-1.3,2.3c-0.1,1,0.5,2.1,1.2,2.8c0.7,0.7,1.4,1.1,1.4,1.1s-0.2-0.2-0.4-0.6
								c-0.2-0.4-0.5-1.1-0.4-1.9c0.1-1.7,2.2-0.3,2.5-2.2c0.1-0.7-0.2-1.1-0.6-1.2c-0.7-0.1-0.6,0.3-0.6,0.3
								C15.8,94,17,94.2,17,94.2c0.6,0.1,1.2,0.2,1.8,0.5c0.3,0.1,0.5,0.3,0.8,0.4c0.3,0.1,0.5,0.3,0.8,0.5c0.7,0.8,1.4,1.6,2.2,2.4
								l2.4,2.2l0.3-0.1l0.2-0.3l0.1-0.3l-1.8-1.6L22.9,97l-0.8-0.9c-0.2-0.2-0.4-0.4-0.5-0.6l-1-1.1c-0.3-0.4-0.6-0.8-0.9-1.2
								l-0.9-1.2c-0.3-0.4-0.6-0.8-0.8-1.2c0-0.1,0-0.2,0-0.3c0.2-2.2,1.3-1.6,1.9-2.9c0.3-0.6-0.1-1.1-0.1-1.1
								C19.6,87,19,86.9,18.5,87C17.9,87,17.3,87,17.2,87.8z"/>
							<path class="st2" d="M28,96.6c-5.5-4.7-9.7-11-11.4-18c-0.8-0.4-1.6-0.9-2.4-1.4c-0.7-0.5-1.5-1-2.2-1.6
								c-0.7-0.6-1.5-1.2-2.2-1.8c-0.7-0.6-1.4-1.3-2.1-2l0.1,1.7l0,0.8l0.1,0.8l0.5,3.3c0.5,2.2,1,4.3,1.9,6.4l0.6,1.6
								c0.2,0.5,0.5,1,0.7,1.5l0.7,1.5c0.2,0.5,0.5,1,0.8,1.5l1.7,2.8l2,2.7c0.9,0.2,2,0.3,2.9,0.4c1,0.1,1.9,0.1,2.8,0.2
								C24.5,97,26.3,96.8,28,96.6z"/>
							<path class="st2" d="M35,110.2c-5.3-2-10.2-5-14.3-8.9l7.9-8.4c3,2.8,6.6,5.1,10.5,6.5L35,110.2z"/>
						</g>
						<g>
							<g>
								<path class="st4" d="M22.9,99.5c0.5,0.1,0.8,0.5,0.8,1c0,0.4-0.5,0.5-0.7,0.5c-0.2,0-0.4-0.2-0.4-0.4c0-0.2,0.2-0.3,0.3-0.2
									c0.2,0,0.3,0.2,0.3,0.1c0-0.1-0.1-0.2-0.3-0.2c-0.3,0-0.4,0.1-0.4,0.3c0,0.2,0.1,0.4,0.5,0.5c0.7,0.1,0.7-0.7,2.5-0.6
									c-0.3-0.2-0.6-0.5-0.9-0.8l0.1-0.3l0.3-0.3l0.3-0.1c0.6,0.6,1.2,1,1.8,1.5c0.6,0.5,1.2,1,1.9,1.4c-0.4-0.9-0.5-1.8-0.6-2.4
									c-0.1-1.2-0.3-2-0.6-2.6c-0.2-0.6-0.4-0.8-0.4-0.8c0.8,0.2,1.2,0.8,1.4,1.5c0.2,0.7,0.2,1.3,0.2,1.3s0.1-0.5,0.5-1.1
									c0.4-0.6,1.1-1.2,2.1-1.5c0.8-0.2,1.6,0.1,2.1,0.5c0.5,0.4,0.9,0.9,0.9,0.9s-0.7-0.5-2.1,0c-1.4,0.4-0.2,2.1-1.9,2.7
									c-0.6,0.2-1-0.1-1.1-0.4c-0.1-0.6,0.3-0.6,0.3-0.6c-0.6-0.4-0.5,0.8-0.5,0.8c0.1,1.2,0.7,2.2,1.6,3c0.9,0.6,1.9,1,2.8,1.5
									l1.4,0.7c0.5,0.2,1,0.4,1.5,0.6l0,0.3l-0.1,0.4l-0.2,0.2c-1.6-0.5-3-1.3-4.5-2c-0.3-0.1-0.5-0.2-0.7-0.4l-2.6-1.6
									c-0.9-0.6-1.6-1.2-2.5-1.8c-0.1,0-0.2,0-0.3,0c-1.2,0-1.6,0.2-2,0.5c-0.4,0.3-0.6,0.7-1.3,0.8c-0.8,0.1-1.2-0.5-1.2-0.5
									C22.1,101.8,21.3,99.3,22.9,99.5z"/>
							</g>
						</g>
					</g>
					<g>
						<g>
							<path class="st4" d="M13.1,65.1c-0.4,0.4-0.3,0.9,0,1.2c0.3,0.2,0.7,0,0.9-0.1c0.2-0.2,0.2-0.4,0.1-0.5
								c-0.1-0.1-0.3-0.1-0.4,0c-0.1,0.1,0,0.3-0.1,0.2c-0.1-0.1,0-0.2,0-0.3c0.2-0.2,0.4-0.2,0.5,0c0.1,0.1,0.1,0.3-0.1,0.6
								c-0.5,0.5-1-0.1-2.2,1.2l0.1-1.1l-0.3-0.1l-0.4,0L11,66.2l-0.1,2.4c0,0.8-0.1,1.6,0,2.4c-0.6-0.9-1.2-1.5-1.6-2
								c-0.9-0.9-1.3-1.8-1.6-2.5c-0.1-0.3-0.2-0.6-0.2-0.8c0-0.2,0-0.3,0-0.3c-0.5,0.9-0.3,1.8,0.1,2.5c0.4,0.7,0.9,1.1,0.9,1.1
								s-0.5-0.3-1.2-0.4c-0.7-0.1-1.6,0.1-2.5,1.1c-0.7,0.8-0.7,2-0.6,2.9c0.1,1,0.4,1.7,0.4,1.7s-0.1-1.2,0.9-2.6
								c1-1.3,2,1.1,3.3-0.4c0.5-0.5,0.4-1,0.2-1.3c-0.5-0.5-0.7-0.1-0.7-0.1c0-0.4,0.3-0.4,0.5-0.3c0.2,0.1,0.4,0.3,0.4,0.3
								c1,0.9,1.6,1.9,1.9,3.1c0,0.5,0.1,1.1,0.2,1.6l0.2,1.6c0.1,0.5,0.1,1.1,0.3,1.6l0.4,1.6l0.3,0l0.4-0.1l0.2-0.2
								c-0.2-0.8-0.5-1.5-0.5-2.3l-0.4-2.4c0-0.3-0.1-0.5-0.1-0.8c-0.1-2-0.3-4-0.1-6c0.1-0.1,0.1-0.2,0.2-0.2
								c1.4-1.7,2-0.6,3.2-1.3c0.6-0.3,0.6-0.9,0.6-0.9C15.1,66.2,14.1,64.1,13.1,65.1z"/>
							<path class="st2" d="M16.6,78.6c-0.5-1.7-0.7-3.5-1-5.3l-0.1-2.7c0-0.5,0-0.9,0-1.4l0.1-1.4c0.2-3.6,0.9-7.2,2.3-10.5
								c-0.2-0.4-0.4-0.8-0.6-1.2l-0.5-1.2c-0.3-0.8-0.6-1.7-0.9-2.6c-0.3-0.9-0.5-1.8-0.7-2.8c-0.2-0.9-0.4-1.9-0.5-2.9
								C9.8,54,7.2,63,7.7,71.8c0.7,0.7,1.4,1.4,2.1,2c0.7,0.6,1.5,1.2,2.2,1.8c0.8,0.6,1.5,1.1,2.2,1.6
								C15,77.8,15.8,78.2,16.6,78.6z"/>
							<path class="st2" d="M14.2,93.7c-3.1-4.7-5.3-10-6.4-15.6l11.3-2.2c0.8,4.1,2.4,7.9,4.6,11.4L14.2,93.7z"/>
						</g>
						<g>
							<g>
								<path class="st4" d="M10.7,77.9c0.4,0.4,0.4,0.9,0.1,1.2c-0.2,0.3-0.7,0.1-0.9,0c-0.2-0.2-0.2-0.4-0.2-0.5
									c0.1-0.1,0.3-0.1,0.4,0c0.1,0.1,0.1,0.3,0.1,0.3c0.1-0.1,0-0.2-0.1-0.3c-0.2-0.2-0.4-0.2-0.5,0c-0.1,0.2-0.1,0.4,0.2,0.6
									c0.6,0.5,1-0.2,2.4,0.9L11.9,79l0.2-0.2l0.4-0.1l0.3,0l0.6,2.3c0.2,0.8,0.5,1.5,0.8,2.2c0.2-1,0.6-1.8,0.9-2.2
									c0.6-1,1-1.9,1.1-2.4c0.1-0.6,0.1-0.9,0.1-0.9c0.6,0.6,0.5,1.4,0.3,2C16.3,80.5,16,81,16,81s0.4-0.4,1-0.6
									c0.6-0.2,1.6-0.4,2.6,0c0.8,0.3,1.2,1,1.4,1.6c0.1,0.3,0.2,0.6,0.2,0.8c0,0.2,0,0.4,0,0.4s-0.1-0.2-0.3-0.4
									c-0.3-0.2-0.7-0.5-1.3-0.8c-1.3-0.6-1.5,1.6-3.1,1c-0.6-0.2-0.8-0.7-0.6-1c0.3-0.5,0.6-0.3,0.6-0.3
									c-0.3-0.7-0.9,0.3-0.9,0.3c-0.6,1-0.9,2.2-0.5,3.4l1.4,2.9l1.7,2.7l-0.2,0.2l-0.3,0.2l-0.3,0.1c-0.8-1.4-1.8-2.8-2.4-4.3
									c-0.1-0.2-0.3-0.5-0.4-0.7c-0.2-0.5-0.5-0.9-0.7-1.4l-0.5-1.4c-0.3-1-0.8-1.9-1-2.9c-0.1-0.1-0.1-0.1-0.2-0.2
									c-1.8-1.5-2.1-0.2-3.4-0.9C8,79.3,8,78.6,8,78.6c0.4,0.4,0.7-0.1,1.2-0.5C9.6,77.7,10.1,77.4,10.7,77.9z"/>
							</g>
						</g>
					</g>
				</g>
			</g>
			<g>
				<g>
					<g>
						<g>
							<path class="st4" d="M13.1,65.1c-0.4,0.4-0.3,0.9,0,1.2c0.3,0.2,0.7,0,0.9-0.1c0.2-0.2,0.2-0.4,0.1-0.5
								c-0.1-0.1-0.3-0.1-0.4,0c-0.1,0.1,0,0.3-0.1,0.2c-0.1-0.1,0-0.2,0-0.3c0.2-0.2,0.4-0.2,0.5,0c0.1,0.1,0.1,0.3-0.1,0.6
								c-0.5,0.5-1-0.1-2.2,1.2l0.1-1.1l-0.3-0.1l-0.4,0L11,66.2l-0.1,2.4c0,0.8-0.1,1.6,0,2.4c-0.6-0.9-1.2-1.5-1.6-2
								c-0.9-0.9-1.3-1.8-1.6-2.5c-0.1-0.3-0.2-0.6-0.2-0.8c0-0.2,0-0.3,0-0.3c-0.5,0.9-0.3,1.8,0.1,2.5c0.4,0.7,0.9,1.1,0.9,1.1
								s-0.5-0.3-1.2-0.4c-0.7-0.1-1.6,0.1-2.5,1.1c-0.7,0.8-0.7,2-0.6,2.9c0.1,1,0.4,1.7,0.4,1.7s-0.1-1.2,0.9-2.6
								c1-1.3,2,1.1,3.3-0.4c0.5-0.5,0.4-1,0.2-1.3c-0.5-0.5-0.7-0.1-0.7-0.1c0-0.4,0.3-0.4,0.5-0.3c0.2,0.1,0.4,0.3,0.4,0.3
								c1,0.9,1.6,1.9,1.9,3.1c0,0.5,0.1,1.1,0.2,1.6l0.2,1.6c0.1,0.5,0.1,1.1,0.3,1.6l0.4,1.6l0.3,0l0.4-0.1l0.2-0.2
								c-0.2-0.8-0.5-1.5-0.5-2.3l-0.4-2.4c0-0.3-0.1-0.5-0.1-0.8c-0.1-2-0.3-4-0.1-6c0.1-0.1,0.1-0.2,0.2-0.2
								c1.4-1.7,2-0.6,3.2-1.3c0.6-0.3,0.6-0.9,0.6-0.9C15.1,66.2,14.1,64.1,13.1,65.1z"/>
							<path class="st2" d="M16.6,78.6c-0.5-1.7-0.7-3.5-1-5.3l-0.1-2.7c0-0.5,0-0.9,0-1.4l0.1-1.4c0.2-3.6,0.9-7.2,2.3-10.5
								c-0.2-0.4-0.4-0.8-0.6-1.2l-0.5-1.2c-0.3-0.8-0.6-1.7-0.9-2.6c-0.3-0.9-0.5-1.8-0.7-2.8c-0.2-0.9-0.4-1.9-0.5-2.9
								C9.8,54,7.2,63,7.7,71.8c0.7,0.7,1.4,1.4,2.1,2c0.7,0.6,1.5,1.2,2.2,1.8c0.8,0.6,1.5,1.1,2.2,1.6
								C15,77.8,15.8,78.2,16.6,78.6z"/>
							<path class="st2" d="M14.2,93.7c-3.1-4.7-5.3-10-6.4-15.6l11.3-2.2c0.8,4.1,2.4,7.9,4.6,11.4L14.2,93.7z"/>
						</g>
						<g>
							<g>
								<path class="st4" d="M10.7,77.9c0.4,0.4,0.4,0.9,0.1,1.2c-0.2,0.3-0.7,0.1-0.9,0c-0.2-0.2-0.2-0.4-0.2-0.5
									c0.1-0.1,0.3-0.1,0.4,0c0.1,0.1,0.1,0.3,0.1,0.3c0.1-0.1,0-0.2-0.1-0.3c-0.2-0.2-0.4-0.2-0.5,0c-0.1,0.2-0.1,0.4,0.2,0.6
									c0.6,0.5,1-0.2,2.4,0.9L11.9,79l0.2-0.2l0.4-0.1l0.3,0l0.6,2.3c0.2,0.8,0.5,1.5,0.8,2.2c0.2-1,0.6-1.8,0.9-2.2
									c0.6-1,1-1.9,1.1-2.4c0.1-0.6,0.1-0.9,0.1-0.9c0.6,0.6,0.5,1.4,0.3,2C16.3,80.5,16,81,16,81s0.4-0.4,1-0.6
									c0.6-0.2,1.6-0.4,2.6,0c0.8,0.3,1.2,1,1.4,1.6c0.1,0.3,0.2,0.6,0.2,0.8c0,0.2,0,0.4,0,0.4s-0.1-0.2-0.3-0.4
									c-0.3-0.2-0.7-0.5-1.3-0.8c-1.3-0.6-1.5,1.6-3.1,1c-0.6-0.2-0.8-0.7-0.6-1c0.3-0.5,0.6-0.3,0.6-0.3
									c-0.3-0.7-0.9,0.3-0.9,0.3c-0.6,1-0.9,2.2-0.5,3.4l1.4,2.9l1.7,2.7l-0.2,0.2l-0.3,0.2l-0.3,0.1c-0.8-1.4-1.8-2.8-2.4-4.3
									c-0.1-0.2-0.3-0.5-0.4-0.7c-0.2-0.5-0.5-0.9-0.7-1.4l-0.5-1.4c-0.3-1-0.8-1.9-1-2.9c-0.1-0.1-0.1-0.1-0.2-0.2
									c-1.8-1.5-2.1-0.2-3.4-0.9C8,79.3,8,78.6,8,78.6c0.4,0.4,0.7-0.1,1.2-0.5C9.6,77.7,10.1,77.4,10.7,77.9z"/>
							</g>
						</g>
					</g>
					<g>
						<g>
							<path class="st4" d="M23,44.3c-0.5,0.1-0.7,0.6-0.7,1c0.1,0.3,0.5,0.4,0.8,0.4c0.2,0,0.4-0.2,0.4-0.3c0-0.1-0.2-0.2-0.4-0.2
								c-0.2,0-0.2,0.2-0.2,0.1c0-0.1,0.1-0.2,0.2-0.2c0.2,0,0.4,0.1,0.4,0.3c0,0.2-0.1,0.4-0.4,0.4c-0.7,0.1-0.8-0.7-2.5-0.3
								l0.8-0.8l-0.1-0.3L21,44.1L20.7,44c-1.1,1.1-2,2.5-3,3.8c0.1-1,0-1.9-0.1-2.5c-0.2-1.3-0.1-2.3,0.2-2.9c0.2-0.7,0.5-1,0.5-1
								c-1,0.4-1.4,1.2-1.5,2.1c-0.1,0.8,0.1,1.5,0.1,1.5s-0.2-0.5-0.7-1c-0.5-0.5-1.3-0.9-2.6-0.6c-1,0.2-1.8,1.1-2.3,2
								c-0.5,0.9-0.7,1.6-0.7,1.6s0.6-1.1,2.2-1.6c1.6-0.5,1,2,2.9,1.7c0.7-0.1,1-0.6,0.9-0.9c-0.1-0.6-0.5-0.5-0.5-0.5
								c0.6-0.7,0.8,0.5,0.8,0.5c0.1,0.6,0.1,1.2,0.1,1.8c0,0.6-0.2,1.2-0.4,1.8l-0.8,1.4c-0.3,0.5-0.5,1-0.7,1.5L14.2,54l-0.4,0.7
								l-0.3,0.8l0.2,0.2l0.4,0.1l0.3,0c0.2-0.8,0.6-1.5,1-2.2c0.4-0.7,0.7-1.5,1.1-2.1c0.2-0.2,0.3-0.5,0.4-0.7
								c0.5-0.8,1-1.7,1.6-2.5l1.8-2.4c0.1,0,0.2-0.1,0.3-0.1c2.2-0.5,2,0.7,3.4,0.9c0.7,0.1,1-0.4,1-0.4C24,46.4,24.4,44.1,23,44.3
								z"/>
							<path class="st2" d="M17.9,57.4c1.3-3.3,3.2-6.5,5.5-9.3c2.3-2.8,5.1-5.2,8.1-7.1c0.3-1.7,0.7-3.6,1.4-5.3
								c0.3-0.9,0.7-1.8,1-2.7c0.4-0.9,0.8-1.7,1.3-2.6l-1.6,0.6c-0.5,0.2-1,0.5-1.5,0.7l-1.5,0.7c-0.5,0.2-1,0.5-1.5,0.8l-2.8,1.7
								l-2.7,2c-3.5,2.8-6.5,6.1-9,9.8c0.2,1,0.3,2,0.5,2.9c0.2,0.9,0.4,1.8,0.7,2.8c0.3,0.9,0.6,1.8,0.9,2.6l0.5,1.2
								C17.5,56.5,17.7,57,17.9,57.4z"/>
							<path class="st2" d="M7.2,68.1c0.2-5.6,1.6-11.2,4-16.3l10.4,4.9c-1.8,3.7-2.8,7.8-2.9,11.9L7.2,68.1z"/>
						</g>
						<g>
							<g>
								<path class="st4" d="M13.5,53.3c0.1,0.5-0.3,0.9-0.7,1.1c-0.3,0.1-0.6-0.3-0.7-0.5c-0.1-0.2,0.1-0.5,0.2-0.5
									c0.1,0,0.3,0.1,0.3,0.3c0,0.2-0.2,0.3-0.1,0.3c0.1,0,0.2-0.2,0.1-0.3c0-0.3-0.2-0.4-0.4-0.3c-0.2,0.1-0.3,0.3-0.3,0.6
									c0.2,0.7,0.9,0.5,1.4,2.2l0.4-1.1l0.3,0l0.4,0.2l0.2,0.2l-0.8,2.2l-0.4,1.1l-0.3,1.1c0.4-0.3,0.7-0.6,1.1-0.8
									c0.4-0.2,0.7-0.4,1-0.5c1.1-0.4,1.9-0.9,2.3-1.3c0.2-0.2,0.4-0.4,0.5-0.5c0.1-0.1,0.1-0.2,0.1-0.2c0.2,0.9-0.3,1.5-0.9,1.8
									c-0.6,0.4-1.2,0.6-1.2,0.6s0.5-0.1,1.2,0.1c0.7,0.2,1.5,0.6,2.1,1.6c0.5,0.7,0.4,1.5,0.2,2.2c-0.1,0.3-0.3,0.6-0.4,0.8
									C19,63.7,19,63.8,19,63.8s0-0.2,0-0.5c0-0.3-0.2-0.8-0.6-1.4c-0.8-1.2-2.1,0.4-3.2-1c-0.4-0.5-0.2-1,0-1.1
									c0.5-0.3,0.7,0.1,0.7,0.1c0.1-0.7-0.9-0.3-0.9-0.3c-1.1,0.5-1.9,1.3-2.4,2.4c-0.4,2.1-0.8,4.2-0.8,6.3l-0.3,0.1l-0.4,0
									l-0.3-0.1c0.1-0.8,0.1-1.6,0.2-2.4l0.4-2.4c0-0.3,0.1-0.6,0.1-0.8c0.2-1,0.5-2,0.7-3c0.2-1,0.6-2,0.9-2.9
									c0-0.1,0-0.2-0.1-0.3c-0.6-2.2-1.6-1.4-2.3-2.7c-0.3-0.7,0.1-1.3,0.1-1.3C11.1,53.3,13.3,51.8,13.5,53.3z"/>
							</g>
						</g>
					</g>
				</g>
			</g>
			<g>
				<g>
					<g>
						<g>
							<path class="st4" d="M23,44.3c-0.5,0.1-0.7,0.6-0.7,1c0.1,0.3,0.5,0.4,0.8,0.4c0.2,0,0.4-0.2,0.4-0.3c0-0.1-0.2-0.2-0.4-0.2
								c-0.2,0-0.2,0.2-0.2,0.1c0-0.1,0.1-0.2,0.2-0.2c0.2,0,0.4,0.1,0.4,0.3c0,0.2-0.1,0.4-0.4,0.4c-0.7,0.1-0.8-0.7-2.5-0.3
								l0.8-0.8l-0.1-0.3L21,44.1L20.7,44c-1.1,1.1-2,2.5-3,3.8c0.1-1,0-1.9-0.1-2.5c-0.2-1.3-0.1-2.3,0.2-2.9c0.2-0.7,0.5-1,0.5-1
								c-1,0.4-1.4,1.2-1.5,2.1c-0.1,0.8,0.1,1.5,0.1,1.5s-0.2-0.5-0.7-1c-0.5-0.5-1.3-0.9-2.6-0.6c-1,0.2-1.8,1.1-2.3,2
								c-0.5,0.9-0.7,1.6-0.7,1.6s0.6-1.1,2.2-1.6c1.6-0.5,1,2,2.9,1.7c0.7-0.1,1-0.6,0.9-0.9c-0.1-0.6-0.5-0.5-0.5-0.5
								c0.6-0.7,0.8,0.5,0.8,0.5c0.1,0.6,0.1,1.2,0.1,1.8c0,0.6-0.2,1.2-0.4,1.8l-0.8,1.4c-0.3,0.5-0.5,1-0.7,1.5L14.2,54l-0.4,0.7
								l-0.3,0.8l0.2,0.2l0.4,0.1l0.3,0c0.2-0.8,0.6-1.5,1-2.2c0.4-0.7,0.7-1.5,1.1-2.2c0.2-0.2,0.3-0.5,0.4-0.7
								c0.5-0.8,1-1.7,1.6-2.5l1.8-2.4c0.1,0,0.2-0.1,0.3-0.1c2.2-0.5,2,0.7,3.4,0.9c0.7,0.1,1-0.4,1-0.4C24,46.4,24.4,44.1,23,44.3
								z"/>
							<path class="st2" d="M17.9,57.4c1.3-3.3,3.2-6.5,5.5-9.3c2.3-2.8,5.1-5.2,8.1-7.1c0.3-1.7,0.7-3.6,1.4-5.3
								c0.3-0.9,0.7-1.8,1-2.7c0.4-0.9,0.8-1.7,1.3-2.6l-1.6,0.6c-0.5,0.2-1,0.5-1.5,0.7l-1.5,0.7c-0.5,0.2-1,0.5-1.5,0.8l-2.8,1.7
								l-2.7,2c-3.5,2.8-6.5,6.1-9,9.8c0.2,1,0.3,2,0.5,2.9c0.2,0.9,0.4,1.8,0.7,2.8c0.3,0.9,0.6,1.8,0.9,2.6l0.5,1.2
								C17.5,56.5,17.7,57,17.9,57.4z"/>
							<path class="st2" d="M7.2,68.1c0.2-5.6,1.6-11.2,4-16.3l10.4,4.9c-1.8,3.7-2.8,7.8-2.9,11.9L7.2,68.1z"/>
						</g>
						<g>
							<g>
								<path class="st4" d="M13.5,53.3c0.1,0.5-0.3,0.9-0.7,1.1c-0.3,0.1-0.6-0.3-0.7-0.5c-0.1-0.2,0.1-0.5,0.2-0.5
									c0.1,0,0.3,0.1,0.3,0.3c0,0.2-0.2,0.3-0.1,0.3c0.1,0,0.2-0.2,0.1-0.3c0-0.3-0.2-0.4-0.4-0.3c-0.2,0.1-0.3,0.3-0.3,0.6
									c0.2,0.7,0.9,0.5,1.4,2.2l0.4-1.1l0.3,0l0.4,0.2l0.2,0.2l-0.8,2.2l-0.4,1.1l-0.3,1.1c0.4-0.3,0.7-0.6,1.1-0.8
									c0.4-0.2,0.7-0.4,1-0.5c1.1-0.4,1.9-0.9,2.3-1.3c0.2-0.2,0.4-0.4,0.5-0.5c0.1-0.1,0.1-0.2,0.1-0.2c0.2,0.9-0.3,1.5-0.9,1.8
									c-0.6,0.4-1.2,0.6-1.2,0.6s0.5-0.1,1.2,0.1c0.7,0.2,1.5,0.6,2.1,1.6c0.5,0.7,0.4,1.5,0.2,2.2c-0.1,0.3-0.3,0.6-0.4,0.8
									C19,63.7,19,63.8,19,63.8s0-0.2,0-0.5c0-0.3-0.2-0.8-0.6-1.4c-0.8-1.2-2.1,0.4-3.2-1c-0.4-0.5-0.2-1,0-1.1
									c0.5-0.3,0.7,0.1,0.7,0.1c0.1-0.7-0.9-0.3-0.9-0.3c-1.1,0.5-1.9,1.3-2.4,2.4c-0.4,2.1-0.8,4.2-0.8,6.3l-0.3,0.1l-0.4,0
									l-0.3-0.1c0.1-0.8,0.1-1.6,0.2-2.4l0.4-2.4c0-0.3,0.1-0.6,0.1-0.8c0.2-1,0.5-2,0.7-3c0.2-1,0.6-2,0.9-2.9
									c0-0.1,0-0.2-0.1-0.3c-0.6-2.2-1.6-1.4-2.3-2.7c-0.3-0.7,0.1-1.3,0.1-1.3C11.1,53.3,13.3,51.8,13.5,53.3z"/>
							</g>
						</g>
					</g>
					<g>
						<g>
							<path class="st4" d="M43.2,33.3c-0.5-0.2-0.9,0-1.1,0.4c-0.1,0.3,0.2,0.7,0.4,0.8c0.2,0.1,0.4,0.1,0.5-0.1
								c0.1-0.1,0-0.3-0.2-0.4c-0.1-0.1-0.3,0.1-0.3,0c0-0.1,0.2-0.1,0.3,0c0.2,0.1,0.3,0.3,0.2,0.5c-0.1,0.2-0.3,0.2-0.6,0.1
								c-0.6-0.3-0.2-1-1.8-1.7l1.1-0.3l0-0.3l-0.1-0.4l-0.2-0.2C40,32.1,38.5,32.4,37,33c0.7-0.8,1.1-1.6,1.4-2.1
								c0.6-1.1,1.3-1.8,1.9-2.2c0.6-0.4,0.9-0.6,0.9-0.6c-1-0.2-1.8,0.3-2.4,0.9c-0.6,0.6-0.8,1.2-0.8,1.2s0.1-0.5,0-1.2
								c-0.1-0.7-0.6-1.5-1.8-2c-1-0.4-2.1-0.1-3,0.3c-0.4,0.2-0.8,0.4-1.1,0.6c-0.3,0.2-0.4,0.3-0.4,0.3s0.3-0.2,0.7-0.2
								c0.5,0,1.2,0,2,0.3c1.6,0.6-0.4,2.2,1.4,3c0.6,0.3,1.1,0.1,1.3-0.2c0.3-0.6-0.1-0.7-0.1-0.7c0.8-0.2,0.3,0.9,0.3,0.9
								c-0.5,1.2-1.3,2.1-2.4,2.7l-2.9,1.4c-1,0.5-1.9,1.1-2.8,1.6l0.1,0.3l0.2,0.3l0.2,0.2l2.1-1.2c0.7-0.4,1.4-0.7,2.2-1.1
								c0.3-0.1,0.5-0.2,0.7-0.3c0.4-0.2,0.9-0.4,1.4-0.6l1.4-0.5l1.4-0.5l1.4-0.4c0.1,0,0.2,0.1,0.3,0.1c2,0.8,1.2,1.7,2.2,2.6
								c0.3,0.2,0.5,0.3,0.7,0.3c0.2,0,0.3,0,0.3,0C42.8,35.6,44.5,34,43.2,33.3z"/>
							<path class="st2" d="M31.5,40.9c3-2,6.4-3.4,9.9-4.3c1.7-0.5,3.5-0.7,5.3-1l2.7-0.1c0.5,0,0.9,0,1.4,0l1.4,0.1
								c0.6-0.6,1.3-1.3,2-1.8c0.7-0.6,1.4-1.1,2.2-1.7c1.6-1.2,3.2-2,5-2.9c-4.3-1.3-8.7-1.7-13.2-1.5l-1.7,0.1l-0.8,0l-0.8,0.1
								l-3.3,0.5c-2.2,0.5-4.3,1-6.4,1.9c-0.5,0.9-0.9,1.7-1.3,2.6c-0.4,0.9-0.7,1.8-1,2.7C32.2,37.3,31.8,39.2,31.5,40.9z"/>
							<path class="st2" d="M16.4,43.3c3.5-4.4,7.9-8.1,12.8-10.9l5.6,10.1c-3.6,2-6.8,4.7-9.4,8L16.4,43.3z"/>
						</g>
						<g>
							<g>
								<path class="st4" d="M30.3,35.1c-0.2,0.5-0.7,0.6-1.2,0.5c-0.3-0.1-0.3-0.6-0.3-0.9c0.1-0.2,0.3-0.4,0.5-0.3
									c0.1,0,0.2,0.2,0.1,0.4C29.4,35,29.2,35,29.3,35c0.1,0,0.2-0.1,0.3-0.2c0.1-0.2,0-0.4-0.2-0.5c-0.2-0.1-0.4,0-0.6,0.3
									c-0.3,0.7,0.5,0.9-0.2,2.5l1-0.6l0.2,0.2l0.2,0.3l0.1,0.3c-1.4,0.8-2.6,1.7-3.9,2.7c1-0.1,1.9,0,2.4,0.2
									c0.6,0.1,1.1,0.2,1.5,0.2c0.4,0.1,0.8,0.1,1.1,0c0.6,0,0.9-0.2,0.9-0.2c-0.4,0.8-1.2,0.9-1.9,0.9c-0.7,0-1.3-0.2-1.3-0.2
									s0.5,0.2,0.9,0.8c0.4,0.5,0.8,1.4,0.8,2.5c0,0.9-0.6,1.4-1.1,1.8c-0.5,0.4-1.1,0.6-1.1,0.6s0.6-0.5,0.6-2
									c0.1-0.7-0.4-0.9-0.9-1.2c-0.5-0.3-1-0.5-1-1.4c0-0.6,0.4-0.9,0.7-0.8c0.6,0.1,0.5,0.5,0.5,0.5c0.5-0.5-0.6-0.8-0.6-0.8
									c-0.6-0.1-1.2-0.2-1.8-0.1c-0.6,0.1-1.1,0.3-1.6,0.7c-1.6,1.4-3,3-4.4,4.6l-0.3-0.1l-0.3-0.2l-0.2-0.3
									c0.5-0.7,1.1-1.2,1.6-1.9c0.6-0.6,1.1-1.2,1.7-1.8c0.2-0.2,0.4-0.4,0.6-0.6l1.1-1c0.4-0.4,0.8-0.7,1.2-1l2.5-1.8
									c0-0.1,0.1-0.2,0.1-0.3c0.9-2.1-0.4-2.1-0.2-3.5c0.1-0.8,0.8-1.1,0.8-1.1C28.4,33.7,31,33.6,30.3,35.1z"/>
							</g>
						</g>
					</g>
				</g>
			</g>
			<g>
				<g>
					<g>
						<g>
							<path class="st4" d="M43.2,33.3c-0.5-0.2-0.9,0-1.1,0.4c-0.1,0.3,0.2,0.7,0.4,0.8c0.2,0.1,0.4,0.1,0.5-0.1
								c0.1-0.1,0-0.3-0.2-0.4c-0.1-0.1-0.3,0.1-0.3,0c0-0.1,0.2-0.1,0.3,0c0.2,0.1,0.3,0.3,0.2,0.5c-0.1,0.2-0.3,0.2-0.6,0.1
								c-0.6-0.3-0.2-1-1.8-1.7l1.1-0.3l0-0.3l-0.1-0.4l-0.2-0.2C40,32.1,38.5,32.4,37,33c0.7-0.8,1.1-1.6,1.4-2.1
								c0.6-1.1,1.3-1.8,1.9-2.2c0.6-0.4,0.9-0.6,0.9-0.6c-1-0.2-1.8,0.3-2.4,0.9c-0.6,0.6-0.8,1.2-0.8,1.2s0.1-0.5,0-1.2
								c-0.1-0.7-0.6-1.5-1.8-2c-1-0.4-2.1-0.1-3,0.3c-0.4,0.2-0.8,0.4-1.1,0.6c-0.3,0.2-0.4,0.3-0.4,0.3s0.3-0.2,0.7-0.2
								c0.5,0,1.2,0,2,0.3c1.6,0.6-0.4,2.2,1.4,3c0.6,0.3,1.1,0.1,1.3-0.2c0.3-0.6-0.1-0.7-0.1-0.7c0.8-0.2,0.3,0.9,0.3,0.9
								c-0.5,1.2-1.3,2.1-2.4,2.7l-2.9,1.4c-1,0.5-1.9,1.1-2.8,1.6l0.1,0.3l0.2,0.3l0.2,0.2l2.1-1.2c0.7-0.4,1.4-0.7,2.2-1.1
								c0.3-0.1,0.5-0.2,0.7-0.3c0.4-0.2,0.9-0.4,1.4-0.6l1.4-0.5l1.4-0.5l1.4-0.4c0.1,0,0.2,0.1,0.3,0.1c2,0.8,1.2,1.7,2.2,2.6
								c0.3,0.2,0.5,0.3,0.7,0.3c0.2,0,0.3,0,0.3,0C42.8,35.6,44.5,34,43.2,33.3z"/>
							<path class="st2" d="M31.5,40.9c3-2,6.4-3.4,9.9-4.3c1.7-0.5,3.5-0.7,5.3-1l2.7-0.1c0.5,0,0.9,0,1.4,0l1.4,0.1
								c0.6-0.6,1.3-1.3,2-1.8c0.7-0.6,1.4-1.1,2.2-1.7c1.6-1.2,3.2-2,5-2.9c-4.3-1.3-8.7-1.7-13.2-1.5l-1.7,0.1l-0.8,0l-0.8,0.1
								l-3.3,0.5c-2.2,0.5-4.3,1-6.4,1.9c-0.5,0.9-0.9,1.7-1.3,2.6c-0.4,0.9-0.7,1.8-1,2.7C32.2,37.3,31.8,39.2,31.5,40.9z"/>
							<path class="st2" d="M16.4,43.3c3.5-4.4,7.9-8.1,12.8-10.9l5.6,10.1c-3.6,2-6.8,4.7-9.4,8L16.4,43.3z"/>
						</g>
						<g>
							<g>
								<path class="st4" d="M30.3,35.1c-0.2,0.5-0.7,0.6-1.2,0.5c-0.3-0.1-0.3-0.6-0.3-0.9c0.1-0.2,0.3-0.4,0.5-0.3
									c0.1,0,0.2,0.2,0.1,0.4C29.4,35,29.2,35,29.3,35c0.1,0,0.2-0.1,0.3-0.2c0.1-0.2,0-0.4-0.2-0.5c-0.2-0.1-0.4,0-0.6,0.3
									c-0.3,0.7,0.5,0.9-0.2,2.5l1-0.6l0.2,0.2l0.2,0.3l0.1,0.3c-1.4,0.8-2.6,1.7-3.9,2.7c1-0.1,1.9,0,2.4,0.2
									c0.6,0.1,1.1,0.2,1.5,0.2c0.4,0.1,0.8,0.1,1.1,0c0.6,0,0.9-0.2,0.9-0.2c-0.4,0.8-1.2,0.9-1.9,0.9c-0.7,0-1.3-0.2-1.3-0.2
									s0.5,0.2,0.9,0.8c0.4,0.5,0.8,1.4,0.8,2.5c0,0.9-0.6,1.4-1.1,1.8c-0.5,0.4-1.1,0.6-1.1,0.6s0.6-0.5,0.6-2
									c0.1-0.7-0.4-0.9-0.9-1.2c-0.5-0.3-1-0.5-1-1.4c0-0.6,0.4-0.9,0.7-0.8c0.6,0.1,0.5,0.5,0.5,0.5c0.5-0.5-0.6-0.8-0.6-0.8
									c-0.6-0.1-1.2-0.2-1.8-0.1c-0.6,0.1-1.1,0.3-1.6,0.7c-1.6,1.4-3,3-4.4,4.6l-0.3-0.1l-0.3-0.2l-0.2-0.3
									c0.5-0.7,1.1-1.2,1.6-1.9c0.6-0.6,1.1-1.2,1.7-1.8c0.2-0.2,0.4-0.4,0.6-0.6l1.1-1c0.4-0.4,0.8-0.7,1.2-1l2.5-1.8
									c0-0.1,0.1-0.2,0.1-0.3c0.9-2.1-0.4-2.1-0.2-3.5c0.1-0.8,0.8-1.1,0.8-1.1C28.4,33.7,31,33.6,30.3,35.1z"/>
							</g>
						</g>
					</g>
					<g>
						<g>
							<path class="st4" d="M66.1,36.4c-0.2-0.5-0.8-0.5-1.1-0.3c-0.3,0.2-0.3,0.6-0.2,0.9c0.1,0.2,0.3,0.3,0.4,0.2
								c0.1-0.1,0.2-0.3,0.1-0.4c-0.1-0.1-0.3-0.1-0.2-0.2c0.1,0,0.2,0,0.3,0.1c0.1,0.2,0.1,0.4-0.1,0.5c-0.2,0.1-0.4,0-0.5-0.3
								c-0.2-0.3-0.1-0.5,0-0.9c0-0.4,0-0.8-0.4-1.6c0.4,0.1,0.7,0.3,1,0.4l0.2-0.2l0.2-0.4l0-0.3c-0.7-0.4-1.5-0.6-2.2-0.9
								c-0.8-0.3-1.5-0.6-2.3-0.8c1-0.3,1.8-0.6,2.3-0.9c1.1-0.6,2.1-0.7,2.8-0.8c0.7,0,1.1,0.1,1.1,0.1C66.8,30,65.8,30,65,30.2
								c-0.8,0.1-1.4,0.5-1.4,0.5s0.4-0.4,0.7-1c0.3-0.6,0.4-1.6-0.3-2.7c-0.5-1-1.7-1.3-2.6-1.5c-1-0.2-1.7-0.2-1.7-0.2
								s1.2,0.3,2.2,1.6c1,1.3-1.6,1.5-0.7,3.2c0.3,0.6,0.9,0.7,1.2,0.6c0.6-0.3,0.3-0.6,0.3-0.6c0.8,0.4-0.3,0.9-0.3,0.9
								c-1.1,0.6-2.3,0.9-3.5,0.8c-1-0.3-2.1-0.4-3.2-0.6L54.1,31c-0.5-0.1-1.1-0.1-1.6-0.1l-0.1,0.3l0,0.4l0.1,0.3
								c1.6,0,3.2,0.4,4.8,0.6c0.3,0.1,0.5,0.1,0.8,0.1l2.9,0.7c1,0.2,1.9,0.7,2.8,1c0.1,0.1,0.1,0.1,0.2,0.2
								c0.6,0.9,0.6,1.4,0.4,1.9c-0.1,0.5-0.3,0.8-0.2,1.5c0.1,0.7,0.7,0.9,0.7,0.9C64.4,38,66.7,37.7,66.1,36.4z"/>
							<path class="st2" d="M52.1,35.6c7.2,0.3,14.2,3.2,19.9,7.8c1.7-0.2,3.6-0.3,5.5-0.3c0.9,0,1.9,0.1,2.8,0.2
								c1,0.1,2,0.2,2.9,0.4c-2.8-3.5-6.1-6.5-9.8-9c-3.7-2.5-7.8-4.3-12.1-5.5c-1.8,0.9-3.4,1.8-5,2.9c-0.8,0.5-1.5,1.1-2.2,1.7
								C53.4,34.3,52.7,35,52.1,35.6z"/>
							<path class="st2" d="M38.5,28.7c5.5-1.5,11.2-1.9,16.8-1.2l-1.4,11.4c-4.1-0.5-8.3-0.2-12.3,0.9L38.5,28.7z"/>
						</g>
						<g>
							<g>
								<path class="st4" d="M54.6,30.2c-0.5,0.2-1,0.1-1.2-0.3c-0.2-0.3,0.1-0.7,0.3-0.9c0.2-0.1,0.5-0.1,0.6,0
									c0.1,0.1,0,0.3-0.1,0.4c-0.2,0.1-0.3,0-0.3,0.1c0,0.1,0.2,0.1,0.3,0c0.2-0.1,0.3-0.3,0.2-0.5c-0.1-0.2-0.4-0.2-0.7,0
									c-0.6,0.4-0.2,1-1.6,2l1.2,0.1l0.1,0.3l0,0.4l-0.1,0.3c-1.6-0.1-3.1-0.2-4.7-0.1c0.9,0.5,1.5,1.1,1.9,1.5
									c0.8,1,1.5,1.5,2,1.8c0.5,0.3,0.8,0.4,0.8,0.4c-0.8,0.4-1.5,0.1-2-0.3c-0.5-0.4-0.9-1-0.9-1s0.2,0.5,0.3,1.2
									c0,0.7-0.1,1.6-0.8,2.5c-1.1,1.4-3.2,0.6-3.2,0.7c0,0,0.2,0,0.5-0.2c0.3-0.1,0.7-0.4,1.2-1c0.9-1.1-1-1.9,0-3.3
									c0.4-0.5,0.9-0.5,1.1-0.3c0.4,0.4,0.1,0.7,0.1,0.7c0.7-0.1,0-0.9,0-0.9c-0.8-0.9-1.9-1.4-3.1-1.6L43,32.5
									c-0.5,0.1-1,0.2-1.6,0.3l-1.5,0.4l-0.2-0.2l-0.1-0.4l0-0.3l2.4-0.6l2.4-0.4c0.3-0.1,0.6-0.1,0.8-0.1L46,31l0.8,0l1.5-0.1
									l1.5-0.1c0.5,0,1,0,1.5,0.1c0.1,0,0.2-0.1,0.2-0.1c1.9-1.2,0.9-1.9,1.9-3c0.3-0.3,0.6-0.4,0.8-0.4c0.2,0,0.4,0,0.4,0
									C53.9,27.8,56,29.5,54.6,30.2z"/>
							</g>
						</g>
					</g>
				</g>
			</g>
			<g>
				<g>
					<g>
						<g>
							<path class="st4" d="M66.1,36.4c-0.2-0.5-0.8-0.5-1.1-0.3c-0.3,0.2-0.3,0.6-0.2,0.9c0.1,0.2,0.3,0.3,0.4,0.2
								c0.1-0.1,0.2-0.3,0.1-0.4c-0.1-0.1-0.3-0.1-0.2-0.2c0.1,0,0.2,0,0.3,0.1c0.1,0.2,0.1,0.4-0.1,0.5c-0.2,0.1-0.4,0-0.5-0.3
								c-0.2-0.3-0.1-0.5,0-0.9c0-0.4,0-0.8-0.4-1.6c0.4,0.1,0.7,0.3,1,0.4l0.2-0.2l0.2-0.4l0-0.3c-0.7-0.4-1.5-0.6-2.2-0.9
								c-0.8-0.3-1.5-0.6-2.3-0.8c1-0.3,1.8-0.6,2.3-0.9c1.1-0.6,2.1-0.7,2.8-0.8c0.7,0,1.1,0.1,1.1,0.1C66.8,30,65.8,30,65,30.2
								c-0.8,0.1-1.4,0.5-1.4,0.5s0.4-0.4,0.7-1c0.3-0.6,0.4-1.6-0.3-2.7c-0.5-1-1.7-1.3-2.6-1.5c-1-0.2-1.7-0.2-1.7-0.2
								s1.2,0.3,2.2,1.6c1,1.3-1.6,1.5-0.7,3.2c0.3,0.6,0.9,0.7,1.2,0.6c0.6-0.3,0.3-0.6,0.3-0.6c0.8,0.4-0.3,0.9-0.3,0.9
								c-1.1,0.6-2.3,0.9-3.5,0.8c-1-0.3-2.1-0.4-3.2-0.6L54.1,31c-0.5-0.1-1.1-0.1-1.6-0.1l-0.1,0.3l0,0.4l0.1,0.3
								c1.6,0,3.2,0.4,4.8,0.6c0.3,0.1,0.5,0.1,0.8,0.1l2.9,0.7c1,0.2,1.9,0.7,2.8,1c0.1,0.1,0.1,0.1,0.2,0.2
								c0.6,0.9,0.6,1.4,0.4,1.9c-0.1,0.5-0.3,0.8-0.2,1.5c0.1,0.7,0.7,0.9,0.7,0.9C64.4,38,66.7,37.7,66.1,36.4z"/>
							<path class="st2" d="M52.1,35.6c7.2,0.3,14.2,3.2,19.9,7.8c1.7-0.2,3.6-0.3,5.5-0.3c0.9,0,1.9,0.1,2.8,0.2
								c1,0.1,2,0.2,2.9,0.4c-2.8-3.5-6.1-6.5-9.8-9c-3.7-2.5-7.8-4.3-12.1-5.5c-1.8,0.9-3.4,1.8-5,2.9c-0.8,0.5-1.5,1.1-2.2,1.7
								C53.4,34.3,52.7,35,52.1,35.6z"/>
							<path class="st2" d="M38.5,28.7c5.5-1.5,11.2-1.9,16.8-1.2l-1.4,11.4c-4.1-0.5-8.3-0.2-12.3,0.9L38.5,28.7z"/>
						</g>
						<g>
							<g>
								<path class="st4" d="M54.6,30.2c-0.5,0.2-1,0.1-1.2-0.3c-0.2-0.3,0.1-0.7,0.3-0.9c0.2-0.1,0.5-0.1,0.6,0
									c0.1,0.1,0,0.3-0.1,0.4c-0.2,0.1-0.3,0-0.3,0.1c0,0.1,0.2,0.1,0.3,0c0.2-0.1,0.3-0.3,0.2-0.5c-0.1-0.2-0.4-0.2-0.7,0
									c-0.6,0.4-0.2,1-1.6,2l1.2,0.1l0.1,0.3l0,0.4l-0.1,0.3c-1.6-0.1-3.1-0.2-4.7-0.1c0.9,0.5,1.5,1.1,1.9,1.5
									c0.8,1,1.5,1.5,2,1.8c0.5,0.3,0.8,0.4,0.8,0.4c-0.8,0.4-1.5,0.1-2-0.3c-0.5-0.4-0.9-1-0.9-1s0.2,0.5,0.3,1.2
									c0,0.7-0.1,1.6-0.8,2.5c-1.1,1.4-3.2,0.6-3.2,0.7c0,0,0.2,0,0.5-0.2c0.3-0.1,0.7-0.4,1.2-1c0.9-1.1-1-1.9,0-3.3
									c0.4-0.5,0.9-0.5,1.1-0.3c0.4,0.4,0.1,0.7,0.1,0.7c0.7-0.1,0-0.9,0-0.9c-0.8-0.9-1.9-1.4-3.1-1.6L43,32.5
									c-0.5,0.1-1,0.2-1.6,0.3l-1.5,0.4l-0.2-0.2l-0.1-0.4l0-0.3l2.4-0.6l2.4-0.4c0.3-0.1,0.6-0.1,0.8-0.1L46,31l0.8,0l1.5-0.1
									l1.5-0.1c0.5,0,1,0,1.5,0.1c0.1,0,0.2-0.1,0.2-0.1c1.9-1.2,0.9-1.9,1.9-3c0.3-0.3,0.6-0.4,0.8-0.4c0.2,0,0.4,0,0.4,0
									C53.9,27.8,56,29.5,54.6,30.2z"/>
							</g>
						</g>
					</g>
					<g>
						<g>
							<path class="st4" d="M82.8,52.2c0.1-0.5-0.3-0.9-0.7-0.9c-0.4,0-0.6,0.4-0.7,0.6c0,0.2,0.1,0.4,0.2,0.4
								c0.1,0,0.3-0.1,0.3-0.3c0-0.2-0.2-0.3-0.1-0.3c0.1,0,0.2,0.1,0.2,0.3c0,0.2-0.2,0.4-0.4,0.3c-0.2,0-0.3-0.2-0.3-0.5
								c0.1-0.7,0.9-0.5,1.1-2.3l0.6,1l0.3,0l0.3-0.2l0.2-0.2l-1.3-2.1l-1.4-1.9c0.9,0.4,1.8,0.5,2.5,0.6c1.3,0.2,2.1,0.7,2.7,1.1
								c0.6,0.4,0.8,0.7,0.8,0.7c-0.1-1-0.8-1.7-1.5-2c-0.3-0.2-0.7-0.3-1-0.3c-0.3-0.1-0.4-0.1-0.4-0.1s0.6-0.1,1.2-0.4
								c0.6-0.4,1.2-1,1.3-2.3c0.1-1-0.5-2.1-1.2-2.8c-0.7-0.7-1.4-1.1-1.4-1.1s0.2,0.2,0.4,0.6c0.2,0.4,0.5,1.1,0.4,1.9
								c-0.1,1.7-2.2,0.3-2.5,2.2c-0.1,0.7,0.2,1.1,0.6,1.2c0.7,0.1,0.6-0.3,0.6-0.3c0.5,0.7-0.8,0.6-0.8,0.6
								c-0.6-0.1-1.2-0.2-1.8-0.5c-0.3-0.1-0.5-0.3-0.8-0.4c-0.3-0.1-0.5-0.3-0.8-0.5c-0.7-0.8-1.4-1.6-2.2-2.4L75,39.8l-0.3,0.1
								l-0.2,0.3l-0.1,0.3l1.8,1.6l0.9,0.8l0.8,0.9c0.2,0.2,0.4,0.4,0.5,0.6l1,1.1c0.3,0.4,0.6,0.8,0.9,1.2l0.9,1.2
								c0.3,0.4,0.6,0.8,0.8,1.2c0,0.1,0,0.2,0,0.3c-0.2,2.2-1.3,1.6-1.9,2.9c-0.3,0.6,0.1,1.1,0.1,1.1c0.1-0.4,0.6-0.4,1.2-0.4
								C82.1,53,82.7,53,82.8,52.2z"/>
							<path class="st2" d="M72,43.4c5.5,4.7,9.7,11,11.4,18c0.8,0.4,1.6,0.9,2.4,1.4c0.7,0.5,1.5,1,2.2,1.6
								c0.7,0.6,1.5,1.2,2.2,1.8c0.7,0.6,1.4,1.3,2.1,2l-0.1-1.7l0-0.8l-0.1-0.8l-0.5-3.3c-0.5-2.2-1-4.3-1.9-6.4l-0.6-1.6
								c-0.2-0.5-0.5-1-0.7-1.5l-0.7-1.5c-0.2-0.5-0.5-1-0.8-1.5l-1.7-2.8l-2-2.7c-0.9-0.2-2-0.3-2.9-0.4c-1-0.1-1.9-0.1-2.8-0.2
								C75.5,43,73.7,43.2,72,43.4z"/>
							<path class="st2" d="M65,29.8c5.3,2,10.2,5,14.3,8.9l-7.9,8.4c-3-2.8-6.6-5.1-10.5-6.5L65,29.8z"/>
						</g>
						<g>
							<g>
								<path class="st4" d="M77.1,40.5c-0.5-0.1-0.8-0.5-0.8-1c0-0.4,0.5-0.5,0.7-0.5c0.2,0,0.4,0.2,0.4,0.4c0,0.2-0.2,0.3-0.3,0.2
									c-0.2,0-0.3-0.2-0.3-0.1c0,0.1,0.1,0.2,0.3,0.2c0.3,0,0.4-0.1,0.4-0.3c0-0.2-0.1-0.4-0.5-0.5c-0.7-0.1-0.7,0.7-2.5,0.6
									c0.3,0.2,0.6,0.5,0.9,0.8l-0.1,0.3l-0.3,0.3L74.9,41c-0.6-0.6-1.2-1-1.8-1.5c-0.6-0.5-1.2-1-1.9-1.4
									c0.4,0.9,0.5,1.8,0.6,2.4c0.1,1.2,0.3,2,0.6,2.6c0.2,0.6,0.4,0.8,0.4,0.8c-0.8-0.2-1.2-0.8-1.4-1.5
									c-0.2-0.7-0.2-1.3-0.2-1.3s-0.1,0.5-0.5,1.1c-0.4,0.6-1.1,1.2-2.1,1.5c-0.8,0.2-1.6-0.1-2.1-0.5c-0.5-0.4-0.9-0.9-0.9-0.9
									s0.7,0.5,2.1,0c1.4-0.4,0.2-2.1,1.9-2.7c0.6-0.2,1,0.1,1.1,0.4c0.1,0.6-0.3,0.6-0.3,0.6c0.6,0.4,0.5-0.8,0.5-0.8
									c-0.1-1.2-0.7-2.2-1.6-3c-0.9-0.6-1.9-1-2.8-1.5L65,34.8c-0.5-0.2-1-0.4-1.5-0.6l0-0.3l0.1-0.4l0.2-0.2c1.6,0.5,3,1.3,4.5,2
									c0.3,0.1,0.5,0.2,0.7,0.4l2.6,1.6c0.9,0.6,1.6,1.2,2.5,1.8c0.1,0,0.2,0,0.3,0c1.2,0,1.6-0.2,2-0.5c0.4-0.3,0.6-0.7,1.3-0.8
									c0.8-0.1,1.2,0.5,1.2,0.5C77.9,38.2,78.7,40.7,77.1,40.5z"/>
							</g>
						</g>
					</g>
				</g>
			</g>
			<g>
				<g>
					<g>
						<g>
							<path class="st4" d="M82.8,52.2c0.1-0.5-0.3-0.9-0.7-0.9c-0.4,0-0.6,0.4-0.7,0.6c0,0.2,0.1,0.4,0.2,0.4
								c0.1,0,0.3-0.1,0.3-0.3c0-0.2-0.2-0.3-0.1-0.3c0.1,0,0.2,0.1,0.2,0.3c0,0.2-0.2,0.4-0.4,0.3c-0.2,0-0.3-0.2-0.3-0.5
								c0.1-0.7,0.9-0.5,1.1-2.3l0.6,1l0.3,0l0.3-0.2l0.2-0.2l-1.3-2.1l-1.4-1.9c0.9,0.4,1.8,0.5,2.5,0.6c1.3,0.2,2.1,0.7,2.7,1.1
								c0.6,0.4,0.8,0.7,0.8,0.7c-0.1-1-0.8-1.7-1.5-2c-0.3-0.2-0.7-0.3-1-0.3c-0.3-0.1-0.4-0.1-0.4-0.1s0.6-0.1,1.2-0.4
								c0.6-0.4,1.2-1,1.3-2.3c0.1-1-0.5-2.1-1.2-2.8c-0.7-0.7-1.4-1.1-1.4-1.1s0.2,0.2,0.4,0.6c0.2,0.4,0.5,1.1,0.4,1.9
								c-0.1,1.7-2.2,0.3-2.5,2.2c-0.1,0.7,0.2,1.1,0.6,1.2c0.7,0.1,0.6-0.3,0.6-0.3c0.5,0.7-0.8,0.6-0.8,0.6
								c-0.6-0.1-1.2-0.2-1.8-0.5c-0.3-0.1-0.5-0.3-0.8-0.4c-0.3-0.1-0.5-0.3-0.8-0.5c-0.7-0.8-1.4-1.6-2.2-2.4L75,39.8l-0.3,0.1
								l-0.2,0.3l-0.1,0.3l1.8,1.6l0.9,0.8l0.8,0.9c0.2,0.2,0.4,0.4,0.5,0.6l1,1.1c0.3,0.4,0.6,0.8,0.9,1.2l0.9,1.2
								c0.3,0.4,0.6,0.8,0.8,1.2c0,0.1,0,0.2,0,0.3c-0.2,2.2-1.3,1.6-1.9,2.9c-0.3,0.6,0.1,1.1,0.1,1.1c0.1-0.4,0.6-0.4,1.2-0.4
								C82.1,53,82.7,53,82.8,52.2z"/>
							<path class="st2" d="M72,43.4c5.5,4.7,9.7,11,11.4,18c0.8,0.4,1.6,0.9,2.4,1.4c0.7,0.5,1.5,1,2.2,1.6
								c0.7,0.6,1.5,1.2,2.2,1.8c0.7,0.6,1.4,1.3,2.1,2l-0.1-1.7l0-0.8l-0.1-0.8l-0.5-3.3c-0.5-2.2-1-4.3-1.9-6.4l-0.6-1.6
								c-0.2-0.5-0.5-1-0.7-1.5l-0.7-1.5c-0.2-0.5-0.5-1-0.8-1.5l-1.7-2.8l-2-2.7c-0.9-0.2-2-0.3-2.9-0.4c-1-0.1-1.9-0.1-2.8-0.2
								C75.5,43,73.7,43.2,72,43.4z"/>
							<path class="st2" d="M65,29.8c5.3,2,10.2,5,14.3,8.9l-7.9,8.4c-3-2.8-6.6-5.1-10.5-6.5L65,29.8z"/>
						</g>
						<g>
							<g>
								<path class="st4" d="M77.1,40.5c-0.5-0.1-0.8-0.5-0.8-1c0-0.4,0.5-0.5,0.7-0.5c0.2,0,0.4,0.2,0.4,0.4c0,0.2-0.2,0.3-0.3,0.2
									c-0.2,0-0.3-0.2-0.3-0.1c0,0.1,0.1,0.2,0.3,0.2c0.3,0,0.4-0.1,0.4-0.3c0-0.2-0.1-0.4-0.5-0.5c-0.7-0.1-0.7,0.7-2.5,0.6
									c0.3,0.2,0.6,0.5,0.9,0.8l-0.1,0.3l-0.3,0.3L74.9,41c-0.6-0.6-1.2-1-1.8-1.5c-0.6-0.5-1.2-1-1.9-1.4
									c0.4,0.9,0.5,1.8,0.6,2.4c0.1,1.2,0.3,2,0.6,2.6c0.2,0.6,0.4,0.8,0.4,0.8c-0.8-0.2-1.2-0.8-1.4-1.5
									c-0.2-0.7-0.2-1.3-0.2-1.3s-0.1,0.5-0.5,1.1c-0.4,0.6-1.1,1.2-2.1,1.5c-0.8,0.2-1.6-0.1-2.1-0.5c-0.5-0.4-0.9-0.9-0.9-0.9
									s0.7,0.5,2.1,0c1.4-0.4,0.2-2.1,1.9-2.7c0.6-0.2,1,0.1,1.1,0.4c0.1,0.6-0.3,0.6-0.3,0.6c0.6,0.4,0.5-0.8,0.5-0.8
									c-0.1-1.2-0.7-2.2-1.6-3c-0.9-0.6-1.9-1-2.8-1.5L65,34.8c-0.5-0.2-1-0.4-1.5-0.6l0-0.3l0.1-0.4l0.2-0.2c1.6,0.5,3,1.3,4.5,2
									c0.3,0.1,0.5,0.2,0.7,0.4l2.6,1.6c0.9,0.6,1.6,1.2,2.5,1.8c0.1,0,0.2,0,0.3,0c1.2,0,1.6-0.2,2-0.5c0.4-0.3,0.6-0.7,1.3-0.8
									c0.8-0.1,1.2,0.5,1.2,0.5C77.9,38.2,78.7,40.7,77.1,40.5z"/>
							</g>
						</g>
					</g>
					<g>
						<g>
							<path class="st4" d="M87.3,75.1c0.3-0.4,0.2-0.9-0.2-1.2c-0.3-0.2-0.7,0-0.9,0.2c-0.2,0.2-0.1,0.4,0,0.5
								c0.1,0.1,0.3,0,0.4-0.1c0.1-0.1,0-0.3,0.1-0.3c0.1,0.1,0.1,0.2,0,0.3c-0.1,0.2-0.4,0.2-0.5,0.1c-0.2-0.1-0.2-0.4,0-0.6
								c0.4-0.6,1,0,2.1-1.4v1.1l0.3,0.1h0.4l0.3-0.1c0-1.6,0-3.2,0-4.8c0.6,0.9,1.2,1.5,1.6,1.9c1.8,1.7,2,3.2,2,3.2
								c0.9-1.7-1.2-3.3-1.2-3.3s1.9,1,3.6-0.7c0.7-0.8,0.7-2,0.6-2.9c-0.1-1-0.4-1.7-0.4-1.7s0.1,1.2-0.9,2.6c-1,1.3-2-1.1-3.3,0.4
								c-0.5,0.5-0.4,1-0.2,1.3c0.5,0.5,0.7,0.1,0.7,0.1c0,0.8-0.9,0-0.9,0c-1-0.9-1.6-1.9-1.9-3.1c0-0.5-0.1-1.1-0.2-1.6l-0.2-1.6
								c-0.1-0.5-0.1-1.1-0.3-1.6L88,60.3l-0.3,0l-0.4,0.1L87,60.5c0.2,0.8,0.5,1.5,0.5,2.3l0.4,2.4c0,0.3,0.1,0.5,0.1,0.8
								c0.1,2,0.2,4,0.2,6c0,0.1-0.1,0.2-0.2,0.2c-1.3,1.8-2,0.7-3.1,1.6c-0.6,0.5-0.5,1.1-0.5,1.1C85.1,74.2,86.4,76.3,87.3,75.1z"
								/>
							<path class="st2" d="M83.4,61.4c0.5,1.7,0.7,3.5,1,5.3l0.1,2.7l0,0.7v0.8v1.5v12.2l7.9,8.1V80.5v-6.1v-3c0-0.5,0-1,0-1.5
								l-0.1-1.7c-0.7-0.7-1.4-1.4-2.1-2c-0.7-0.6-1.5-1.2-2.2-1.8c-0.8-0.6-1.5-1.1-2.2-1.6C85,62.2,84.2,61.8,83.4,61.4z"/>
							<path class="st2" d="M85.8,46.3c3.1,4.7,5.3,10,6.4,15.6l-11.3,2.2c-0.8-4.1-2.4-7.9-4.6-11.4L85.8,46.3z"/>
						</g>
						<g>
							<g>
								<path class="st4" d="M89.3,62.1c-0.4-0.4-0.4-0.9-0.1-1.2c0.2-0.3,0.7-0.1,0.9,0c0.2,0.2,0.2,0.4,0.2,0.5
									c-0.1,0.1-0.3,0.1-0.4,0c-0.1-0.1-0.1-0.3-0.1-0.3c-0.1,0.1,0,0.2,0.1,0.3c0.2,0.2,0.4,0.2,0.5,0c0.1-0.2,0.1-0.4-0.2-0.6
									c-0.6-0.5-1,0.2-2.4-0.9l0.3,1.1l-0.2,0.2l-0.4,0.1l-0.3,0l-0.6-2.3c-0.2-0.8-0.5-1.5-0.8-2.2c-0.2,1-0.6,1.8-0.9,2.2
									c-0.6,1-1,1.9-1.1,2.4c-0.1,0.6-0.1,0.9-0.1,0.9c-0.6-0.6-0.5-1.4-0.3-2C83.7,59.5,84,59,84,59s-0.4,0.4-1,0.6
									c-0.6,0.2-1.6,0.4-2.6,0c-0.8-0.3-1.2-1-1.4-1.6c-0.1-0.3-0.2-0.6-0.2-0.8c0-0.2,0-0.4,0-0.4s0.1,0.2,0.3,0.4
									c0.3,0.2,0.7,0.5,1.3,0.8c1.3,0.6,1.5-1.6,3.1-1c0.6,0.2,0.8,0.7,0.6,1c-0.3,0.5-0.6,0.3-0.6,0.3c0.3,0.7,0.9-0.3,0.9-0.3
									c0.6-1,0.9-2.2,0.5-3.4l-1.4-2.9L81.9,49l0.2-0.2l0.3-0.2l0.3-0.1c0.8,1.4,1.8,2.8,2.4,4.3c0.1,0.2,0.3,0.5,0.4,0.7
									c0.2,0.5,0.5,0.9,0.7,1.4l0.5,1.4c0.3,1,0.8,1.9,1,2.9c0.1,0.1,0.1,0.1,0.2,0.2c1.8,1.5,2.1,0.2,3.4,0.9
									c0.7,0.3,0.8,1.1,0.8,1.1c-0.4-0.4-0.7,0.1-1.2,0.5C90.4,62.3,89.9,62.6,89.3,62.1z"/>
							</g>
						</g>
					</g>
				</g>
			</g>
		</g>
	</g>
</g>
<g>
	<g>
		<g>
			<g>
				<g>
					<path class="st4" d="M26,8.7c-1.8-0.1-3.2-0.2-3.4-0.6c-0.2-0.3-0.2-0.9,0.1-1.1C23.6,6.4,24,8,23,7.7c0.4,0.6,1.4,0.2,1.6-0.3
						c0.4-0.7-0.3-2-1-2.3c-0.7-0.3-1.6,0.2-2,0.8c-0.4,0.6-0.3,1.4-0.8,1.9c-0.2,0.2-0.4,0.3-0.6,0.1c-0.3-0.3,0.3-1.3,0.4-1.7
						c0.1-0.9-0.6-1.9-1.3-2C18.6,4,17.7,4.4,17.6,5c0,0.5,0.3,1.1,0.8,0.9c-0.4-0.6,0.5-0.8,0.5,0c0,0.3-0.2,0.5-0.6,0.6
						c-0.3,0.1-1.2,0-1.8,0.2c-0.4,0.2-0.9,0.4-0.8,0.8c0.1,0.2,0.4,0.2,0.3,0.5c-0.1-0.1-0.2-0.2-0.4-0.3c-0.5,0.3-1.1,1.1-1.5,0.3
						c-0.1-0.2,0-0.6,0-0.9c-0.1-0.4-0.6-0.8-1-0.9c-0.8-0.2-1.6,0.8-0.9,1.3c0.1,0-0.2-0.3,0-0.3c0.5,0.2,0.5,0.9,0.2,1
						c-0.4,0.2-0.7-0.2-1.1-0.2c0,0-0.2,0.1-0.5,0.3v0.6H26V8.7z"/>
					<rect x="11.1" y="8.3" class="st4" width="14.9" height="0.9"/>
				</g>
			</g>
			<g>
				<g>
					<path class="st4" d="M40.9,8.7c-1.8-0.1-3.2-0.2-3.4-0.6c-0.2-0.3-0.2-0.9,0.1-1.1c0.9-0.6,1.3,1,0.3,0.7
						c0.4,0.6,1.4,0.2,1.6-0.3c0.4-0.7-0.3-2-1-2.3c-0.7-0.3-1.6,0.2-2,0.8c-0.4,0.6-0.3,1.4-0.8,1.9c-0.2,0.2-0.4,0.3-0.6,0.1
						c-0.3-0.3,0.3-1.3,0.4-1.7c0.1-0.9-0.6-1.9-1.3-2C33.5,4,32.6,4.4,32.6,5c0,0.5,0.3,1.1,0.8,0.9c-0.4-0.6,0.5-0.8,0.5,0
						c0,0.3-0.2,0.5-0.6,0.6c-0.3,0.1-1.2,0-1.8,0.2c-0.4,0.2-0.9,0.4-0.8,0.8c0.1,0.2,0.4,0.2,0.3,0.5c-0.1-0.1-0.2-0.2-0.4-0.3
						c-0.5,0.3-1.1,1.1-1.5,0.3c-0.1-0.2,0-0.6,0-0.9c-0.1-0.4-0.6-0.8-1-0.9c-0.8-0.2-1.6,0.8-0.9,1.3c0.1,0-0.2-0.3,0-0.3
						c0.5,0.2,0.5,0.9,0.2,1c-0.4,0.2-0.7-0.2-1.1-0.2c0,0-0.2,0.1-0.5,0.3v0.6h14.9V8.7z"/>
					<rect x="26" y="8.3" class="st4" width="14.9" height="0.9"/>
				</g>
			</g>
			<g>
				<g>
					<path class="st4" d="M55.9,8.7c-1.8-0.1-3.2-0.2-3.4-0.6c-0.2-0.3-0.2-0.9,0.1-1.1c0.9-0.6,1.3,1,0.3,0.7
						c0.4,0.6,1.4,0.2,1.6-0.3c0.4-0.7-0.3-2-1-2.3c-0.7-0.3-1.6,0.2-2,0.8c-0.4,0.6-0.3,1.4-0.8,1.9C50.5,8,50.2,8.1,50,7.9
						c-0.3-0.3,0.3-1.3,0.4-1.7c0.1-0.9-0.6-1.9-1.3-2C48.5,4,47.6,4.4,47.5,5c0,0.5,0.3,1.1,0.8,0.9c-0.4-0.6,0.5-0.8,0.5,0
						c0,0.3-0.2,0.5-0.6,0.6c-0.3,0.1-1.2,0-1.8,0.2C46,7,45.5,7.3,45.6,7.6c0.1,0.2,0.4,0.2,0.3,0.5c-0.1-0.1-0.2-0.2-0.4-0.3
						c-0.5,0.3-1.1,1.1-1.5,0.3c-0.1-0.2,0-0.6,0-0.9c-0.1-0.4-0.6-0.8-1-0.9c-0.8-0.2-1.6,0.8-0.9,1.3c0.1,0-0.2-0.3,0-0.3
						c0.5,0.2,0.5,0.9,0.2,1c-0.4,0.2-0.7-0.2-1.1-0.2c0,0-0.2,0.1-0.5,0.3v0.6h14.9V8.7z"/>
					<rect x="40.9" y="8.3" class="st4" width="14.9" height="0.9"/>
				</g>
			</g>
			<g>
				<g>
					<path class="st4" d="M70.8,8.7c-1.8-0.1-3.2-0.2-3.4-0.6c-0.2-0.3-0.2-0.9,0.1-1.1c0.9-0.6,1.3,1,0.3,0.7
						c0.4,0.6,1.4,0.2,1.6-0.3c0.4-0.7-0.3-2-1-2.3c-0.7-0.3-1.6,0.2-2,0.8c-0.4,0.6-0.3,1.4-0.8,1.9C65.4,8,65.1,8.1,65,7.9
						c-0.3-0.3,0.3-1.3,0.4-1.7c0.1-0.9-0.6-1.9-1.3-2C63.4,4,62.5,4.4,62.5,5c0,0.5,0.3,1.1,0.8,0.9c-0.4-0.6,0.5-0.8,0.5,0
						c0,0.3-0.2,0.5-0.6,0.6c-0.3,0.1-1.2,0-1.8,0.2C61,7,60.5,7.3,60.6,7.6c0.1,0.2,0.4,0.2,0.3,0.5c-0.1-0.1-0.2-0.2-0.4-0.3
						c-0.5,0.3-1.1,1.1-1.5,0.3c-0.1-0.2,0-0.6,0-0.9c-0.1-0.4-0.6-0.8-1-0.9c-0.8-0.2-1.6,0.8-0.9,1.3c0.1,0-0.2-0.3,0-0.3
						c0.5,0.2,0.5,0.9,0.2,1c-0.4,0.2-0.7-0.2-1.1-0.2c0,0-0.2,0.1-0.5,0.3v0.6h14.9V8.7z"/>
					<rect x="55.9" y="8.3" class="st4" width="14.9" height="0.9"/>
				</g>
			</g>
			<g>
				<g>
					<path class="st4" d="M85.8,8.7c-1.8-0.1-3.2-0.2-3.4-0.6c-0.2-0.3-0.2-0.9,0.1-1.1c0.9-0.6,1.3,1,0.3,0.7
						c0.4,0.6,1.4,0.2,1.6-0.3c0.4-0.7-0.3-2-1-2.3c-0.7-0.3-1.6,0.2-2,0.8c-0.4,0.6-0.3,1.4-0.8,1.9c-0.2,0.2-0.4,0.3-0.6,0.1
						c-0.3-0.3,0.3-1.3,0.4-1.7c0.1-0.9-0.6-1.9-1.3-2C78.3,4,77.5,4.4,77.4,5c0,0.5,0.3,1.1,0.8,0.9c-0.4-0.6,0.5-0.8,0.5,0
						c0,0.3-0.2,0.5-0.6,0.6c-0.3,0.1-1.2,0-1.8,0.2c-0.4,0.2-0.9,0.4-0.8,0.8c0.1,0.2,0.4,0.2,0.3,0.5c-0.1-0.1-0.2-0.2-0.4-0.3
						C75,8.1,74.4,8.9,74,8.1c-0.1-0.2,0-0.6,0-0.9c-0.1-0.4-0.6-0.8-1-0.9c-0.8-0.2-1.6,0.8-0.9,1.3c0.1,0-0.2-0.3,0-0.3
						c0.5,0.2,0.5,0.9,0.2,1c-0.4,0.2-0.7-0.2-1.1-0.2c0,0-0.2,0.1-0.5,0.3v0.6h14.9V8.7z"/>
					<rect x="70.8" y="8.3" class="st4" width="14.9" height="0.9"/>
				</g>
			</g>
			<g>
				<g>
					<path class="st4" d="M91,16.1c0.1-1.8,0.2-3.2,0.6-3.4c0.3-0.2,0.9-0.2,1.1,0.1c0.6,0.9-1,1.3-0.7,0.3
						c-0.6,0.4-0.2,1.4,0.3,1.6c0.7,0.4,2-0.3,2.3-1c0.3-0.7-0.2-1.6-0.8-2c-0.6-0.4-1.4-0.3-1.9-0.8c-0.2-0.1-0.3-0.3-0.2-0.4
						c0.2-0.1,0.5-0.1,0.8-0.1c0.4,0.1,0.7,0.2,0.9,0.2c0.5,0,0.9-0.1,1.3-0.6c0.3-0.4,0.5-1.1,0.3-1.6c-0.1-0.5-0.5-1-0.9-1.3
						c-0.4-0.3-0.8-0.4-1.1-0.2c-0.4,0.3-0.5,1-0.1,1.4c0.2-0.8,1,0.1,0.3,0.5c-0.3,0.1-0.6,0-0.9-0.2c-0.3-0.2-0.8-1-1.4-1.1
						c-0.5-0.1-1,0-1,0.4c0,0.2,0.2,0.4,0,0.5c0-0.1,0-0.3-0.1-0.3c-0.2,0-0.5,0.3-0.7,0.4c-0.2,0.1-0.3,0.1-0.4-0.2
						c-0.1-0.2,0-0.6,0-0.9c-0.1-0.4-0.6-0.8-1-0.9c-0.8-0.2-1.6,0.8-0.9,1.3c0.1,0-0.2-0.3,0-0.3c0.5,0.2,0.5,0.9,0.2,1
						c-0.4,0.2-0.7-0.2-1.1-0.2c0,0-0.2,0.1-0.5,0.3v0.6h1.9h0.9h0.2c0.1,0,0.2,0,0.2,0c0.1,0,0.1,0,0.2,0c0.5,0.1,0.9,0.4,1.1,0.8
						c0.1,0.2,0.2,0.4,0.2,0.7c0,0,0,0.4,0,0.7v0.9v3.7H91z"/>
					<path class="st4" d="M90.5,16.1v-3.7v-0.9c0-0.3,0-0.7,0-0.7c0-0.2-0.1-0.5-0.2-0.7c-0.2-0.4-0.7-0.7-1.1-0.8
						c-0.1,0-0.1,0-0.2,0c0,0-0.1,0-0.2,0h-0.2h-0.9h-1.9V8.3h1.9c0.6,0,1.4,0,1.6,0c0.7,0.1,1.4,0.6,1.8,1.2
						c0.2,0.3,0.3,0.7,0.3,1.1c0,0.1,0,0.5,0,0.8v0.9v3.7H90.5z"/>
				</g>
			</g>
			<g>
				<g>
					<path class="st4" d="M91,31.1c0.1-1.8,0.2-3.2,0.6-3.4c0.3-0.2,0.9-0.2,1.1,0.1c0.6,0.9-1,1.3-0.7,0.3
						c-0.6,0.4-0.2,1.4,0.3,1.6c0.7,0.4,2-0.3,2.3-1c0.3-0.7-0.2-1.6-0.8-2c-0.6-0.4-1.4-0.3-1.9-0.8c-0.2-0.2-0.3-0.4-0.1-0.6
						c0.3-0.3,1.3,0.3,1.7,0.4c0.9,0.1,1.9-0.6,2-1.3c0.1-0.6-0.2-1.5-0.9-1.6c-0.5,0-1.1,0.3-0.9,0.8c0.6-0.4,0.8,0.5,0,0.5
						c-0.3,0-0.5-0.2-0.6-0.6c-0.1-0.3,0-1.2-0.2-1.8c-0.2-0.4-0.4-0.9-0.8-0.8c-0.2,0.1-0.2,0.4-0.5,0.3c0.1-0.1,0.2-0.2,0.3-0.4
						c-0.3-0.5-1.1-1.1-0.3-1.5c0.2-0.1,0.6,0,0.9,0c0.4-0.1,0.8-0.6,0.9-1c0.2-0.8-0.8-1.6-1.3-0.9c0,0.1,0.3-0.2,0.3,0
						c-0.2,0.5-0.9,0.5-1,0.2c-0.2-0.4,0.2-0.7,0.2-1.1c0,0-0.1-0.2-0.3-0.5h-0.6v14.9H91z"/>
					<rect x="90.5" y="16.1" class="st4" width="0.9" height="14.9"/>
				</g>
			</g>
			<g>
				<g>
					<path class="st4" d="M91,46c0.1-1.8,0.2-3.2,0.6-3.4c0.3-0.2,0.9-0.2,1.1,0.1c0.6,0.9-1,1.3-0.7,0.3c-0.6,0.4-0.2,1.4,0.3,1.6
						c0.7,0.4,2-0.3,2.3-1c0.3-0.7-0.2-1.6-0.8-2c-0.6-0.4-1.4-0.3-1.9-0.8c-0.2-0.2-0.3-0.4-0.1-0.6c0.3-0.3,1.3,0.3,1.7,0.4
						c0.9,0.1,1.9-0.6,2-1.3c0.1-0.6-0.2-1.5-0.9-1.6c-0.5,0-1.1,0.3-0.9,0.8c0.6-0.4,0.8,0.5,0,0.5c-0.3,0-0.5-0.2-0.6-0.6
						c-0.1-0.3,0-1.2-0.2-1.8c-0.2-0.4-0.4-0.9-0.8-0.8c-0.2,0.1-0.2,0.4-0.5,0.3c0.1-0.1,0.2-0.2,0.3-0.4c-0.3-0.5-1.1-1.1-0.3-1.5
						c0.2-0.1,0.6,0,0.9,0c0.4-0.1,0.8-0.6,0.9-1c0.2-0.8-0.8-1.6-1.3-0.9c0,0.1,0.3-0.2,0.3,0c-0.2,0.5-0.9,0.5-1,0.2
						c-0.2-0.4,0.2-0.7,0.2-1.1c0,0-0.1-0.2-0.3-0.5h-0.6V46H91z"/>
					<rect x="90.5" y="31.1" class="st4" width="0.9" height="14.9"/>
				</g>
			</g>
			<g>
				<g>
					<path class="st4" d="M91,60.9c0.1-1.8,0.2-3.2,0.6-3.4c0.3-0.2,0.9-0.2,1.1,0.1c0.6,0.9-1,1.3-0.7,0.3
						c-0.6,0.4-0.2,1.4,0.3,1.6c0.7,0.4,2-0.3,2.3-1c0.3-0.7-0.2-1.6-0.8-2c-0.6-0.4-1.4-0.3-1.9-0.8c-0.2-0.2-0.3-0.4-0.1-0.6
						c0.3-0.3,1.3,0.3,1.7,0.4c0.9,0.1,1.9-0.6,2-1.3c0.1-0.6-0.2-1.5-0.9-1.6c-0.5,0-1.1,0.3-0.9,0.8c0.6-0.4,0.8,0.5,0,0.5
						c-0.3,0-0.5-0.2-0.6-0.6c-0.1-0.3,0-1.2-0.2-1.8c-0.2-0.4-0.4-0.9-0.8-0.8C92,50.8,92,51.1,91.7,51c0.1-0.1,0.2-0.2,0.3-0.4
						c-0.3-0.5-1.1-1.1-0.3-1.5c0.2-0.1,0.6,0,0.9,0c0.4-0.1,0.8-0.6,0.9-1c0.2-0.8-0.8-1.6-1.3-0.9c0,0.1,0.3-0.2,0.3,0
						c-0.2,0.5-0.9,0.5-1,0.2c-0.2-0.4,0.2-0.7,0.2-1.1c0,0-0.1-0.2-0.3-0.5h-0.6v14.9H91z"/>
					<rect x="90.5" y="46" class="st4" width="0.9" height="14.9"/>
				</g>
			</g>
			<g>
				<g>
					<path class="st4" d="M91,75.9c0.1-1.8,0.2-3.2,0.6-3.4c0.3-0.2,0.9-0.2,1.1,0.1c0.6,0.9-1,1.3-0.7,0.3
						c-0.6,0.4-0.2,1.4,0.3,1.6c0.7,0.4,2-0.3,2.3-1c0.3-0.7-0.2-1.6-0.8-2c-0.6-0.4-1.4-0.3-1.9-0.8c-0.2-0.2-0.3-0.4-0.1-0.6
						c0.3-0.3,1.3,0.3,1.7,0.4c0.9,0.1,1.9-0.6,2-1.3c0.1-0.6-0.2-1.5-0.9-1.6c-0.5,0-1.1,0.3-0.9,0.8c0.6-0.4,0.8,0.5,0,0.5
						c-0.3,0-0.5-0.2-0.6-0.6c-0.1-0.3,0-1.2-0.2-1.8c-0.2-0.4-0.4-0.9-0.8-0.8C92,65.7,92,66.1,91.7,66c0.1-0.1,0.2-0.2,0.3-0.4
						c-0.3-0.5-1.1-1.1-0.3-1.5c0.2-0.1,0.6,0,0.9,0c0.4-0.1,0.8-0.6,0.9-1c0.2-0.8-0.8-1.6-1.3-0.9c0,0.1,0.3-0.2,0.3,0
						c-0.2,0.5-0.9,0.5-1,0.2c-0.2-0.4,0.2-0.7,0.2-1.1c0,0-0.1-0.2-0.3-0.5h-0.6v14.9H91z"/>
					<rect x="90.5" y="60.9" class="st4" width="0.9" height="14.9"/>
				</g>
			</g>
			<g>
				<g>
					<path class="st4" d="M91,90.8c0.1-1.8,0.2-3.2,0.6-3.4c0.3-0.2,0.9-0.2,1.1,0.1c0.6,0.9-1,1.3-0.7,0.3
						c-0.6,0.4-0.2,1.4,0.3,1.6c0.7,0.4,2-0.3,2.3-1c0.3-0.7-0.2-1.6-0.8-2c-0.6-0.4-1.4-0.3-1.9-0.8c-0.2-0.2-0.3-0.4-0.1-0.6
						c0.3-0.3,1.3,0.3,1.7,0.4c0.9,0.1,1.9-0.6,2-1.3c0.1-0.6-0.2-1.5-0.9-1.6c-0.5,0-1.1,0.3-0.9,0.8c0.6-0.4,0.8,0.5,0,0.5
						c-0.3,0-0.5-0.2-0.6-0.6c-0.1-0.3,0-1.2-0.2-1.8c-0.2-0.4-0.4-0.9-0.8-0.8C92,80.7,92,81,91.7,80.9c0.1-0.1,0.2-0.2,0.3-0.4
						c-0.3-0.5-1.1-1.1-0.3-1.5c0.2-0.1,0.6,0,0.9,0c0.4-0.1,0.8-0.6,0.9-1c0.2-0.8-0.8-1.6-1.3-0.9c0,0.1,0.3-0.2,0.3,0
						c-0.2,0.5-0.9,0.5-1,0.2c-0.2-0.4,0.2-0.7,0.2-1.1c0,0-0.1-0.2-0.3-0.5h-0.6v14.9H91z"/>
					<rect x="90.5" y="75.9" class="st4" width="0.9" height="14.9"/>
				</g>
			</g>
			<g>
				<g>
					<path class="st4" d="M91,105.8c0.1-1.8,0.2-3.2,0.6-3.4c0.3-0.2,0.9-0.2,1.1,0.1c0.6,0.9-1,1.3-0.7,0.3
						c-0.6,0.4-0.2,1.4,0.3,1.6c0.7,0.4,2-0.3,2.3-1c0.3-0.7-0.2-1.6-0.8-2c-0.6-0.4-1.4-0.3-1.9-0.8c-0.2-0.2-0.3-0.4-0.1-0.6
						c0.3-0.3,1.3,0.3,1.7,0.4c0.9,0.1,1.9-0.6,2-1.3c0.1-0.6-0.2-1.5-0.9-1.6c-0.5,0-1.1,0.3-0.9,0.8c0.6-0.4,0.8,0.5,0,0.5
						c-0.3,0-0.5-0.2-0.6-0.6c-0.1-0.3,0-1.2-0.2-1.8c-0.2-0.4-0.4-0.9-0.8-0.8C92,95.6,92,96,91.7,95.9c0.1-0.1,0.2-0.2,0.3-0.4
						c-0.3-0.5-1.1-1.1-0.3-1.5c0.2-0.1,0.6,0,0.9,0c0.4-0.1,0.8-0.6,0.9-1c0.2-0.8-0.8-1.6-1.3-0.9c0,0.1,0.3-0.2,0.3,0
						c-0.2,0.5-0.9,0.5-1,0.2c-0.2-0.4,0.2-0.7,0.2-1.1c0,0-0.1-0.2-0.3-0.5h-0.6v14.9H91z"/>
					<rect x="90.5" y="90.8" class="st4" width="0.9" height="14.9"/>
				</g>
			</g>
			<g>
				<g>
					<path class="st4" d="M91,120.7c0.1-1.8,0.2-3.2,0.6-3.4c0.3-0.2,0.9-0.2,1.1,0.1c0.6,0.9-1,1.3-0.7,0.3
						c-0.6,0.4-0.2,1.4,0.3,1.6c0.7,0.4,2-0.3,2.3-1c0.3-0.7-0.2-1.6-0.8-2c-0.6-0.4-1.4-0.3-1.9-0.8c-0.2-0.2-0.3-0.4-0.1-0.6
						c0.3-0.3,1.3,0.3,1.7,0.4c0.9,0.1,1.9-0.6,2-1.3c0.1-0.6-0.2-1.5-0.9-1.6c-0.5,0-1.1,0.3-0.9,0.8c0.6-0.4,0.8,0.5,0,0.5
						c-0.3,0-0.5-0.2-0.6-0.6c-0.1-0.3,0-1.2-0.2-1.8c-0.2-0.4-0.4-0.9-0.8-0.8c-0.2,0.1-0.2,0.4-0.5,0.3c0.1-0.1,0.2-0.2,0.3-0.4
						c-0.3-0.5-1.1-1.1-0.3-1.5c0.2-0.1,0.6,0,0.9,0c0.4-0.1,0.8-0.6,0.9-1c0.2-0.8-0.8-1.6-1.3-0.9c0,0.1,0.3-0.2,0.3,0
						c-0.2,0.5-0.9,0.5-1,0.2c-0.2-0.4,0.2-0.7,0.2-1.1c0,0-0.1-0.2-0.3-0.5h-0.6v14.9H91z"/>
					<rect x="90.5" y="105.8" class="st4" width="0.9" height="14.9"/>
				</g>
			</g>
			<g>
				<g>
					<path class="st4" d="M88.9,131.3c0.9,0.1,1.6-0.4,2-0.3c0.3,0.2,0.8,0.5,0.8,0.8c-0.1,0.5-0.5,0.5-0.7,0.3
						c-0.2-0.2-0.3-0.5,0.1-0.7c-0.3-0.1-0.5,0-0.6,0.2c-0.1,0.2-0.3,0.5-0.3,0.8c0,0.4,0.2,0.8,0.6,1.2c0.4,0.3,1,0.5,1.5,0.3
						c0.5-0.2,0.9-0.6,1.1-1.1c0.2-0.5,0.2-1,0-1.3c-0.3-0.7-1.1-0.9-1.5-1.5c-0.1-0.2-0.2-0.4,0-0.5c0.2-0.1,0.5,0,0.8,0.2
						c0.3,0.2,0.6,0.4,0.8,0.5c0.4,0.2,0.9,0.1,1.4-0.2c0.2-0.2,0.4-0.4,0.5-0.6c0.1-0.1,0.1-0.3,0.2-0.4c0-0.1,0.1-0.2,0.1-0.3
						c0.1-0.6-0.2-1.5-0.9-1.6c-0.5,0-1.1,0.3-0.9,0.8c0.6-0.4,0.8,0.5,0,0.5c-0.3,0-0.5-0.2-0.6-0.6c-0.1-0.3,0-1.2-0.2-1.8
						c-0.2-0.4-0.4-0.9-0.8-0.8c-0.2,0.1-0.2,0.4-0.5,0.3c0.1-0.1,0.2-0.2,0.3-0.4c-0.3-0.5-1.1-1.1-0.3-1.5c0.2-0.1,0.6,0,0.9,0
						c0.4-0.1,0.8-0.6,0.9-1c0.2-0.8-0.8-1.6-1.3-0.9c0,0.1,0.3-0.2,0.3,0c-0.2,0.5-0.9,0.5-1,0.2c-0.2-0.4,0.2-0.7,0.2-1.1
						c0,0-0.1-0.2-0.3-0.5h-0.6v7.5v0.9c0,0.2,0,0.3,0,0.4c-0.1,0.2-0.2,0.4-0.3,0.6c-0.3,0.4-0.8,0.6-1.2,0.6V131.3z"/>
					<path class="st4" d="M88.9,130.7c0.5,0,0.9-0.2,1.2-0.6c0.1-0.2,0.3-0.4,0.3-0.6c0-0.1,0-0.2,0-0.4v-0.9v-7.5h0.9v7.5v0.9
						c0,0.2,0,0.4-0.1,0.6c-0.1,0.4-0.2,0.7-0.5,1c-0.5,0.6-1.2,1-2,1V130.7z"/>
				</g>
			</g>
			<g>
				<g>
					<path class="st4" d="M74,131.3c1.8,0.1,3.2,0.2,3.4,0.6c0.2,0.3,0.2,0.9-0.1,1.1c-0.9,0.6-1.3-1-0.3-0.7
						c-0.4-0.6-1.4-0.2-1.6,0.3c-0.4,0.7,0.3,2,1,2.3c0.7,0.3,1.6-0.2,2-0.8c0.4-0.6,0.3-1.4,0.8-1.9c0.2-0.2,0.4-0.3,0.6-0.1
						c0.3,0.3-0.3,1.3-0.4,1.7c-0.1,0.9,0.6,1.9,1.3,2c0.6,0.1,1.5-0.2,1.6-0.9c0-0.5-0.3-1.1-0.8-0.9c0.4,0.6-0.5,0.8-0.5,0
						c0-0.3,0.2-0.5,0.6-0.6c0.3-0.1,1.2,0,1.8-0.2c0.4-0.2,0.9-0.4,0.8-0.8c-0.1-0.2-0.4-0.2-0.3-0.5c0.1,0.1,0.2,0.2,0.4,0.3
						c0.5-0.3,1.1-1.1,1.5-0.3c0.1,0.2,0,0.6,0,0.9c0.1,0.4,0.6,0.8,1,0.9c0.8,0.2,1.6-0.8,0.9-1.3c-0.1,0,0.2,0.3,0,0.3
						c-0.5-0.2-0.5-0.9-0.2-1c0.4-0.2,0.7,0.2,1.1,0.2c0,0,0.2-0.1,0.5-0.3v-0.6H74V131.3z"/>
					<rect x="74" y="130.7" class="st4" width="14.9" height="0.9"/>
				</g>
			</g>
			<g>
				<g>
					<path class="st4" d="M59.1,131.3c1.8,0.1,3.2,0.2,3.4,0.6c0.2,0.3,0.2,0.9-0.1,1.1c-0.9,0.6-1.3-1-0.3-0.7
						c-0.4-0.6-1.4-0.2-1.6,0.3c-0.4,0.7,0.3,2,1,2.3c0.7,0.3,1.6-0.2,2-0.8c0.4-0.6,0.3-1.4,0.8-1.9c0.2-0.2,0.4-0.3,0.6-0.1
						c0.3,0.3-0.3,1.3-0.4,1.7c-0.1,0.9,0.6,1.9,1.3,2c0.6,0.1,1.5-0.2,1.6-0.9c0-0.5-0.3-1.1-0.8-0.9c0.4,0.6-0.5,0.8-0.5,0
						c0-0.3,0.2-0.5,0.6-0.6c0.3-0.1,1.2,0,1.8-0.2c0.4-0.2,0.9-0.4,0.8-0.8c-0.1-0.2-0.4-0.2-0.3-0.5c0.1,0.1,0.2,0.2,0.4,0.3
						c0.5-0.3,1.1-1.1,1.5-0.3c0.1,0.2,0,0.6,0,0.9c0.1,0.4,0.6,0.8,1,0.9c0.8,0.2,1.6-0.8,0.9-1.3c-0.1,0,0.2,0.3,0,0.3
						c-0.5-0.2-0.5-0.9-0.2-1c0.4-0.2,0.7,0.2,1.1,0.2c0,0,0.2-0.1,0.5-0.3v-0.6H59.1V131.3z"/>
					<rect x="59.1" y="130.7" class="st4" width="14.9" height="0.9"/>
				</g>
			</g>
			<g>
				<g>
					<path class="st4" d="M44.1,131.3c1.8,0.1,3.2,0.2,3.4,0.6c0.2,0.3,0.2,0.9-0.1,1.1c-0.9,0.6-1.3-1-0.3-0.7
						c-0.4-0.6-1.4-0.2-1.6,0.3c-0.4,0.7,0.3,2,1,2.3c0.7,0.3,1.6-0.2,2-0.8c0.4-0.6,0.3-1.4,0.8-1.9c0.2-0.2,0.4-0.3,0.6-0.1
						c0.3,0.3-0.3,1.3-0.4,1.7c-0.1,0.9,0.6,1.9,1.3,2c0.6,0.1,1.5-0.2,1.6-0.9c0-0.5-0.3-1.1-0.8-0.9c0.4,0.6-0.5,0.8-0.5,0
						c0-0.3,0.2-0.5,0.6-0.6c0.3-0.1,1.2,0,1.8-0.2c0.4-0.2,0.9-0.4,0.8-0.8c-0.1-0.2-0.4-0.2-0.3-0.5c0.1,0.1,0.2,0.2,0.4,0.3
						c0.5-0.3,1.1-1.1,1.5-0.3c0.1,0.2,0,0.6,0,0.9c0.1,0.4,0.6,0.8,1,0.9c0.8,0.2,1.6-0.8,0.9-1.3c-0.1,0,0.2,0.3,0,0.3
						c-0.5-0.2-0.5-0.9-0.2-1c0.4-0.2,0.7,0.2,1.1,0.2c0,0,0.2-0.1,0.5-0.3v-0.6H44.1V131.3z"/>
					<rect x="44.1" y="130.7" class="st4" width="14.9" height="0.9"/>
				</g>
			</g>
			<g>
				<g>
					<path class="st4" d="M29.2,131.3c1.8,0.1,3.2,0.2,3.4,0.6c0.2,0.3,0.2,0.9-0.1,1.1c-0.9,0.6-1.3-1-0.3-0.7
						c-0.4-0.6-1.4-0.2-1.6,0.3c-0.4,0.7,0.3,2,1,2.3c0.7,0.3,1.6-0.2,2-0.8c0.4-0.6,0.3-1.4,0.8-1.9c0.2-0.2,0.4-0.3,0.6-0.1
						c0.3,0.3-0.3,1.3-0.4,1.7c-0.1,0.9,0.6,1.9,1.3,2c0.6,0.1,1.5-0.2,1.6-0.9c0-0.5-0.3-1.1-0.8-0.9c0.4,0.6-0.5,0.8-0.5,0
						c0-0.3,0.2-0.5,0.6-0.6c0.3-0.1,1.2,0,1.8-0.2c0.4-0.2,0.9-0.4,0.8-0.8c-0.1-0.2-0.4-0.2-0.3-0.5c0.1,0.1,0.2,0.2,0.4,0.3
						c0.5-0.3,1.1-1.1,1.5-0.3c0.1,0.2,0,0.6,0,0.9c0.1,0.4,0.6,0.8,1,0.9c0.8,0.2,1.6-0.8,0.9-1.3c-0.1,0,0.2,0.3,0,0.3
						c-0.5-0.2-0.5-0.9-0.2-1c0.4-0.2,0.7,0.2,1.1,0.2c0,0,0.2-0.1,0.5-0.3v-0.6H29.2V131.3z"/>
					<rect x="29.2" y="130.7" class="st4" width="14.9" height="0.9"/>
				</g>
			</g>
			<g>
				<g>
					<path class="st4" d="M14.2,131.3c1.8,0.1,3.2,0.2,3.4,0.6c0.2,0.3,0.2,0.9-0.1,1.1c-0.9,0.6-1.3-1-0.3-0.7
						c-0.4-0.6-1.4-0.2-1.6,0.3c-0.4,0.7,0.3,2,1,2.3c0.7,0.3,1.6-0.2,2-0.8c0.4-0.6,0.3-1.4,0.8-1.9c0.2-0.2,0.4-0.3,0.6-0.1
						c0.3,0.3-0.3,1.3-0.4,1.7c-0.1,0.9,0.6,1.9,1.3,2c0.6,0.1,1.5-0.2,1.6-0.9c0-0.5-0.3-1.1-0.8-0.9c0.4,0.6-0.5,0.8-0.5,0
						c0-0.3,0.2-0.5,0.6-0.6c0.3-0.1,1.2,0,1.8-0.2c0.4-0.2,0.9-0.4,0.8-0.8c-0.1-0.2-0.4-0.2-0.3-0.5c0.1,0.1,0.2,0.2,0.4,0.3
						c0.5-0.3,1.1-1.1,1.5-0.3c0.1,0.2,0,0.6,0,0.9c0.1,0.4,0.6,0.8,1,0.9c0.8,0.2,1.6-0.8,0.9-1.3c-0.1,0,0.2,0.3,0,0.3
						c-0.5-0.2-0.5-0.9-0.2-1c0.4-0.2,0.7,0.2,1.1,0.2c0,0,0.2-0.1,0.5-0.3v-0.6H14.2V131.3z"/>
					<rect x="14.2" y="130.7" class="st4" width="14.9" height="0.9"/>
				</g>
			</g>
			<g>
				<g>
					<path class="st4" d="M9,123.9c-0.1,1.8-0.2,3.2-0.6,3.4c-0.3,0.2-0.9,0.2-1.1-0.1c-0.6-0.9,1-1.3,0.7-0.3
						c0.6-0.4,0.2-1.4-0.3-1.6c-0.7-0.4-2,0.3-2.3,1c-0.3,0.7,0.2,1.6,0.8,2c0.6,0.4,1.4,0.3,1.9,0.8c0.2,0.1,0.3,0.3,0.2,0.4
						c-0.2,0.1-0.5,0.1-0.8,0.1c-0.4-0.1-0.7-0.2-0.9-0.2c-0.5,0-0.9,0.1-1.3,0.6c-0.3,0.4-0.5,1.1-0.3,1.6c0.1,0.5,0.5,1,0.9,1.3
						c0.4,0.3,0.8,0.4,1.1,0.2c0.4-0.3,0.5-1,0.1-1.4c-0.2,0.8-1-0.1-0.3-0.5c0.3-0.1,0.6,0,0.9,0.2c0.3,0.2,0.8,1,1.4,1.1
						c0.5,0.1,1,0,1-0.4c0-0.2-0.2-0.4,0-0.5c0,0.1,0,0.3,0.1,0.3c0.2,0,0.5-0.3,0.7-0.4c0.2-0.1,0.3-0.1,0.4,0.2
						c0.1,0.2,0,0.6,0,0.9c0.1,0.4,0.6,0.8,1,0.9c0.8,0.2,1.6-0.8,0.9-1.3c-0.1,0,0.2,0.3,0,0.3c-0.5-0.2-0.5-0.9-0.2-1
						c0.4-0.2,0.7,0.2,1.1,0.2c0,0,0.2-0.1,0.5-0.3v-0.6h-1.9h-0.9h-0.2c-0.1,0-0.2,0-0.2,0c-0.1,0-0.1,0-0.2,0
						c-0.5-0.1-0.9-0.4-1.1-0.8c-0.1-0.2-0.2-0.4-0.2-0.7c0,0,0-0.4,0-0.7v-0.9v-3.7H9z"/>
					<path class="st4" d="M9.5,123.9v3.7v0.9c0,0.3,0,0.7,0,0.7c0,0.2,0.1,0.5,0.2,0.7c0.2,0.4,0.7,0.7,1.1,0.8c0.1,0,0.1,0,0.2,0
						c0,0,0.1,0,0.2,0h0.2h0.9h1.9v0.9h-1.9c-0.6,0-1.4,0-1.6,0c-0.7-0.1-1.4-0.6-1.8-1.2c-0.2-0.3-0.3-0.7-0.3-1.1
						c0-0.1,0-0.5,0-0.8v-0.9v-3.7H9.5z"/>
				</g>
			</g>
			<g>
				<g>
					<path class="st4" d="M9,108.9c-0.1,1.8-0.2,3.2-0.6,3.4c-0.3,0.2-0.9,0.2-1.1-0.1c-0.6-0.9,1-1.3,0.7-0.3
						c0.6-0.4,0.2-1.4-0.3-1.6c-0.7-0.4-2,0.3-2.3,1c-0.3,0.7,0.2,1.6,0.8,2c0.6,0.4,1.4,0.3,1.9,0.8c0.2,0.2,0.3,0.4,0.1,0.6
						c-0.3,0.3-1.3-0.3-1.7-0.4c-0.9-0.1-1.9,0.6-2,1.3c-0.1,0.6,0.2,1.5,0.9,1.6c0.5,0,1.1-0.3,0.9-0.8c-0.6,0.4-0.8-0.5,0-0.5
						c0.3,0,0.5,0.2,0.6,0.6c0.1,0.3,0,1.2,0.2,1.8c0.2,0.4,0.4,0.9,0.8,0.8c0.2-0.1,0.2-0.4,0.5-0.3C8.1,119,8,119.1,8,119.2
						c0.3,0.5,1.1,1.1,0.3,1.5c-0.2,0.1-0.6,0-0.9,0c-0.4,0.1-0.8,0.6-0.9,1c-0.2,0.8,0.8,1.6,1.3,0.9c0-0.1-0.3,0.2-0.3,0
						c0.2-0.5,0.9-0.5,1-0.2c0.2,0.4-0.2,0.7-0.2,1.1c0,0,0.1,0.2,0.3,0.5h0.6v-14.9H9z"/>
					<rect x="8.5" y="108.9" class="st4" width="0.9" height="14.9"/>
				</g>
			</g>
			<g>
				<g>
					<path class="st4" d="M9,94c-0.1,1.8-0.2,3.2-0.6,3.4c-0.3,0.2-0.9,0.2-1.1-0.1c-0.6-0.9,1-1.3,0.7-0.3c0.6-0.4,0.2-1.4-0.3-1.6
						c-0.7-0.4-2,0.3-2.3,1c-0.3,0.7,0.2,1.6,0.8,2c0.6,0.4,1.4,0.3,1.9,0.8c0.2,0.2,0.3,0.4,0.1,0.6c-0.3,0.3-1.3-0.3-1.7-0.4
						c-0.9-0.1-1.9,0.6-2,1.3c-0.1,0.6,0.2,1.5,0.9,1.6c0.5,0,1.1-0.3,0.9-0.8c-0.6,0.4-0.8-0.5,0-0.5c0.3,0,0.5,0.2,0.6,0.6
						c0.1,0.3,0,1.2,0.2,1.8c0.2,0.4,0.4,0.9,0.8,0.8c0.2-0.1,0.2-0.4,0.5-0.3C8.1,104,8,104.1,8,104.3c0.3,0.5,1.1,1.1,0.3,1.5
						c-0.2,0.1-0.6,0-0.9,0c-0.4,0.1-0.8,0.6-0.9,1c-0.2,0.8,0.8,1.6,1.3,0.9c0-0.1-0.3,0.2-0.3,0c0.2-0.5,0.9-0.5,1-0.2
						c0.2,0.4-0.2,0.7-0.2,1.1c0,0,0.1,0.2,0.3,0.5h0.6V94H9z"/>
					<rect x="8.5" y="94" class="st4" width="0.9" height="14.9"/>
				</g>
			</g>
			<g>
				<g>
					<path class="st4" d="M9,79.1c-0.1,1.8-0.2,3.2-0.6,3.4c-0.3,0.2-0.9,0.2-1.1-0.1c-0.6-0.9,1-1.3,0.7-0.3
						c0.6-0.4,0.2-1.4-0.3-1.6c-0.7-0.4-2,0.3-2.3,1c-0.3,0.7,0.2,1.6,0.8,2c0.6,0.4,1.4,0.3,1.9,0.8c0.2,0.2,0.3,0.4,0.1,0.6
						c-0.3,0.3-1.3-0.3-1.7-0.4c-0.9-0.1-1.9,0.6-2,1.3c-0.1,0.6,0.2,1.5,0.9,1.6c0.5,0,1.1-0.3,0.9-0.8c-0.6,0.4-0.8-0.5,0-0.5
						c0.3,0,0.5,0.2,0.6,0.6c0.1,0.3,0,1.2,0.2,1.8c0.2,0.4,0.4,0.9,0.8,0.8C8,89.2,8,88.9,8.3,89C8.1,89.1,8,89.2,8,89.3
						c0.3,0.5,1.1,1.1,0.3,1.5c-0.2,0.1-0.6,0-0.9,0c-0.4,0.1-0.8,0.6-0.9,1c-0.2,0.8,0.8,1.6,1.3,0.9c0-0.1-0.3,0.2-0.3,0
						c0.2-0.5,0.9-0.5,1-0.2c0.2,0.4-0.2,0.7-0.2,1.1c0,0,0.1,0.2,0.3,0.5h0.6V79.1H9z"/>
					<rect x="8.5" y="79.1" class="st4" width="0.9" height="14.9"/>
				</g>
			</g>
			<g>
				<g>
					<path class="st4" d="M9,64.1c-0.1,1.8-0.2,3.2-0.6,3.4c-0.3,0.2-0.9,0.2-1.1-0.1c-0.6-0.9,1-1.3,0.7-0.3
						c0.6-0.4,0.2-1.4-0.3-1.6c-0.7-0.4-2,0.3-2.3,1c-0.3,0.7,0.2,1.6,0.8,2c0.6,0.4,1.4,0.3,1.9,0.8c0.2,0.2,0.3,0.4,0.1,0.6
						c-0.3,0.3-1.3-0.3-1.7-0.4c-0.9-0.1-1.9,0.6-2,1.3c-0.1,0.6,0.2,1.5,0.9,1.6c0.5,0,1.1-0.3,0.9-0.8c-0.6,0.4-0.8-0.5,0-0.5
						c0.3,0,0.5,0.2,0.6,0.6c0.1,0.3,0,1.2,0.2,1.8c0.2,0.4,0.4,0.9,0.8,0.8C8,74.3,8,73.9,8.3,74C8.1,74.1,8,74.2,8,74.4
						c0.3,0.5,1.1,1.1,0.3,1.5c-0.2,0.1-0.6,0-0.9,0c-0.4,0.1-0.8,0.6-0.9,1c-0.2,0.8,0.8,1.6,1.3,0.9c0-0.1-0.3,0.2-0.3,0
						c0.2-0.5,0.9-0.5,1-0.2c0.2,0.4-0.2,0.7-0.2,1.1c0,0,0.1,0.2,0.3,0.5h0.6V64.1H9z"/>
					<rect x="8.5" y="64.1" class="st4" width="0.9" height="14.9"/>
				</g>
			</g>
			<g>
				<g>
					<path class="st4" d="M9,49.2c-0.1,1.8-0.2,3.2-0.6,3.4c-0.3,0.2-0.9,0.2-1.1-0.1c-0.6-0.9,1-1.3,0.7-0.3
						c0.6-0.4,0.2-1.4-0.3-1.6c-0.7-0.4-2,0.3-2.3,1c-0.3,0.7,0.2,1.6,0.8,2C6.7,54,7.5,53.9,8,54.4c0.2,0.2,0.3,0.4,0.1,0.6
						c-0.3,0.3-1.3-0.3-1.7-0.4c-0.9-0.1-1.9,0.6-2,1.3c-0.1,0.6,0.2,1.5,0.9,1.6c0.5,0,1.1-0.3,0.9-0.8c-0.6,0.4-0.8-0.5,0-0.5
						c0.3,0,0.5,0.2,0.6,0.6c0.1,0.3,0,1.2,0.2,1.8c0.2,0.4,0.4,0.9,0.8,0.8C8,59.3,8,59,8.3,59.1C8.1,59.2,8,59.3,8,59.4
						c0.3,0.5,1.1,1.1,0.3,1.5c-0.2,0.1-0.6,0-0.9,0c-0.4,0.1-0.8,0.6-0.9,1c-0.2,0.8,0.8,1.6,1.3,0.9c0-0.1-0.3,0.2-0.3,0
						c0.2-0.5,0.9-0.5,1-0.2c0.2,0.4-0.2,0.7-0.2,1.1c0,0,0.1,0.2,0.3,0.5h0.6V49.2H9z"/>
					<rect x="8.5" y="49.2" class="st4" width="0.9" height="14.9"/>
				</g>
			</g>
			<g>
				<g>
					<path class="st4" d="M9,34.2c-0.1,1.8-0.2,3.2-0.6,3.4c-0.3,0.2-0.9,0.2-1.1-0.1c-0.6-0.9,1-1.3,0.7-0.3
						c0.6-0.4,0.2-1.4-0.3-1.6c-0.7-0.4-2,0.3-2.3,1c-0.3,0.7,0.2,1.6,0.8,2C6.7,39,7.5,38.9,8,39.5c0.2,0.2,0.3,0.4,0.1,0.6
						c-0.3,0.3-1.3-0.3-1.7-0.4c-0.9-0.1-1.9,0.6-2,1.3c-0.1,0.6,0.2,1.5,0.9,1.6c0.5,0,1.1-0.3,0.9-0.8c-0.6,0.4-0.8-0.5,0-0.5
						c0.3,0,0.5,0.2,0.6,0.6c0.1,0.3,0,1.2,0.2,1.8c0.2,0.4,0.4,0.9,0.8,0.8C8,44.4,8,44,8.3,44.1C8.1,44.2,8,44.4,8,44.5
						C8.3,45,9.1,45.6,8.4,46c-0.2,0.1-0.6,0-0.9,0c-0.4,0.1-0.8,0.6-0.9,1c-0.2,0.8,0.8,1.6,1.3,0.9c0-0.1-0.3,0.2-0.3,0
						c0.2-0.5,0.9-0.5,1-0.2c0.2,0.4-0.2,0.7-0.2,1.1c0,0,0.1,0.2,0.3,0.5h0.6V34.2H9z"/>
					<rect x="8.5" y="34.2" class="st4" width="0.9" height="14.9"/>
				</g>
			</g>
			<g>
				<g>
					<path class="st4" d="M9,19.3c-0.1,1.8-0.2,3.2-0.6,3.4c-0.3,0.2-0.9,0.2-1.1-0.1c-0.6-0.9,1-1.3,0.7-0.3
						c0.6-0.4,0.2-1.4-0.3-1.6c-0.7-0.4-2,0.3-2.3,1c-0.3,0.7,0.2,1.6,0.8,2C6.7,24.1,7.5,24,8,24.5c0.2,0.2,0.3,0.4,0.1,0.6
						c-0.3,0.3-1.3-0.3-1.7-0.4c-0.9-0.1-1.9,0.6-2,1.3c-0.1,0.6,0.2,1.5,0.9,1.6c0.5,0,1.1-0.3,0.9-0.8c-0.6,0.4-0.8-0.5,0-0.5
						c0.3,0,0.5,0.2,0.6,0.6c0.1,0.3,0,1.2,0.2,1.8c0.2,0.4,0.4,0.9,0.8,0.8C8,29.5,8,29.1,8.3,29.2C8.1,29.3,8,29.4,8,29.6
						c0.3,0.5,1.1,1.1,0.3,1.5c-0.2,0.1-0.6,0-0.9,0c-0.4,0.1-0.8,0.6-0.9,1c-0.2,0.8,0.8,1.6,1.3,0.9c0-0.1-0.3,0.2-0.3,0
						c0.2-0.5,0.9-0.5,1-0.2c0.2,0.4-0.2,0.7-0.2,1.1c0,0,0.1,0.2,0.3,0.5h0.6V19.3H9z"/>
					<rect x="8.5" y="19.3" class="st4" width="0.9" height="14.9"/>
				</g>
			</g>
			<g>
				<g>
					<path class="st4" d="M11.1,8.7c-0.9-0.1-1.6,0.4-2,0.3C8.7,8.9,8.2,8.5,8.3,8.2C8.4,7.6,8.8,7.6,9,7.8C9.2,8,9.3,8.4,9,8.5
						c0.3,0.1,0.5,0,0.6-0.2c0.1-0.2,0.3-0.5,0.3-0.8c0-0.4-0.2-0.8-0.6-1.2C9,6.1,8.4,5.9,7.9,6C7.4,6.2,6.9,6.6,6.7,7.1
						c-0.2,0.5-0.2,1,0,1.3C7,9.1,7.8,9.4,8.1,9.9c0.1,0.2,0.2,0.4,0,0.5c-0.2,0.1-0.5,0-0.8-0.2C7,10,6.8,9.8,6.6,9.7
						C6.1,9.5,5.6,9.6,5.2,9.9C5,10,4.8,10.2,4.6,10.5c-0.1,0.1-0.1,0.3-0.2,0.4c0,0.1-0.1,0.2-0.1,0.3c-0.1,0.6,0.2,1.5,0.9,1.6
						c0.5,0,1.1-0.3,0.9-0.8c-0.6,0.4-0.8-0.5,0-0.5c0.3,0,0.5,0.2,0.6,0.6c0.1,0.3,0,1.2,0.2,1.8c0.2,0.4,0.4,0.9,0.8,0.8
						C8,14.5,8,14.1,8.3,14.3C8.1,14.4,8,14.5,8,14.6c0.3,0.5,1.1,1.1,0.3,1.5c-0.2,0.1-0.6,0-0.9,0c-0.4,0.1-0.8,0.6-0.9,1
						c-0.2,0.8,0.8,1.6,1.3,0.9c0-0.1-0.3,0.2-0.3,0c0.2-0.5,0.9-0.5,1-0.2c0.2,0.4-0.2,0.7-0.2,1.1c0,0,0.1,0.2,0.3,0.5h0.6v-7.5
						v-0.9c0-0.2,0-0.3,0-0.4c0.1-0.2,0.2-0.4,0.3-0.6c0.3-0.4,0.8-0.6,1.2-0.6V8.7z"/>
					<path class="st4" d="M11.1,9.3c-0.5,0-0.9,0.2-1.2,0.6c-0.1,0.2-0.3,0.4-0.3,0.6c0,0.1,0,0.2,0,0.4v0.9v7.5H8.5v-7.5v-0.9
						c0-0.2,0-0.4,0.1-0.6c0.1-0.4,0.2-0.7,0.5-1c0.5-0.6,1.2-1,2-1V9.3z"/>
				</g>
			</g>
		</g>
	</g>
</g>
<path class="st3" d="M15.8,35c-3-2.2-4.9-5.3-5.4-8.8c-0.5-3.4,0.6-7.2,2.7-10c2.1-2.8,5-4.6,7.6-5.5c1.3-0.5,2.5-0.6,3.6-0.8
	c1.1,0,2.1-0.1,3,0.1c4.4,0.7,6.1,3.7,6.8,5.8c0.6,2.1,0.3,3.6-0.3,2.3c-1.2-2.7-0.9-0.5-0.7,0.4c0.4,3.5-0.1,5.7-0.7,6.9
	c-0.6,1.3-1.3,1.6-1.7,1.5c-0.8-0.2-1.8-2-1.4-3.9c-0.6,0.3-1,0.1-1.4-0.4c-0.4-0.5-0.7-1.3-0.7-2c-0.1-1.4,0.7-1.6,0-3.4
	c-0.5-1.6-1.3-2.7-2.4-3.4c-1.1-0.6-2.3-0.9-3.6-0.7c-2.6,0.3-5.1,2.1-5.9,2.9c-0.8,0.8-1.2,1.6-1.2,1.8c0,0.3,0.4,0.1,1.3-0.8
	c1.5-1.5,3.2-2.4,4.6-2.7c0.7-0.2,1.4-0.2,1.9-0.2c0.6,0,1.1,0.1,1.6,0.3c1.8,0.7,2.6,2,2.4,2.9c-0.2,1.2-0.6,1.7-1.2,1.9
	c-0.6,0.2-1.3,0.1-1.9-0.1c-1.3-0.2-1.6,0-0.9,0.3c0.7,0.3,1.7,0.8,1.5,2c-0.1,0.4-0.3,0.6-0.5,0.7c-0.3,0.1-0.6,0.1-1.1,0
	c-0.9-0.1-2.3-0.3-3.8,0.1c-1.4,0.5-2.5,1.5-3.2,2.7c-0.8,1.2-1.1,2.6-1,3.8c0,2.5,1.5,4.4,3.2,5.1c-1.5-1.4-2.2-3.1-2.2-4.6
	c-0.1-1.6,0.5-3,1.4-4c0.9-1,1.9-1.5,2.9-1.5c0.9,0,1.7,0.4,2.1,1.1c0.5,0.7,0.8,1.3,0.8,1.8c0,0.2,0,0.4-0.2,0.6
	c-0.1,0.2-0.3,0.3-0.6,0.5c0.6,0.4,1.4,1,1.8,1.4c0.4,0.5,0.3,0.8-0.7,1.5c-1.1,0.7-1.6,2-1.3,3.2c0.3,1.2,1.2,2.3,2.8,2.9l0.1,0.7
	l0,0.3c0,0,0,0.2,0,0.1c-0.3,0.3-0.7,0.1-1,0.1c-0.4,0-0.7-0.1-1.1-0.2c-0.7-0.2-1.4-0.4-2.1-0.6C18.2,36.6,16.9,35.9,15.8,35z"/>
<path class="st3" d="M80.3,37.2c-0.7,0.3-1.4,0.5-2.1,0.6c-0.4,0.1-0.7,0.1-1.1,0.2c-0.4,0-0.7,0.1-1-0.1c0,0.2,0,0,0-0.1l0-0.3
	l0.1-0.7c1.5-0.6,2.5-1.7,2.8-2.9c0.3-1.2-0.2-2.5-1.3-3.2c-1-0.7-1-1-0.7-1.5c0.3-0.5,1.1-1,1.8-1.4c-0.3-0.1-0.5-0.3-0.6-0.5
	c-0.1-0.2-0.2-0.4-0.2-0.6c0-0.5,0.3-1.1,0.8-1.8c0.5-0.7,1.2-1.1,2.1-1.1c0.9,0,2,0.5,2.9,1.5c0.8,1,1.4,2.5,1.4,4
	c0,1.6-0.7,3.2-2.2,4.6c1.7-0.7,3.2-2.6,3.2-5.1c0-1.2-0.3-2.6-1-3.8c-0.7-1.2-1.9-2.2-3.2-2.7c-1.5-0.4-2.9-0.2-3.8-0.1
	c-0.5,0.1-0.9,0.1-1.1,0c-0.3-0.1-0.5-0.3-0.5-0.7c-0.2-1.2,0.8-1.7,1.5-2c0.7-0.3,0.4-0.6-0.9-0.3c-0.7,0.1-1.4,0.3-1.9,0.1
	c-0.6-0.2-1-0.7-1.2-1.9c-0.1-0.9,0.6-2.3,2.4-2.9c0.5-0.2,1-0.3,1.6-0.3c0.6,0,1.2,0,1.9,0.2c1.4,0.3,3,1.2,4.6,2.7
	c0.9,0.9,1.3,1.1,1.3,0.8c0-0.2-0.4-1-1.2-1.8c-0.8-0.9-3.2-2.7-5.9-2.9c-1.3-0.2-2.6,0.1-3.6,0.7c-1.1,0.7-1.9,1.8-2.4,3.4
	c-0.7,1.8,0.1,1.9,0,3.4c0,0.7-0.3,1.5-0.7,2c-0.4,0.5-0.8,0.7-1.4,0.4c0.5,1.9-0.5,3.7-1.4,3.9c-0.4,0.1-1.2-0.2-1.7-1.5
	c-0.6-1.2-1.1-3.4-0.7-6.9c0.2-0.9,0.5-3.1-0.7-0.4c-0.6,1.4-0.9-0.1-0.3-2.3c0.7-2.1,2.4-5.1,6.8-5.8c0.9-0.2,1.9-0.2,3-0.1
	c1.1,0.1,2.3,0.3,3.6,0.8c2.5,0.8,5.4,2.6,7.6,5.5c2.2,2.8,3.3,6.6,2.7,10c-0.5,3.5-2.4,6.6-5.4,8.8C82.9,35.9,81.6,36.6,80.3,37.2z
	"/>
<path class="st3" d="M19.6,102.8c0.7-0.3,1.4-0.5,2.1-0.6c0.4-0.1,0.7-0.1,1.1-0.2c0.4,0,0.7-0.1,1,0.1c0-0.2,0,0,0,0.1l0,0.3
	l-0.1,0.7c-1.5,0.6-2.5,1.7-2.8,2.9c-0.3,1.2,0.2,2.5,1.3,3.2c1,0.7,1,1,0.7,1.5c-0.3,0.5-1.1,1-1.8,1.4c0.3,0.1,0.5,0.3,0.6,0.5
	c0.1,0.2,0.2,0.4,0.2,0.6c0,0.5-0.3,1.1-0.8,1.8c-0.5,0.7-1.2,1.1-2.1,1.1c-0.9,0-2-0.5-2.9-1.5c-0.8-1-1.4-2.5-1.4-4
	c0-1.6,0.7-3.2,2.2-4.6c-1.7,0.7-3.2,2.6-3.2,5.1c0,1.2,0.3,2.6,1,3.8c0.7,1.2,1.9,2.2,3.2,2.7c1.5,0.4,2.9,0.2,3.8,0.1
	c0.5-0.1,0.9-0.1,1.1,0c0.3,0.1,0.5,0.3,0.5,0.7c0.2,1.2-0.8,1.7-1.5,2c-0.7,0.3-0.4,0.6,0.9,0.3c0.7-0.1,1.4-0.3,1.9-0.1
	c0.6,0.2,1,0.7,1.2,1.9c0.1,0.9-0.6,2.3-2.4,2.9c-0.5,0.2-1,0.3-1.6,0.3c-0.6,0-1.2,0-1.9-0.2c-1.4-0.3-3-1.2-4.6-2.7
	c-0.9-0.9-1.3-1.1-1.3-0.8c0,0.2,0.4,1,1.2,1.8c0.8,0.9,3.2,2.7,5.9,2.9c1.3,0.2,2.6-0.1,3.6-0.7c1.1-0.7,1.9-1.8,2.4-3.4
	c0.7-1.8-0.1-1.9,0-3.4c0-0.7,0.3-1.5,0.7-2c0.4-0.5,0.8-0.7,1.4-0.4c-0.5-1.9,0.5-3.7,1.4-3.9c0.4-0.1,1.2,0.2,1.7,1.5
	c0.6,1.2,1.1,3.4,0.7,6.9c-0.2,0.9-0.5,3.1,0.7,0.4c0.6-1.4,0.9,0.1,0.3,2.3c-0.7,2.1-2.4,5.1-6.8,5.8c-0.9,0.2-1.9,0.2-3,0.1
	c-1.1-0.1-2.3-0.3-3.6-0.8c-2.5-0.8-5.4-2.6-7.6-5.5c-2.2-2.8-3.3-6.6-2.7-10c0.5-3.5,2.4-6.6,5.4-8.8
	C16.9,104.1,18.2,103.4,19.6,102.8z"/>
<path class="st3" d="M84.1,105c3,2.2,4.9,5.3,5.4,8.8c0.5,3.4-0.6,7.2-2.7,10c-2.1,2.8-5,4.6-7.6,5.5c-1.3,0.5-2.5,0.6-3.6,0.8
	c-1.1,0-2.1,0.1-3-0.1c-4.4-0.7-6.1-3.7-6.8-5.8c-0.6-2.1-0.3-3.6,0.3-2.3c1.2,2.7,0.9,0.5,0.7-0.4c-0.4-3.5,0.1-5.7,0.7-6.9
	c0.6-1.3,1.3-1.6,1.7-1.5c0.8,0.2,1.8,2,1.4,3.9c0.6-0.3,1-0.1,1.4,0.4c0.4,0.5,0.7,1.3,0.7,2c0.1,1.4-0.7,1.6,0,3.4
	c0.5,1.6,1.3,2.7,2.4,3.4c1.1,0.6,2.3,0.9,3.6,0.7c2.6-0.3,5.1-2.1,5.9-2.9c0.8-0.8,1.2-1.6,1.2-1.8c0-0.3-0.4-0.1-1.3,0.8
	c-1.5,1.5-3.2,2.4-4.6,2.7c-0.7,0.2-1.4,0.2-1.9,0.2c-0.6,0-1.1-0.1-1.6-0.3c-1.8-0.7-2.6-2-2.4-2.9c0.2-1.2,0.6-1.7,1.2-1.9
	c0.6-0.2,1.3-0.1,1.9,0.1c1.3,0.2,1.6,0,0.9-0.3c-0.7-0.3-1.7-0.8-1.5-2c0.1-0.4,0.3-0.6,0.5-0.7c0.3-0.1,0.6-0.1,1.1,0
	c0.9,0.1,2.3,0.3,3.8-0.1c1.4-0.5,2.5-1.5,3.2-2.7c0.8-1.2,1.1-2.6,1-3.8c0-2.5-1.5-4.4-3.2-5.1c1.5,1.4,2.2,3.1,2.2,4.6
	c0.1,1.6-0.5,3-1.4,4c-0.9,1-1.9,1.5-2.9,1.5c-0.9,0-1.7-0.4-2.1-1.1c-0.5-0.7-0.8-1.3-0.8-1.8c0-0.2,0-0.4,0.2-0.6
	c0.1-0.2,0.3-0.3,0.6-0.5c-0.6-0.4-1.4-1-1.8-1.4c-0.4-0.5-0.3-0.8,0.7-1.5c1.1-0.7,1.6-2,1.3-3.2c-0.3-1.2-1.2-2.3-2.8-2.9
	l-0.1-0.7l0-0.3c0,0,0-0.2,0-0.1c0.3-0.3,0.7-0.1,1-0.1c0.4,0,0.7,0.1,1.1,0.2c0.7,0.2,1.4,0.4,2.1,0.6
	C81.6,103.4,82.9,104.1,84.1,105z"/>
</svg>
