<?xml version="1.0" encoding="utf-8"?>
<!-- Generator: Adobe Illustrator 24.0.1, SVG Export Plug-In . SVG Version: 6.00 Build 0)  -->
<svg version="1.1" id="Layer_1" xmlns="http://www.w3.org/2000/svg" xmlns:xlink="http://www.w3.org/1999/xlink" x="0px" y="0px"
	 viewBox="0 0 100 140" style="enable-background:new 0 0 100 140;" xml:space="preserve">
<style type="text/css">
	.st0{fill:#FFFFFF;stroke:#4C4C4C;stroke-miterlimit:10;}
</style>
<path class="st0" d="M88,140H12c-6.6,0-12-5.4-12-12V12C0,5.4,5.4,0,12,0h76c6.6,0,12,5.4,12,12v116C100,134.6,94.6,140,88,140z"/>
<g>
	<path d="M9.1,52.6c3.5,0,5.5-0.5,5.5-4.6c-0.8,1.4-1.8,2-3.2,2c-2,0-3.4-1.4-3.4-3.4s1.3-3.2,3.2-3.2c0.9,0,1.2,0.1,2,0.4
		c-0.8-0.7-1.6-1.5-1.6-3c0-1.9,1.4-3.2,3.6-3.2s3.6,1.3,3.6,3.2c0,1.5-0.8,2.3-1.6,3c0.8-0.3,1.1-0.4,2-0.4c1.9,0,3.2,1.3,3.2,3.2
		c0,2-1.5,3.4-3.4,3.4c-1.4,0-2.4-0.6-3.2-2c0,4.1,2,4.6,5.5,4.6l0.6,1.4H8.5L9.1,52.6z"/>
</g>
<g>
	<path d="M30.7,41.5c4.6,0,7.3-0.7,7.3-6.2c-1.1,1.8-2.4,2.6-4.3,2.6c-2.6,0-4.6-1.8-4.6-4.6c0-2.6,1.8-4.3,4.3-4.3
		c1.2,0,1.6,0.1,2.7,0.6c-1.1-0.9-2.2-2-2.2-4c0-2.6,1.9-4.2,4.8-4.2s4.8,1.7,4.8,4.2c0,2-1.1,3.1-2.2,4c1-0.4,1.5-0.6,2.7-0.6
		c2.5,0,4.3,1.7,4.3,4.3c0,2.7-2,4.6-4.6,4.6c-1.9,0-3.2-0.8-4.3-2.6c0,5.5,2.7,6.2,7.3,6.2l0.8,1.8H29.9L30.7,41.5z"/>
</g>
<g>
	<path d="M53.3,79.1c4.6,0,7.3-0.7,7.3-6.2c-1.1,1.8-2.4,2.6-4.3,2.6c-2.6,0-4.6-1.8-4.6-4.6c0-2.6,1.8-4.3,4.3-4.3
		c1.2,0,1.6,0.1,2.7,0.6c-1.1-0.9-2.2-2-2.2-4c0-2.6,1.9-4.2,4.8-4.2s4.8,1.7,4.8,4.2c0,2-1.1,3.1-2.2,4c1-0.4,1.5-0.6,2.7-0.6
		c2.5,0,4.3,1.7,4.3,4.3c0,2.7-2,4.6-4.6,4.6c-1.9,0-3.2-0.8-4.3-2.6c0,5.5,2.7,6.2,7.3,6.2l0.8,1.8H52.5L53.3,79.1z"/>
</g>
<g>
	<path d="M30.7,79.1c4.6,0,7.3-0.7,7.3-6.2c-1.1,1.8-2.4,2.6-4.3,2.6c-2.6,0-4.6-1.8-4.6-4.6c0-2.6,1.8-4.3,4.3-4.3
		c1.2,0,1.6,0.1,2.7,0.6c-1.1-0.9-2.2-2-2.2-4c0-2.6,1.9-4.2,4.8-4.2s4.8,1.7,4.8,4.2c0,2-1.1,3.1-2.2,4c1-0.4,1.5-0.6,2.7-0.6
		c2.5,0,4.3,1.7,4.3,4.3c0,2.7-2,4.6-4.6,4.6c-1.9,0-3.2-0.8-4.3-2.6c0,5.5,2.7,6.2,7.3,6.2l0.8,1.8H29.9L30.7,79.1z"/>
</g>
<g>
	<path d="M44.2,58.5c3.3,0,5.3-0.5,5.3-4.5c-0.8,1.3-1.8,1.9-3.1,1.9c-1.9,0-3.3-1.3-3.3-3.3c0-1.9,1.3-3.1,3.1-3.1
		c0.9,0,1.2,0.1,1.9,0.4c-0.8-0.6-1.6-1.4-1.6-2.9c0-1.8,1.4-3.1,3.5-3.1s3.5,1.2,3.5,3.1c0,1.4-0.8,2.2-1.6,2.9
		c0.8-0.3,1.1-0.4,1.9-0.4c1.8,0,3.1,1.2,3.1,3.1c0,2-1.4,3.3-3.3,3.3c-1.4,0-2.3-0.6-3.1-1.9c0,4,1.9,4.5,5.3,4.5l0.6,1.3H43.7
		L44.2,58.5z"/>
</g>
<g>
	<path d="M44.2,95.7c3.3,0,5.3-0.5,5.3-4.5c-0.8,1.3-1.8,1.9-3.1,1.9c-1.9,0-3.3-1.3-3.3-3.3c0-1.9,1.3-3.1,3.1-3.1
		c0.9,0,1.2,0.1,1.9,0.4c-0.8-0.6-1.6-1.4-1.6-2.9c0-1.8,1.4-3.1,3.5-3.1s3.5,1.2,3.5,3.1c0,1.4-0.8,2.2-1.6,2.9
		c0.8-0.3,1.1-0.4,1.9-0.4c1.8,0,3.1,1.2,3.1,3.1c0,2-1.4,3.3-3.3,3.3c-1.4,0-2.3-0.6-3.1-1.9c0,4,1.9,4.5,5.3,4.5l0.6,1.3H43.7
		L44.2,95.7z"/>
</g>
<g>
	<path d="M53.3,41.5c4.6,0,7.3-0.7,7.3-6.2c-1.1,1.8-2.4,2.6-4.3,2.6c-2.6,0-4.6-1.8-4.6-4.6c0-2.6,1.8-4.3,4.3-4.3
		c1.2,0,1.6,0.1,2.7,0.6c-1.1-0.9-2.2-2-2.2-4c0-2.6,1.9-4.2,4.8-4.2s4.8,1.7,4.8,4.2c0,2-1.1,3.1-2.2,4c1-0.4,1.5-0.6,2.7-0.6
		c2.5,0,4.3,1.7,4.3,4.3c0,2.7-2,4.6-4.6,4.6c-1.9,0-3.2-0.8-4.3-2.6c0,5.5,2.7,6.2,7.3,6.2l0.8,1.8H52.5L53.3,41.5z"/>
</g>
<g>
	<g>
		<path d="M69.3,98.5c-4.6,0-7.3,0.7-7.3,6.2c1.1-1.8,2.4-2.6,4.3-2.6c2.6,0,4.6,1.8,4.6,4.6c0,2.6-1.8,4.3-4.3,4.3
			c-1.2,0-1.6-0.1-2.7-0.6c1.1,0.9,2.2,2,2.2,4c0,2.6-1.9,4.2-4.8,4.2c-2.9,0-4.8-1.7-4.8-4.2c0-2,1.1-3.1,2.2-4
			c-1,0.4-1.5,0.6-2.7,0.6c-2.5,0-4.3-1.7-4.3-4.3c0-2.7,2-4.6,4.6-4.6c1.9,0,3.2,0.8,4.3,2.6c0-5.5-2.7-6.2-7.3-6.2l-0.8-1.8h17.6
			L69.3,98.5z"/>
	</g>
	<g>
		<path d="M46.7,98.5c-4.6,0-7.3,0.7-7.3,6.2c1.1-1.8,2.4-2.6,4.3-2.6c2.6,0,4.6,1.8,4.6,4.6c0,2.6-1.8,4.3-4.3,4.3
			c-1.2,0-1.6-0.1-2.7-0.6c1.1,0.9,2.2,2,2.2,4c0,2.6-1.9,4.2-4.8,4.2s-4.8-1.7-4.8-4.2c0-2,1.1-3.1,2.2-4c-1,0.4-1.5,0.6-2.7,0.6
			c-2.5,0-4.3-1.7-4.3-4.3c0-2.7,2-4.6,4.6-4.6c1.9,0,3.2,0.8,4.3,2.6c0-5.5-2.7-6.2-7.3-6.2l-0.8-1.8h17.6L46.7,98.5z"/>
	</g>
</g>
<g>
	<path d="M90.9,87.4c-3.5,0-5.5,0.5-5.5,4.6c0.8-1.4,1.8-2,3.2-2c2,0,3.4,1.4,3.4,3.4s-1.3,3.2-3.2,3.2c-0.9,0-1.2-0.1-2-0.4
		c0.8,0.7,1.6,1.5,1.6,3c0,1.9-1.4,3.2-3.6,3.2s-3.6-1.3-3.6-3.2c0-1.5,0.8-2.3,1.6-3c-0.8,0.3-1.1,0.4-2,0.4
		c-1.9,0-3.2-1.3-3.2-3.2c0-2,1.5-3.4,3.4-3.4c1.4,0,2.4,0.6,3.2,2c0-4.1-2-4.6-5.5-4.6L78.1,86h13.2L90.9,87.4z"/>
</g>
<g>
	<path d="M21.5,17.9c3.2,3.2,3.2,8.4,0,11.6s-8.4,3.2-11.6,0s-3.2-8.4,0-11.6C7.3,15.3,6.7,11.2,8.6,8s5.6-4.8,9.2-3.8
		s6.1,4.2,6.1,7.9C23.9,14.3,23,16.4,21.5,17.9z M15.7,20.3c-1.9,0-3.4,1.5-3.4,3.4s1.5,3.4,3.4,3.4s3.4-1.5,3.4-3.4
		C19.1,21.8,17.6,20.3,15.7,20.3z M15.7,15.5c1.9,0,3.4-1.5,3.4-3.4s-1.5-3.4-3.4-3.4s-3.4,1.5-3.4,3.4C12.3,14,13.8,15.5,15.7,15.5
		z"/>
</g>
<g>
	<path d="M79.1,121.7c-3.2-3.2-3.2-8.4,0-11.6s8.4-3.2,11.6,0s3.2,8.4,0,11.6c2.6,2.6,3.1,6.7,1.3,9.9c-1.9,3.2-5.6,4.8-9.2,3.8
		s-6.1-4.2-6.1-7.9C76.7,125.3,77.6,123.2,79.1,121.7z M84.9,119.3c1.9,0,3.4-1.5,3.4-3.4s-1.5-3.4-3.4-3.4s-3.4,1.5-3.4,3.4
		C81.6,117.7,83.1,119.3,84.9,119.3z M84.9,124.1c-1.9,0-3.4,1.5-3.4,3.4c0,1.9,1.5,3.4,3.4,3.4s3.4-1.5,3.4-3.4
		C88.3,125.6,86.8,124.1,84.9,124.1z"/>
</g>
</svg>
