<?xml version="1.0" encoding="utf-8"?>
<!-- Generator: Adobe Illustrator 24.0.2, SVG Export Plug-In . SVG Version: 6.00 Build 0)  -->
<svg version="1.1" id="Layer_1" xmlns="http://www.w3.org/2000/svg" xmlns:xlink="http://www.w3.org/1999/xlink" x="0px" y="0px"
	 viewBox="0 0 100 140" style="enable-background:new 0 0 100 140;" xml:space="preserve">
<style type="text/css">
	.st0{fill:#FFFFFF;}
</style>
<path class="st0" d="M88,140H12c-6.6,0-12-5.4-12-12V12C0,5.4,5.4,0,12,0h76c6.6,0,12,5.4,12,12v116C100,134.6,94.6,140,88,140z"/>
<g>
	<path d="M20.9,18.3c2.6,2.6,3.1,6.7,1.3,9.9C20.3,31.4,16.6,33,13,32c-3.6-1-6.1-4.2-6.1-7.9h4.8c0,1.4,0.8,2.6,2.1,3.1
		s2.7,0.2,3.7-0.7c1-1,1.3-2.4,0.7-3.7c-0.5-1.3-1.7-2.1-3.1-2.1h-1.8v-4.8h1.8c1.4,0,2.6-0.8,3.1-2.1s0.2-2.7-0.7-3.7
		c-1-1-2.4-1.3-3.7-0.7c-1.3,0.5-2.1,1.7-2.1,3.1H6.9c0-4.5,3.7-8.2,8.2-8.2s8.2,3.7,8.2,8.2C23.3,14.7,22.4,16.8,20.9,18.3z"/>
</g>
<g>
	<path d="M79.1,121.7c-2.6-2.6-3.1-6.7-1.3-9.9c1.9-3.2,5.6-4.8,9.2-3.8s6.1,4.2,6.1,7.9h-4.8c0-1.4-0.8-2.6-2.1-3.1
		c-1.3-0.5-2.7-0.2-3.7,0.7c-1,1-1.3,2.4-0.7,3.7c0.5,1.3,1.7,2.1,3.1,2.1h1.8v4.8h-1.8c-1.4,0-2.6,0.8-3.1,2.1
		c-0.5,1.3-0.2,2.7,0.7,3.7c1,1,2.4,1.3,3.7,0.7c1.3-0.5,2.1-1.7,2.1-3.1h4.8c0,4.5-3.7,8.2-8.2,8.2s-8.2-3.7-8.2-8.2
		C76.7,125.3,77.6,123.2,79.1,121.7z"/>
</g>
<g>
	<path d="M42,41.3c4.6,0,7.3-0.7,7.3-6.2c-1.1,1.8-2.6,2.6-4.6,2.6c-2.4,0-3.9-1.5-3.9-3.9c0-3.7,3.5-7,9.2-12.2
		c5.7,5.2,9.2,8.5,9.2,12.2c0,2.4-1.5,3.9-3.9,3.9c-2,0-3.4-0.7-4.6-2.6c0,5.5,2.7,6.2,7.3,6.2l0.8,1.8H41.2L42,41.3z"/>
</g>
<g>
	<path d="M42,79c4.6,0,7.3-0.7,7.3-6.2c-1.1,1.8-2.6,2.6-4.6,2.6c-2.4,0-3.9-1.5-3.9-3.9c0-3.7,3.5-7,9.2-12.2
		c5.7,5.2,9.2,8.5,9.2,12.2c0,2.4-1.5,3.9-3.9,3.9c-2,0-3.4-0.7-4.6-2.6c0,5.5,2.7,6.2,7.3,6.2l0.8,1.8H41.2L42,79z"/>
</g>
<g>
	<path d="M58,98.7c-4.6,0-7.3,0.7-7.3,6.2c1.1-1.8,2.6-2.6,4.6-2.6c2.4,0,3.9,1.5,3.9,3.9c0,3.7-3.5,7-9.2,12.2
		c-5.7-5.2-9.2-8.5-9.2-12.2c0-2.4,1.5-3.9,3.9-3.9c2,0,3.4,0.7,4.6,2.6c0-5.5-2.7-6.2-7.3-6.2l-0.8-1.8h17.6L58,98.7z"/>
</g>
<g>
	<path d="M9.2,52.5c3.5,0,5.5-0.5,5.5-4.6c-0.8,1.4-1.9,1.9-3.4,1.9c-1.8,0-2.9-1.1-2.9-2.9c0-2.8,2.6-5.2,6.9-9.1
		c4.3,3.9,6.9,6.4,6.9,9.1c0,1.8-1.1,2.9-2.9,2.9c-1.5,0-2.6-0.5-3.4-1.9c0,4.1,2,4.6,5.5,4.6l0.6,1.4H8.6L9.2,52.5z"/>
</g>
<g>
	<path d="M90.8,87.5c-3.5,0-5.5,0.5-5.5,4.6c0.8-1.4,1.9-1.9,3.4-1.9c1.8,0,2.9,1.1,2.9,2.9c0,2.8-2.6,5.2-6.9,9.1
		c-4.3-3.9-6.9-6.4-6.9-9.1c0-1.8,1.1-2.9,2.9-2.9c1.5,0,2.6,0.5,3.4,1.9c0-4.1-2-4.6-5.5-4.6l-0.6-1.4h13.2L90.8,87.5z"/>
</g>
</svg>
