<?xml version="1.0" encoding="utf-8"?>
<!-- Generator: Adobe Illustrator 24.0.1, SVG Export Plug-In . SVG Version: 6.00 Build 0)  -->
<svg version="1.1" id="Layer_1" xmlns="http://www.w3.org/2000/svg" xmlns:xlink="http://www.w3.org/1999/xlink" x="0px" y="0px"
	 viewBox="0 0 100 140" style="enable-background:new 0 0 100 140;" xml:space="preserve">
<style type="text/css">
	.st0{fill:#FFFFFF;stroke:#FF8896;stroke-miterlimit:10;}
	.st1{fill:#FF0000;}
</style>
<path class="st0" d="M88,140H12c-6.6,0-12-5.4-12-12V12C0,5.4,5.4,0,12,0h76c6.6,0,12,5.4,12,12v116C100,134.6,94.6,140,88,140z"/>
<g>
	<path class="st1" d="M10.5,9.7v23.2H5.7V9.8H3.4V4.9h2.4C8.4,4.9,10.5,7.1,10.5,9.7z"/>
	<path class="st1" d="M30,13.1v11.7c0,4.5-3.6,8.1-8.1,8.1s-8.1-3.6-8.1-8.1V13.1c0-4.5,3.6-8.1,8.1-8.1C26.4,4.9,30,8.6,30,13.1z
		 M25.2,13.1c0-1.2-0.6-2.3-1.6-2.9c-1-0.6-2.3-0.6-3.3,0s-1.7,1.7-1.6,2.9v11.7c0,1.8,1.5,3.3,3.3,3.3s3.3-1.5,3.3-3.3L25.2,13.1
		L25.2,13.1z"/>
</g>
<g>
	<path class="st1" d="M89.4,130.9v-23.2h4.8v23.1h2.3v4.8h-2.4C91.5,135.7,89.4,133.5,89.4,130.9z"/>
	<path class="st1" d="M69.9,127.5v-11.7c0-4.5,3.6-8.1,8.1-8.1s8.1,3.6,8.1,8.1v11.7c0,4.5-3.6,8.1-8.1,8.1
		C73.5,135.7,69.9,132,69.9,127.5z M74.7,127.5c0,1.2,0.6,2.3,1.6,2.9c1,0.6,2.3,0.6,3.3,0s1.7-1.7,1.6-2.9v-11.7
		c0-1.8-1.5-3.3-3.3-3.3s-3.3,1.5-3.3,3.3v11.7C74.6,127.5,74.7,127.5,74.7,127.5z"/>
</g>
<g>
	<path class="st1" d="M77,97.6c0-3.5,3-6.1,7.8-10.5c4.8,4.4,7.8,7,7.8,10.5c0,2.3-1.6,3.7-3.8,3.7c-2.1,0-3.1-1.1-4-2.8
		c-0.9,1.7-1.9,2.8-4,2.8C78.6,101.3,77,99.9,77,97.6z"/>
</g>
<g>
	<path class="st1" d="M71.7,27.8c0,4.7-4,8.2-10.4,14c-6.4-5.8-10.4-9.3-10.4-14c0-3.1,2.1-5,5-5c2.8,0,4.2,1.4,5.4,3.7
		c1.2-2.2,2.6-3.7,5.4-3.7C69.6,22.8,71.7,24.7,71.7,27.8z"/>
</g>
<g>
	<path class="st1" d="M49.1,27.8c0,4.7-4,8.2-10.4,14c-6.4-5.8-10.4-9.3-10.4-14c0-3.1,2.1-5,5-5c2.8,0,4.2,1.4,5.4,3.7
		c1.2-2.2,2.6-3.7,5.4-3.7C47,22.8,49.1,24.7,49.1,27.8z"/>
</g>
<g>
	<path class="st1" d="M58.8,46c0,4-3.4,7-8.8,11.9c-5.4-5-8.8-7.9-8.8-11.9c0-2.6,1.8-4.2,4.3-4.2c2.3,0,3.5,1.2,4.5,3.1
		c1-1.9,2.2-3.1,4.5-3.1C57,41.8,58.8,43.4,58.8,46z"/>
</g>
<g>
	<path class="st1" d="M58.8,11.6c0,4-3.4,7-8.8,11.9c-5.4-5-8.8-7.9-8.8-11.9c0-2.6,1.8-4.2,4.3-4.2c2.3,0,3.5,1.2,4.5,3.1
		c1-1.9,2.2-3.1,4.5-3.1C57,7.4,58.8,9,58.8,11.6z"/>
</g>
<g>
	<path class="st1" d="M58.8,86.3c0,4-3.4,7-8.8,11.9c-5.4-5-8.8-7.9-8.8-11.9c0-2.6,1.8-4.2,4.3-4.2c2.3,0,3.5,1.2,4.5,3.1
		c1-1.9,2.2-3.1,4.5-3.1C57,82.1,58.8,83.7,58.8,86.3z"/>
</g>
<g>
	<path class="st1" d="M41.2,129.1c0-4,3.4-7,8.8-11.9c5.4,5,8.8,7.9,8.8,11.9c0,2.6-1.8,4.2-4.3,4.2c-2.3,0-3.5-1.2-4.5-3.1
		c-1,1.9-2.2,3.1-4.5,3.1C43,133.3,41.2,131.7,41.2,129.1z"/>
</g>
<g>
	<path class="st1" d="M71.7,65.5c0,4.7-4,8.2-10.4,14c-6.4-5.8-10.4-9.3-10.4-14c0-3.1,2.1-5,5-5c2.8,0,4.2,1.4,5.4,3.7
		c1.2-2.2,2.6-3.7,5.4-3.7C69.6,60.5,71.7,62.4,71.7,65.5z"/>
</g>
<g>
	<path class="st1" d="M49.1,65.5c0,4.7-4,8.2-10.4,14c-6.4-5.8-10.4-9.3-10.4-14c0-3.1,2.1-5,5-5c2.8,0,4.2,1.4,5.4,3.7
		c1.2-2.2,2.6-3.7,5.4-3.7C47,60.5,49.1,62.4,49.1,65.5z"/>
</g>
<g>
	<path class="st1" d="M28.3,112.2c0-4.7,4-8.2,10.4-14c6.4,5.8,10.4,9.3,10.4,14c0,3.1-2.1,5-5,5c-2.8,0-4.2-1.4-5.4-3.7
		c-1.2,2.2-2.6,3.7-5.4,3.7C30.4,117.2,28.3,115.3,28.3,112.2z"/>
</g>
<g>
	<path class="st1" d="M50.9,112.2c0-4.7,4-8.2,10.4-14c6.4,5.8,10.4,9.3,10.4,14c0,3.1-2.1,5-5,5c-2.8,0-4.2-1.4-5.4-3.7
		c-1.2,2.2-2.6,3.7-5.4,3.7C53,117.2,50.9,115.3,50.9,112.2z"/>
</g>
<g>
	<path class="st1" d="M23,42.4c0,3.5-3,6.1-7.8,10.5c-4.8-4.4-7.8-7-7.8-10.5c0-2.3,1.6-3.7,3.8-3.7c2.1,0,3.1,1.1,4,2.8
		c0.9-1.7,1.9-2.8,4-2.8C21.4,38.7,23,40.1,23,42.4z"/>
</g>
</svg>
