<?xml version="1.0" encoding="utf-8"?>
<!-- Generator: Adobe Illustrator 24.0.1, SVG Export Plug-In . SVG Version: 6.00 Build 0)  -->
<svg version="1.1" id="Layer_1" xmlns="http://www.w3.org/2000/svg" xmlns:xlink="http://www.w3.org/1999/xlink" x="0px" y="0px"
	 viewBox="0 0 100 140" style="enable-background:new 0 0 100 140;" xml:space="preserve">
<style type="text/css">
	.st0{fill:#FFFFFF;stroke:#4C4C4C;stroke-miterlimit:10;}
	.st1{fill:none;stroke:#000000;stroke-miterlimit:10;}
	.st2{fill:#8E1A4A;}
	.st3{fill:#231F20;}
	.st4{fill:#404041;}
	.st5{fill:#6EA771;}
	.st6{fill:none;}
	.st7{fill:#929497;}
	.st8{fill:#808184;}
	.st9{fill:#FFFFFF;stroke:#FFFFFF;stroke-width:0.2896;stroke-miterlimit:10;}
	.st10{fill:#CD946A;}
	.st11{fill:#3A211A;}
	.st12{fill:#E6E7E8;}
	.st13{fill:#EACEB2;}
	.st14{fill:#603813;}
	.st15{fill:#A6A8AB;}
	.st16{fill:#00ADEE;}
	.st17{fill:#6D6E70;}
	.st18{fill:#BE1E2D;}
</style>
<path class="st0" d="M88,140H12c-6.6,0-12-5.4-12-12V12C0,5.4,5.4,0,12,0h76c6.6,0,12,5.4,12,12v116C100,134.6,94.6,140,88,140z"/>
<rect x="26" y="30.6" class="st1" width="48" height="78.8"/>
<g>
	<path d="M25.2,27.1v4.8h-2.4c-1.3,0-2.6-0.5-3.6-1.3c-2.9,1.7-6.4,1.7-9.3,0.1C7,29,5.2,26,5.2,22.6v-9.4C5.2,8.1,9.4,4,14.5,4
		s9.3,4.2,9.3,9.3v9.4c0,1.6-0.4,3.1-1.1,4.4h0.1H25.2z M15.5,27l-3.3-3.3l3.4-3.4l3.2,3.2c0.1-0.3,0.1-0.6,0.1-0.8v-9.4
		c0-2.5-2-4.5-4.5-4.5s-4.5,2-4.5,4.5v9.4c0,2.5,2,4.5,4.5,4.5C14.8,27.1,15.2,27,15.5,27z"/>
</g>
<g>
	<path d="M75,112.5v-4.8h2.4c1.3,0,2.6,0.5,3.6,1.3c2.9-1.7,6.4-1.7,9.3-0.1c2.9,1.7,4.7,4.7,4.7,8.1v9.4c0,5.1-4.2,9.3-9.3,9.3
		c-5.1,0-9.3-4.2-9.3-9.3V117c0-1.6,0.4-3.1,1.1-4.4h-0.1L75,112.5z M84.7,112.6l3.3,3.3l-3.4,3.4l-3.2-3.2
		c-0.1,0.3-0.1,0.6-0.1,0.8v9.4c0,2.5,2,4.5,4.5,4.5s4.5-2,4.5-4.5V117c0-2.5-2-4.5-4.5-4.5C85.4,112.5,85,112.6,84.7,112.6z"/>
</g>
<g>
	<path d="M9.2,52.5c3.5,0,5.5-0.5,5.5-4.6c-0.8,1.4-1.9,1.9-3.4,1.9c-1.8,0-2.9-1.1-2.9-2.9c0-2.8,2.6-5.2,6.9-9.1
		c4.3,3.9,6.9,6.4,6.9,9.1c0,1.8-1.1,2.9-2.9,2.9c-1.5,0-2.6-0.5-3.4-1.9c0,4.1,2,4.6,5.5,4.6l0.6,1.4H8.6L9.2,52.5z"/>
</g>
<g>
	<path d="M90.8,87.5c-3.5,0-5.5,0.5-5.5,4.6c0.8-1.4,1.9-1.9,3.4-1.9c1.8,0,2.9,1.1,2.9,2.9c0,2.8-2.6,5.2-6.9,9.1
		c-4.3-3.9-6.9-6.4-6.9-9.1c0-1.8,1.1-2.9,2.9-2.9c1.5,0,2.6,0.5,3.4,1.9c0-4.1-2-4.6-5.5-4.6L78,86.1h13.2L90.8,87.5z"/>
</g>
<g>
	<g>
		<path class="st2" d="M57.8,42.2c1.3,1.1,1.7,2.6,1.4,4.2c-0.1,0.5-0.2,1-0.6,1.4c-0.5,0.6-1.4,0.8-2.2,0.7
			c-1.4-0.1-2.9-0.9-3.4-2.3c-0.2-0.5-0.2-1-0.6-1.4c-0.4-0.3-1.2-0.2-1.1,0.3c0.1,0.5,0.8,0.8,0.5,1.2c-0.6,0-1.1-0.5-1.3-1.1
			s-0.1-1.2-0.2-1.8c-0.1-0.6-0.2-0.9-0.8-1"/>
		<g>
			<path class="st3" d="M57.4,42.5c1.2,1,1.6,2.5,1.2,4c-0.2,0.8-0.8,1.3-1.6,1.4c-0.7,0.1-1.5-0.1-2.1-0.4
				c-0.6-0.3-1.1-0.9-1.4-1.5c-0.2-0.7-0.3-1.5-1.1-1.7c-0.5-0.2-1.3,0-1.5,0.5c-0.1,0.3-0.1,0.6,0.1,0.9c0.1,0.1,0.2,0.3,0.3,0.4
				c0,0.1,0.1,0.1,0.1,0.2c0.1,0.1,0.1,0.1,0.1-0.1c0.2-0.1,0.3-0.2,0.5-0.3c-1,0-0.8-1.8-0.9-2.4c-0.1-0.8-0.4-1.3-1.2-1.6
				c-0.7-0.2-1,0.8-0.3,1c0.4,0.1,0.4,0.3,0.5,0.7c0.1,0.5,0,1.1,0.1,1.6c0.2,0.9,0.9,1.7,1.8,1.7c0.2,0,0.4-0.1,0.5-0.3
				c0.3-0.5,0-0.9-0.3-1.3l-0.1-0.1c-0.1-0.1,0-0.1-0.1,0c-0.2,0.1,0.1,0.1,0.1,0.1c0.2,0.1,0.3,0.4,0.3,0.6c0.3,1.2,1,2.2,2.2,2.7
				c1.1,0.5,2.5,0.7,3.6,0.2c1.3-0.6,1.6-2,1.6-3.3c0-1.4-0.5-2.7-1.6-3.7C57.6,41.3,56.9,42.1,57.4,42.5L57.4,42.5z"/>
		</g>
	</g>
	<g>
		<path class="st4" d="M50.4,38.7c0.5-0.1,1.4-0.4,1.9-0.1c0.2,0.1,0.4,0.3,0.6,0.4c0.5,0.3,1.2,0.2,1.7,0c0.3-0.1,0.7-0.2,1-0.2
			s0.7,0.4,0.6,0.7c-0.2,0-0.5-0.1-0.7,0c-0.1,0.1-0.2,0.1-0.3,0.2c-0.4,0.3-1,0.6-1.5,0.4"/>
		<g>
			<path class="st3" d="M50.5,39.2c0.4-0.1,0.8-0.2,1.2-0.2c0.5,0,0.8,0.4,1.3,0.5c0.5,0.2,1.1,0.1,1.7,0c0.3-0.1,0.5-0.2,0.8-0.2
				c0.1,0,0.2,0,0.2,0c0.1,0,0,0.1,0.1,0c0.2-0.1,0.4-0.3,0.7-0.4c-0.3,0-0.6-0.1-0.8,0c-0.2,0-0.4,0.2-0.6,0.3
				c-0.3,0.2-0.7,0.5-1.1,0.4c-0.7-0.2-1,0.9-0.3,1c0.5,0.1,1,0,1.4-0.2c0.2-0.1,0.4-0.2,0.5-0.3c0.2-0.1,0.3-0.2,0.6-0.1
				c0.3,0,0.6-0.1,0.7-0.4c0.1-0.7-0.4-1.3-1.1-1.4c-0.7-0.1-1.3,0.4-2.1,0.4c-0.3,0-0.6-0.2-0.8-0.3C52.6,38.1,52.4,38,52,38
				c-0.6,0-1.1,0.2-1.7,0.3c-0.3,0.1-0.5,0.4-0.4,0.7C50,39.2,50.2,39.3,50.5,39.2L50.5,39.2z"/>
		</g>
	</g>
	<g>
		<path class="st2" d="M53.2,29.1c2.1-1.4,3.1-4.2,2.3-6.5c-0.3-1-1.1-2-2.1-2c0,0.4,0.1,0.9,0.1,1.3c-0.4,0.3-1,0.1-1.4-0.2
			c-0.4-0.3-0.7-0.8-1.1-1s-1.1-0.2-1.3,0.3c0,0.1,0,0.3-0.1,0.4c-0.2,0.6-1,0.5-1.6,0.3c-0.5-0.1-1.1-0.3-1.6-0.4
			c-0.4-0.1-0.9-0.1-1.3,0.1c-0.4,0.2-0.5,0.8-0.2,1.1c0.2,0.2,0.7,0.3,0.5,0.6c0,0.1-0.1,0.1-0.2,0.1c-1.7,0.6-5,1.2-6.7,1.2
			c-0.4,0-0.9,0-1.2,0.3s-0.4,0.8-0.1,1.1c0.2,0.2,0.5,0.2,0.8,0.3c0.3,0.1,0.5,0.3,0.4,0.6c-1,0.1-1.9,0.3-2.8,0.8
			c-0.3,0.2-0.6,0.4-0.8,0.8c-0.1,0.3,0,0.8,0.4,0.9c0.3,0.1,0.6-0.1,0.9,0c0.3,0.1,0.3,0.6,0.5,1c0.5,0.9,2.1,0,2.8,0.7"/>
		<g>
			<path class="st3" d="M53.5,29.6c1.7-1.2,2.8-3.1,2.9-5.2c0.1-1.9-0.8-4.2-2.9-4.4c-0.3,0-0.6,0.3-0.5,0.5c0,0.4,0.1,0.9,0.1,1.3
				c0.1-0.2,0.2-0.3,0.3-0.5c-0.7,0.4-1.5-0.9-2-1.2c-0.3-0.2-0.7-0.3-1.1-0.2c-0.5,0.1-0.7,0.3-1,0.7c-0.2,0.3,0.1,0.5-0.5,0.6
				C48.5,21.3,48,21,47.7,21c-0.9-0.2-2.4-0.7-3.1,0.2c-0.2,0.3-0.4,0.7-0.3,1.1c0.1,0.5,0.5,0.6,0.9,1c0-0.2-0.1-0.4-0.1-0.5
				c0,0.2-2.7,0.6-3,0.7c-1.1,0.2-2.2,0.3-3.3,0.4c-0.8,0-1.8,0.2-2.1,1.1c-0.1,0.4,0,0.8,0.2,1.1c0.1,0.2,1.1,0.6,1.1,0.6
				c0.2-0.2,0.4-0.4,0.5-0.5c-1.2,0.1-2.6,0.4-3.5,1.2c-0.6,0.5-0.9,1.5-0.2,2.1c0.3,0.3,0.7,0.1,1,0.2c0.4,0.1,0.4,0.7,0.7,1
				c0.8,0.8,2,0,2.8,0.6c0.6,0.4,1.1-0.5,0.5-0.9c-0.5-0.4-1-0.4-1.6-0.4c-0.2,0-0.6,0.1-0.8,0c-0.3-0.2-0.3-0.7-0.5-1
				c-0.4-0.5-0.7-0.2-1.1-0.4c-0.8-0.5,2.4-1.3,2.7-1.4c0.3,0,0.6-0.2,0.5-0.5c0-0.4-0.1-0.6-0.4-0.9c-0.1-0.1-0.5-0.2-0.6-0.3
				c-0.4-0.4,0.1-0.6,0.5-0.6c0.9,0,1.9-0.1,2.8-0.2c1.1-0.2,2.1-0.4,3.2-0.7c0.5-0.1,1.6-0.3,1.5-1.1c0-0.3-0.3-0.4-0.4-0.6
				c-0.3-0.1-0.3-0.3,0.1-0.5c0.2,0,0.3,0,0.5,0c0.3,0,0.7,0.1,1,0.2c0.8,0.2,1.7,0.5,2.4,0.1c0.3-0.2,0.3-0.4,0.5-0.6
				c0.6-0.7,1,0,1.5,0.5c0.6,0.6,1.4,0.8,2.2,0.4c0.2-0.1,0.3-0.3,0.3-0.5c0-0.4-0.1-0.9-0.1-1.3c-0.2,0.2-0.4,0.4-0.5,0.5
				c1.7,0.2,2,2.7,1.8,4c-0.2,1.5-1,2.8-2.3,3.6C52.3,29,52.9,30,53.5,29.6L53.5,29.6z"/>
		</g>
	</g>
	<g>
		<path class="st5" d="M51.7,55.9l-2.2-14.3c7,4.6,9.3-0.9,9.3-0.9s-6.2,0.2-9.6-2.9L48,38.7c0.4-0.3,0.8-0.6,1.2-0.9
			c5.3-3.6,10.6-1,10.6-1c-10.5-16.5-20.6-8.3-22.5-2.1c-1.4,4.6,0.9,18.9,1.8,22C39.1,56.7,50,52.8,51.7,55.9z"/>
		<g>
			<path class="st3" d="M52.3,55.8c-0.7-4.8-1.5-9.5-2.2-14.3c-0.3,0.2-0.5,0.4-0.8,0.6c2.2,1.4,5.2,2.7,7.7,1.3
				c1-0.6,1.9-1.5,2.3-2.6c0.1-0.3-0.2-0.7-0.5-0.7c-3.1,0.1-6.8-0.6-9.2-2.7c-0.2-0.1-0.5-0.2-0.7-0.1c-0.4,0.3-0.8,0.6-1.2,0.9
				c0.2,0.3,0.4,0.6,0.7,0.9c3-2.5,7.4-3.5,11.1-1.8c0.5,0.2,1.1-0.2,0.7-0.7c-2.5-3.9-5.8-8.1-10.4-9.5c-2.9-0.9-6-0.3-8.5,1.4
				c-2.1,1.5-3.8,3.8-4.5,6.2c-1,3.4-0.4,7.4,0,10.8c0.4,3.8,0.8,7.7,1.8,11.4c0.1,0.3,0.4,0.5,0.7,0.4c1.7-0.6,3.4-1.1,5.1-1.4
				c1.3-0.3,2.7-0.5,4.1-0.5c0.9,0,2.3,0,2.8,0.9C51.7,56.9,52.6,56.4,52.3,55.8c-1.4-2.2-5.1-1.5-7.1-1.1c-2.1,0.4-4.2,1-6.2,1.7
				c0.2,0.1,0.4,0.3,0.7,0.4c-0.8-2.9-1.2-5.9-1.5-8.9c-0.4-3.6-0.9-7.3-0.6-10.9c0.4-5.3,5.1-10,10.4-9.3c5.1,0.7,8.8,5.4,11.3,9.4
				c0.2-0.2,0.5-0.5,0.7-0.7c-4.1-1.9-9-0.8-12.4,2c-0.5,0.4,0.2,1.2,0.7,0.9c0.4-0.3,0.8-0.6,1.2-0.9c-0.2,0-0.4-0.1-0.7-0.1
				c2.6,2.3,6.5,3.1,10,3c-0.2-0.2-0.3-0.5-0.5-0.7c0.1-0.3,0,0.1-0.1,0.1c-0.1,0.1-0.2,0.3-0.3,0.4c-0.4,0.5-0.8,0.9-1.3,1.3
				c-2.2,1.3-4.8,0-6.8-1.2c-0.4-0.3-0.9,0.2-0.8,0.6c0.7,4.8,1.5,9.5,2.2,14.3C51.3,56.7,52.4,56.4,52.3,55.8z"/>
		</g>
	</g>
	<g>
		<g>
			<path class="st3" d="M38.2,42.7c0.7,0.7,1.6,0.8,2.5,0.6c1-0.2,2-1,3-0.9c0.9,0.1,1.6,0.7,2.5,0.9c0.9,0.1,1.8-0.2,2.3-1
				c0.4-0.6-0.6-1.1-0.9-0.5c-0.5,0.7-1.3,0.6-2,0.3s-1.3-0.6-2.1-0.7c-0.8,0-1.6,0.4-2.3,0.7S39.6,42.7,39,42
				C38.5,41.4,37.7,42.2,38.2,42.7L38.2,42.7z"/>
		</g>
	</g>
	<g>
		<g>
			<path class="st3" d="M39.6,47.3c0.7-0.7,1.6-0.6,2.5-0.2c0.9,0.4,1.7,0.3,2.3-0.5c0.2-0.3,0.5-0.6,0.9-0.5s0.7,0.5,1.1,0.7
				c0.8,0.3,1.7,0.1,2.4-0.4c0.5-0.4-0.2-1.2-0.8-0.8c-0.3,0.2-0.7,0.3-1.1,0.2c-0.5-0.1-0.7-0.5-1.2-0.7c-0.9-0.3-1.7,0.1-2.2,0.7
				c-0.3,0.4-0.6,0.4-1,0.3c-0.4-0.2-0.8-0.4-1.3-0.4c-0.9-0.1-1.8,0.2-2.4,0.8C38.3,47,39,47.7,39.6,47.3L39.6,47.3z"/>
		</g>
	</g>
	<g>
		<g>
			<path class="st3" d="M39.5,49.8c-0.2,0.5-0.3,1,0,1.5s0.9,0.5,1.4,0.4c0.6-0.1,1-0.5,1.5-0.8c0.2-0.2,0.5-0.3,0.8-0.4
				c0.3,0,0.5,0.1,0.7,0.2c0.4,0.3,0.9,0.5,1.4,0.4c0.5-0.2,0.9-0.6,1.3-0.9c0.4-0.3,0.9,0.1,1.4,0.1s1-0.3,1.1-0.8
				c0.2-0.7-0.9-1-1-0.3c0,0.1-0.7-0.1-0.8-0.2c-0.4-0.1-0.8,0-1.1,0.2s-0.6,0.5-0.9,0.7c-0.4,0.3-0.6,0.1-0.9-0.2
				c-0.7-0.5-1.5-0.4-2.2,0c-0.4,0.2-0.7,0.5-1.1,0.7c-0.3,0.1-0.8,0.3-0.6-0.2C40.7,49.7,39.8,49.2,39.5,49.8L39.5,49.8z"/>
		</g>
	</g>
	<g>
		<g>
			<path class="st3" d="M39.4,53.7c0.8,0.9,2.2,0.9,3,0c0.2-0.2,0.3-0.7,0.6-0.6c0.2,0.1,0.5,0.4,0.7,0.6c0.5,0.4,1.1,0.7,1.8,0.8
				c0.5,0.1,1.1,0.2,1.7,0c0.2-0.1,0.4-0.2,0.6-0.3c0.1-0.1,0.2-0.2,0.3-0.3s0.2-0.2,0.1-0.2c0.1,0,0.5,0.3,0.6,0.4
				c0.2,0.1,0.5,0.2,0.8,0.2c0.6,0,1.1-0.2,1.5-0.6c0.5-0.5-0.3-1.3-0.8-0.8c-0.3,0.3-0.8,0.4-1.2,0.1c-0.4-0.3-0.7-0.5-1.2-0.3
				c-0.4,0.2-0.6,0.7-1,0.9c-0.5,0.2-1.1,0-1.5-0.2c-0.5-0.2-1-0.5-1.4-0.9c-0.3-0.3-0.7-0.6-1.2-0.5s-0.7,0.6-1,1
				c-0.4,0.5-1.1,0.5-1.5,0C39.7,52.4,38.9,53.2,39.4,53.7L39.4,53.7z"/>
		</g>
	</g>
	<g>
		<ellipse transform="matrix(0.9573 -0.2892 0.2892 0.9573 -7.4002 15.3351)" class="st3" cx="48.2" cy="32.7" rx="3" ry="3.5"/>
		<g>
			<path class="st3" d="M50.9,31.9c0.3,1.2,0.1,2.6-0.9,3.5c-1,0.8-2.4,0.7-3.3-0.1c-1-0.8-1.5-2.2-1.3-3.5c0.2-1.2,1.1-2.3,2.4-2.3
				C49.3,29.4,50.5,30.6,50.9,31.9c0.1,0.2,0.4,0.1,0.3-0.1c-0.4-1.3-1.5-2.5-2.9-2.7s-2.6,0.8-3.1,2.1c-0.5,1.4-0.1,3,0.9,4.1
				c0.9,1,2.4,1.4,3.7,0.7c1.5-0.8,1.9-2.7,1.5-4.2C51.2,31.6,50.8,31.7,50.9,31.9z"/>
		</g>
	</g>
	<g>
		<line class="st6" x1="49.3" y1="32.8" x2="50.2" y2="33.9"/>
		<g>
			<path class="st7" d="M48.8,33.1c0.3,0.3,0.5,0.7,0.8,1l0.1,0.1c0,0.1,0.1,0.1,0.1,0.2c0.1,0,0.1,0.1,0.2,0.1c0.1,0,0.3,0,0.4-0.1
				c0.1-0.1,0.2-0.2,0.2-0.3s0-0.3-0.1-0.4c-0.3-0.3-0.5-0.7-0.8-1l-0.1-0.1c0-0.1-0.1-0.1-0.1-0.2c-0.1,0-0.1-0.1-0.2-0.1
				c-0.1,0-0.3,0-0.4,0.1c-0.1,0.1-0.2,0.2-0.2,0.3C48.8,32.8,48.8,33,48.8,33.1L48.8,33.1z"/>
		</g>
	</g>
	<g>
		<g>
			<path class="st8" d="M39.3,57.2c2-0.7,4.1-1,6.1-1.3c1.1-0.2,2.3-0.3,3.4-0.3c0.4,0,2.5,0,2.4,0.6s-1.8,1.2-2.3,1.3
				c-1.1,0.4-2.2,0.7-3.3,0.9c-1,0.2-1.9,0.3-2.9,0.4c-0.5,0-1.1,0.1-1.6,0.1s-1-0.2-1.4-0.2c-0.1,0-0.1,0-0.2-0.1
				c0,0.2,0.1,0.2,0.3,0.1c0.2,0,0.4-0.2,0.6-0.2c0.5-0.2,1-0.3,1.6-0.4c1-0.2,2.1-0.4,3.2-0.5c1.8-0.2,3.6-0.2,5.3,0.3
				c0.2,0,0.9,0.2,1,0.4s-0.6,0.8-0.7,0.9c-0.7,0.6-1.6,1-2.5,1.4c-1.9,0.8-4.1,1.2-6.2,1.1c-0.4,0-2.3-0.1-2.3-0.6
				c0-0.3,1-0.6,1.2-0.6c0.6-0.2,1.1-0.2,1.7-0.3c2.2-0.2,4.6-0.4,6.8-0.2c0.5,0,2.2,0.2,2,0.9c-0.2,0.6-1.7,1.1-2.2,1.2
				c-1.8,0.7-3.7,1.1-5.6,1.4c-0.9,0.1-1.9,0.2-2.8,0.2c-0.4,0-0.8,0-1.2-0.1c-0.1,0-0.4-0.1-0.4-0.1c-0.2,0.3-0.2,0.4,0,0.2
				c0.2-0.1,0.3-0.1,0.5-0.2c2-0.7,4.3-0.9,6.4-1c1-0.1,2.1-0.1,3.1-0.1c0.9,0,2.3-0.1,3.1,0.4c0.2,0.1,0.5,0.1,0.2,0.6
				c-0.1,0.2-0.5,0.3-0.6,0.4c-0.4,0.2-0.9,0.4-1.3,0.5c-1,0.3-1.9,0.6-2.9,0.9c-2.1,0.5-4.3,0.8-6.5,0.8c-0.5,0-1,0-1.5,0
				c-0.2,0-0.5,0-0.7-0.1c-0.2,0-0.3-0.1-0.5-0.1c-0.3-0.2-0.3-0.1-0.1,0c0.5-0.1,1-0.4,1.5-0.5s1-0.3,1.5-0.4
				c2.1-0.5,4.3-0.7,6.5-0.6c1.8,0,3.7,0.2,5.3,1c0.6,0.3,1.2-0.6,0.5-0.9c-1.9-0.9-4.2-1.1-6.3-1.1c-2.7,0-5.4,0.4-8,1.1
				c-0.7,0.2-2.5,0.5-2.3,1.6c0.1,1,1.7,1.1,2.4,1.1c2.6,0.2,5.3-0.1,7.9-0.7c1.3-0.3,2.6-0.7,3.9-1.2c0.9-0.3,2.4-0.8,2.6-1.9
				c0.4-2.4-4.9-1.9-6.2-1.9c-1.5,0-2.9,0.2-4.4,0.4c-1.4,0.2-3,0.4-4.4,0.9c-0.7,0.3-1.5,1.1-0.6,1.7c0.8,0.6,2.2,0.5,3.1,0.5
				c2.6-0.1,5.4-0.6,7.9-1.5c1.1-0.4,4.5-1.9,2.7-3.5c-0.9-0.8-2.4-0.8-3.5-0.9c-1.6-0.1-3.2,0-4.7,0.1c-1.3,0.1-2.8,0.1-4.1,0.7
				c-0.7,0.3-1.4,1-1.1,1.9c0.4,0.9,1.9,1.1,2.7,1.2c1.3,0.1,2.7,0,4-0.2c2.3-0.4,5.2-1.3,6.6-3.2c1.8-2.3-2.5-2.7-3.9-2.8
				c-2.7-0.2-5.5,0.2-8,1c-0.7,0.2-2,0.7-1.7,1.6c0.3,0.9,1.7,0.9,2.4,1c2.8,0.1,6-0.5,8.6-1.5c0.9-0.4,2.1-0.8,2.6-1.7
				c0.4-0.8,0-1.5-0.8-1.8c-1.2-0.6-2.7-0.5-3.9-0.4c-1.4,0.1-2.9,0.3-4.3,0.6c-1.4,0.2-2.8,0.6-4.2,1
				C38.3,56.4,38.6,57.4,39.3,57.2L39.3,57.2z"/>
		</g>
	</g>
	<g>
		<g>
			<path class="st3" d="M39.3,56.9c2-0.7,4.1-1,6.1-1.3c1.1-0.2,2.3-0.3,3.4-0.3c0.4,0,2.5,0,2.4,0.6s-1.8,1.2-2.3,1.3
				c-1.1,0.4-2.2,0.7-3.3,0.9c-1,0.2-1.9,0.3-2.9,0.4c-0.5,0-1.1,0.1-1.6,0.1s-1-0.2-1.4-0.2c-0.1,0-0.1,0-0.2-0.1
				c0,0.2,0.1,0.2,0.3,0.1c0.2,0,0.4-0.2,0.6-0.2c0.5-0.2,1-0.3,1.6-0.4c1-0.2,2.1-0.4,3.2-0.5c1.8-0.2,3.6-0.2,5.3,0.3
				c0.2,0,0.9,0.2,1,0.4s-0.6,0.8-0.7,0.9c-0.7,0.6-1.6,1-2.5,1.4c-1.9,0.8-4.1,1.2-6.2,1.1c-0.4,0-2.3-0.1-2.3-0.6
				c0-0.3,1-0.6,1.2-0.6c0.6-0.2,1.1-0.2,1.7-0.3c2.2-0.2,4.6-0.4,6.8-0.2c0.5,0,2.2,0.2,2,0.9c-0.2,0.6-1.7,1.1-2.2,1.2
				c-1.8,0.7-3.7,1.1-5.6,1.4c-0.9,0.1-1.9,0.2-2.8,0.2c-0.4,0-0.8,0-1.2-0.1c-0.1,0-0.4-0.1-0.4-0.1c-0.2,0.3-0.2,0.4,0,0.2
				c0.2-0.1,0.3-0.1,0.5-0.2c2-0.7,4.3-0.9,6.4-1c1-0.1,2.1-0.1,3.1-0.1c0.9,0,2.3-0.1,3.1,0.4c0.2,0.1,0.5,0.1,0.2,0.6
				c-0.1,0.2-0.5,0.3-0.6,0.4c-0.4,0.2-0.9,0.4-1.3,0.5c-1,0.3-1.9,0.6-2.9,0.9c-2.1,0.5-4.3,0.8-6.5,0.8c-0.5,0-1,0-1.5,0
				c-0.2,0-0.5,0-0.7-0.1c-0.2,0-0.3-0.1-0.5-0.1c-0.3-0.2-0.3-0.1-0.1,0c0.5-0.1,1-0.4,1.5-0.5s1-0.3,1.5-0.4
				c2.1-0.5,4.3-0.7,6.5-0.6c1.8,0,3.7,0.2,5.3,1c0.6,0.3,1.2-0.6,0.5-0.9c-1.9-0.9-4.2-1.1-6.3-1.1c-2.7,0-5.4,0.4-8,1.1
				c-0.7,0.2-2.5,0.5-2.3,1.6c0.1,1,1.7,1.1,2.4,1.1c2.6,0.2,5.3-0.1,7.9-0.7c1.3-0.3,2.6-0.7,3.9-1.2c0.9-0.3,2.4-0.8,2.6-1.9
				c0.4-2.4-4.9-1.9-6.2-1.9c-1.5,0-2.9,0.2-4.4,0.4c-1.4,0.2-3,0.4-4.4,0.9c-0.7,0.3-1.5,1.1-0.6,1.7c0.8,0.6,2.2,0.5,3.1,0.5
				c2.6-0.1,5.4-0.6,7.9-1.5c1.1-0.4,4.5-1.9,2.7-3.5c-0.9-0.8-2.4-0.8-3.5-0.9c-1.6-0.1-3.2,0-4.7,0.1c-1.3,0.1-2.8,0.1-4.1,0.7
				c-0.7,0.3-1.4,1-1.1,1.9c0.4,0.9,1.9,1.1,2.7,1.2c1.3,0.1,2.7,0,4-0.2c2.3-0.4,5.2-1.3,6.6-3.2c1.8-2.3-2.5-2.7-3.9-2.8
				c-2.7-0.2-5.5,0.2-8,1c-0.7,0.2-2,0.7-1.7,1.6c0.3,0.9,1.7,0.9,2.4,1c2.8,0.1,6-0.5,8.6-1.5c0.9-0.4,2.1-0.8,2.6-1.7
				c0.4-0.8,0-1.5-0.8-1.8c-1.2-0.6-2.7-0.5-3.9-0.4c-1.4,0.1-2.9,0.3-4.3,0.6c-1.4,0.2-2.8,0.6-4.2,1
				C38.3,56.1,38.6,57.1,39.3,56.9L39.3,56.9z"/>
		</g>
	</g>
	<circle class="st9" cx="49.3" cy="32.8" r="0.3"/>
	<g>
		<path class="st10" d="M39.8,90.1c0,0-0.7-0.3-1.6-0.8c-2-1.2-5.1-3.9-5.2-8.7l0.8-0.9c-0.2,0.3-0.5,0.6-0.8,0.9
			c-1.1,1-2.7,1.7-3.9,1.6c-0.8-0.1-1.5-0.4-2.3-0.4c-1.3-0.1-2.4,0.6-3.5,1.3c-1.1,0.7-2.2,1.5-3.4,1.6s-2.8-0.7-2.9-2
			c-0.1-0.6,0.2-1.2,0.6-1.6c0.8,0.1,1.7,0.2,2.4-0.2c0.4-0.2,0.7-0.6,1-0.8c1.2-1,2.8-1.5,4.3-1.4c1.1,0.1,2.2,0.5,3.2,0.2
			c0.8-0.2,1.4-0.8,2-1.3c1.1-1,2.3-2.2,3.4-3.2c1.8-4.2,5.1-4.8,5.1-4.8s-5.2-3.1-3-6.3c0,0,1.2-1.5,6.2,2.5c3,2.5,7.1-1.2,7.1-1.2
			s3.9-3.1,6.1-0.9c2.1,2.2-3.8,4.9-3.8,4.9s2.6,0.4,4.3,2.5l0,0c1.6-0.7,3.7-0.9,5.1,0c0.7,0.4,3.7,2.4,6.8,2.1
			c1.8-0.2,3.6,0.9,4.1,1.1c0.6,0.2,1.3,0.2,1.8-0.2c0.1,0.7,0,0.8-0.2,1.4c-0.3,0.6-0.8,1.2-1.4,1.4c-0.6,0.2-1.3,0-2-0.2
			c-1.8-0.6-3.6-1.4-5.4-0.7c-0.4,0.2-0.9,0.4-1.3,0.6c-2.2,0.8-4.6-1-7-0.8l1.8,0.2c0.6,2.5,0.9,6.2-0.7,11c0,0-0.6,1.8-3.3,2.3
			l3.3,5c0,0-5.9-2-7.2,1.7c0,0-1.3-3.3-1.4-4.7c0,0-3.8,0.3-3.7,1.3c0,0-2.5,5.3-3.8,5.3c0,0-2.1-3-6.3-1.4
			c-0.9-0.7,2.9-7.3,2.9-7.3"/>
		<g>
			<path class="st3" d="M39.9,89.6c-1.8-0.7-3.6-2.1-4.7-3.7c-0.8-1.1-1.3-2.3-1.6-3.5c-0.1-0.4-0.3-1.3-0.3-1.6
				c0.1-0.3,0.5-0.5,0.7-0.8c-0.3-0.2-0.6-0.4-0.9-0.7c-0.7,1-1.8,1.8-3,2.1c-1.1,0.3-2-0.2-3-0.3c-2-0.2-3.6,1.1-5.2,2.1
				c-0.9,0.6-2.1,1.1-3.2,0.7c-0.7-0.2-1.5-1-1.1-1.8c0.3-0.7,1.1-0.4,1.7-0.4c0.7-0.1,1.2-0.4,1.7-0.8c0.9-0.8,1.8-1.4,3-1.6
				c1.9-0.3,3.8,0.8,5.7-0.2c0.9-0.5,1.7-1.3,2.4-2s1.8-1.4,2.4-2.2c0.6-0.8,0.9-1.7,1.5-2.5c0.4-0.5,1-1,1.5-1.4
				c0.6-0.4,1.2-0.7,1.9-0.8c0.5-0.1,0.5-0.8,0.1-1c-0.7-0.4-1.3-0.9-1.9-1.5c-0.8-0.9-2.2-2.8-1-4c0,0,0,0,0.1-0.1
				c0.2-0.1,0.6,0,0.8,0c1.5,0.3,3,1.4,4.2,2.4c2.4,1.9,5.2,1.3,7.5-0.4c0.6-0.4,0.7-0.6,1.3-0.9c1.1-0.7,2.7-1.5,4-1
				c3.1,1.2-1.7,4-2.9,4.5c-0.4,0.2-0.3,0.9,0.1,1c1.6,0.3,3,1.1,4.1,2.3c0-0.3,0-0.5,0-0.8l0,0c-0.4,0.3,0,1.1,0.5,0.9
				c1.8-0.7,3.4-0.8,5.1,0.2c1.2,0.7,2.5,1.3,3.9,1.7c1.8,0.5,3.6,0.1,5.4,0.7c1.3,0.5,2.2,1.1,3.6,0.4c-0.3-0.2-0.5-0.3-0.8-0.5
				c0.1,0.9-0.3,2-1.3,2.3c-0.8,0.2-1.8-0.3-2.5-0.5c-1.4-0.5-2.8-0.9-4.2-0.6c-0.7,0.1-1.3,0.5-1.9,0.8c-0.8,0.3-1.7,0.2-2.6,0
				c-1.4-0.3-2.8-0.9-4.3-0.8c-0.7,0-0.7,1,0,1.1c0.6,0.1,1.2,0.1,1.8,0.2c-0.2-0.1-0.3-0.3-0.5-0.4c0.6,2.6,0.6,5.2,0.1,7.8
				c-0.5,2.5-0.9,4.3-3.7,4.8c-0.3,0.1-0.5,0.5-0.3,0.8c1.1,1.7,2.2,3.3,3.3,5c0.2-0.3,0.4-0.5,0.6-0.8c-2.7-0.9-6.6-1.1-7.9,2.1
				c0.3,0,0.7,0,1,0c-0.6-1.5-1.2-3-1.4-4.6c0-0.3-0.2-0.6-0.5-0.5c-0.8,0.1-1.7,0.2-2.5,0.4c-0.4,0.1-1,0.3-1.3,0.6
				c-0.1,0.1-0.2,0.2-0.3,0.3c0,0.1-0.2,0.6-0.1,0.3c-0.3,0.8-0.8,1.6-1.2,2.3c-0.4,0.7-1.3,2.6-2.2,2.7c0.2,0.1,0.3,0.2,0.5,0.3
				c-1.6-2.2-4.5-2.5-6.9-1.6c0.2,0,0.4,0.1,0.5,0.1c-0.4-0.4,1.2-3.3,1.5-3.8c0.5-1,1-1.9,1.5-2.8c0.3-0.6-0.6-1.2-0.9-0.5
				c-0.7,1.3-1.4,2.6-2,3.9c-0.4,0.9-1.7,3-0.8,4c0.1,0.1,0.4,0.2,0.5,0.1c1.9-0.7,4.4-0.5,5.6,1.1c0.1,0.1,0.3,0.3,0.5,0.3
				c1.9-0.3,3.1-3.2,3.8-4.6c0.3-0.6,0.5-1.3,1-1.5c0.8-0.3,1.8-0.4,2.6-0.5c-0.2-0.2-0.4-0.4-0.5-0.5c0.2,1.7,0.8,3.3,1.4,4.9
				c0.2,0.5,0.8,0.5,1,0c1-2.5,4.5-2,6.5-1.3c0.4,0.1,0.9-0.4,0.6-0.8c-1.1-1.7-2.2-3.3-3.3-5c-0.1,0.3-0.2,0.5-0.3,0.8
				c2.8-0.5,3.7-2.2,4.3-4.7c0.7-3,0.8-6.2,0.1-9.3c-0.1-0.2-0.3-0.4-0.5-0.4c-0.6-0.1-1.2-0.1-1.8-0.2c0,0.4,0,0.7,0,1.1
				c1.9-0.1,3.6,0.9,5.5,1c0.7,0,1.4-0.1,2.1-0.4c1.3-0.6,2.3-0.7,3.7-0.4c1.5,0.4,3.3,1.5,4.9,0.8c1.2-0.6,1.8-1.9,1.7-3.2
				c0-0.4-0.4-0.7-0.8-0.5c-1.3,0.7-3.3-0.8-4.7-1c-1-0.1-1.9,0.1-2.9-0.1c-0.9-0.2-1.8-0.5-2.6-0.8c-1-0.5-1.9-1.2-2.9-1.6
				c-1.5-0.5-3.2-0.2-4.6,0.4c0.2,0.3,0.4,0.6,0.5,0.9l0,0c0.2-0.2,0.2-0.6,0-0.8c-1.2-1.3-2.8-2.3-4.6-2.6c0,0.3,0.1,0.7,0.1,1
				c1.6-0.8,4.7-2.4,4.5-4.5c-0.2-1.5-1.8-2.2-3.2-2.2c-1.4,0.1-2.8,0.8-3.9,1.6c-0.7,0.5-1.4,1.1-2.2,1.5c-0.9,0.4-1.9,0.8-2.9,0.7
				c-1.4-0.2-2.4-1.3-3.5-2c-1.1-0.8-3.7-2.5-5.1-1.2c-1.3,1.3-0.6,3.5,0.4,4.7c0.7,1,1.7,1.8,2.8,2.5c0-0.3,0.1-0.7,0.1-1
				c-1.6,0.3-3.2,1.6-4.2,2.8c-0.6,0.8-0.9,1.7-1.6,2.4c-0.8,0.9-1.8,1.7-2.8,2.6s-1.8,1.6-3.2,1.6c-1-0.1-2-0.4-3-0.3
				c-1.7,0.1-2.9,1-4.2,2c-0.6,0.5-1.3,0.5-2,0.5c-0.3,0-0.6-0.1-0.9,0c-0.5,0.3-0.8,1.1-0.8,1.6c-0.1,1.3,0.8,2.3,2,2.7
				c1.7,0.6,3.4-0.4,4.8-1.3c1.1-0.7,2.2-1.6,3.6-1.5c1,0,1.9,0.5,2.9,0.5c1.8-0.1,3.5-1.4,4.5-2.8c0.4-0.5-0.5-1.1-0.9-0.7
				c-0.8,1-1,1.2-0.8,2.6c0.2,1.5,0.8,3,1.6,4.3c1.3,2,3.3,3.6,5.5,4.5C40.3,90.9,40.6,89.8,39.9,89.6L39.9,89.6z"/>
		</g>
	</g>
	<g>
		<path class="st10" d="M35.3,96.5c0,0,1.8,2.5,6.3,1.4C41.6,97.9,39.7,95,35.3,96.5z"/>
		<g>
			<path class="st3" d="M34.8,96.8c0.9,1.3,2.6,1.8,4.1,1.9c0.9,0.1,1.8-0.1,2.7-0.3c0.3-0.1,0.5-0.5,0.3-0.8
				c-0.9-1.3-2.6-2-4.2-2.1c-0.9,0-1.8,0.2-2.7,0.5c-0.7,0.2-0.4,1.3,0.3,1c1.4-0.5,3.1-0.6,4.4,0.1c0.2,0.1,0.4,0.3,0.6,0.4l0,0
				c0,0,0,0,0.1,0.1l0.1,0.1c0.1,0.1,0.1,0.1,0.2,0.2c0.1,0.1,0.2,0.2,0.3,0.3c0.1,0.1-0.1-0.1,0,0c0.1-0.3,0.2-0.5,0.3-0.8
				c-1.5,0.4-3.1,0.4-4.4-0.2c-0.2-0.1-0.4-0.2-0.6-0.4l-0.1-0.1c-0.1-0.1,0.1,0.1,0,0s-0.1-0.1-0.2-0.2c-0.1-0.1-0.2-0.2-0.3-0.3
				c0,0,0-0.1-0.1-0.1s0.1,0.1,0.1,0.1C35.5,96,35.2,95.8,35,96C34.8,96.2,34.7,96.6,34.8,96.8z"/>
		</g>
	</g>
	<g>
		<path class="st10" d="M50.4,96c0,0,3.6-1.7,7.2-1.7C57.7,94.3,51.9,92.2,50.4,96z"/>
		<g>
			<path class="st3" d="M50.7,96.5C50.7,96.5,50.8,96.5,50.7,96.5l0.3-0.2l0.2-0.1c0.5-0.2,1.1-0.4,1.6-0.6c1.6-0.5,3.2-0.8,4.8-0.8
				c0.6,0,0.7-0.9,0.1-1.1c-0.7-0.3-1.5-0.4-2.3-0.5c-1.3-0.2-2.8-0.1-4,0.6c-0.8,0.5-1.3,1.2-1.6,2c-0.1,0.3,0.1,0.6,0.4,0.7
				c0.3,0.1,0.6-0.1,0.7-0.4c0.9-2.3,3.9-2,5.9-1.5c0.2,0.1,0.5,0.1,0.7,0.2c0-0.4,0.1-0.7,0.1-1.1c-2.5,0-5.2,0.7-7.5,1.8
				C49.5,95.8,50.1,96.8,50.7,96.5z"/>
		</g>
	</g>
	<g>
		<path class="st11" d="M34.9,86.4c0.5,1,2.1,2.1,2.1,2.1c4.5-5.4,6.7-5,18.2-18.2l-2.9-1.5C45.8,76,40.9,80,34.5,86.8"/>
		<g>
			<path class="st3" d="M34.5,86.6c0.6,1,1.5,1.7,2.3,2.3c0.2,0.1,0.5,0.1,0.7-0.1c2-2.3,4.2-4.2,6.5-6.2c4.2-3.7,8-7.8,11.7-12
				c0.2-0.2,0.2-0.7-0.1-0.9c-1-0.5-1.9-1-2.9-1.5c-0.2-0.1-0.5-0.1-0.7,0.1c-5.7,6.2-12.1,11.8-17.9,18c-0.5,0.5,0.3,1.3,0.8,0.8
				c5.8-6.2,12.1-11.8,17.9-18c-0.2,0-0.4,0.1-0.7,0.1c1,0.5,1.9,1,2.9,1.5c0-0.3-0.1-0.6-0.1-0.9c-3.7,4.2-7.5,8.3-11.7,12
				c-2.3,2-4.5,3.9-6.5,6.2c0.2,0,0.4-0.1,0.7-0.1c-0.7-0.5-1.5-1.2-1.9-2C35.1,85.5,34.1,86,34.5,86.6L34.5,86.6z"/>
		</g>
	</g>
	<g>
		
			<ellipse transform="matrix(0.5343 -0.8453 0.8453 0.5343 -50.9799 73.0243)" class="st12" cx="40.8" cy="82.8" rx="1.9" ry="1.2"/>
		<g>
			<path class="st3" d="M42.3,83.7c0.5-0.7,0.8-1.8,0.2-2.6c-0.5-0.7-1.5-0.7-2.2-0.3c-0.8,0.5-1.4,1.3-1.5,2.2
				c-0.1,0.4-0.1,0.9,0.2,1.3c0.2,0.3,0.5,0.6,0.9,0.7C40.9,85.2,41.8,84.5,42.3,83.7c0.2-0.2,0.1-0.6-0.2-0.7s-0.6-0.1-0.7,0.2
				c0,0.1-0.1,0.1-0.1,0.2c0.1-0.1,0,0,0,0l-0.1,0.1c0,0.1-0.1,0.1-0.2,0.2l-0.1,0.1c-0.1,0.1,0.1-0.1,0,0c-0.1,0-0.1,0.1-0.2,0.1
				c0,0-0.2,0.1-0.1,0.1c-0.1,0-0.1,0-0.2,0.1h-0.1c-0.1,0,0.1,0,0,0c0,0-0.1,0-0.2,0c0,0,0.1,0,0,0H40c-0.1,0,0.1,0.1,0,0
				c0,0,0,0-0.1,0c-0.1-0.1,0.1,0.1,0,0l0,0l0,0L39.8,84c0-0.1,0,0.1,0,0v-0.1v-0.1c0,0,0,0.1,0,0s0-0.2,0-0.3c0,0,0-0.1,0,0v-0.1
				c0-0.1,0-0.2,0.1-0.2v-0.1c0,0,0-0.1,0,0c0-0.1,0.1-0.2,0.1-0.3c0-0.1,0.1-0.1,0.1-0.2l0.1-0.1c0,0-0.1,0.1,0,0s0.2-0.2,0.3-0.3
				c0.1-0.1-0.1,0.1,0,0c0,0,0,0,0.1,0s0.1-0.1,0.2-0.1c0,0,0,0,0.1,0c-0.1,0.1,0,0,0,0c0.1,0,0.1,0,0.2,0c0.1,0-0.1,0,0,0h0.1
				c0,0,0,0,0.1,0s-0.1,0,0,0c0,0,0,0,0.1,0s-0.1-0.1,0,0c0,0,0,0,0.1,0c0.1,0.1-0.1-0.1,0,0c0,0,0.1,0.1,0,0l0,0c0,0,0,0,0,0.1
				c0,0,0,0,0,0.1c-0.1-0.1,0,0,0,0v0.1c0,0.1,0-0.1,0,0s0,0.2,0,0.2s0,0.2,0,0v0.1c0,0.1,0,0.2-0.1,0.3c0,0.1,0,0.1-0.1,0.2
				c0-0.1,0,0.1,0,0.1c-0.1,0.1-0.1,0.2-0.2,0.3c-0.1,0.2-0.1,0.6,0.2,0.7C41.8,84.1,42.1,84,42.3,83.7z"/>
		</g>
	</g>
	<g>
		<ellipse transform="matrix(0.5954 -0.8034 0.8034 0.5954 -43.9219 68.4019)" class="st12" cx="46" cy="77.8" rx="2.3" ry="1.4"/>
		<g>
			<path class="st3" d="M47.5,78.9c0.6-0.8,1-2,0.5-2.9c-0.2-0.4-0.6-0.7-1-0.7c-0.5-0.1-0.9,0-1.4,0.2c-0.9,0.5-1.7,1.4-1.9,2.4
				c-0.2,0.9,0,2,1,2.3C45.9,80.6,46.9,79.7,47.5,78.9c0.2-0.2,0-0.6-0.2-0.7c-0.3-0.2-0.6,0-0.7,0.2c0-0.1-0.1,0.1-0.1,0.1
				l-0.1,0.1c-0.1,0.1-0.1,0.2-0.2,0.2l-0.1,0.1L46,79c0.1,0-0.1,0.1-0.1,0.1l-0.1,0.1c-0.1,0-0.1,0.1-0.2,0.1c-0.1,0.1,0.1,0,0,0
				h-0.1c-0.1,0-0.1,0-0.2,0.1c-0.1,0,0.1,0,0,0h-0.1c0,0-0.2,0,0,0c0,0,0,0-0.1,0H45c0.1,0,0,0,0,0h-0.1c0.1,0.1,0,0,0,0
				s0,0-0.1-0.1c0.1,0.1,0,0,0,0s0-0.1-0.1-0.1c0.1,0.1,0,0,0,0v-0.1V79c0,0.1,0-0.1,0-0.1v-0.1v-0.1c0-0.1,0,0.1,0-0.1
				c0.1-0.4,0.2-0.7,0.4-1c0.1-0.2,0.2-0.3,0.4-0.4c0.1-0.1,0.1-0.1,0.2-0.2l0.1-0.1c-0.1,0.1,0,0,0.1,0c0.1-0.1,0.2-0.1,0.2-0.1
				s0.1,0,0.1-0.1c0.1-0.1-0.1,0,0,0s0.1-0.1,0.2-0.1h0.1c0.1,0-0.1,0,0,0h0.1c0,0,0.1,0,0,0s0,0,0,0h0.1c0.1,0-0.1-0.1,0,0h0.1
				c0.1,0-0.1-0.1,0,0l0.1,0.1c-0.1-0.1,0,0,0,0s0,0.1,0.1,0.1c-0.1-0.1,0,0,0,0v0.1c0,0.1,0-0.1,0,0V77v0.1c0,0.1,0-0.1,0,0.1
				c-0.1,0.5-0.2,0.8-0.5,1.2c-0.2,0.2,0,0.6,0.2,0.7C47.1,79.2,47.4,79.1,47.5,78.9z"/>
		</g>
	</g>
	<g>
		
			<ellipse transform="matrix(0.7071 -0.7071 0.7071 0.7071 -36.7263 57.2058)" class="st12" cx="50.7" cy="72.9" rx="1.9" ry="1.2"/>
		<g>
			<path class="st3" d="M52,74.2c0.6-0.6,1.1-1.5,0.9-2.4c-0.1-0.4-0.4-0.7-0.8-0.9c-0.4-0.1-0.8-0.1-1.1,0c-0.9,0.3-1.6,1-2,1.8
				c-0.2,0.4-0.3,0.9-0.2,1.3s0.3,0.7,0.7,0.9C50.2,75.4,51.3,74.8,52,74.2c0.2-0.2,0.2-0.6,0-0.8c-0.2-0.2-0.6-0.2-0.8,0
				c-0.1,0.1-0.1,0.1-0.2,0.2c0,0-0.1,0.1,0,0l-0.1,0.1c-0.1,0-0.1,0.1-0.2,0.1c0,0-0.1,0-0.1,0.1c0,0,0,0-0.1,0c0.1,0,0.1,0,0,0
				S50.4,74,50.3,74h-0.1l0,0c-0.1,0,0,0,0,0c-0.1,0-0.1,0-0.2,0h-0.1c0.1,0,0.1,0,0,0c0,0,0,0-0.1,0s0.1,0.1,0,0h-0.1
				c-0.1,0,0-0.1,0,0c0,0,0,0-0.1-0.1s0.1,0.1,0,0c0,0,0,0,0-0.1c-0.1-0.1,0,0.1,0,0v-0.1c0-0.1,0-0.1,0,0c0-0.1,0-0.1,0-0.2v-0.1
				v0.1c0,0,0,0,0-0.1s0-0.2,0.1-0.2c0,0,0,0,0-0.1s-0.1,0.1,0,0c0-0.1,0.1-0.1,0.1-0.2s0.1-0.1,0.1-0.2c0.1-0.1-0.1,0.1,0,0
				l0.1-0.1c0.1-0.1,0.1-0.1,0.2-0.2l0.1-0.1c0,0,0.1-0.1,0,0c0.1-0.1,0.3-0.2,0.5-0.3c0.1-0.1-0.1,0,0,0h0.1c0.1,0,0.1,0,0.2-0.1
				h0.1h-0.1c0,0,0,0,0.1,0s0.2,0,0.2,0c-0.1,0-0.1,0,0,0h0.1c0.1,0-0.1-0.1,0,0h0.1c0.1,0,0,0.1,0,0c0,0,0,0,0.1,0.1s-0.1-0.1,0,0
				c0,0,0,0.1,0.1,0.1c0.1,0.1,0-0.1,0,0v0.1c0,0.1,0,0.1,0,0v0.1v0.1c0,0,0,0,0,0.1c0-0.1,0-0.1,0,0s0,0.2-0.1,0.2v0.1
				c0,0.1,0,0,0,0s0,0,0,0.1s-0.1,0.2-0.1,0.3c0,0,0,0.1-0.1,0.1c0,0,0,0-0.1,0.1c0-0.1,0-0.1,0,0c-0.1,0.1-0.1,0.2-0.2,0.2
				c-0.2,0.2-0.2,0.6,0,0.8C51.4,74.4,51.8,74.4,52,74.2z"/>
		</g>
	</g>
	<g>
		<path class="st13" d="M37.6,97c0,0-3.7,10.1-4,13.3c0,0-1.7-0.6-2.3,0.2c0,0-3.1,2.7-0.7,3.8c0,0,0.7,0.2,1.6-1.4
			c0,0-1.1,2.5,1.1,2.4s1.4-1.8,1.4-1.8s1.4,1.1,2.6-0.1c1.2-1.1-0.6-2.2-0.6-2.2s-0.9-0.6-1.5-0.1c0,0,1.7-9.1,4.7-14.4"/>
		<g>
			<path class="st3" d="M37.1,96.9c-0.7,1.8-1.3,3.7-1.9,5.6c-0.8,2.5-1.8,5.2-2.1,7.9c0.2-0.2,0.5-0.3,0.7-0.5
				c-1-0.4-2-0.4-2.8,0.4c-0.6,0.6-1.2,1.2-1.5,2c-0.4,1-0.1,2.3,1,2.7c1,0.3,1.8-0.9,2.3-1.6c-0.3-0.1-0.7-0.3-1-0.4
				c-0.5,1.2-0.4,3,1.3,3.1c1.6,0.1,2.9-1,2.2-2.6c-0.2,0.2-0.5,0.5-0.7,0.7c1.3,1,4.1,0.4,3.8-1.6c-0.2-1.3-2.2-2.4-3.3-1.6
				c0.3,0.2,0.5,0.4,0.8,0.6c0.9-4.9,2.2-10,4.7-14.3c0.3-0.6-0.6-1.2-0.9-0.5c-2.5,4.4-3.9,9.6-4.8,14.6c-0.1,0.4,0.4,0.9,0.8,0.6
				c0.5-0.3,1.4,0.2,1.6,0.7c0.5,1.1-1.5,1.2-2.1,0.7c-0.5-0.4-0.9,0.3-0.7,0.7c-0.1-0.2,0,0,0,0.1s0,0.2,0,0.3
				c-0.1,0.5-1.1,0.7-1.5,0.5c-0.5-0.3-0.2-1.2,0-1.6c0.2-0.6-0.7-0.9-1-0.4c-0.4,0.6-0.9,1.6-1.4,0.8c-0.3-0.6,0.2-1.3,0.6-1.7
				c0.2-0.3,0.5-0.6,0.8-0.8c0.5-0.4,1.1-0.3,1.8-0.1c0.4,0.1,0.7-0.2,0.7-0.5c0.3-2.6,1.3-5.3,2.2-7.8c0.6-1.8,1.2-3.6,1.9-5.4
				C38.3,96.5,37.3,96.2,37.1,96.9L37.1,96.9z"/>
		</g>
	</g>
	<g>
		<path class="st13" d="M52.4,94.7c0,0,4.3,13.1,4.4,14.8c0,0-2.8-2.2-2.5,1.8s2,2.4,2,2.4s1.2-1.5,0.7-3c0,0,0.5,3.4,2.7,2
			s0.4-3.1,0.4-3.1s-1-1.3-1.7-0.5c0,0-3.2-11.3-3.9-15.3"/>
		<g>
			<path class="st3" d="M51.9,94.8c0.7,2.2,1.4,4.4,2.1,6.6c0.5,1.6,1,3.3,1.5,4.9c0.3,1,0.7,2.1,0.7,3.1c0.3-0.1,0.6-0.3,0.9-0.4
				c-0.6-0.5-1.5-1-2.3-0.7c-1.6,0.6-1.2,3.6-0.7,4.8c0.4,1,1.3,1.7,2.3,1.1c1.1-0.7,1.4-2.6,1.1-3.7c-0.2-0.7-1.2-0.4-1,0.3
				c0.1,0.8,0.4,1.6,1,2.2c1,1,2.6,0.4,3.4-0.7c0.8-1,0.5-2.2-0.3-3.2c0,0,0-0.1-0.2-0.2c-0.2-0.2-0.4-0.4-0.6-0.5
				c-0.6-0.4-1.2-0.3-1.7,0.2c0.3,0.1,0.6,0.2,0.9,0.2c-1.4-5-3-10.1-3.9-15.3c-0.1-0.7-1.2-0.4-1,0.3c0.9,5.2,2.5,10.3,3.9,15.3
				c0.1,0.4,0.6,0.5,0.9,0.2c0.4-0.4,2.5,1.8,0.4,2.9c-1.1,0.6-1.6-0.9-1.7-1.8c-0.3,0.1-0.7,0.2-1,0.3c0.2,0.8,0,1.5-0.4,2.2
				c0,0.1-0.3,0.3-0.1,0.2c-0.1,0.1,0.1,0,0,0c-0.6,0.3-0.7-0.2-0.9-0.8c-0.1-0.6-0.6-2.9,0.4-3.1c0.2,0,0.5,0.1,0.7,0.2
				c0.1,0,0.5,0.3,0.3,0.2c0.3,0.3,1,0.1,0.9-0.4c0-1-0.4-2.1-0.7-3c-0.5-1.7-1-3.4-1.5-5.1c-0.7-2.3-1.4-4.6-2.2-6.8
				C52.7,93.9,51.7,94.2,51.9,94.8L51.9,94.8z"/>
		</g>
	</g>
	<g>
		<g>
			<path class="st3" d="M56,98.1c-0.2-0.4-0.4-0.7-0.8-0.8c-0.4-0.1-0.8,0.1-0.9,0.5c-0.2,0.5,0,1.2,0.2,1.8
				c0.2,0.8,0.5,1.5,0.8,2.3c0.3,1,0.6,2,0.8,3c0.2,0.7,1.2,0.4,1-0.3c-0.3-1.5-0.8-2.9-1.3-4.4c-0.2-0.5-0.3-1-0.4-1.6
				c0-0.2,0-0.4-0.1-0.5l0,0c0,0-0.4,0.3-0.4,0.2c0,0.1,0.2,0.2,0.2,0.3c0.1,0.3,0.5,0.3,0.7,0.2C56.1,98.7,56.2,98.4,56,98.1
				L56,98.1z"/>
		</g>
	</g>
	<g>
		<g>
			<path class="st3" d="M36.6,99.9c0.2,2-0.2,3.9-1.1,5.7c-0.3,0.6,0.6,1.2,0.9,0.5c1-1.9,1.5-4.1,1.3-6.2c0-0.3-0.2-0.5-0.5-0.5
				C36.8,99.4,36.5,99.6,36.6,99.9L36.6,99.9z"/>
		</g>
	</g>
	<g>
		<g>
			<path class="st14" d="M29.7,112.4c-1.2-0.6-1.3-0.6-2.7-0.6c-0.8,0-2.1,0.1-2.8-0.1c-0.8-0.3-2.1-1.2-2.9-1.5
				c-1-0.3-2.2,0.1-2.9,0.9s-1,1.9-1.1,3s0.1,2.3,0.8,3.1c0.5,0.6,1.3,0.9,2.1,1.1c0.8,0.2,1.6,0.1,2.4,0.1c0.4,0,0.7,0,1.1,0
				c1.7,0,3.3-0.1,5,0c0.6,0,1.3,0,1.8,0.2c0.4,0.1,0.8,0.3,1.2,0.5c2.8,1.1,6.6,0.3,7.3-1.5c0.6-1.5,0.7-3.1,0.1-4.6
				c-0.2-0.5-0.6-1-1.1-0.9c-0.2,0.1-0.3,0.2-0.5,0.3c-0.9,0.8-2,1.5-3.2,1.8s-2.5,0-3.5-0.7c-0.4-0.3-0.8-0.7-1.2-1"/>
			<g>
				<path class="st3" d="M30,111.9c-0.7-0.3-1.3-0.6-2.1-0.7c-1-0.1-1.9,0.1-2.9,0c-1.7-0.2-2.9-2-4.8-1.7c-3.9,0.5-4.8,7.1-1.4,8.8
					c2,1,4.7,0.5,6.9,0.5c1.3,0,2.7-0.1,3.9,0.1c1.1,0.2,2.1,0.8,3.2,1c1.7,0.3,3.6,0.2,5.2-0.7c1.6-0.9,2-2.8,1.9-4.5
					c-0.1-1.4-1-4.2-2.8-2.8c-1.1,0.9-2.2,1.7-3.8,1.8c-1.6,0.1-2.5-0.9-3.6-1.8c-0.6-0.4-1.1,0.5-0.5,0.9c1.3,1,2.3,1.9,4,1.9
					c1.5,0,2.9-0.6,4.1-1.6c0.5-0.4,0.8-0.6,1.2,0c0.3,0.4,0.3,1.1,0.3,1.5c0.1,0.9-0.1,2.2-0.6,2.9c-0.8,1.2-2.9,1.4-4.2,1.3
					c-1.7-0.1-3.1-1-4.8-1.1c-2-0.2-4.1,0-6.1,0c-2,0.1-4.8,0.3-5.4-2.2c-0.4-1.8,0.2-4.6,2.3-5c1.6-0.3,3,1.5,4.5,1.7
					c0.8,0.1,1.5,0,2.3,0c0.9,0,1.6,0.1,2.4,0.5C30.1,113.2,30.6,112.3,30,111.9L30,111.9z"/>
			</g>
		</g>
		<g>
			<g>
				<path class="st3" d="M22.7,111.8C22.6,111.7,22.6,111.7,22.7,111.8L22.7,111.8L22.7,111.8L22.7,111.8c0.1,0,0.2,0.2,0.1,0.1
					c0,0.1,0.1,0.1,0.1,0.2c0-0.1,0,0.1,0,0.1c0,0.1,0,0.1,0,0.2c0-0.1,0,0.1,0,0.1c0,0.1,0,0.2,0,0.2c0,0.6,0,1.2,0,1.8
					c0,0.3,0.3,0.6,0.5,0.5c0.3,0,0.5-0.2,0.5-0.5c0-0.7,0-1.4-0.1-2.1c0-0.4-0.1-0.7-0.3-1c-0.3-0.3-0.6-0.5-1-0.6
					c-0.3,0-0.6,0.3-0.5,0.5C22.1,111.5,22.4,111.7,22.7,111.8L22.7,111.8z"/>
			</g>
		</g>
		<g>
			<g>
				<path class="st3" d="M24.7,112.4C24.8,112.4,24.6,112.4,24.7,112.4C24.6,112.4,24.7,112.4,24.7,112.4S24.6,112.3,24.7,112.4
					L24.7,112.4C24.8,112.5,24.7,112.4,24.7,112.4c0.1,0,0.1,0.1,0.2,0.1c0,0,0,0,0.1,0.1s0-0.1,0,0c0.1,0.1,0.1,0.2,0.2,0.3
					c0,0.1,0.1,0.1,0.1,0.2c0,0,0,0.1,0,0s0,0.1,0,0.1c0,0.1,0.1,0.2,0.1,0.4c0,0.1,0,0.1,0,0.2v0.1c0,0.1,0,0,0,0
					c0,0.3,0,0.5,0,0.8s0.3,0.6,0.5,0.5c0.3,0,0.5-0.2,0.5-0.5c0.1-0.7-0.1-1.3-0.3-2c-0.3-0.6-0.7-1.2-1.5-1.3
					c-0.3,0-0.6,0.3-0.5,0.5C24.1,112.1,24.4,112.4,24.7,112.4L24.7,112.4z"/>
			</g>
		</g>
		<g>
			<g>
				<path class="st3" d="M29.1,112.3C29.1,112.3,29,112.2,29.1,112.3C29.1,112.3,29,112.2,29.1,112.3c-0.1-0.1-0.2-0.1-0.3-0.1
					c-0.1-0.1-0.2-0.1-0.4-0.2c0,0-0.1,0-0.1-0.1c0.1,0.1,0,0,0,0l-0.1-0.1c-0.1-0.1-0.2-0.2-0.3-0.3c0,0,0,0-0.1-0.1
					c0,0,0.1,0.1,0,0c0-0.1-0.1-0.1-0.1-0.2c-0.1-0.1-0.1-0.2-0.2-0.3c0,0-0.1-0.1,0,0v-0.1v-0.1c0,0,0,0.1,0,0c0,0,0,0.1,0,0
					c0,0,0-0.1,0,0c0,0,0-0.1,0.1-0.1c0-0.1,0,0,0,0l0.1-0.1c0,0,0,0,0.1-0.1s-0.1,0,0,0l0.1-0.1c0,0,0.2-0.1,0.1,0
					c0.1,0,0.2-0.1,0.3-0.1c0.1,0-0.1,0,0.1,0c0.1,0,0.1,0,0.2,0c0,0,0.2,0,0.1,0c0.1,0,0.1,0,0.2,0s0.1,0,0.2,0s0,0,0,0
					s0.1,0,0.1,0.1l0.1,0.1c-0.1-0.1,0,0,0.1,0l0.1,0.1c0.1,0.1,0,0,0,0s0,0.1,0.1,0.1c0,0.1,0.1,0.1,0.1,0.2v0.1c0,0.1,0-0.1,0,0
					s0,0.1,0.1,0.2v0.1c0,0.1,0-0.1,0,0s0,0.3,0,0.4c0-0.1,0,0.1,0,0.1s-0.1,0.2,0,0.1c-0.1,0.3-0.1,0.6,0.2,0.7
					c0.2,0.1,0.6,0.1,0.7-0.2c0.3-0.7,0.3-1.4-0.1-2.1c-0.3-0.6-0.9-1.1-1.6-1.2s-1.5,0.1-2,0.6c-0.3,0.3-0.5,0.7-0.5,1.1
					s0.2,0.8,0.4,1.1c0.5,0.7,1.1,1.2,1.9,1.5c0.3,0.1,0.6-0.1,0.7-0.4C29.5,112.6,29.4,112.4,29.1,112.3L29.1,112.3z"/>
			</g>
		</g>
		<g>
			<g>
				<path class="st3" d="M28.7,113.9c-0.2,0.7-0.2,1.4,0.1,2.1c0.2,0.6,0.8,1,1.4,1.2c0.7,0.2,1.4-0.1,1.8-0.7
					c0.4-0.6,0.5-1.4,0.4-2c-0.1-0.7-0.7-1.4-1.5-1.6c-0.3,0-0.6,0.1-0.7,0.4s0.1,0.6,0.4,0.7c0.1,0,0.1,0,0.2,0c0,0,0.1,0,0,0
					s0,0,0,0s0.1,0,0.1,0.1c0,0,0,0,0.1,0c-0.1-0.1,0,0,0,0l0.1,0.1c0,0,0.1,0.1,0,0c0,0,0,0,0,0.1l0.1,0.1v0.1c0-0.1,0,0,0,0
					c0,0.1,0,0.1,0,0.2v0.1c0-0.1,0,0,0,0c0,0.1,0,0.1,0,0.2v0.1v0.1c0-0.1,0,0,0,0.1v0.1c0,0.1,0,0.1,0,0.2s0,0.1-0.1,0.2
					c0,0,0-0.1,0,0v0.1L31,116c0,0,0,0,0,0.1c0.1-0.1,0,0,0,0l-0.1,0.1l0,0c0,0-0.1,0-0.1,0.1c0,0-0.1,0.1,0,0c0.1,0,0,0,0,0h-0.1
					c-0.1,0,0,0,0,0h-0.1c-0.1,0-0.2,0-0.1,0c-0.1,0-0.2,0-0.3-0.1c0.1,0,0,0,0,0c-0.1,0-0.1-0.1-0.1-0.1c-0.1,0,0,0,0,0
					s0,0-0.1-0.1l-0.1-0.1c0,0,0,0,0-0.1c0.1,0.1,0,0,0,0c0-0.1-0.1-0.1-0.1-0.2v-0.1c0,0.1,0,0,0,0c0-0.1,0-0.1-0.1-0.2
					c0-0.1,0-0.1,0-0.2c0,0.1,0-0.1,0-0.1c0-0.1,0-0.3,0-0.4v-0.1c0,0.1,0,0,0,0c0-0.1,0-0.2,0-0.2c0.1-0.3-0.1-0.6-0.4-0.7
					C29.1,113.5,28.8,113.6,28.7,113.9L28.7,113.9z"/>
			</g>
		</g>
		<g>
			<g>
				<path class="st3" d="M29,113.5c0,0.2-0.1,0.4-0.2,0.6c0,0.1,0.1-0.1,0,0c0,0,0,0,0,0.1s-0.1,0.1-0.1,0.2
					c-0.1,0.1-0.1,0.2-0.2,0.3l-0.1,0.1c-0.1,0.1,0,0,0,0l-0.1,0.1c-0.1,0.1-0.1,0.2-0.2,0.2c-0.1,0.1-0.2,0.2-0.3,0.2
					c-0.1,0,0,0,0,0s0,0-0.1,0.1c-0.1,0-0.1,0.1-0.2,0.1c-0.2,0.2-0.4,0.5-0.2,0.7c0.2,0.2,0.5,0.4,0.7,0.2c0.9-0.6,1.6-1.5,1.8-2.6
					c0.1-0.3-0.1-0.6-0.4-0.7C29.4,113.1,29,113.2,29,113.5L29,113.5z"/>
			</g>
		</g>
		<g>
			<g>
				<path class="st3" d="M29.7,112.8c-1-1-2.2-1.8-3.5-2.4c-0.3-0.1-0.6-0.1-0.7,0.2c-0.1,0.2-0.1,0.6,0.2,0.7
					c1.3,0.6,2.3,1.3,3.3,2.2c0.2,0.2,0.6,0.2,0.8,0C29.9,113.3,29.9,113,29.7,112.8L29.7,112.8z"/>
			</g>
		</g>
		<g>
			<g>
				<path class="st3" d="M26.9,112.4l0.1,0.1C27,112.5,27,112.5,26.9,112.4c0.1,0.1,0.1,0.1,0.1,0.1l0.1,0.1c0-0.1,0-0.1,0,0l0,0
					c0,0.1,0.1,0.2,0.1,0.3c0,0.1,0,0.1,0,0.2s0-0.1,0,0c0,0.2,0,0.4,0.1,0.7c0,0.1,0,0.2,0,0.4v0.1c0-0.1,0-0.1,0,0s0,0.1,0,0.2
					c-0.1,0.3,0.1,0.6,0.4,0.7s0.6-0.1,0.7-0.4c0.2-0.5,0.1-1.1,0-1.7c-0.1-0.5-0.2-1.1-0.6-1.4c-0.2-0.2-0.6-0.2-0.8,0
					C26.7,111.8,26.6,112.2,26.9,112.4L26.9,112.4z"/>
			</g>
		</g>
	</g>
	<g>
		<g>
			<path class="st3" d="M67.2,109.2c0.3,0,0.7-0.1,1.1,0.1c0.3,0.2,0.4,0.6,0.4,0.9c0,0.1,0.1,0.1,0.2,0.1s0.1-0.1,0.1-0.2
				c-0.1-0.4-0.2-0.9-0.6-1.1s-0.8-0.2-1.3-0.2c-0.1,0-0.2,0.1-0.2,0.2C67.1,109.1,67.1,109.2,67.2,109.2L67.2,109.2z"/>
		</g>
	</g>
	<g>
		<g>
			<g>
				<path class="st14" d="M61,110.8c1-0.7,1.7-0.9,3-1c0.7,0,1.9,0,2.5-0.3c0.7-0.4,1.8-1.4,2.5-1.8c0.9-0.4,2,0,2.7,0.7
					c0.7,0.8,1.1,1.9,1.3,3c0.2,1.1,0.1,2.4-0.5,3.3c-0.4,0.7-1.1,1.1-1.8,1.3c-0.7,0.2-1.4,0.3-2.1,0.3c-0.3,0-0.7,0-1,0.1
					c-1.5,0.1-3,0.2-4.5,0.3c-0.6,0.1-1.1,0.1-1.7,0.4c-0.4,0.2-0.7,0.4-1.1,0.6c-2.5,1.3-6,0.8-6.8-1c-0.7-1.5-0.9-3.2-0.5-4.8
					c0.1-0.5,0.5-1.1,0.9-1c0.2,0,0.3,0.2,0.5,0.3c0.9,0.8,1.9,1.4,3.1,1.6c1.1,0.2,1.7,0,2.6-0.9C60.5,111.5,60.8,111.1,61,110.8"
					/>
				<g>
					<path class="st3" d="M61.3,111.2c1.4-0.9,2.8-0.8,4.4-1c1.4-0.2,2.2-1.2,3.3-1.9c2-1.2,3.2,1.7,3.5,3.2c0.3,2-0.4,3.8-2.6,4.2
						c-2,0.3-4.1,0.2-6.1,0.4c-0.8,0.1-1.6,0.1-2.4,0.4c-0.7,0.3-1.4,0.8-2.1,1c-1.4,0.5-3.1,0.5-4.4-0.2c-1.4-0.9-1.7-3.4-1.3-4.9
						c0.2-0.7,0.4-1,1-0.5c0.3,0.3,0.7,0.5,1,0.7c0.7,0.4,1.5,0.7,2.3,0.7c1.8,0.1,2.6-1.1,3.7-2.2c0.5-0.5-0.3-1.3-0.8-0.8
						c-0.7,0.7-1.3,1.8-2.4,1.9c-1.2,0.1-2.4-0.5-3.3-1.3c-0.5-0.4-1.1-1-1.8-0.5c-0.7,0.4-0.8,1.4-0.9,2.1c-0.2,1.7,0,4.2,1.5,5.3
						c1.2,1,2.9,1.2,4.4,1c0.8-0.1,1.6-0.4,2.3-0.7c0.5-0.3,1-0.6,1.6-0.7c0.7-0.2,1.5-0.2,2.2-0.3c1.2-0.1,2.4-0.2,3.5-0.2
						c1.1-0.1,2.2-0.1,3.3-0.5c1.8-0.7,2.5-2.4,2.4-4.2c-0.1-1.8-0.7-3.9-2.3-4.8c-2-1.2-3.2,0.3-4.8,1.4c-0.9,0.6-2,0.4-3,0.5
						c-1.1,0.1-2,0.4-2.9,1C60.2,110.7,60.7,111.6,61.3,111.2L61.3,111.2z"/>
				</g>
			</g>
		</g>
		<g>
			<g>
				<path class="st3" d="M64.4,110.4c0.1,0,0.3,0,0.4,0h-0.1c0.1,0,0.1,0,0.2,0c0,0-0.1,0-0.1-0.1c0,0,0.1,0,0.1,0.1l-0.1-0.1
					l0.1,0.1l-0.1-0.1c0,0.1,0.1,0.1,0.1,0.2c0,0,0-0.1-0.1-0.1c0.1,0.2,0.1,0.4,0.2,0.6v-0.1c0,0.2,0,0.4,0,0.5s0.1,0.3,0.2,0.4
					s0.2,0.2,0.4,0.2c0.1,0,0.3-0.1,0.4-0.2s0.1-0.2,0.2-0.4c0-0.5-0.1-1-0.3-1.5c-0.1-0.3-0.4-0.5-0.7-0.6c-0.2-0.1-0.5-0.1-0.7,0
					c-0.1,0-0.3,0-0.4,0.2c-0.1,0.1-0.2,0.2-0.2,0.4c0,0.1,0.1,0.3,0.2,0.4C64.1,110.3,64.3,110.4,64.4,110.4L64.4,110.4z"/>
			</g>
		</g>
		<g>
			<g>
				<path class="st3" d="M66.4,110.2c0.1,0,0.1,0,0.2,0C66.6,110.1,66.5,110.2,66.4,110.2c0.1,0,0.2,0,0.3,0h-0.1
					c0.1,0,0.2,0,0.2,0.1c0,0-0.1,0-0.1-0.1c0.1,0,0.1,0.1,0.2,0.1l-0.1-0.1l0.1,0.1l-0.1-0.1c0,0.1,0.1,0.1,0.1,0.2
					c0,0,0-0.1-0.1-0.1c0,0.1,0.1,0.1,0.1,0.2v-0.1c0,0.1,0,0.1,0,0.2v-0.1c0,0.1,0,0.1,0,0.2s0,0.3,0.1,0.4s0.2,0.2,0.3,0.2
					c0.1,0,0.3,0,0.4-0.1s0.2-0.2,0.2-0.3c0.2-0.5,0-1-0.3-1.4c-0.2-0.2-0.4-0.3-0.6-0.3c-0.2-0.1-0.5-0.1-0.7,0
					c-0.1,0-0.1,0-0.2,0.1c-0.1,0-0.1,0.1-0.1,0.2c-0.1,0.1-0.1,0.3-0.1,0.4s0.1,0.3,0.2,0.3C66.1,110.2,66.3,110.2,66.4,110.2
					L66.4,110.2z"/>
			</g>
		</g>
		<g>
			<g>
				<path class="st3" d="M61.4,110c0.1,0,0.1,0.1,0.2,0.1c0,0,0.1,0.1,0,0.1v-0.1c0-0.1,0-0.2-0.1-0.3c0,0,0-0.1,0,0s0,0,0-0.1v-0.1
					v-0.1c0,0,0,0,0-0.1s0,0,0,0s0,0,0-0.1c0,0,0-0.1,0,0s0-0.1,0-0.1s0.1-0.1,0,0l0.1-0.1c0.1-0.1,0.1-0.1,0.2-0.2c0,0,0.1-0.1,0,0
					l0,0l0.1-0.1c0,0,0.1,0,0.1-0.1c0,0,0.1,0,0,0s0,0,0,0h0.1c0,0-0.1,0,0,0h0.1c0.1,0-0.1,0,0,0h0.1c0,0-0.1,0,0,0s0,0,0,0
					c0.1,0.1,0-0.1,0,0c0,0,0.1,0.1,0.1,0.2c0-0.1,0,0,0,0v0.1c0,0.1,0,0.1,0,0.2c0,0,0,0,0,0.1c0,0,0-0.1,0,0s0,0.2,0,0.3
					c0,0.1,0,0.1,0,0.2s0,0,0,0v0.1c0,0.1-0.1,0.2-0.1,0.3c0,0.1,0,0,0,0v0.1l-0.1,0.1c0,0,0,0.1,0,0s0,0,0,0l-0.1,0.1
					c0,0-0.1,0,0,0s0,0,0,0s0,0-0.1,0s0.1,0,0,0c-0.3,0.1-0.5,0.4-0.4,0.7c0.1,0.3,0.4,0.5,0.7,0.4c1.3-0.5,1.5-2.1,1-3.2
					c-0.1-0.3-0.4-0.6-0.7-0.7c-0.4-0.1-0.7,0-1,0.1c-0.5,0.2-1,0.8-1.2,1.3c-0.1,0.4,0,0.8,0,1.1c0.1,0.4,0.2,0.8,0.6,1
					c0.3,0.1,0.6-0.1,0.7-0.4C61.9,110.3,61.7,110,61.4,110L61.4,110z"/>
			</g>
		</g>
		<g>
			<g>
				<path class="st3" d="M61,111.4c0,0.3,0.2,0.6,0.4,0.9c0.2,0.2,0.4,0.4,0.6,0.5c0.5,0.3,1.1,0.5,1.6,0.3c0.6-0.2,1.1-0.6,1.1-1.3
					c0-0.6-0.5-1.1-1-1.3c-0.3-0.1-0.6-0.1-0.9-0.1c-0.3,0-0.7,0-0.9,0.2s-0.4,0.5-0.2,0.7s0.5,0.4,0.7,0.2c0,0,0,0,0.1,0l0,0h0.1
					c0,0-0.1,0,0,0c0,0,0,0,0.1,0h0.1c0.1,0,0.2,0,0.3,0c0,0,0.1,0,0.2,0c0,0-0.1,0,0,0h0.1c0.1,0,0.2,0,0.2,0.1c0.1,0,0,0,0,0
					s0,0,0.1,0l0.1,0.1c0,0-0.1-0.1,0,0l0,0l0,0l0,0c0,0,0,0.1,0.1,0.1l0,0c0,0.1,0-0.1,0,0v0.1c0,0.1,0-0.1,0-0.1s0,0,0,0.1
					c0,0,0,0,0,0.1v-0.1l0,0c0,0,0-0.1,0,0s0,0,0,0l0,0c0,0.1,0,0,0,0s0,0-0.1,0c0,0-0.1,0-0.1,0.1c0,0,0,0-0.1,0c0,0,0.1,0,0,0
					s-0.2,0.1-0.3,0.1c0.1,0,0,0,0,0s0,0-0.1,0c0,0-0.1,0,0,0s-0.1,0-0.1,0H63c0,0,0,0-0.1,0c0,0,0.1,0,0,0c0,0-0.1,0-0.1-0.1
					l-0.1-0.1c0,0,0,0-0.1,0c0,0.1,0,0,0,0c-0.1-0.1-0.1-0.1-0.2-0.2c-0.1-0.1-0.1-0.1-0.2-0.2l0,0v-0.1c0,0,0,0.1,0,0s0,0.1,0,0
					c0-0.3-0.3-0.6-0.5-0.5C61.3,110.9,61,111.1,61,111.4L61,111.4z"/>
			</g>
		</g>
		<g>
			<g>
				<path class="st3" d="M62.1,111.7c0.6-0.2,1.3-0.5,1.9-0.5c0.3,0,0.5,0,0.7,0.1c0.3,0.1,0.5,0.3,0.7,0.6c0.2,0.2,0.6,0.2,0.8,0
					c0.2-0.2,0.2-0.6,0-0.8c-0.3-0.3-0.6-0.5-0.9-0.7c-0.4-0.2-0.8-0.3-1.2-0.3c-0.8,0-1.5,0.3-2.3,0.6c-0.3,0.1-0.5,0.4-0.4,0.7
					C61.5,111.6,61.8,111.8,62.1,111.7L62.1,111.7z"/>
			</g>
		</g>
		<g>
			<g>
				<path class="st3" d="M62.8,110.8C62.8,110.7,62.8,110.8,62.8,110.8S62.8,110.7,62.8,110.8C62.8,110.6,62.8,110.7,62.8,110.8
					c0-0.1,0-0.2,0-0.2v-0.1c0,0,0-0.1,0,0s0,0,0-0.1v-0.1c0-0.1,0.1-0.1,0.1-0.2c0,0,0.1-0.1,0,0c0,0,0,0,0.1-0.1s0.2-0.2,0.3-0.3
					c0.4-0.4,0.8-0.8,1-1.4c0.1-0.3-0.1-0.6-0.4-0.7c-0.3-0.1-0.6,0.1-0.7,0.4v0.1l0,0l0,0c0,0-0.1,0.1-0.1,0.2c0,0,0,0.1-0.1,0.1
					c0,0-0.1,0.1,0,0c0-0.1,0,0,0,0s0,0-0.1,0.1c-0.2,0.2-0.4,0.4-0.6,0.6c-0.5,0.5-0.8,1.1-0.7,1.9c0.1,0.3,0.4,0.5,0.7,0.4
					C62.7,111.4,62.8,111.1,62.8,110.8L62.8,110.8z"/>
			</g>
		</g>
		<g>
			<g>
				<path class="st3" d="M67.8,109.3L67.8,109.3L67.8,109.3C67.8,109.3,67.8,109.3,67.8,109.3C67.9,109.4,67.8,109.3,67.8,109.3
					S67.8,109.4,67.8,109.3C67.8,109.4,67.8,109.3,67.8,109.3S67.8,109.4,67.8,109.3L67.8,109.3L67.8,109.3L67.8,109.3
					C67.8,109.3,67.8,109.4,67.8,109.3C67.8,109.4,67.8,109.3,67.8,109.3S67.8,109.3,67.8,109.3C67.8,109.4,67.8,109.4,67.8,109.3
					c0,0.1,0,0.1,0,0.2C67.8,109.5,67.8,109.5,67.8,109.3c0,0.2,0,0.3,0,0.4s0,0.3,0.1,0.4s0.2,0.2,0.3,0.2c0.1,0,0.3,0,0.4-0.1
					s0.2-0.2,0.2-0.3c0-0.2,0.1-0.4,0.1-0.6s0-0.4-0.2-0.6c-0.1-0.2-0.3-0.4-0.6-0.5c-0.2-0.1-0.4-0.1-0.7,0c-0.1,0-0.3,0.1-0.3,0.2
					c-0.1,0.1-0.1,0.3-0.1,0.4s0.1,0.3,0.2,0.3c0,0,0.1,0,0.1,0.1C67.6,109.4,67.7,109.4,67.8,109.3L67.8,109.3z"/>
			</g>
		</g>
	</g>
	<g>
		<g>
			<path class="st15" d="M75.7,73.9l-1,2.9c0,0,4.4,0.4,7.2,2.6l0.6-2.2l-2-0.9"/>
			<g>
				<path class="st3" d="M75.2,73.8c-0.3,1-0.6,2-1,2.9c-0.1,0.4,0.2,0.7,0.5,0.7c0.1,0,0.1,0,0.2,0c-0.1,0,0,0,0.1,0s0.2,0,0.3,0.1
					c0.6,0.1,1.2,0.2,1.8,0.4c1.6,0.4,3.2,1,4.6,2c0.3,0.2,0.7,0,0.8-0.3c0.2-0.7,0.4-1.5,0.6-2.2c0.1-0.2,0-0.5-0.2-0.6
					c-0.7-0.3-1.3-0.6-2-0.9c-0.3-0.1-0.6-0.1-0.7,0.2c-0.1,0.2-0.1,0.6,0.2,0.7c0.7,0.3,1.3,0.6,2,0.9c-0.1-0.2-0.2-0.4-0.2-0.6
					c-0.2,0.7-0.4,1.5-0.6,2.2c0.3-0.1,0.5-0.2,0.8-0.3c-2.1-1.6-4.9-2.4-7.5-2.7c0.2,0.2,0.3,0.5,0.5,0.7c0.3-1,0.6-2,1-2.9
					C76.5,73.4,75.4,73.1,75.2,73.8L75.2,73.8z"/>
			</g>
		</g>
		<g>
			<path class="st16" d="M75.3,69.8l0.6-2.2L71.7,66c0,0-1.3-0.4-1-1.1c0.4-0.7,1.5-0.8,2.5-0.7c1.1,0.1,9.1,2.8,9.1,2.8
				s1.1,0.5,0.4,1.4s-4.9-0.5-4.9-0.5l-1.2,2.5"/>
			<g>
				<path class="st3" d="M75.8,70c0.2-0.7,0.4-1.5,0.6-2.2c0.1-0.3-0.1-0.6-0.4-0.7c-1.3-0.5-2.6-1-3.9-1.5c-0.1,0-0.3-0.1-0.4-0.1
					s-0.3-0.1-0.4-0.2s-0.1,0.1,0-0.1s0.4-0.2,0.5-0.3c0.4-0.1,0.7-0.1,1.1-0.1c0.1,0,0.3,0,0.4,0c-0.2,0,0,0,0,0
					c0.3,0,0.5,0.1,0.8,0.2c1.8,0.5,3.7,1.1,5.5,1.7c0.7,0.2,1.4,0.5,2.1,0.7c0.2,0.1,0.3,0.1,0.5,0.2c0.1,0-0.2-0.1-0.1,0
					s0.3,0.1,0.3,0.3c0.2,0.8-2,0.3-2.3,0.2c-0.7-0.2-1.5-0.4-2.2-0.6c-0.2-0.1-0.5,0-0.6,0.2c-0.4,0.8-0.8,1.7-1.2,2.5
					c-0.3,0.6,0.6,1.2,0.9,0.5c0.4-0.8,0.8-1.7,1.2-2.5c-0.2,0.1-0.4,0.2-0.6,0.2c0.8,0.3,1.5,0.5,2.3,0.6c0.9,0.2,2.3,0.5,3.1-0.2
					c0.9-0.8,0.5-2-0.5-2.4c-0.5-0.2-1-0.3-1.5-0.5c-2.1-0.7-4.3-1.4-6.4-2c-1-0.3-1.9-0.4-2.9-0.2c-0.6,0.1-1.3,0.5-1.5,1.1
					s0.3,1.1,0.7,1.3c0.7,0.4,1.5,0.6,2.2,0.8c0.9,0.3,1.7,0.7,2.6,1c-0.1-0.2-0.3-0.4-0.4-0.7c-0.2,0.7-0.4,1.5-0.6,2.2
					C74.6,70.4,75.6,70.6,75.8,70L75.8,70z"/>
			</g>
		</g>
		<g>
			<path class="st17" d="M82,72.8l-10.3-4.6l-3.1,9.3l3.3,1.2c0,0,1.2-4.1,1.8-5.8l1.3,0.7c-0.3,0.4-0.6,0.8-0.9,1.2
				c-0.1,0.1-0.1,0.1-0.2,0.1c-0.2,0.1-0.6,0-0.7-0.2s0.1-0.6,0.2-0.8c0-0.1,0.3-1,0.3-1l7,3.5"/>
			<g>
				<path class="st3" d="M82.3,72.4c-3.4-1.5-6.9-3.1-10.3-4.6c-0.3-0.1-0.7,0-0.8,0.3c-1,3.1-2.1,6.2-3.1,9.3
					c-0.1,0.3,0.1,0.6,0.4,0.7c1.1,0.4,2.2,0.8,3.3,1.2c0.3,0.1,0.6-0.1,0.7-0.4c0.6-1.9,1.2-3.9,1.8-5.8c-0.3,0.1-0.5,0.2-0.8,0.3
					c0.4,0.2,0.9,0.5,1.3,0.7c-0.1-0.2-0.1-0.5-0.2-0.7c-0.2,0.4-0.6,0.7-0.8,1.1c0,0,0,0.1,0.1,0.1c0-0.1,0.1-0.2,0.1-0.3
					c0-0.1,0.1-0.2,0.1-0.3c0.1-0.3,0.3-0.7,0.3-1.1c-0.3,0.2-0.5,0.3-0.8,0.5c2.3,1.2,4.7,2.3,7,3.5c0.6,0.3,1.2-0.6,0.5-0.9
					c-2.3-1.2-4.7-2.3-7-3.5c-0.4-0.2-0.8,0-0.8,0.5c0-0.2,0,0,0,0.1s-0.1,0.2-0.1,0.3c-0.1,0.2-0.1,0.3-0.2,0.5
					c-0.2,0.5-0.4,1,0,1.4c1,1.1,2.1-0.5,2.6-1.3c0.2-0.2,0.1-0.6-0.2-0.7c-0.4-0.2-0.9-0.5-1.3-0.7c-0.3-0.2-0.7,0-0.8,0.3
					c-0.6,1.9-1.2,3.9-1.8,5.8c0.2-0.1,0.4-0.3,0.7-0.4c-1.1-0.4-2.2-0.8-3.3-1.2c0.1,0.2,0.3,0.4,0.4,0.7c1-3.1,2.1-6.2,3.1-9.3
					c-0.3,0.1-0.5,0.2-0.8,0.3c3.4,1.5,6.9,3.1,10.3,4.6C82.4,73.6,82.9,72.7,82.3,72.4L82.3,72.4z"/>
			</g>
		</g>
		<g>
			<path class="st18" d="M82,72.8c0,0-6.2-1.2-1.4,3.5C80.6,76.3,82.8,75.4,82,72.8z"/>
			<g>
				<path class="st3" d="M82.1,72.3c-0.7-0.1-1.3-0.2-2-0.1c-0.5,0-1,0.1-1.4,0.5s-0.5,1-0.3,1.5c0.1,0.4,0.4,0.8,0.6,1.1
					c0.4,0.5,0.8,1,1.3,1.5c0.1,0.1,0.4,0.2,0.5,0.1c1-0.4,1.8-1.4,1.9-2.5c0.1-0.5,0-1.1-0.2-1.6c-0.1-0.3-0.4-0.5-0.7-0.4
					c-0.3,0.1-0.5,0.4-0.4,0.7c0,0.1,0.1,0.2,0.1,0.3c0,0.1,0,0.1,0,0.2c0,0,0,0.2,0,0.1c0,0.2,0,0.4,0,0.6v0.1c0-0.1,0-0.1,0,0
					s0,0.2-0.1,0.2c0,0.1,0,0.2-0.1,0.2c0-0.1,0-0.1,0,0c0,0,0,0.1-0.1,0.1c0,0.1-0.1,0.1-0.1,0.2c0,0,0,0.1-0.1,0.1l0,0
					c0,0.1,0.1-0.1,0,0s-0.2,0.2-0.3,0.3l-0.1,0.1c0,0,0,0-0.1,0s0.1-0.1,0,0s-0.1,0.1-0.2,0.2c-0.1,0-0.1,0.1-0.2,0.1
					c-0.1,0.1-0.1,0,0,0c0.2,0,0.4,0.1,0.5,0.1c-0.4-0.4-0.8-0.8-1.1-1.2c0,0,0,0-0.1-0.1c0,0,0.1,0.1,0,0l-0.1-0.1
					c-0.1-0.1-0.1-0.2-0.2-0.2c-0.1-0.1-0.2-0.3-0.2-0.4c-0.1-0.1,0,0.1,0,0v-0.1c0-0.1,0-0.1,0-0.2c0-0.2,0,0.1,0,0v-0.1
					c0-0.1,0,0.1,0,0.1s0,0,0-0.1c0,0,0,0,0-0.1s-0.1,0.1,0,0.1c0,0,0-0.1,0.1-0.1c-0.1,0.1-0.1,0.1,0,0s-0.1,0.1,0,0
					c0,0,0.1,0,0.1-0.1c0,0,0,0,0.1,0s0,0-0.1,0h0.1c0.1,0,0.2-0.1,0.3-0.1c0,0,0,0,0.1,0s0,0,0,0c0.1,0,0.1,0,0.2,0
					c0.4,0,0.8,0,1.2,0c0.1,0,0.2,0,0.3,0c0.1,0-0.2,0,0,0h0.1c0.1,0,0.1,0,0.2,0c0.3,0.1,0.6-0.1,0.7-0.4
					C82.6,72.7,82.4,72.4,82.1,72.3z"/>
			</g>
		</g>
		<g>
			<g>
				<path class="st3" d="M76.3,65.4c0.1,0.1,0.1,0.3,0.1,0.4s-0.1,0.3-0.1,0.4c-0.1,0.3-0.3,0.5-0.6,0.6c-0.1,0.1,0,0.2,0.2,0.2
					c0.3-0.2,0.5-0.5,0.6-0.8c0.1-0.2,0.1-0.3,0.1-0.5s0-0.4-0.1-0.5C76.3,65.1,76.2,65.3,76.3,65.4L76.3,65.4z"/>
			</g>
		</g>
		<g>
			<g>
				<path class="st3" d="M77.9,65.9C78,66,78,66.1,78,66.3c0,0.1,0,0.3,0,0.4s-0.1,0.3-0.2,0.4s-0.2,0.2-0.3,0.3
					c-0.1,0.1,0,0.3,0.1,0.2c0.1-0.1,0.3-0.2,0.4-0.4c0.1-0.1,0.2-0.3,0.2-0.5s0-0.4,0-0.5c0-0.2,0-0.3-0.2-0.5
					C78,65.6,77.8,65.8,77.9,65.9L77.9,65.9z"/>
			</g>
		</g>
		<g>
			<g>
				<path class="st3" d="M76.5,66.3L76.5,66.3L76.5,66.3L76.5,66.3L76.5,66.3L76.5,66.3C76.6,66.3,76.6,66.3,76.5,66.3L76.5,66.3
					L76.5,66.3L76.5,66.3L76.5,66.3L76.5,66.3L76.5,66.3L76.5,66.3L76.5,66.3L76.5,66.3L76.5,66.3L76.5,66.3L76.5,66.3L76.5,66.3
					L76.5,66.3L76.5,66.3L76.5,66.3L76.5,66.3L76.5,66.3l0.2,0.1c0.1,0,0.1-0.1,0.1-0.1c0-0.3-0.4-0.4-0.6-0.3c0,0,0,0-0.1,0v0.1
					C76.3,66.3,76.4,66.3,76.5,66.3L76.5,66.3z"/>
			</g>
		</g>
		<g>
			<path class="st18" d="M82.4,67.3c-0.1,0-0.2,0.1-0.3,0.2c-0.2,0.3-0.3,0.6-0.2,0.9s0.4,0.6,0.7,0.5c0.3-0.1,0.4-0.4,0.4-0.7
				c0-0.2,0.1-0.5,0.1-0.7c0-0.1,0-0.2-0.1-0.3C82.8,67.1,82.6,67.1,82.4,67.3"/>
			<g>
				<path class="st3" d="M82.4,66.7c-0.2,0-0.4,0.1-0.5,0.2s-0.2,0.2-0.2,0.3c-0.1,0.2-0.2,0.4-0.3,0.7c-0.1,0.3-0.1,0.5,0,0.8
					s0.3,0.5,0.5,0.6s0.5,0.2,0.8,0.1s0.5-0.3,0.6-0.5s0.2-0.4,0.2-0.6s0.1-0.5,0.1-0.7s0-0.3,0-0.4c0-0.2-0.2-0.4-0.3-0.5
					C82.9,66.6,82.6,66.6,82.4,66.7c-0.3,0-0.5,0.3-0.4,0.6c0.1,0.3,0.4,0.5,0.7,0.4h0.1h-0.1c0.1,0,0.1,0,0.2,0h-0.1h0.1
					c0,0-0.1,0-0.1-0.1c0,0,0,0,0.1,0l-0.1-0.1l0,0l-0.1-0.1c0,0,0,0,0,0.1c0,0,0-0.1-0.1-0.1v0.1v-0.1c0,0.2,0,0.5,0,0.7V68
					c0,0.2,0,0.3-0.1,0.4c0,0,0-0.1,0.1-0.1c0,0.1-0.1,0.1-0.1,0.2l0.1-0.1l-0.1,0.1l0.1-0.1c0,0-0.1,0-0.1,0.1c0,0,0.1,0,0.1-0.1
					h-0.1h0.1h-0.1h0.1h-0.1c0,0,0.1,0,0.1,0.1c0,0-0.1,0-0.1-0.1l0.1,0.1l-0.1-0.1l0.1,0.1l-0.1-0.1c0,0,0,0.1,0.1,0.1
					c0-0.1,0-0.1,0-0.2v0.1c0-0.1,0-0.2,0-0.2v0.1c0-0.1,0.1-0.2,0.1-0.4c0,0,0,0.1-0.1,0.1c0.1-0.1,0.1-0.3,0.2-0.4l-0.1,0.1
					l0.1-0.1l-0.1,0.1c0,0,0,0,0.1,0c0,0-0.1,0-0.1,0.1l0,0h-0.1l0,0c0.1,0,0.3,0,0.4-0.2c0.1-0.1,0.2-0.2,0.2-0.4
					c0-0.1-0.1-0.3-0.2-0.4C82.6,66.8,82.5,66.7,82.4,66.7L82.4,66.7z"/>
			</g>
		</g>
	</g>
</g>
</svg>
