<?xml version="1.0" encoding="utf-8"?>
<!-- Generator: Adobe Illustrator 24.0.2, SVG Export Plug-In . SVG Version: 6.00 Build 0)  -->
<svg version="1.1" id="Layer_1" xmlns="http://www.w3.org/2000/svg" xmlns:xlink="http://www.w3.org/1999/xlink" x="0px" y="0px"
	 viewBox="0 0 100 140" style="enable-background:new 0 0 100 140;" xml:space="preserve">
<style type="text/css">
	.st0{fill:#FFFFFF;}
</style>
<path class="st0" d="M88,140H12c-6.6,0-12-5.4-12-12V12C0,5.4,5.4,0,12,0h76c6.6,0,12,5.4,12,12v116C100,134.6,94.6,140,88,140z"/>
<g>
	<path d="M12.1,27.5h10.5v4.8H6.9v-2.4c0-0.8,0.1-1.6,0.2-2.4c0.6-3.3,2.7-5.5,6.5-8.5c4.2-3.3,4.9-4.5,4.9-6.4
		c0-1.8-1.5-3.3-3.4-3.3s-3.4,1.5-3.4,3.3H6.9c0-4.5,3.7-8.2,8.2-8.2s8.2,3.7,8.2,8.2c0,4.6-2.8,7.2-6.7,10.3
		C13.8,25,12.6,26.2,12.1,27.5z"/>
</g>
<g>
	<path d="M87.9,112.5H77.5v-4.8h15.7v2.4c0,0.8-0.1,1.6-0.2,2.4c-0.6,3.3-2.7,5.5-6.5,8.5c-4.2,3.3-4.9,4.5-4.9,6.4
		c0,1.8,1.5,3.3,3.4,3.3s3.4-1.5,3.4-3.3h4.8c0,4.5-3.7,8.2-8.2,8.2s-8.2-3.7-8.2-8.2c0-4.6,2.8-7.2,6.7-10.3
		C86.2,115,87.4,113.8,87.9,112.5z"/>
</g>
<g>
	<path d="M42,41.3c4.6,0,7.3-0.7,7.3-6.2c-1.1,1.8-2.6,2.6-4.6,2.6c-2.4,0-3.9-1.5-3.9-3.9c0-3.7,3.5-7,9.2-12.2
		c5.7,5.2,9.2,8.5,9.2,12.2c0,2.4-1.5,3.9-3.9,3.9c-2,0-3.4-0.7-4.6-2.6c0,5.5,2.7,6.2,7.3,6.2l0.8,1.8H41.2L42,41.3z"/>
</g>
<g>
	<path d="M58,98.7c-4.6,0-7.3,0.7-7.3,6.2c1.1-1.8,2.6-2.6,4.6-2.6c2.4,0,3.9,1.5,3.9,3.9c0,3.7-3.5,7-9.2,12.2
		c-5.7-5.2-9.2-8.5-9.2-12.2c0-2.4,1.5-3.9,3.9-3.9c2,0,3.4,0.7,4.6,2.6c0-5.5-2.7-6.2-7.3-6.2l-0.8-1.8h17.6L58,98.7z"/>
</g>
<g>
	<path d="M9.2,52.5c3.5,0,5.5-0.5,5.5-4.6c-0.8,1.4-1.9,1.9-3.4,1.9c-1.8,0-2.9-1.1-2.9-2.9c0-2.8,2.6-5.2,6.9-9.1
		c4.3,3.9,6.9,6.4,6.9,9.1c0,1.8-1.1,2.9-2.9,2.9c-1.5,0-2.6-0.5-3.4-1.9c0,4.1,2,4.6,5.5,4.6l0.6,1.4H8.6L9.2,52.5z"/>
</g>
<g>
	<path d="M90.8,87.5c-3.5,0-5.5,0.5-5.5,4.6c0.8-1.4,1.9-1.9,3.4-1.9c1.8,0,2.9,1.1,2.9,2.9c0,2.8-2.6,5.2-6.9,9.1
		c-4.3-3.9-6.9-6.4-6.9-9.1c0-1.8,1.1-2.9,2.9-2.9c1.5,0,2.6,0.5,3.4,1.9c0-4.1-2-4.6-5.5-4.6l-0.6-1.4h13.2L90.8,87.5z"/>
</g>
</svg>
