<?xml version="1.0" encoding="utf-8"?>
<!-- Generator: Adobe Illustrator 24.0.2, SVG Export Plug-In . SVG Version: 6.00 Build 0)  -->
<svg version="1.1" id="Layer_1" xmlns="http://www.w3.org/2000/svg" xmlns:xlink="http://www.w3.org/1999/xlink" x="0px" y="0px"
	 viewBox="0 0 100 140" style="enable-background:new 0 0 100 140;" xml:space="preserve">
<style type="text/css">
	.st0{fill:#FFFFFF;}
</style>
<path class="st0" d="M88,140H12c-6.6,0-12-5.4-12-12V12C0,5.4,5.4,0,12,0h76c6.6,0,12,5.4,12,12v116C100,134.6,94.6,140,88,140z"/>
<g>
	<path d="M9.1,52.6c3.5,0,5.5-0.5,5.5-4.6c-0.8,1.4-1.8,2-3.2,2c-2,0-3.4-1.4-3.4-3.4c0-2,1.3-3.2,3.2-3.2c0.9,0,1.2,0.1,2,0.4
		c-0.8-0.7-1.6-1.5-1.6-3c0-1.9,1.4-3.2,3.6-3.2c2.2,0,3.6,1.3,3.6,3.2c0,1.5-0.8,2.3-1.6,3c0.8-0.3,1.1-0.4,2-0.4
		c1.9,0,3.2,1.3,3.2,3.2c0,2-1.5,3.4-3.4,3.4c-1.4,0-2.4-0.6-3.2-2c0,4.1,2,4.6,5.5,4.6l0.6,1.4H8.5L9.1,52.6z"/>
</g>
<g>
	<path d="M30.7,41.5c4.6,0,7.3-0.7,7.3-6.2c-1.1,1.8-2.4,2.6-4.3,2.6c-2.6,0-4.6-1.8-4.6-4.6c0-2.6,1.8-4.3,4.3-4.3
		c1.2,0,1.6,0.1,2.7,0.6c-1.1-0.9-2.2-2-2.2-4c0-2.6,1.9-4.2,4.8-4.2s4.8,1.7,4.8,4.2c0,2-1.1,3.1-2.2,4c1-0.4,1.5-0.6,2.7-0.6
		c2.5,0,4.3,1.7,4.3,4.3c0,2.7-2,4.6-4.6,4.6c-1.9,0-3.2-0.8-4.3-2.6c0,5.5,2.7,6.2,7.3,6.2l0.8,1.8H29.9L30.7,41.5z"/>
</g>
<g>
	<path d="M53.3,79.1c4.6,0,7.3-0.7,7.3-6.2c-1.1,1.8-2.4,2.6-4.3,2.6c-2.6,0-4.6-1.8-4.6-4.6c0-2.6,1.8-4.3,4.3-4.3
		c1.2,0,1.6,0.1,2.7,0.6c-1.1-0.9-2.2-2-2.2-4c0-2.6,1.9-4.2,4.8-4.2c2.9,0,4.8,1.7,4.8,4.2c0,2-1.1,3.1-2.2,4
		c1-0.4,1.5-0.6,2.7-0.6c2.5,0,4.3,1.7,4.3,4.3c0,2.7-2,4.6-4.6,4.6c-1.9,0-3.2-0.8-4.3-2.6c0,5.5,2.7,6.2,7.3,6.2l0.8,1.8H52.5
		L53.3,79.1z"/>
</g>
<g>
	<path d="M30.7,79.1c4.6,0,7.3-0.7,7.3-6.2c-1.1,1.8-2.4,2.6-4.3,2.6c-2.6,0-4.6-1.8-4.6-4.6c0-2.6,1.8-4.3,4.3-4.3
		c1.2,0,1.6,0.1,2.7,0.6c-1.1-0.9-2.2-2-2.2-4c0-2.6,1.9-4.2,4.8-4.2s4.8,1.7,4.8,4.2c0,2-1.1,3.1-2.2,4c1-0.4,1.5-0.6,2.7-0.6
		c2.5,0,4.3,1.7,4.3,4.3c0,2.7-2,4.6-4.6,4.6c-1.9,0-3.2-0.8-4.3-2.6c0,5.5,2.7,6.2,7.3,6.2l0.8,1.8H29.9L30.7,79.1z"/>
</g>
<g>
	<path d="M53.3,41.5c4.6,0,7.3-0.7,7.3-6.2c-1.1,1.8-2.4,2.6-4.3,2.6c-2.6,0-4.6-1.8-4.6-4.6c0-2.6,1.8-4.3,4.3-4.3
		c1.2,0,1.6,0.1,2.7,0.6c-1.1-0.9-2.2-2-2.2-4c0-2.6,1.9-4.2,4.8-4.2c2.9,0,4.8,1.7,4.8,4.2c0,2-1.1,3.1-2.2,4
		c1-0.4,1.5-0.6,2.7-0.6c2.5,0,4.3,1.7,4.3,4.3c0,2.7-2,4.6-4.6,4.6c-1.9,0-3.2-0.8-4.3-2.6c0,5.5,2.7,6.2,7.3,6.2l0.8,1.8H52.5
		L53.3,41.5z"/>
</g>
<g>
	<g>
		<path d="M69.3,98.5c-4.6,0-7.3,0.7-7.3,6.2c1.1-1.8,2.4-2.6,4.3-2.6c2.6,0,4.6,1.8,4.6,4.6c0,2.6-1.8,4.3-4.3,4.3
			c-1.2,0-1.6-0.1-2.7-0.6c1.1,0.9,2.2,2,2.2,4c0,2.6-1.9,4.2-4.8,4.2c-2.9,0-4.8-1.7-4.8-4.2c0-2,1.1-3.1,2.2-4
			c-1,0.4-1.5,0.6-2.7,0.6c-2.5,0-4.3-1.7-4.3-4.3c0-2.7,2-4.6,4.6-4.6c1.9,0,3.2,0.8,4.3,2.6c0-5.5-2.7-6.2-7.3-6.2l-0.8-1.8h17.6
			L69.3,98.5z"/>
	</g>
	<g>
		<path d="M46.7,98.5c-4.6,0-7.3,0.7-7.3,6.2c1.1-1.8,2.4-2.6,4.3-2.6c2.6,0,4.6,1.8,4.6,4.6c0,2.6-1.8,4.3-4.3,4.3
			c-1.2,0-1.6-0.1-2.7-0.6c1.1,0.9,2.2,2,2.2,4c0,2.6-1.9,4.2-4.8,4.2s-4.8-1.7-4.8-4.2c0-2,1.1-3.1,2.2-4c-1,0.4-1.5,0.6-2.7,0.6
			c-2.5,0-4.3-1.7-4.3-4.3c0-2.7,2-4.6,4.6-4.6c1.9,0,3.2,0.8,4.3,2.6c0-5.5-2.7-6.2-7.3-6.2l-0.8-1.8h17.6L46.7,98.5z"/>
	</g>
</g>
<g>
	<path d="M90.9,87.4c-3.5,0-5.5,0.5-5.5,4.6c0.8-1.4,1.8-2,3.2-2c2,0,3.4,1.4,3.4,3.4c0,2-1.3,3.2-3.2,3.2c-0.9,0-1.2-0.1-2-0.4
		c0.8,0.7,1.6,1.5,1.6,3c0,1.9-1.4,3.2-3.6,3.2c-2.2,0-3.6-1.3-3.6-3.2c0-1.5,0.8-2.3,1.6-3c-0.8,0.3-1.1,0.4-2,0.4
		c-1.9,0-3.2-1.3-3.2-3.2c0-2,1.5-3.4,3.4-3.4c1.4,0,2.4,0.6,3.2,2c0-4.1-2-4.6-5.5-4.6l-0.6-1.4h13.2L90.9,87.4z"/>
</g>
<g>
	<path d="M15.7,15.8c4.5,0,8.2,3.7,8.2,8.2c0,4.5-3.6,8.2-8.2,8.2c-4.5,0-8.2-3.6-8.2-8.1h0V12.4c0-2.9,1.5-5.6,4.1-7.1
		c2.5-1.5,5.6-1.5,8.2,0s4.1,4.2,4.1,7.1h-4.8c0-1.8-1.5-3.3-3.3-3.3c-1.8,0-3.3,1.5-3.3,3.3v4.1C13.3,16.1,14.5,15.8,15.7,15.8
		L15.7,15.8z M15.7,27.4c1.9,0,3.4-1.5,3.4-3.4c0-1.9-1.5-3.4-3.4-3.4c-1.9,0-3.4,1.5-3.4,3.4C12.3,25.9,13.8,27.4,15.7,27.4
		L15.7,27.4z"/>
</g>
<g>
	<path d="M84.9,124.1c-4.5,0-8.2-3.7-8.2-8.2c0-4.5,3.6-8.2,8.2-8.2c4.5,0,8.2,3.6,8.2,8.1h0v11.7c0,2.9-1.5,5.6-4.1,7.1
		c-2.5,1.5-5.6,1.5-8.2,0s-4.1-4.2-4.1-7.1h4.8c0,1.8,1.5,3.3,3.3,3.3c1.8,0,3.3-1.5,3.3-3.3v-4.1C87.2,123.8,86.1,124.1,84.9,124.1
		L84.9,124.1z M84.9,112.5c-1.9,0-3.4,1.5-3.4,3.4c0,1.9,1.5,3.4,3.4,3.4c1.9,0,3.4-1.5,3.4-3.4C88.3,114,86.8,112.5,84.9,112.5
		L84.9,112.5z"/>
</g>
</svg>
