<?xml version="1.0" encoding="utf-8"?>
<!-- Generator: Adobe Illustrator 24.0.2, SVG Export Plug-In . SVG Version: 6.00 Build 0)  -->
<svg version="1.1" id="Layer_1" xmlns="http://www.w3.org/2000/svg" xmlns:xlink="http://www.w3.org/1999/xlink" x="0px" y="0px"
	 viewBox="0 0 100 140" style="enable-background:new 0 0 100 140;" xml:space="preserve">
<style type="text/css">
	.st0{fill:#FFFFFF;}
	.st1{fill:#FF0000;}
</style>
<path class="st0" d="M88,140H12c-6.6,0-12-5.4-12-12V12C0,5.4,5.4,0,12,0h76c6.6,0,12,5.4,12,12v116C100,134.6,94.6,140,88,140z"/>
<g>
	<path class="st1" d="M12.1,27.5h10.5v4.8H6.9v-2.4c0-0.8,0.1-1.6,0.2-2.4c0.6-3.3,2.7-5.5,6.5-8.5c4.2-3.3,4.9-4.5,4.9-6.4
		c0-1.8-1.5-3.3-3.4-3.3s-3.4,1.5-3.4,3.3H6.9c0-4.5,3.7-8.2,8.2-8.2s8.2,3.7,8.2,8.2c0,4.6-2.8,7.2-6.7,10.3
		C13.8,25,12.6,26.2,12.1,27.5z"/>
</g>
<g>
	<path class="st1" d="M87.9,112.5H77.5v-4.8h15.7v2.4c0,0.8-0.1,1.6-0.2,2.4c-0.6,3.3-2.7,5.5-6.5,8.5c-4.2,3.3-4.9,4.5-4.9,6.4
		c0,1.8,1.5,3.3,3.4,3.3s3.4-1.5,3.4-3.3h4.8c0,4.5-3.7,8.2-8.2,8.2s-8.2-3.7-8.2-8.2c0-4.6,2.8-7.2,6.7-10.3
		C86.2,115,87.4,113.8,87.9,112.5z"/>
</g>
<g>
	<path class="st1" d="M23,42.4c0,3.5-3,6.1-7.8,10.5c-4.8-4.4-7.8-7-7.8-10.5c0-2.3,1.6-3.7,3.8-3.7c2.1,0,3.1,1.1,4,2.8
		c0.9-1.7,1.9-2.8,4-2.8C21.4,38.7,23,40.1,23,42.4z"/>
</g>
<g>
	<path class="st1" d="M77,97.6c0-3.5,3-6.1,7.8-10.5c4.8,4.4,7.8,7,7.8,10.5c0,2.3-1.6,3.7-3.8,3.7c-2.1,0-3.1-1.1-4-2.8
		c-0.9,1.7-1.9,2.8-4,2.8C78.6,101.3,77,99.9,77,97.6z"/>
</g>
<g>
	<path class="st1" d="M39.6,112.2c0-4.7,4-8.2,10.4-14c6.4,5.8,10.4,9.3,10.4,14c0,3.1-2.1,5-5,5c-2.8,0-4.2-1.4-5.4-3.7
		c-1.2,2.2-2.6,3.7-5.4,3.7C41.7,117.1,39.6,115.3,39.6,112.2z"/>
</g>
<g>
	<path class="st1" d="M60.4,27.8c0,4.7-4,8.2-10.4,14c-6.4-5.8-10.4-9.3-10.4-14c0-3.1,2.1-5,5-5c2.8,0,4.2,1.4,5.4,3.7
		c1.2-2.2,2.6-3.7,5.4-3.7C58.3,22.8,60.4,24.7,60.4,27.8z"/>
</g>
</svg>
